<?xml version="1.0" encoding="UTF-8"?>
<svg xmlns="http://www.w3.org/2000/svg" xmlns:xlink="http://www.w3.org/1999/xlink" width="145pt" height="174pt" viewBox="0 0 145 174" version="1.1">
<g id="surface1">
<path style="fill-rule:nonzero;fill:rgb(69.803922%,85.098039%,100%);fill-opacity:1;stroke-width:1;stroke-linecap:round;stroke-linejoin:round;stroke:rgb(0%,0%,0%);stroke-opacity:1;stroke-miterlimit:10;" d="M 152.765625 207.734375 C 157.746875 212.715625 157.746875 220.784375 152.765625 225.765625 C 147.784375 230.746875 139.715625 230.746875 134.734375 225.765625 C 129.753125 220.784375 129.753125 212.715625 134.734375 207.734375 C 139.715625 202.753125 147.784375 202.753125 152.765625 207.734375 " transform="matrix(1.25,0,0,1.25,-148.75,-223.75)"/>
<path style=" stroke:none;fill-rule:nonzero;fill:rgb(0%,0%,0%);fill-opacity:1;" d="M 28.105469 50.753906 L 30.644531 47.785156 L 29.199219 44.914062 L 30.292969 44.914062 L 30.78125 45.949219 C 30.960938 46.339844 31.125 46.71875 31.269531 47.082031 L 32.96875 44.914062 L 34.179688 44.914062 L 31.71875 47.863281 L 33.203125 50.753906 L 32.089844 50.753906 L 31.523438 49.5625 C 31.390625 49.316406 31.25 49.003906 31.09375 48.625 L 29.355469 50.753906 Z M 28.105469 50.753906 "/>
<path style="fill-rule:nonzero;fill:rgb(69.803922%,85.098039%,100%);fill-opacity:1;stroke-width:1;stroke-linecap:round;stroke-linejoin:round;stroke:rgb(0%,0%,0%);stroke-opacity:1;stroke-miterlimit:10;" d="M 217.765625 207.734375 C 222.746875 212.715625 222.746875 220.784375 217.765625 225.765625 C 212.784375 230.746875 204.715625 230.746875 199.734375 225.765625 C 194.753125 220.784375 194.753125 212.715625 199.734375 207.734375 C 204.715625 202.753125 212.784375 202.753125 217.765625 207.734375 " transform="matrix(1.25,0,0,1.25,-148.75,-223.75)"/>
<path style=" stroke:none;fill-rule:nonzero;fill:rgb(0%,0%,0%);fill-opacity:1;" d="M 109.375 53 L 109.433594 52.082031 C 109.640625 52.128906 109.84375 52.160156 110.039062 52.160156 C 110.234375 52.160156 110.394531 52.109375 110.527344 52.023438 C 110.683594 51.90625 110.859375 51.675781 111.054688 51.339844 L 111.367188 50.773438 L 110.390625 44.914062 L 111.367188 44.914062 L 111.816406 47.863281 C 111.90625 48.449219 111.976562 49.035156 112.03125 49.621094 L 114.648438 44.914062 L 115.683594 44.914062 L 111.972656 51.535156 C 111.605469 52.167969 111.28125 52.59375 110.996094 52.804688 C 110.722656 53.007812 110.410156 53.117188 110.058594 53.117188 C 109.824219 53.117188 109.59375 53.078125 109.375 53 Z M 109.375 53 "/>
<path style="fill:none;stroke-width:1;stroke-linecap:round;stroke-linejoin:round;stroke:rgb(0%,0%,0%);stroke-opacity:1;stroke-miterlimit:10;" d="M 185.265625 251.734375 C 190.246875 256.715625 190.246875 264.784375 185.265625 269.765625 C 180.284375 274.746875 172.215625 274.746875 167.234375 269.765625 C 162.253125 264.784375 162.253125 256.715625 167.234375 251.734375 C 172.215625 246.753125 180.284375 246.753125 185.265625 251.734375 " transform="matrix(1.25,0,0,1.25,-148.75,-223.75)"/>
<path style=" stroke:none;fill-rule:nonzero;fill:rgb(0%,0%,0%);fill-opacity:1;" d="M 67.710938 107.980469 L 67.710938 107.277344 L 74.273438 107.277344 L 74.273438 107.980469 Z M 67.710938 107.980469 "/>
<path style="fill-rule:nonzero;fill:rgb(41.568627%,75.294118%,98.823529%);fill-opacity:1;stroke-width:1;stroke-linecap:round;stroke-linejoin:round;stroke:rgb(0%,0%,0%);stroke-opacity:1;stroke-miterlimit:10;" d="M 185.265625 295.734375 C 190.246875 300.715625 190.246875 308.784375 185.265625 313.765625 C 180.284375 318.746875 172.215625 318.746875 167.234375 313.765625 C 162.253125 308.784375 162.253125 300.715625 167.234375 295.734375 C 172.215625 290.753125 180.284375 290.753125 185.265625 295.734375 " transform="matrix(1.25,0,0,1.25,-148.75,-223.75)"/>
<path style=" stroke:none;fill-rule:nonzero;fill:rgb(0%,0%,0%);fill-opacity:1;" d="M 68.964844 160.753906 L 69.121094 159.992188 L 72.265625 156.457031 C 72.484375 156.210938 72.734375 155.949219 73.007812 155.675781 C 72.539062 155.730469 72.195312 155.753906 71.992188 155.753906 L 69.824219 155.753906 L 70 154.914062 L 74.511719 154.914062 L 74.375 155.539062 L 71.210938 159.09375 C 71.039062 159.304688 70.773438 159.582031 70.410156 159.933594 C 70.96875 159.894531 71.347656 159.875 71.542969 159.875 L 73.847656 159.875 L 73.671875 160.753906 Z M 68.964844 160.753906 "/>
<path style="fill:none;stroke-width:1;stroke-linecap:round;stroke-linejoin:miter;stroke:rgb(0%,0%,0%);stroke-opacity:1;stroke-miterlimit:10;" d="M 151.434375 226.925 L 160.715625 239.215625 L 165.390625 245.5875 " transform="matrix(1.25,0,0,1.25,-148.75,-223.75)"/>
<path style="fill-rule:nonzero;fill:rgb(0%,0%,0%);fill-opacity:1;stroke-width:1;stroke-linecap:butt;stroke-linejoin:miter;stroke:rgb(0%,0%,0%);stroke-opacity:1;stroke-miterlimit:10;" d="M 167.73125 248.83125 L 166.60625 244.70625 L 164.171875 246.465625 Z M 167.73125 248.83125 " transform="matrix(1.25,0,0,1.25,-148.75,-223.75)"/>
<path style="fill:none;stroke-width:1;stroke-linecap:round;stroke-linejoin:miter;stroke:rgb(0%,0%,0%);stroke-opacity:1;stroke-miterlimit:10;" d="M 201.171875 227.00625 L 187.33125 245.746875 " transform="matrix(1.25,0,0,1.25,-148.75,-223.75)"/>
<path style="fill-rule:nonzero;fill:rgb(0%,0%,0%);fill-opacity:1;stroke-width:1;stroke-linecap:butt;stroke-linejoin:miter;stroke:rgb(0%,0%,0%);stroke-opacity:1;stroke-miterlimit:10;" d="M 184.95625 248.965625 L 188.5375 246.6375 L 186.125 244.85625 Z M 184.95625 248.965625 " transform="matrix(1.25,0,0,1.25,-148.75,-223.75)"/>
<path style="fill:none;stroke-width:1;stroke-linecap:round;stroke-linejoin:miter;stroke:rgb(0%,0%,0%);stroke-opacity:1;stroke-miterlimit:10;" d="M 176.25 273.5 L 176.25 286.1 " transform="matrix(1.25,0,0,1.25,-148.75,-223.75)"/>
<path style="fill-rule:nonzero;fill:rgb(0%,0%,0%);fill-opacity:1;stroke-width:1;stroke-linecap:butt;stroke-linejoin:miter;stroke:rgb(0%,0%,0%);stroke-opacity:1;stroke-miterlimit:10;" d="M 176.25 290.1 L 177.75 286.1 L 174.75 286.1 Z M 176.25 290.1 " transform="matrix(1.25,0,0,1.25,-148.75,-223.75)"/>
<path style=" stroke:none;fill-rule:nonzero;fill:rgb(0%,0%,0%);fill-opacity:1;" d="M 12.578125 105.753906 L 14.707031 102.726562 L 12.734375 99.914062 L 13.984375 99.914062 L 14.882812 101.28125 C 15.039062 101.542969 15.164062 101.765625 15.273438 101.945312 C 15.4375 101.699219 15.589844 101.484375 15.722656 101.300781 L 16.699219 99.914062 L 17.890625 99.914062 L 15.878906 102.667969 L 18.046875 105.753906 L 16.835938 105.753906 L 15.625 103.9375 L 15.3125 103.449219 L 13.789062 105.753906 Z M 12.578125 105.753906 "/>
<path style=" stroke:none;fill-rule:nonzero;fill:rgb(0%,0%,0%);fill-opacity:1;" d="M 21.601562 99.171875 L 21.855469 98.390625 C 22.441406 98.601562 22.863281 98.78125 23.125 98.9375 C 23.058594 98.273438 23.019531 97.820312 23.007812 97.570312 L 23.808594 97.570312 C 23.792969 97.921875 23.753906 98.371094 23.691406 98.917969 C 24.066406 98.738281 24.496094 98.5625 24.980469 98.390625 L 25.234375 99.171875 C 24.765625 99.328125 24.308594 99.433594 23.867188 99.484375 C 24.085938 99.679688 24.398438 100.027344 24.804688 100.519531 L 24.160156 100.988281 C 23.9375 100.703125 23.683594 100.3125 23.398438 99.816406 C 23.125 100.324219 22.882812 100.714844 22.675781 100.988281 L 22.03125 100.519531 C 22.460938 100 22.765625 99.65625 22.949219 99.484375 C 22.480469 99.394531 22.03125 99.289062 21.601562 99.171875 Z M 21.601562 99.171875 "/>
<path style=" stroke:none;fill-rule:nonzero;fill:rgb(0%,0%,0%);fill-opacity:1;" d="M 29.457031 108 L 29.339844 107.082031 C 29.558594 107.128906 29.75 107.160156 29.90625 107.160156 C 30.125 107.160156 30.300781 107.121094 30.433594 107.042969 C 30.5625 106.972656 30.671875 106.875 30.765625 106.75 C 30.816406 106.640625 30.914062 106.398438 31.058594 106.007812 C 31.082031 105.953125 31.117188 105.875 31.15625 105.773438 L 28.929688 99.914062 L 30.003906 99.914062 L 31.214844 103.292969 C 31.371094 103.722656 31.511719 104.171875 31.644531 104.640625 C 31.746094 104.199219 31.878906 103.757812 32.035156 103.3125 L 33.285156 99.914062 L 34.28125 99.914062 L 32.054688 105.851562 C 31.820312 106.484375 31.636719 106.929688 31.507812 107.179688 C 31.324219 107.5 31.121094 107.734375 30.902344 107.882812 C 30.679688 108.039062 30.40625 108.117188 30.082031 108.117188 C 29.898438 108.117188 29.691406 108.078125 29.457031 108 Z M 29.457031 108 "/>
<path style=" stroke:none;fill-rule:nonzero;fill:rgb(0%,0%,0%);fill-opacity:1;" d="M 12.324219 162.980469 L 12.324219 162.277344 L 18.886719 162.277344 L 18.886719 162.980469 Z M 12.324219 162.980469 "/>
<path style=" stroke:none;fill-rule:nonzero;fill:rgb(0%,0%,0%);fill-opacity:1;" d="M 24.695312 159.445312 L 24.695312 157.238281 L 22.507812 157.238281 L 22.507812 156.320312 L 24.695312 156.320312 L 24.695312 154.132812 L 25.632812 154.132812 L 25.632812 156.320312 L 27.820312 156.320312 L 27.820312 157.238281 L 25.632812 157.238281 L 25.632812 159.445312 Z M 24.695312 159.445312 "/>
<path style=" stroke:none;fill-rule:nonzero;fill:rgb(0%,0%,0%);fill-opacity:1;" d="M 37.242188 159.796875 L 37.242188 160.753906 L 31.910156 160.753906 C 31.910156 160.519531 31.949219 160.292969 32.027344 160.070312 C 32.167969 159.707031 32.386719 159.347656 32.691406 158.996094 C 32.988281 158.644531 33.417969 158.242188 33.980469 157.785156 C 34.847656 157.058594 35.433594 156.484375 35.738281 156.066406 C 36.050781 155.652344 36.207031 155.253906 36.207031 154.875 C 36.207031 154.484375 36.058594 154.160156 35.777344 153.898438 C 35.503906 153.625 35.140625 153.488281 34.703125 153.488281 C 34.21875 153.488281 33.832031 153.632812 33.550781 153.917969 C 33.261719 154.207031 33.121094 154.601562 33.121094 155.109375 L 32.105469 154.992188 C 32.167969 154.238281 32.425781 153.664062 32.886719 153.273438 C 33.339844 152.871094 33.949219 152.667969 34.722656 152.667969 C 35.488281 152.667969 36.09375 152.882812 36.539062 153.3125 C 36.992188 153.742188 37.222656 154.269531 37.222656 154.894531 C 37.222656 155.222656 37.152344 155.539062 37.027344 155.851562 C 36.894531 156.164062 36.675781 156.496094 36.363281 156.847656 C 36.058594 157.1875 35.5625 157.65625 34.859375 158.253906 C 34.257812 158.75 33.871094 159.089844 33.707031 159.269531 C 33.535156 159.453125 33.398438 159.628906 33.296875 159.796875 Z M 37.242188 159.796875 "/>
<path style=" stroke:none;fill-rule:nonzero;fill:rgb(0%,0%,0%);fill-opacity:1;" d="M 6.628906 13.339844 C 6.628906 12.261719 6.925781 11.460938 7.527344 10.9375 C 8.035156 10.507812 8.644531 10.292969 9.363281 10.292969 C 10.167969 10.292969 10.828125 10.554688 11.335938 11.074219 C 11.84375 11.597656 12.097656 12.320312 12.097656 13.242188 C 12.097656 14 11.980469 14.589844 11.746094 15.019531 C 11.519531 15.449219 11.199219 15.789062 10.769531 16.035156 C 10.339844 16.269531 9.871094 16.386719 9.363281 16.386719 C 8.542969 16.386719 7.878906 16.128906 7.371094 15.605469 C 6.871094 15.074219 6.628906 14.316406 6.628906 13.339844 Z M 7.644531 13.339844 C 7.644531 14.082031 7.804688 14.644531 8.132812 15.019531 C 8.453125 15.386719 8.863281 15.566406 9.363281 15.566406 C 9.855469 15.566406 10.265625 15.386719 10.59375 15.019531 C 10.914062 14.644531 11.082031 14.070312 11.082031 13.300781 C 11.082031 12.585938 10.914062 12.039062 10.59375 11.660156 C 10.265625 11.285156 9.855469 11.09375 9.363281 11.09375 C 8.863281 11.09375 8.453125 11.285156 8.132812 11.660156 C 7.804688 12.027344 7.644531 12.585938 7.644531 13.339844 Z M 7.644531 13.339844 "/>
<path style=" stroke:none;fill-rule:nonzero;fill:rgb(0%,0%,0%);fill-opacity:1;" d="M 13.257812 16.25 L 13.257812 10.410156 L 14.15625 10.410156 L 14.15625 11.25 C 14.570312 10.617188 15.191406 10.292969 16.011719 10.292969 C 16.363281 10.292969 16.679688 10.359375 16.96875 10.488281 C 17.265625 10.605469 17.484375 10.773438 17.632812 10.976562 C 17.773438 11.171875 17.875 11.414062 17.945312 11.699219 C 17.984375 11.882812 18.003906 12.203125 18.003906 12.65625 L 18.003906 16.25 L 17.007812 16.25 L 17.007812 12.695312 C 17.007812 12.296875 16.96875 11.992188 16.890625 11.796875 C 16.8125 11.601562 16.675781 11.445312 16.480469 11.328125 C 16.285156 11.203125 16.054688 11.132812 15.796875 11.132812 C 15.375 11.132812 15.015625 11.269531 14.703125 11.542969 C 14.398438 11.804688 14.253906 12.3125 14.253906 13.066406 L 14.253906 16.25 Z M 13.257812 16.25 "/>
<path style=" stroke:none;fill-rule:nonzero;fill:rgb(0%,0%,0%);fill-opacity:1;" d="M 23.496094 14.375 L 24.53125 14.492188 C 24.363281 15.09375 24.054688 15.5625 23.613281 15.898438 C 23.183594 16.226562 22.628906 16.386719 21.953125 16.386719 C 21.105469 16.386719 20.429688 16.128906 19.921875 15.605469 C 19.425781 15.074219 19.179688 14.332031 19.179688 13.378906 C 19.179688 12.402344 19.433594 11.648438 19.941406 11.113281 C 20.449219 10.566406 21.105469 10.292969 21.914062 10.292969 C 22.695312 10.292969 23.328125 10.5625 23.808594 11.09375 C 24.304688 11.617188 24.550781 12.359375 24.550781 13.320312 C 24.550781 13.390625 24.550781 13.476562 24.550781 13.59375 L 20.195312 13.59375 C 20.234375 14.234375 20.417969 14.722656 20.742188 15.058594 C 21.066406 15.398438 21.476562 15.566406 21.972656 15.566406 C 22.335938 15.566406 22.644531 15.476562 22.890625 15.292969 C 23.152344 15.097656 23.351562 14.796875 23.496094 14.375 Z M 20.253906 12.773438 L 23.515625 12.773438 C 23.476562 12.28125 23.351562 11.910156 23.144531 11.660156 C 22.832031 11.285156 22.421875 11.09375 21.914062 11.09375 C 21.457031 11.09375 21.074219 11.25 20.761719 11.5625 C 20.460938 11.867188 20.292969 12.265625 20.253906 12.773438 Z M 20.253906 12.773438 "/>
<path style=" stroke:none;fill-rule:nonzero;fill:rgb(0%,0%,0%);fill-opacity:1;" d="M 25.378906 14.511719 L 26.355469 14.355469 C 26.40625 14.746094 26.558594 15.046875 26.804688 15.253906 C 27.066406 15.464844 27.417969 15.566406 27.859375 15.566406 C 28.316406 15.566406 28.652344 15.476562 28.875 15.292969 C 29.097656 15.113281 29.207031 14.898438 29.207031 14.648438 C 29.207031 14.414062 29.109375 14.238281 28.914062 14.121094 C 28.769531 14.03125 28.433594 13.914062 27.898438 13.769531 C 27.167969 13.589844 26.660156 13.433594 26.375 13.300781 C 26.101562 13.171875 25.894531 12.988281 25.75 12.753906 C 25.605469 12.519531 25.535156 12.261719 25.535156 11.972656 C 25.535156 11.714844 25.59375 11.476562 25.710938 11.25 C 25.828125 11.03125 25.992188 10.839844 26.199219 10.683594 C 26.355469 10.582031 26.5625 10.488281 26.824219 10.410156 C 27.097656 10.332031 27.382812 10.292969 27.683594 10.292969 C 28.140625 10.292969 28.535156 10.359375 28.875 10.488281 C 29.226562 10.621094 29.488281 10.796875 29.65625 11.015625 C 29.824219 11.242188 29.941406 11.539062 30.007812 11.914062 L 29.03125 12.050781 C 28.992188 11.753906 28.863281 11.519531 28.640625 11.347656 C 28.433594 11.179688 28.140625 11.09375 27.761719 11.09375 C 27.304688 11.09375 26.980469 11.171875 26.785156 11.328125 C 26.589844 11.476562 26.492188 11.648438 26.492188 11.855469 C 26.492188 11.988281 26.53125 12.101562 26.609375 12.1875 C 26.6875 12.304688 26.816406 12.398438 27 12.460938 C 27.089844 12.5 27.378906 12.585938 27.859375 12.714844 C 28.5625 12.898438 29.050781 13.046875 29.324219 13.164062 C 29.609375 13.28125 29.832031 13.457031 29.988281 13.691406 C 30.144531 13.914062 30.222656 14.195312 30.222656 14.53125 C 30.222656 14.875 30.125 15.1875 29.929688 15.46875 C 29.734375 15.757812 29.453125 15.984375 29.089844 16.152344 C 28.738281 16.308594 28.328125 16.386719 27.859375 16.386719 C 27.105469 16.386719 26.523438 16.230469 26.121094 15.917969 C 25.730469 15.59375 25.484375 15.125 25.378906 14.511719 Z M 25.378906 14.511719 "/>
<path style=" stroke:none;fill-rule:nonzero;fill:rgb(0%,0%,0%);fill-opacity:1;" d="M 33.289062 18.613281 C 32.742188 17.921875 32.28125 17.117188 31.902344 16.210938 C 31.523438 15.289062 31.335938 14.332031 31.335938 13.339844 C 31.335938 12.46875 31.480469 11.632812 31.765625 10.820312 C 32.089844 9.898438 32.597656 8.980469 33.289062 8.066406 L 33.992188 8.066406 C 33.550781 8.824219 33.257812 9.367188 33.113281 9.6875 C 32.890625 10.195312 32.714844 10.722656 32.585938 11.269531 C 32.429688 11.960938 32.351562 12.652344 32.351562 13.339844 C 32.351562 15.097656 32.898438 16.855469 33.992188 18.613281 Z M 33.289062 18.613281 "/>
<path style=" stroke:none;fill-rule:nonzero;fill:rgb(0%,0%,0%);fill-opacity:1;" d="M 38.597656 16.25 L 37.601562 16.25 L 37.601562 9.941406 C 37.367188 10.175781 37.054688 10.410156 36.664062 10.644531 C 36.273438 10.867188 35.929688 11.03125 35.628906 11.132812 L 35.628906 10.175781 C 36.175781 9.929688 36.65625 9.625 37.074219 9.257812 C 37.492188 8.882812 37.785156 8.515625 37.953125 8.164062 L 38.597656 8.164062 Z M 38.597656 16.25 "/>
<path style=" stroke:none;fill-rule:nonzero;fill:rgb(0%,0%,0%);fill-opacity:1;" d="M 41.652344 16.25 L 41.652344 15.117188 L 42.785156 15.117188 L 42.785156 16.25 C 42.785156 16.664062 42.707031 16.996094 42.550781 17.246094 C 42.40625 17.503906 42.179688 17.703125 41.867188 17.851562 L 41.59375 17.421875 C 41.800781 17.328125 41.949219 17.191406 42.042969 17.011719 C 42.144531 16.839844 42.203125 16.585938 42.21875 16.25 Z M 41.652344 16.25 "/>
<path style=" stroke:none;fill-rule:nonzero;fill:rgb(0%,0%,0%);fill-opacity:1;" d="M 52.570312 15.292969 L 52.570312 16.25 L 47.238281 16.25 C 47.238281 16.015625 47.277344 15.789062 47.355469 15.566406 C 47.5 15.203125 47.71875 14.84375 48.019531 14.492188 C 48.320312 14.140625 48.75 13.742188 49.308594 13.28125 C 50.179688 12.554688 50.765625 11.984375 51.066406 11.5625 C 51.378906 11.148438 51.535156 10.75 51.535156 10.371094 C 51.535156 9.980469 51.390625 9.65625 51.105469 9.394531 C 50.832031 9.121094 50.472656 8.984375 50.03125 8.984375 C 49.550781 8.984375 49.164062 9.132812 48.878906 9.414062 C 48.59375 9.703125 48.449219 10.097656 48.449219 10.605469 L 47.433594 10.488281 C 47.5 9.734375 47.757812 9.160156 48.214844 8.769531 C 48.671875 8.367188 49.28125 8.164062 50.050781 8.164062 C 50.820312 8.164062 51.425781 8.378906 51.867188 8.808594 C 52.324219 9.238281 52.550781 9.765625 52.550781 10.390625 C 52.550781 10.71875 52.484375 11.035156 52.355469 11.347656 C 52.226562 11.660156 52.003906 11.992188 51.691406 12.34375 C 51.390625 12.6875 50.890625 13.15625 50.1875 13.75 C 49.589844 14.25 49.203125 14.585938 49.035156 14.765625 C 48.867188 14.953125 48.730469 15.125 48.625 15.292969 Z M 52.570312 15.292969 "/>
<path style=" stroke:none;fill-rule:nonzero;fill:rgb(0%,0%,0%);fill-opacity:1;" d="M 54.550781 18.613281 L 53.847656 18.613281 C 54.941406 16.855469 55.488281 15.097656 55.488281 13.339844 C 55.488281 12.652344 55.410156 11.96875 55.253906 11.289062 C 55.121094 10.742188 54.945312 10.214844 54.726562 9.707031 C 54.582031 9.382812 54.289062 8.835938 53.847656 8.066406 L 54.550781 8.066406 C 55.238281 8.980469 55.746094 9.898438 56.074219 10.820312 C 56.359375 11.632812 56.503906 12.46875 56.503906 13.339844 C 56.503906 14.332031 56.3125 15.289062 55.9375 16.210938 C 55.558594 17.117188 55.097656 17.921875 54.550781 18.613281 Z M 54.550781 18.613281 "/>
<path style=" stroke:none;fill-rule:nonzero;fill:rgb(0%,0%,0%);fill-opacity:1;" d="M 87.878906 13.339844 C 87.878906 12.261719 88.175781 11.460938 88.777344 10.9375 C 89.285156 10.507812 89.894531 10.292969 90.613281 10.292969 C 91.417969 10.292969 92.078125 10.554688 92.585938 11.074219 C 93.09375 11.597656 93.347656 12.320312 93.347656 13.242188 C 93.347656 14 93.230469 14.589844 92.996094 15.019531 C 92.769531 15.449219 92.449219 15.789062 92.019531 16.035156 C 91.589844 16.269531 91.121094 16.386719 90.613281 16.386719 C 89.792969 16.386719 89.128906 16.128906 88.621094 15.605469 C 88.121094 15.074219 87.878906 14.316406 87.878906 13.339844 Z M 88.894531 13.339844 C 88.894531 14.082031 89.054688 14.644531 89.382812 15.019531 C 89.703125 15.386719 90.113281 15.566406 90.613281 15.566406 C 91.105469 15.566406 91.515625 15.386719 91.84375 15.019531 C 92.164062 14.644531 92.332031 14.070312 92.332031 13.300781 C 92.332031 12.585938 92.164062 12.039062 91.84375 11.660156 C 91.515625 11.285156 91.105469 11.09375 90.613281 11.09375 C 90.113281 11.09375 89.703125 11.285156 89.382812 11.660156 C 89.054688 12.027344 88.894531 12.585938 88.894531 13.339844 Z M 88.894531 13.339844 "/>
<path style=" stroke:none;fill-rule:nonzero;fill:rgb(0%,0%,0%);fill-opacity:1;" d="M 94.507812 16.25 L 94.507812 10.410156 L 95.40625 10.410156 L 95.40625 11.25 C 95.820312 10.617188 96.441406 10.292969 97.261719 10.292969 C 97.613281 10.292969 97.929688 10.359375 98.21875 10.488281 C 98.515625 10.605469 98.734375 10.773438 98.882812 10.976562 C 99.023438 11.171875 99.125 11.414062 99.195312 11.699219 C 99.234375 11.882812 99.253906 12.203125 99.253906 12.65625 L 99.253906 16.25 L 98.257812 16.25 L 98.257812 12.695312 C 98.257812 12.296875 98.21875 11.992188 98.140625 11.796875 C 98.0625 11.601562 97.925781 11.445312 97.730469 11.328125 C 97.535156 11.203125 97.304688 11.132812 97.046875 11.132812 C 96.625 11.132812 96.265625 11.269531 95.953125 11.542969 C 95.648438 11.804688 95.503906 12.3125 95.503906 13.066406 L 95.503906 16.25 Z M 94.507812 16.25 "/>
<path style=" stroke:none;fill-rule:nonzero;fill:rgb(0%,0%,0%);fill-opacity:1;" d="M 104.746094 14.375 L 105.78125 14.492188 C 105.613281 15.09375 105.304688 15.5625 104.863281 15.898438 C 104.433594 16.226562 103.878906 16.386719 103.203125 16.386719 C 102.355469 16.386719 101.679688 16.128906 101.171875 15.605469 C 100.675781 15.074219 100.429688 14.332031 100.429688 13.378906 C 100.429688 12.402344 100.683594 11.648438 101.191406 11.113281 C 101.699219 10.566406 102.355469 10.292969 103.164062 10.292969 C 103.945312 10.292969 104.578125 10.5625 105.058594 11.09375 C 105.554688 11.617188 105.800781 12.359375 105.800781 13.320312 C 105.800781 13.390625 105.800781 13.476562 105.800781 13.59375 L 101.445312 13.59375 C 101.484375 14.234375 101.667969 14.722656 101.992188 15.058594 C 102.316406 15.398438 102.726562 15.566406 103.222656 15.566406 C 103.585938 15.566406 103.894531 15.476562 104.140625 15.292969 C 104.402344 15.097656 104.601562 14.796875 104.746094 14.375 Z M 101.503906 12.773438 L 104.765625 12.773438 C 104.726562 12.28125 104.601562 11.910156 104.394531 11.660156 C 104.082031 11.285156 103.671875 11.09375 103.164062 11.09375 C 102.707031 11.09375 102.324219 11.25 102.011719 11.5625 C 101.710938 11.867188 101.542969 12.265625 101.503906 12.773438 Z M 101.503906 12.773438 "/>
<path style=" stroke:none;fill-rule:nonzero;fill:rgb(0%,0%,0%);fill-opacity:1;" d="M 106.628906 14.511719 L 107.605469 14.355469 C 107.65625 14.746094 107.808594 15.046875 108.054688 15.253906 C 108.316406 15.464844 108.667969 15.566406 109.109375 15.566406 C 109.566406 15.566406 109.902344 15.476562 110.125 15.292969 C 110.347656 15.113281 110.457031 14.898438 110.457031 14.648438 C 110.457031 14.414062 110.359375 14.238281 110.164062 14.121094 C 110.019531 14.03125 109.683594 13.914062 109.148438 13.769531 C 108.417969 13.589844 107.910156 13.433594 107.625 13.300781 C 107.351562 13.171875 107.144531 12.988281 107 12.753906 C 106.855469 12.519531 106.785156 12.261719 106.785156 11.972656 C 106.785156 11.714844 106.84375 11.476562 106.960938 11.25 C 107.078125 11.03125 107.242188 10.839844 107.449219 10.683594 C 107.605469 10.582031 107.8125 10.488281 108.074219 10.410156 C 108.347656 10.332031 108.632812 10.292969 108.933594 10.292969 C 109.390625 10.292969 109.785156 10.359375 110.125 10.488281 C 110.476562 10.621094 110.738281 10.796875 110.90625 11.015625 C 111.074219 11.242188 111.191406 11.539062 111.257812 11.914062 L 110.28125 12.050781 C 110.242188 11.753906 110.113281 11.519531 109.890625 11.347656 C 109.683594 11.179688 109.390625 11.09375 109.011719 11.09375 C 108.554688 11.09375 108.230469 11.171875 108.035156 11.328125 C 107.839844 11.476562 107.742188 11.648438 107.742188 11.855469 C 107.742188 11.988281 107.78125 12.101562 107.859375 12.1875 C 107.9375 12.304688 108.066406 12.398438 108.25 12.460938 C 108.339844 12.5 108.628906 12.585938 109.109375 12.714844 C 109.8125 12.898438 110.300781 13.046875 110.574219 13.164062 C 110.859375 13.28125 111.082031 13.457031 111.238281 13.691406 C 111.394531 13.914062 111.472656 14.195312 111.472656 14.53125 C 111.472656 14.875 111.375 15.1875 111.179688 15.46875 C 110.984375 15.757812 110.703125 15.984375 110.339844 16.152344 C 109.988281 16.308594 109.578125 16.386719 109.109375 16.386719 C 108.355469 16.386719 107.773438 16.230469 107.371094 15.917969 C 106.980469 15.59375 106.734375 15.125 106.628906 14.511719 Z M 106.628906 14.511719 "/>
<path style=" stroke:none;fill-rule:nonzero;fill:rgb(0%,0%,0%);fill-opacity:1;" d="M 114.539062 18.613281 C 113.992188 17.921875 113.53125 17.117188 113.152344 16.210938 C 112.773438 15.289062 112.585938 14.332031 112.585938 13.339844 C 112.585938 12.46875 112.730469 11.632812 113.015625 10.820312 C 113.339844 9.898438 113.847656 8.980469 114.539062 8.066406 L 115.242188 8.066406 C 114.800781 8.824219 114.507812 9.367188 114.363281 9.6875 C 114.140625 10.195312 113.964844 10.722656 113.835938 11.269531 C 113.679688 11.960938 113.601562 12.652344 113.601562 13.339844 C 113.601562 15.097656 114.148438 16.855469 115.242188 18.613281 Z M 114.539062 18.613281 "/>
<path style=" stroke:none;fill-rule:nonzero;fill:rgb(0%,0%,0%);fill-opacity:1;" d="M 119.847656 16.25 L 118.851562 16.25 L 118.851562 9.941406 C 118.617188 10.175781 118.304688 10.410156 117.914062 10.644531 C 117.523438 10.867188 117.179688 11.03125 116.878906 11.132812 L 116.878906 10.175781 C 117.425781 9.929688 117.90625 9.625 118.324219 9.257812 C 118.742188 8.882812 119.035156 8.515625 119.203125 8.164062 L 119.847656 8.164062 Z M 119.847656 16.25 "/>
<path style=" stroke:none;fill-rule:nonzero;fill:rgb(0%,0%,0%);fill-opacity:1;" d="M 122.902344 16.25 L 122.902344 15.117188 L 124.035156 15.117188 L 124.035156 16.25 C 124.035156 16.664062 123.957031 16.996094 123.800781 17.246094 C 123.65625 17.503906 123.429688 17.703125 123.117188 17.851562 L 122.84375 17.421875 C 123.050781 17.328125 123.199219 17.191406 123.292969 17.011719 C 123.394531 16.839844 123.453125 16.585938 123.46875 16.25 Z M 122.902344 16.25 "/>
<path style=" stroke:none;fill-rule:nonzero;fill:rgb(0%,0%,0%);fill-opacity:1;" d="M 133.820312 15.292969 L 133.820312 16.25 L 128.488281 16.25 C 128.488281 16.015625 128.527344 15.789062 128.605469 15.566406 C 128.75 15.203125 128.96875 14.84375 129.269531 14.492188 C 129.570312 14.140625 130 13.742188 130.558594 13.28125 C 131.429688 12.554688 132.015625 11.984375 132.316406 11.5625 C 132.628906 11.148438 132.785156 10.75 132.785156 10.371094 C 132.785156 9.980469 132.640625 9.65625 132.355469 9.394531 C 132.082031 9.121094 131.722656 8.984375 131.28125 8.984375 C 130.800781 8.984375 130.414062 9.132812 130.128906 9.414062 C 129.84375 9.703125 129.699219 10.097656 129.699219 10.605469 L 128.683594 10.488281 C 128.75 9.734375 129.007812 9.160156 129.464844 8.769531 C 129.921875 8.367188 130.53125 8.164062 131.300781 8.164062 C 132.070312 8.164062 132.675781 8.378906 133.117188 8.808594 C 133.574219 9.238281 133.800781 9.765625 133.800781 10.390625 C 133.800781 10.71875 133.734375 11.035156 133.605469 11.347656 C 133.476562 11.660156 133.253906 11.992188 132.941406 12.34375 C 132.640625 12.6875 132.140625 13.15625 131.4375 13.75 C 130.839844 14.25 130.453125 14.585938 130.285156 14.765625 C 130.117188 14.953125 129.980469 15.125 129.875 15.292969 Z M 133.820312 15.292969 "/>
<path style=" stroke:none;fill-rule:nonzero;fill:rgb(0%,0%,0%);fill-opacity:1;" d="M 135.800781 18.613281 L 135.097656 18.613281 C 136.191406 16.855469 136.738281 15.097656 136.738281 13.339844 C 136.738281 12.652344 136.660156 11.96875 136.503906 11.289062 C 136.371094 10.742188 136.195312 10.214844 135.976562 9.707031 C 135.832031 9.382812 135.539062 8.835938 135.097656 8.066406 L 135.800781 8.066406 C 136.488281 8.980469 136.996094 9.898438 137.324219 10.820312 C 137.609375 11.632812 137.753906 12.46875 137.753906 13.339844 C 137.753906 14.332031 137.5625 15.289062 137.1875 16.210938 C 136.808594 17.117188 136.347656 17.921875 135.800781 18.613281 Z M 135.800781 18.613281 "/>
</g>
</svg>
