<?xml version="1.0" encoding="UTF-8"?>
<svg xmlns="http://www.w3.org/2000/svg" xmlns:xlink="http://www.w3.org/1999/xlink" width="361pt" height="103pt" viewBox="0 0 361 103" version="1.1">
<g id="surface1">
<path style="fill-rule:nonzero;fill:rgb(69.803922%,85.098039%,100%);fill-opacity:1;stroke-width:1;stroke-linecap:round;stroke-linejoin:round;stroke:rgb(0%,0%,0%);stroke-opacity:1;stroke-miterlimit:10;" d="M -213 368 L -163 368 L -163 386 L -213 386 Z M -213 368 " transform="matrix(1.25,0,0,1.25,563.75,-458.75)"/>
<path style=" stroke:none;fill-rule:nonzero;fill:rgb(0%,0%,0%);fill-opacity:1;" d="M 317.128906 16.066406 L 317.128906 8.019531 L 320.703125 8.019531 C 321.417969 8.019531 321.964844 8.09375 322.34375 8.234375 C 322.71875 8.378906 323.019531 8.632812 323.242188 8.996094 C 323.460938 9.363281 323.574219 9.765625 323.574219 10.207031 C 323.574219 10.78125 323.382812 11.261719 323.007812 11.652344 C 322.640625 12.042969 322.074219 12.292969 321.308594 12.394531 C 321.582031 12.539062 321.796875 12.675781 321.953125 12.804688 C 322.265625 13.09375 322.558594 13.449219 322.832031 13.878906 L 324.238281 16.066406 L 322.890625 16.066406 L 321.816406 14.386719 C 321.515625 13.90625 321.261719 13.542969 321.054688 13.292969 C 320.859375 13.035156 320.675781 12.851562 320.507812 12.746094 C 320.351562 12.644531 320.195312 12.570312 320.039062 12.53125 C 319.90625 12.507812 319.707031 12.492188 319.433594 12.492188 L 318.203125 12.492188 L 318.203125 16.066406 Z M 318.203125 11.574219 L 320.488281 11.574219 C 320.980469 11.574219 321.367188 11.523438 321.640625 11.417969 C 321.914062 11.316406 322.121094 11.152344 322.265625 10.929688 C 322.40625 10.710938 322.480469 10.46875 322.480469 10.207031 C 322.480469 9.832031 322.335938 9.519531 322.050781 9.269531 C 321.777344 9.023438 321.339844 8.898438 320.742188 8.898438 L 318.203125 8.898438 Z M 318.203125 11.574219 "/>
<path style=" stroke:none;fill-rule:nonzero;fill:rgb(0%,0%,0%);fill-opacity:1;" d="M 324.355469 16.066406 L 327.460938 8.019531 L 328.59375 8.019531 L 331.894531 16.066406 L 330.683594 16.066406 L 329.746094 13.625 L 326.367188 13.625 L 325.488281 16.066406 Z M 326.679688 12.765625 L 329.414062 12.765625 L 328.574219 10.519531 C 328.3125 9.84375 328.125 9.289062 328.007812 8.859375 C 327.898438 9.382812 327.753906 9.894531 327.558594 10.402344 Z M 326.679688 12.765625 "/>
<path style=" stroke:none;fill-rule:nonzero;fill:rgb(0%,0%,0%);fill-opacity:1;" d="M 332.71875 16.066406 L 332.71875 8.019531 L 334.320312 8.019531 L 336.214844 13.722656 C 336.394531 14.246094 336.527344 14.640625 336.605469 14.914062 C 336.691406 14.617188 336.839844 14.1875 337.035156 13.625 L 338.96875 8.019531 L 340.394531 8.019531 L 340.394531 16.066406 L 339.378906 16.066406 L 339.378906 9.328125 L 337.035156 16.066406 L 336.078125 16.066406 L 333.734375 9.210938 L 333.734375 16.066406 Z M 332.71875 16.066406 "/>
<path style="fill-rule:nonzero;fill:rgb(69.803922%,85.098039%,100%);fill-opacity:1;stroke-width:1;stroke-linecap:round;stroke-linejoin:round;stroke:rgb(0%,0%,0%);stroke-opacity:1;stroke-miterlimit:10;" d="M -217 372 L -167 372 L -167 390 L -217 390 Z M -217 372 " transform="matrix(1.25,0,0,1.25,563.75,-458.75)"/>
<path style=" stroke:none;fill-rule:nonzero;fill:rgb(0%,0%,0%);fill-opacity:1;" d="M 312.128906 21.066406 L 312.128906 13.019531 L 315.703125 13.019531 C 316.417969 13.019531 316.964844 13.09375 317.34375 13.234375 C 317.71875 13.378906 318.019531 13.632812 318.242188 13.996094 C 318.460938 14.363281 318.574219 14.765625 318.574219 15.207031 C 318.574219 15.78125 318.382812 16.261719 318.007812 16.652344 C 317.640625 17.042969 317.074219 17.292969 316.308594 17.394531 C 316.582031 17.539062 316.796875 17.675781 316.953125 17.804688 C 317.265625 18.09375 317.558594 18.449219 317.832031 18.878906 L 319.238281 21.066406 L 317.890625 21.066406 L 316.816406 19.386719 C 316.515625 18.90625 316.261719 18.542969 316.054688 18.292969 C 315.859375 18.035156 315.675781 17.851562 315.507812 17.746094 C 315.351562 17.644531 315.195312 17.570312 315.039062 17.53125 C 314.90625 17.507812 314.707031 17.492188 314.433594 17.492188 L 313.203125 17.492188 L 313.203125 21.066406 Z M 313.203125 16.574219 L 315.488281 16.574219 C 315.980469 16.574219 316.367188 16.523438 316.640625 16.417969 C 316.914062 16.316406 317.121094 16.152344 317.265625 15.929688 C 317.40625 15.710938 317.480469 15.46875 317.480469 15.207031 C 317.480469 14.832031 317.335938 14.519531 317.050781 14.269531 C 316.777344 14.023438 316.339844 13.898438 315.742188 13.898438 L 313.203125 13.898438 Z M 313.203125 16.574219 "/>
<path style=" stroke:none;fill-rule:nonzero;fill:rgb(0%,0%,0%);fill-opacity:1;" d="M 319.355469 21.066406 L 322.460938 13.019531 L 323.59375 13.019531 L 326.894531 21.066406 L 325.683594 21.066406 L 324.746094 18.625 L 321.367188 18.625 L 320.488281 21.066406 Z M 321.679688 17.765625 L 324.414062 17.765625 L 323.574219 15.519531 C 323.3125 14.84375 323.125 14.289062 323.007812 13.859375 C 322.898438 14.382812 322.753906 14.894531 322.558594 15.402344 Z M 321.679688 17.765625 "/>
<path style=" stroke:none;fill-rule:nonzero;fill:rgb(0%,0%,0%);fill-opacity:1;" d="M 327.71875 21.066406 L 327.71875 13.019531 L 329.320312 13.019531 L 331.214844 18.722656 C 331.394531 19.246094 331.527344 19.640625 331.605469 19.914062 C 331.691406 19.617188 331.839844 19.1875 332.035156 18.625 L 333.96875 13.019531 L 335.394531 13.019531 L 335.394531 21.066406 L 334.378906 21.066406 L 334.378906 14.328125 L 332.035156 21.066406 L 331.078125 21.066406 L 328.734375 14.210938 L 328.734375 21.066406 Z M 327.71875 21.066406 "/>
<path style="fill-rule:nonzero;fill:rgb(69.803922%,85.098039%,100%);fill-opacity:1;stroke-width:1;stroke-linecap:round;stroke-linejoin:round;stroke:rgb(0%,0%,0%);stroke-opacity:1;stroke-miterlimit:10;" d="M -221 376 L -171 376 L -171 394 L -221 394 Z M -221 376 " transform="matrix(1.25,0,0,1.25,563.75,-458.75)"/>
<path style=" stroke:none;fill-rule:nonzero;fill:rgb(0%,0%,0%);fill-opacity:1;" d="M 307.128906 26.066406 L 307.128906 18.019531 L 310.703125 18.019531 C 311.417969 18.019531 311.964844 18.09375 312.34375 18.234375 C 312.71875 18.378906 313.019531 18.632812 313.242188 18.996094 C 313.460938 19.363281 313.574219 19.765625 313.574219 20.207031 C 313.574219 20.78125 313.382812 21.261719 313.007812 21.652344 C 312.640625 22.042969 312.074219 22.292969 311.308594 22.394531 C 311.582031 22.539062 311.796875 22.675781 311.953125 22.804688 C 312.265625 23.09375 312.558594 23.449219 312.832031 23.878906 L 314.238281 26.066406 L 312.890625 26.066406 L 311.816406 24.386719 C 311.515625 23.90625 311.261719 23.542969 311.054688 23.292969 C 310.859375 23.035156 310.675781 22.851562 310.507812 22.746094 C 310.351562 22.644531 310.195312 22.570312 310.039062 22.53125 C 309.90625 22.507812 309.707031 22.492188 309.433594 22.492188 L 308.203125 22.492188 L 308.203125 26.066406 Z M 308.203125 21.574219 L 310.488281 21.574219 C 310.980469 21.574219 311.367188 21.523438 311.640625 21.417969 C 311.914062 21.316406 312.121094 21.152344 312.265625 20.929688 C 312.40625 20.710938 312.480469 20.46875 312.480469 20.207031 C 312.480469 19.832031 312.335938 19.519531 312.050781 19.269531 C 311.777344 19.023438 311.339844 18.898438 310.742188 18.898438 L 308.203125 18.898438 Z M 308.203125 21.574219 "/>
<path style=" stroke:none;fill-rule:nonzero;fill:rgb(0%,0%,0%);fill-opacity:1;" d="M 314.355469 26.066406 L 317.460938 18.019531 L 318.59375 18.019531 L 321.894531 26.066406 L 320.683594 26.066406 L 319.746094 23.625 L 316.367188 23.625 L 315.488281 26.066406 Z M 316.679688 22.765625 L 319.414062 22.765625 L 318.574219 20.519531 C 318.3125 19.84375 318.125 19.289062 318.007812 18.859375 C 317.898438 19.382812 317.753906 19.894531 317.558594 20.402344 Z M 316.679688 22.765625 "/>
<path style=" stroke:none;fill-rule:nonzero;fill:rgb(0%,0%,0%);fill-opacity:1;" d="M 322.71875 26.066406 L 322.71875 18.019531 L 324.320312 18.019531 L 326.214844 23.722656 C 326.394531 24.246094 326.527344 24.640625 326.605469 24.914062 C 326.691406 24.617188 326.839844 24.1875 327.035156 23.625 L 328.96875 18.019531 L 330.394531 18.019531 L 330.394531 26.066406 L 329.378906 26.066406 L 329.378906 19.328125 L 327.035156 26.066406 L 326.078125 26.066406 L 323.734375 19.210938 L 323.734375 26.066406 Z M 322.71875 26.066406 "/>
<path style="fill-rule:nonzero;fill:rgb(69.803922%,85.098039%,100%);fill-opacity:1;stroke-width:1;stroke-linecap:round;stroke-linejoin:round;stroke:rgb(0%,0%,0%);stroke-opacity:1;stroke-miterlimit:10;" d="M -363 368 L -313 368 L -313 386 L -363 386 Z M -363 368 " transform="matrix(1.25,0,0,1.25,563.75,-458.75)"/>
<path style=" stroke:none;fill-rule:nonzero;fill:rgb(0%,0%,0%);fill-opacity:1;" d="M 129.628906 16.066406 L 129.628906 8.019531 L 133.203125 8.019531 C 133.917969 8.019531 134.464844 8.09375 134.84375 8.234375 C 135.21875 8.378906 135.519531 8.632812 135.742188 8.996094 C 135.960938 9.363281 136.074219 9.765625 136.074219 10.207031 C 136.074219 10.78125 135.882812 11.261719 135.507812 11.652344 C 135.140625 12.042969 134.574219 12.292969 133.808594 12.394531 C 134.082031 12.539062 134.296875 12.675781 134.453125 12.804688 C 134.765625 13.09375 135.058594 13.449219 135.332031 13.878906 L 136.738281 16.066406 L 135.390625 16.066406 L 134.316406 14.386719 C 134.015625 13.90625 133.761719 13.542969 133.554688 13.292969 C 133.359375 13.035156 133.175781 12.851562 133.007812 12.746094 C 132.851562 12.644531 132.695312 12.570312 132.539062 12.53125 C 132.40625 12.507812 132.207031 12.492188 131.933594 12.492188 L 130.703125 12.492188 L 130.703125 16.066406 Z M 130.703125 11.574219 L 132.988281 11.574219 C 133.480469 11.574219 133.867188 11.523438 134.140625 11.417969 C 134.414062 11.316406 134.621094 11.152344 134.765625 10.929688 C 134.90625 10.710938 134.980469 10.46875 134.980469 10.207031 C 134.980469 9.832031 134.835938 9.519531 134.550781 9.269531 C 134.277344 9.023438 133.839844 8.898438 133.242188 8.898438 L 130.703125 8.898438 Z M 130.703125 11.574219 "/>
<path style=" stroke:none;fill-rule:nonzero;fill:rgb(0%,0%,0%);fill-opacity:1;" d="M 136.855469 16.066406 L 139.960938 8.019531 L 141.09375 8.019531 L 144.394531 16.066406 L 143.183594 16.066406 L 142.246094 13.625 L 138.867188 13.625 L 137.988281 16.066406 Z M 139.179688 12.765625 L 141.914062 12.765625 L 141.074219 10.519531 C 140.8125 9.84375 140.625 9.289062 140.507812 8.859375 C 140.398438 9.382812 140.253906 9.894531 140.058594 10.402344 Z M 139.179688 12.765625 "/>
<path style=" stroke:none;fill-rule:nonzero;fill:rgb(0%,0%,0%);fill-opacity:1;" d="M 145.21875 16.066406 L 145.21875 8.019531 L 146.820312 8.019531 L 148.714844 13.722656 C 148.894531 14.246094 149.027344 14.640625 149.105469 14.914062 C 149.191406 14.617188 149.339844 14.1875 149.535156 13.625 L 151.46875 8.019531 L 152.894531 8.019531 L 152.894531 16.066406 L 151.878906 16.066406 L 151.878906 9.328125 L 149.535156 16.066406 L 148.578125 16.066406 L 146.234375 9.210938 L 146.234375 16.066406 Z M 145.21875 16.066406 "/>
<path style="fill-rule:nonzero;fill:rgb(69.803922%,85.098039%,100%);fill-opacity:1;stroke-width:1;stroke-linecap:round;stroke-linejoin:round;stroke:rgb(0%,0%,0%);stroke-opacity:1;stroke-miterlimit:10;" d="M -367 372 L -317 372 L -317 390 L -367 390 Z M -367 372 " transform="matrix(1.25,0,0,1.25,563.75,-458.75)"/>
<path style=" stroke:none;fill-rule:nonzero;fill:rgb(0%,0%,0%);fill-opacity:1;" d="M 124.628906 21.066406 L 124.628906 13.019531 L 128.203125 13.019531 C 128.917969 13.019531 129.464844 13.09375 129.84375 13.234375 C 130.21875 13.378906 130.519531 13.632812 130.742188 13.996094 C 130.960938 14.363281 131.074219 14.765625 131.074219 15.207031 C 131.074219 15.78125 130.882812 16.261719 130.507812 16.652344 C 130.140625 17.042969 129.574219 17.292969 128.808594 17.394531 C 129.082031 17.539062 129.296875 17.675781 129.453125 17.804688 C 129.765625 18.09375 130.058594 18.449219 130.332031 18.878906 L 131.738281 21.066406 L 130.390625 21.066406 L 129.316406 19.386719 C 129.015625 18.90625 128.761719 18.542969 128.554688 18.292969 C 128.359375 18.035156 128.175781 17.851562 128.007812 17.746094 C 127.851562 17.644531 127.695312 17.570312 127.539062 17.53125 C 127.40625 17.507812 127.207031 17.492188 126.933594 17.492188 L 125.703125 17.492188 L 125.703125 21.066406 Z M 125.703125 16.574219 L 127.988281 16.574219 C 128.480469 16.574219 128.867188 16.523438 129.140625 16.417969 C 129.414062 16.316406 129.621094 16.152344 129.765625 15.929688 C 129.90625 15.710938 129.980469 15.46875 129.980469 15.207031 C 129.980469 14.832031 129.835938 14.519531 129.550781 14.269531 C 129.277344 14.023438 128.839844 13.898438 128.242188 13.898438 L 125.703125 13.898438 Z M 125.703125 16.574219 "/>
<path style=" stroke:none;fill-rule:nonzero;fill:rgb(0%,0%,0%);fill-opacity:1;" d="M 131.855469 21.066406 L 134.960938 13.019531 L 136.09375 13.019531 L 139.394531 21.066406 L 138.183594 21.066406 L 137.246094 18.625 L 133.867188 18.625 L 132.988281 21.066406 Z M 134.179688 17.765625 L 136.914062 17.765625 L 136.074219 15.519531 C 135.8125 14.84375 135.625 14.289062 135.507812 13.859375 C 135.398438 14.382812 135.253906 14.894531 135.058594 15.402344 Z M 134.179688 17.765625 "/>
<path style=" stroke:none;fill-rule:nonzero;fill:rgb(0%,0%,0%);fill-opacity:1;" d="M 140.21875 21.066406 L 140.21875 13.019531 L 141.820312 13.019531 L 143.714844 18.722656 C 143.894531 19.246094 144.027344 19.640625 144.105469 19.914062 C 144.191406 19.617188 144.339844 19.1875 144.535156 18.625 L 146.46875 13.019531 L 147.894531 13.019531 L 147.894531 21.066406 L 146.878906 21.066406 L 146.878906 14.328125 L 144.535156 21.066406 L 143.578125 21.066406 L 141.234375 14.210938 L 141.234375 21.066406 Z M 140.21875 21.066406 "/>
<path style="fill-rule:nonzero;fill:rgb(69.803922%,85.098039%,100%);fill-opacity:1;stroke-width:1;stroke-linecap:round;stroke-linejoin:round;stroke:rgb(0%,0%,0%);stroke-opacity:1;stroke-miterlimit:10;" d="M -371 376 L -321 376 L -321 394 L -371 394 Z M -371 376 " transform="matrix(1.25,0,0,1.25,563.75,-458.75)"/>
<path style=" stroke:none;fill-rule:nonzero;fill:rgb(0%,0%,0%);fill-opacity:1;" d="M 119.628906 26.066406 L 119.628906 18.019531 L 123.203125 18.019531 C 123.917969 18.019531 124.464844 18.09375 124.84375 18.234375 C 125.21875 18.378906 125.519531 18.632812 125.742188 18.996094 C 125.960938 19.363281 126.074219 19.765625 126.074219 20.207031 C 126.074219 20.78125 125.882812 21.261719 125.507812 21.652344 C 125.140625 22.042969 124.574219 22.292969 123.808594 22.394531 C 124.082031 22.539062 124.296875 22.675781 124.453125 22.804688 C 124.765625 23.09375 125.058594 23.449219 125.332031 23.878906 L 126.738281 26.066406 L 125.390625 26.066406 L 124.316406 24.386719 C 124.015625 23.90625 123.761719 23.542969 123.554688 23.292969 C 123.359375 23.035156 123.175781 22.851562 123.007812 22.746094 C 122.851562 22.644531 122.695312 22.570312 122.539062 22.53125 C 122.40625 22.507812 122.207031 22.492188 121.933594 22.492188 L 120.703125 22.492188 L 120.703125 26.066406 Z M 120.703125 21.574219 L 122.988281 21.574219 C 123.480469 21.574219 123.867188 21.523438 124.140625 21.417969 C 124.414062 21.316406 124.621094 21.152344 124.765625 20.929688 C 124.90625 20.710938 124.980469 20.46875 124.980469 20.207031 C 124.980469 19.832031 124.835938 19.519531 124.550781 19.269531 C 124.277344 19.023438 123.839844 18.898438 123.242188 18.898438 L 120.703125 18.898438 Z M 120.703125 21.574219 "/>
<path style=" stroke:none;fill-rule:nonzero;fill:rgb(0%,0%,0%);fill-opacity:1;" d="M 126.855469 26.066406 L 129.960938 18.019531 L 131.09375 18.019531 L 134.394531 26.066406 L 133.183594 26.066406 L 132.246094 23.625 L 128.867188 23.625 L 127.988281 26.066406 Z M 129.179688 22.765625 L 131.914062 22.765625 L 131.074219 20.519531 C 130.8125 19.84375 130.625 19.289062 130.507812 18.859375 C 130.398438 19.382812 130.253906 19.894531 130.058594 20.402344 Z M 129.179688 22.765625 "/>
<path style=" stroke:none;fill-rule:nonzero;fill:rgb(0%,0%,0%);fill-opacity:1;" d="M 135.21875 26.066406 L 135.21875 18.019531 L 136.820312 18.019531 L 138.714844 23.722656 C 138.894531 24.246094 139.027344 24.640625 139.105469 24.914062 C 139.191406 24.617188 139.339844 24.1875 139.535156 23.625 L 141.46875 18.019531 L 142.894531 18.019531 L 142.894531 26.066406 L 141.878906 26.066406 L 141.878906 19.328125 L 139.535156 26.066406 L 138.578125 26.066406 L 136.234375 19.210938 L 136.234375 26.066406 Z M 135.21875 26.066406 "/>
<path style="fill:none;stroke-width:1;stroke-linecap:round;stroke-linejoin:round;stroke:rgb(0%,0%,0%);stroke-opacity:1;stroke-miterlimit:10;" d="M -325 430.33125 L -203.9875 430.0125 C -201.784375 430.003125 -200 428.215625 -200 426.0125 L -200 403.9 " transform="matrix(1.25,0,0,1.25,563.75,-458.75)"/>
<path style="fill:none;stroke-width:1;stroke-linecap:butt;stroke-linejoin:miter;stroke:rgb(0%,0%,0%);stroke-opacity:1;stroke-miterlimit:10;" d="M -200 399.9 L -200 403.9 M -201.5 403.9 L -200 399.9 L -198.5 403.9 " transform="matrix(1.25,0,0,1.25,563.75,-458.75)"/>
<path style=" stroke:none;fill-rule:nonzero;fill:rgb(0%,0%,0%);fill-opacity:1;" d="M 243.359375 92.132812 L 243.359375 84.085938 L 246.40625 84.085938 C 246.9375 84.085938 247.347656 84.113281 247.636719 84.164062 C 248.027344 84.230469 248.351562 84.355469 248.613281 84.535156 C 248.886719 84.71875 249.101562 84.980469 249.257812 85.316406 C 249.421875 85.644531 249.511719 86.007812 249.511719 86.410156 C 249.511719 87.101562 249.289062 87.679688 248.847656 88.148438 C 248.417969 88.617188 247.636719 88.851562 246.503906 88.851562 L 244.433594 88.851562 L 244.433594 92.132812 Z M 244.433594 87.914062 L 246.523438 87.914062 C 247.195312 87.914062 247.679688 87.785156 247.96875 87.523438 C 248.265625 87.265625 248.417969 86.90625 248.417969 86.449219 C 248.417969 86.113281 248.328125 85.824219 248.164062 85.589844 C 247.992188 85.34375 247.765625 85.179688 247.480469 85.101562 C 247.308594 85.050781 246.976562 85.023438 246.484375 85.023438 L 244.433594 85.023438 Z M 244.433594 87.914062 "/>
<path style=" stroke:none;fill-rule:nonzero;fill:rgb(0%,0%,0%);fill-opacity:1;" d="M 256.625 89.300781 L 257.679688 89.574219 C 257.453125 90.449219 257.054688 91.117188 256.46875 91.585938 C 255.890625 92.042969 255.183594 92.269531 254.339844 92.269531 C 253.480469 92.269531 252.777344 92.09375 252.230469 91.742188 C 251.683594 91.390625 251.261719 90.882812 250.980469 90.21875 C 250.707031 89.542969 250.570312 88.820312 250.570312 88.050781 C 250.570312 87.207031 250.726562 86.46875 251.039062 85.84375 C 251.359375 85.21875 251.820312 84.75 252.40625 84.4375 C 253 84.113281 253.65625 83.949219 254.359375 83.949219 C 255.164062 83.949219 255.84375 84.160156 256.390625 84.574219 C 256.945312 84.980469 257.332031 85.550781 257.542969 86.292969 L 256.488281 86.527344 C 256.300781 85.941406 256.039062 85.519531 255.6875 85.257812 C 255.335938 84.984375 254.886719 84.847656 254.339844 84.847656 C 253.722656 84.847656 253.210938 85 252.796875 85.296875 C 252.375 85.597656 252.082031 86 251.917969 86.507812 C 251.746094 87.003906 251.664062 87.511719 251.664062 88.03125 C 251.664062 88.722656 251.761719 89.328125 251.957031 89.847656 C 252.160156 90.355469 252.472656 90.734375 252.894531 90.980469 C 253.308594 91.230469 253.761719 91.351562 254.261719 91.351562 C 254.855469 91.351562 255.359375 91.183594 255.765625 90.84375 C 256.179688 90.492188 256.46875 89.980469 256.625 89.300781 Z M 256.625 89.300781 "/>
<path style=" stroke:none;fill-rule:nonzero;fill:rgb(0%,0%,0%);fill-opacity:1;" d="M 259.183594 92.132812 L 259.183594 84.085938 L 260.238281 84.085938 L 260.238281 92.132812 Z M 259.183594 92.132812 "/>
<path style=" stroke:none;fill-rule:nonzero;fill:rgb(0%,0%,0%);fill-opacity:1;" d="M 265.980469 90.257812 L 267.015625 90.375 C 266.84375 90.976562 266.535156 91.445312 266.097656 91.78125 C 265.667969 92.109375 265.109375 92.269531 264.4375 92.269531 C 263.585938 92.269531 262.914062 92.011719 262.40625 91.488281 C 261.90625 90.957031 261.664062 90.214844 261.664062 89.261719 C 261.664062 88.285156 261.917969 87.53125 262.425781 86.996094 C 262.933594 86.449219 263.585938 86.175781 264.398438 86.175781 C 265.179688 86.175781 265.808594 86.445312 266.292969 86.976562 C 266.785156 87.5 267.035156 88.242188 267.035156 89.203125 C 267.035156 89.269531 267.035156 89.359375 267.035156 89.476562 L 262.679688 89.476562 C 262.71875 90.117188 262.898438 90.605469 263.226562 90.941406 C 263.546875 91.28125 263.957031 91.449219 264.457031 91.449219 C 264.816406 91.449219 265.125 91.359375 265.375 91.175781 C 265.632812 90.980469 265.832031 90.675781 265.980469 90.257812 Z M 262.738281 88.65625 L 266 88.65625 C 265.960938 88.164062 265.832031 87.792969 265.628906 87.542969 C 265.316406 87.167969 264.90625 86.976562 264.398438 86.976562 C 263.9375 86.976562 263.558594 87.132812 263.246094 87.445312 C 262.941406 87.746094 262.777344 88.148438 262.738281 88.65625 Z M 262.738281 88.65625 "/>
<path style=" stroke:none;fill-rule:nonzero;fill:rgb(0%,0%,0%);fill-opacity:1;" d="M 272.296875 92.132812 L 271.378906 92.132812 L 271.378906 84.085938 L 272.355469 84.085938 L 272.355469 86.957031 C 272.769531 86.4375 273.300781 86.175781 273.957031 86.175781 C 274.316406 86.175781 274.660156 86.25 274.972656 86.390625 C 275.292969 86.535156 275.5625 86.738281 275.773438 86.996094 C 275.976562 87.257812 276.144531 87.578125 276.261719 87.953125 C 276.378906 88.320312 276.4375 88.710938 276.4375 89.125 C 276.4375 90.128906 276.1875 90.902344 275.695312 91.449219 C 275.195312 91.996094 274.605469 92.269531 273.917969 92.269531 C 273.222656 92.269531 272.6875 91.984375 272.296875 91.410156 Z M 272.277344 89.164062 C 272.277344 89.867188 272.375 90.375 272.570312 90.6875 C 272.882812 91.195312 273.296875 91.449219 273.820312 91.449219 C 274.257812 91.449219 274.640625 91.261719 274.953125 90.882812 C 275.265625 90.507812 275.421875 89.945312 275.421875 89.203125 C 275.421875 88.449219 275.269531 87.890625 274.972656 87.523438 C 274.667969 87.160156 274.308594 86.976562 273.878906 86.976562 C 273.433594 86.976562 273.058594 87.167969 272.746094 87.542969 C 272.433594 87.921875 272.277344 88.460938 272.277344 89.164062 Z M 272.277344 89.164062 "/>
<path style=" stroke:none;fill-rule:nonzero;fill:rgb(0%,0%,0%);fill-opacity:1;" d="M 281.464844 92.132812 L 281.464844 91.273438 C 281.003906 91.9375 280.390625 92.269531 279.609375 92.269531 C 279.265625 92.269531 278.949219 92.199219 278.652344 92.074219 C 278.347656 91.933594 278.125 91.761719 277.96875 91.566406 C 277.820312 91.371094 277.722656 91.132812 277.675781 90.84375 C 277.636719 90.648438 277.617188 90.335938 277.617188 89.90625 L 277.617188 86.292969 L 278.59375 86.292969 L 278.59375 89.535156 C 278.59375 90.058594 278.617188 90.402344 278.671875 90.570312 C 278.71875 90.832031 278.847656 91.039062 279.042969 91.195312 C 279.246094 91.339844 279.5 91.410156 279.804688 91.410156 C 280.101562 91.410156 280.378906 91.339844 280.644531 91.195312 C 280.902344 91.039062 281.082031 90.832031 281.191406 90.570312 C 281.292969 90.3125 281.347656 89.925781 281.347656 89.417969 L 281.347656 86.292969 L 282.34375 86.292969 L 282.34375 92.132812 Z M 281.464844 92.132812 "/>
<path style=" stroke:none;fill-rule:nonzero;fill:rgb(0%,0%,0%);fill-opacity:1;" d="M 283.503906 90.394531 L 284.480469 90.238281 C 284.527344 90.628906 284.679688 90.929688 284.929688 91.136719 C 285.1875 91.347656 285.539062 91.449219 285.984375 91.449219 C 286.4375 91.449219 286.773438 91.359375 287 91.175781 C 287.21875 90.996094 287.332031 90.78125 287.332031 90.53125 C 287.332031 90.296875 287.234375 90.121094 287.039062 90.003906 C 286.890625 89.914062 286.554688 89.796875 286.023438 89.652344 C 285.289062 89.472656 284.78125 89.316406 284.5 89.183594 C 284.226562 89.054688 284.015625 88.871094 283.875 88.636719 C 283.726562 88.402344 283.660156 88.144531 283.660156 87.855469 C 283.660156 87.597656 283.71875 87.355469 283.835938 87.132812 C 283.953125 86.914062 284.113281 86.722656 284.324219 86.566406 C 284.480469 86.464844 284.683594 86.371094 284.949219 86.292969 C 285.222656 86.214844 285.503906 86.175781 285.808594 86.175781 C 286.261719 86.175781 286.65625 86.242188 287 86.371094 C 287.351562 86.503906 287.609375 86.679688 287.78125 86.898438 C 287.945312 87.121094 288.0625 87.421875 288.132812 87.796875 L 287.15625 87.933594 C 287.117188 87.636719 286.984375 87.402344 286.765625 87.230469 C 286.554688 87.0625 286.261719 86.976562 285.886719 86.976562 C 285.425781 86.976562 285.105469 87.054688 284.910156 87.210938 C 284.714844 87.355469 284.617188 87.53125 284.617188 87.738281 C 284.617188 87.871094 284.65625 87.980469 284.734375 88.070312 C 284.8125 88.1875 284.9375 88.28125 285.125 88.34375 C 285.210938 88.382812 285.5 88.46875 285.984375 88.597656 C 286.6875 88.78125 287.175781 88.929688 287.449219 89.046875 C 287.730469 89.164062 287.957031 89.339844 288.113281 89.574219 C 288.269531 89.796875 288.347656 90.078125 288.347656 90.414062 C 288.347656 90.753906 288.25 91.066406 288.054688 91.351562 C 287.859375 91.640625 287.574219 91.867188 287.214844 92.035156 C 286.863281 92.191406 286.453125 92.269531 285.984375 92.269531 C 285.226562 92.269531 284.644531 92.113281 284.246094 91.800781 C 283.855469 91.476562 283.605469 91.007812 283.503906 90.394531 Z M 283.503906 90.394531 "/>
<path style="fill-rule:nonzero;fill:rgb(100%,100%,100%);fill-opacity:1;stroke-width:1;stroke-linecap:round;stroke-linejoin:round;stroke:rgb(0%,0%,0%);stroke-opacity:1;stroke-miterlimit:10;" d="M -375 412.8 L -325 412.8 L -325 448 L -375 448 Z M -375 412.8 " transform="matrix(1.25,0,0,1.25,563.75,-458.75)"/>
<path style=" stroke:none;fill-rule:nonzero;fill:rgb(0%,0%,0%);fill-opacity:1;" d="M 120.996094 79.984375 L 122.050781 80.257812 C 121.824219 81.132812 121.425781 81.800781 120.839844 82.269531 C 120.261719 82.726562 119.554688 82.953125 118.710938 82.953125 C 117.851562 82.953125 117.148438 82.777344 116.601562 82.425781 C 116.054688 82.074219 115.632812 81.566406 115.351562 80.902344 C 115.078125 80.226562 114.941406 79.503906 114.941406 78.734375 C 114.941406 77.890625 115.097656 77.152344 115.410156 76.527344 C 115.730469 75.902344 116.191406 75.433594 116.777344 75.121094 C 117.371094 74.796875 118.027344 74.632812 118.730469 74.632812 C 119.535156 74.632812 120.214844 74.84375 120.761719 75.257812 C 121.316406 75.664062 121.703125 76.234375 121.914062 76.976562 L 120.859375 77.210938 C 120.671875 76.625 120.410156 76.203125 120.058594 75.941406 C 119.707031 75.667969 119.257812 75.53125 118.710938 75.53125 C 118.09375 75.53125 117.582031 75.683594 117.167969 75.980469 C 116.746094 76.28125 116.453125 76.683594 116.289062 77.191406 C 116.117188 77.6875 116.035156 78.195312 116.035156 78.714844 C 116.035156 79.40625 116.132812 80.011719 116.328125 80.53125 C 116.53125 81.039062 116.84375 81.417969 117.265625 81.664062 C 117.679688 81.914062 118.132812 82.035156 118.632812 82.035156 C 119.226562 82.035156 119.730469 81.867188 120.136719 81.527344 C 120.550781 81.175781 120.839844 80.664062 120.996094 79.984375 Z M 120.996094 79.984375 "/>
<path style=" stroke:none;fill-rule:nonzero;fill:rgb(0%,0%,0%);fill-opacity:1;" d="M 123.359375 82.816406 L 123.359375 74.769531 L 126.40625 74.769531 C 126.9375 74.769531 127.347656 74.796875 127.636719 74.847656 C 128.027344 74.914062 128.347656 75.039062 128.613281 75.21875 C 128.886719 75.402344 129.101562 75.664062 129.257812 76 C 129.421875 76.328125 129.511719 76.691406 129.511719 77.09375 C 129.511719 77.785156 129.285156 78.363281 128.847656 78.832031 C 128.417969 79.300781 127.636719 79.535156 126.503906 79.535156 L 124.433594 79.535156 L 124.433594 82.816406 Z M 124.433594 78.597656 L 126.523438 78.597656 C 127.195312 78.597656 127.679688 78.46875 127.96875 78.207031 C 128.265625 77.949219 128.417969 77.589844 128.417969 77.132812 C 128.417969 76.796875 128.328125 76.507812 128.164062 76.273438 C 127.992188 76.027344 127.761719 75.863281 127.480469 75.785156 C 127.308594 75.734375 126.976562 75.707031 126.484375 75.707031 L 124.433594 75.707031 Z M 124.433594 78.597656 "/>
<path style=" stroke:none;fill-rule:nonzero;fill:rgb(0%,0%,0%);fill-opacity:1;" d="M 136.15625 74.769531 L 137.230469 74.769531 L 137.230469 79.417969 C 137.230469 80.226562 137.132812 80.871094 136.9375 81.351562 C 136.75 81.820312 136.417969 82.207031 135.941406 82.503906 C 135.472656 82.804688 134.847656 82.953125 134.066406 82.953125 C 133.308594 82.953125 132.6875 82.820312 132.210938 82.5625 C 131.742188 82.304688 131.398438 81.925781 131.195312 81.429688 C 130.984375 80.9375 130.882812 80.265625 130.882812 79.417969 L 130.882812 74.769531 L 131.957031 74.769531 L 131.957031 79.417969 C 131.957031 80.109375 132.019531 80.625 132.152344 80.960938 C 132.277344 81.289062 132.503906 81.542969 132.816406 81.722656 C 133.128906 81.90625 133.519531 81.996094 133.988281 81.996094 C 134.769531 81.996094 135.320312 81.820312 135.648438 81.46875 C 135.984375 81.105469 136.15625 80.421875 136.15625 79.417969 Z M 136.15625 74.769531 "/>
<path style="fill-rule:nonzero;fill:rgb(69.803922%,85.098039%,100%);fill-opacity:1;stroke-width:1;stroke-linecap:round;stroke-linejoin:round;stroke:rgb(0%,0%,0%);stroke-opacity:1;stroke-miterlimit:10;" d="M -375 380 L -325 380 L -325 398 L -375 398 Z M -375 380 " transform="matrix(1.25,0,0,1.25,563.75,-458.75)"/>
<path style=" stroke:none;fill-rule:nonzero;fill:rgb(0%,0%,0%);fill-opacity:1;" d="M 114.628906 31.066406 L 114.628906 23.019531 L 118.203125 23.019531 C 118.917969 23.019531 119.464844 23.09375 119.84375 23.234375 C 120.21875 23.378906 120.519531 23.632812 120.742188 23.996094 C 120.960938 24.363281 121.074219 24.765625 121.074219 25.207031 C 121.074219 25.78125 120.882812 26.261719 120.507812 26.652344 C 120.140625 27.042969 119.574219 27.292969 118.808594 27.394531 C 119.082031 27.539062 119.296875 27.675781 119.453125 27.804688 C 119.765625 28.09375 120.058594 28.449219 120.332031 28.878906 L 121.738281 31.066406 L 120.390625 31.066406 L 119.316406 29.386719 C 119.015625 28.90625 118.761719 28.542969 118.554688 28.292969 C 118.359375 28.035156 118.175781 27.851562 118.007812 27.746094 C 117.851562 27.644531 117.695312 27.570312 117.539062 27.53125 C 117.40625 27.507812 117.207031 27.492188 116.933594 27.492188 L 115.703125 27.492188 L 115.703125 31.066406 Z M 115.703125 26.574219 L 117.988281 26.574219 C 118.480469 26.574219 118.867188 26.523438 119.140625 26.417969 C 119.414062 26.316406 119.621094 26.152344 119.765625 25.929688 C 119.90625 25.710938 119.980469 25.46875 119.980469 25.207031 C 119.980469 24.832031 119.835938 24.519531 119.550781 24.269531 C 119.277344 24.023438 118.839844 23.898438 118.242188 23.898438 L 115.703125 23.898438 Z M 115.703125 26.574219 "/>
<path style=" stroke:none;fill-rule:nonzero;fill:rgb(0%,0%,0%);fill-opacity:1;" d="M 121.855469 31.066406 L 124.960938 23.019531 L 126.09375 23.019531 L 129.394531 31.066406 L 128.183594 31.066406 L 127.246094 28.625 L 123.867188 28.625 L 122.988281 31.066406 Z M 124.179688 27.765625 L 126.914062 27.765625 L 126.074219 25.519531 C 125.8125 24.84375 125.625 24.289062 125.507812 23.859375 C 125.398438 24.382812 125.253906 24.894531 125.058594 25.402344 Z M 124.179688 27.765625 "/>
<path style=" stroke:none;fill-rule:nonzero;fill:rgb(0%,0%,0%);fill-opacity:1;" d="M 130.21875 31.066406 L 130.21875 23.019531 L 131.820312 23.019531 L 133.714844 28.722656 C 133.894531 29.246094 134.027344 29.640625 134.105469 29.914062 C 134.191406 29.617188 134.339844 29.1875 134.535156 28.625 L 136.46875 23.019531 L 137.894531 23.019531 L 137.894531 31.066406 L 136.878906 31.066406 L 136.878906 24.328125 L 134.535156 31.066406 L 133.578125 31.066406 L 131.234375 24.210938 L 131.234375 31.066406 Z M 130.21875 31.066406 "/>
<path style="fill:none;stroke-width:1;stroke-linecap:round;stroke-linejoin:round;stroke:rgb(0%,0%,0%);stroke-opacity:1;stroke-miterlimit:10;" d="M -350 412.8 L -350 403.9 " transform="matrix(1.25,0,0,1.25,563.75,-458.75)"/>
<path style="fill:none;stroke-width:1;stroke-linecap:butt;stroke-linejoin:miter;stroke:rgb(0%,0%,0%);stroke-opacity:1;stroke-miterlimit:10;" d="M -350 399.9 L -350 403.9 M -351.5 403.9 L -350 399.9 L -348.5 403.9 " transform="matrix(1.25,0,0,1.25,563.75,-458.75)"/>
<path style="fill-rule:nonzero;fill:rgb(40%,74.901961%,100%);fill-opacity:1;stroke-width:1;stroke-linecap:round;stroke-linejoin:round;stroke:rgb(0%,0%,0%);stroke-opacity:1;stroke-miterlimit:10;" d="M -291 380 L -259 380 C -254.03125 380 -250 384.03125 -250 389 C -250 393.96875 -254.03125 398 -259 398 L -291 398 C -295.96875 398 -300 393.96875 -300 389 C -300 384.03125 -295.96875 380 -291 380 Z M -291 380 " transform="matrix(1.25,0,0,1.25,563.75,-458.75)"/>
<path style=" stroke:none;fill-rule:nonzero;fill:rgb(0%,0%,0%);fill-opacity:1;" d="M 208.941406 28.488281 L 209.9375 28.390625 C 209.988281 28.796875 210.097656 29.128906 210.269531 29.386719 C 210.449219 29.648438 210.722656 29.855469 211.089844 30.011719 C 211.453125 30.167969 211.863281 30.246094 212.320312 30.246094 C 212.722656 30.246094 213.082031 30.1875 213.394531 30.070312 C 213.707031 29.953125 213.941406 29.792969 214.097656 29.582031 C 214.253906 29.363281 214.332031 29.128906 214.332031 28.878906 C 214.332031 28.632812 214.253906 28.417969 214.097656 28.234375 C 213.953125 28.039062 213.710938 27.878906 213.375 27.746094 C 213.164062 27.65625 212.691406 27.527344 211.949219 27.355469 C 211.207031 27.175781 210.683594 27.003906 210.386719 26.847656 C 210.007812 26.652344 209.722656 26.40625 209.527344 26.105469 C 209.34375 25.808594 209.253906 25.46875 209.253906 25.089844 C 209.253906 24.6875 209.363281 24.308594 209.585938 23.957031 C 209.820312 23.605469 210.15625 23.339844 210.601562 23.15625 C 211.042969 22.976562 211.539062 22.882812 212.085938 22.882812 C 212.683594 22.882812 213.210938 22.980469 213.667969 23.175781 C 214.121094 23.359375 214.46875 23.640625 214.703125 24.015625 C 214.949219 24.394531 215.085938 24.816406 215.113281 25.285156 L 214.078125 25.363281 C 214.023438 24.855469 213.84375 24.472656 213.53125 24.210938 C 213.21875 23.953125 212.75 23.820312 212.125 23.820312 C 211.484375 23.820312 211.015625 23.9375 210.71875 24.171875 C 210.417969 24.40625 210.269531 24.695312 210.269531 25.03125 C 210.269531 25.320312 210.371094 25.554688 210.582031 25.734375 C 210.789062 25.929688 211.324219 26.125 212.183594 26.320312 C 213.054688 26.515625 213.652344 26.6875 213.980469 26.828125 C 214.449219 27.039062 214.792969 27.3125 215.015625 27.648438 C 215.234375 27.976562 215.347656 28.359375 215.347656 28.800781 C 215.347656 29.21875 215.222656 29.621094 214.976562 30.011719 C 214.726562 30.390625 214.375 30.683594 213.921875 30.890625 C 213.464844 31.09375 212.949219 31.203125 212.378906 31.203125 C 211.648438 31.203125 211.035156 31.09375 210.542969 30.890625 C 210.046875 30.671875 209.65625 30.351562 209.371094 29.933594 C 209.097656 29.503906 208.953125 29.023438 208.941406 28.488281 Z M 208.941406 28.488281 "/>
<path style=" stroke:none;fill-rule:nonzero;fill:rgb(0%,0%,0%);fill-opacity:1;" d="M 216.445312 28.488281 L 217.441406 28.390625 C 217.492188 28.796875 217.601562 29.128906 217.773438 29.386719 C 217.953125 29.648438 218.226562 29.855469 218.59375 30.011719 C 218.957031 30.167969 219.367188 30.246094 219.824219 30.246094 C 220.226562 30.246094 220.585938 30.1875 220.898438 30.070312 C 221.210938 29.953125 221.445312 29.792969 221.601562 29.582031 C 221.757812 29.363281 221.835938 29.128906 221.835938 28.878906 C 221.835938 28.632812 221.757812 28.417969 221.601562 28.234375 C 221.457031 28.039062 221.214844 27.878906 220.878906 27.746094 C 220.667969 27.65625 220.195312 27.527344 219.453125 27.355469 C 218.710938 27.175781 218.1875 27.003906 217.890625 26.847656 C 217.511719 26.652344 217.226562 26.40625 217.03125 26.105469 C 216.847656 25.808594 216.757812 25.46875 216.757812 25.089844 C 216.757812 24.6875 216.867188 24.308594 217.089844 23.957031 C 217.324219 23.605469 217.660156 23.339844 218.105469 23.15625 C 218.546875 22.976562 219.042969 22.882812 219.589844 22.882812 C 220.1875 22.882812 220.714844 22.980469 221.171875 23.175781 C 221.625 23.359375 221.972656 23.640625 222.207031 24.015625 C 222.453125 24.394531 222.589844 24.816406 222.617188 25.285156 L 221.582031 25.363281 C 221.527344 24.855469 221.347656 24.472656 221.035156 24.210938 C 220.722656 23.953125 220.253906 23.820312 219.628906 23.820312 C 218.988281 23.820312 218.519531 23.9375 218.222656 24.171875 C 217.921875 24.40625 217.773438 24.695312 217.773438 25.03125 C 217.773438 25.320312 217.875 25.554688 218.085938 25.734375 C 218.292969 25.929688 218.828125 26.125 219.6875 26.320312 C 220.558594 26.515625 221.15625 26.6875 221.484375 26.828125 C 221.953125 27.039062 222.296875 27.3125 222.519531 27.648438 C 222.738281 27.976562 222.851562 28.359375 222.851562 28.800781 C 222.851562 29.21875 222.726562 29.621094 222.480469 30.011719 C 222.230469 30.390625 221.878906 30.683594 221.425781 30.890625 C 220.96875 31.09375 220.453125 31.203125 219.882812 31.203125 C 219.152344 31.203125 218.539062 31.09375 218.046875 30.890625 C 217.550781 30.671875 217.160156 30.351562 216.875 29.933594 C 216.601562 29.503906 216.457031 29.023438 216.445312 28.488281 Z M 216.445312 28.488281 "/>
<path style=" stroke:none;fill-rule:nonzero;fill:rgb(0%,0%,0%);fill-opacity:1;" d="M 224.300781 31.066406 L 224.300781 23.019531 L 227.074219 23.019531 C 227.710938 23.019531 228.191406 23.058594 228.519531 23.136719 C 228.972656 23.242188 229.363281 23.429688 229.691406 23.703125 C 230.121094 24.070312 230.4375 24.53125 230.648438 25.089844 C 230.855469 25.636719 230.960938 26.277344 230.960938 27.003906 C 230.960938 27.617188 230.886719 28.15625 230.746094 28.625 C 230.601562 29.09375 230.417969 29.484375 230.199219 29.796875 C 229.976562 30.109375 229.730469 30.359375 229.457031 30.539062 C 229.195312 30.710938 228.875 30.839844 228.5 30.929688 C 228.132812 31.023438 227.703125 31.066406 227.210938 31.066406 Z M 225.375 30.109375 L 227.09375 30.109375 C 227.625 30.109375 228.042969 30.066406 228.34375 29.972656 C 228.640625 29.871094 228.882812 29.726562 229.066406 29.542969 C 229.3125 29.296875 229.507812 28.957031 229.652344 28.527344 C 229.792969 28.097656 229.867188 27.585938 229.867188 26.984375 C 229.867188 26.140625 229.730469 25.496094 229.457031 25.050781 C 229.183594 24.597656 228.84375 24.289062 228.441406 24.132812 C 228.152344 24.015625 227.699219 23.957031 227.074219 23.957031 L 225.375 23.957031 Z M 225.375 30.109375 "/>
<path style="fill-rule:nonzero;fill:rgb(40%,74.901961%,100%);fill-opacity:1;stroke-width:1;stroke-linecap:round;stroke-linejoin:round;stroke:rgb(0%,0%,0%);stroke-opacity:1;stroke-miterlimit:10;" d="M -441 380 L -409 380 C -404.03125 380 -400 384.03125 -400 389 C -400 393.96875 -404.03125 398 -409 398 L -441 398 C -445.96875 398 -450 393.96875 -450 389 C -450 384.03125 -445.96875 380 -441 380 Z M -441 380 " transform="matrix(1.25,0,0,1.25,563.75,-458.75)"/>
<path style=" stroke:none;fill-rule:nonzero;fill:rgb(0%,0%,0%);fill-opacity:1;" d="M 12.730469 31.066406 L 12.730469 23.019531 L 13.824219 23.019531 L 18.042969 29.328125 L 18.042969 23.019531 L 19.078125 23.019531 L 19.078125 31.066406 L 17.984375 31.066406 L 13.746094 24.738281 L 13.746094 31.066406 Z M 12.730469 31.066406 "/>
<path style=" stroke:none;fill-rule:nonzero;fill:rgb(0%,0%,0%);fill-opacity:1;" d="M 24.722656 29.191406 L 25.757812 29.308594 C 25.585938 29.910156 25.277344 30.378906 24.839844 30.714844 C 24.410156 31.042969 23.851562 31.203125 23.179688 31.203125 C 22.328125 31.203125 21.65625 30.945312 21.148438 30.421875 C 20.648438 29.890625 20.40625 29.148438 20.40625 28.195312 C 20.40625 27.21875 20.660156 26.464844 21.167969 25.929688 C 21.675781 25.382812 22.328125 25.109375 23.140625 25.109375 C 23.921875 25.109375 24.550781 25.378906 25.035156 25.910156 C 25.527344 26.433594 25.777344 27.175781 25.777344 28.136719 C 25.777344 28.203125 25.777344 28.292969 25.777344 28.410156 L 21.421875 28.410156 C 21.460938 29.050781 21.640625 29.539062 21.96875 29.875 C 22.289062 30.214844 22.699219 30.382812 23.199219 30.382812 C 23.558594 30.382812 23.867188 30.292969 24.117188 30.109375 C 24.375 29.914062 24.574219 29.609375 24.722656 29.191406 Z M 21.480469 27.589844 L 24.742188 27.589844 C 24.703125 27.097656 24.574219 26.726562 24.371094 26.476562 C 24.058594 26.101562 23.648438 25.910156 23.140625 25.910156 C 22.679688 25.910156 22.300781 26.066406 21.988281 26.378906 C 21.683594 26.679688 21.519531 27.082031 21.480469 27.589844 Z M 21.480469 27.589844 "/>
<path style=" stroke:none;fill-rule:nonzero;fill:rgb(0%,0%,0%);fill-opacity:1;" d="M 29.164062 30.1875 L 29.300781 31.046875 C 29.011719 31.109375 28.761719 31.144531 28.558594 31.144531 C 28.191406 31.144531 27.914062 31.085938 27.71875 30.96875 C 27.523438 30.851562 27.375 30.703125 27.289062 30.519531 C 27.210938 30.339844 27.171875 29.953125 27.171875 29.367188 L 27.171875 26.007812 L 26.449219 26.007812 L 26.449219 25.226562 L 27.171875 25.226562 L 27.171875 23.78125 L 28.167969 23.195312 L 28.167969 25.226562 L 29.164062 25.226562 L 29.164062 26.007812 L 28.167969 26.007812 L 28.167969 29.40625 C 28.167969 29.695312 28.175781 29.875 28.207031 29.953125 C 28.246094 30.03125 28.304688 30.097656 28.382812 30.148438 C 28.460938 30.203125 28.566406 30.226562 28.714844 30.226562 C 28.832031 30.226562 28.976562 30.214844 29.164062 30.1875 Z M 29.164062 30.1875 "/>
<path style=" stroke:none;fill-rule:nonzero;fill:rgb(0%,0%,0%);fill-opacity:1;" d="M 31.195312 31.066406 L 29.417969 25.226562 L 30.433594 25.226562 L 31.371094 28.605469 L 31.703125 29.855469 C 31.710938 29.792969 31.820312 29.386719 32.015625 28.644531 L 32.933594 25.226562 L 33.949219 25.226562 L 34.828125 28.625 L 35.121094 29.738281 L 35.453125 28.605469 L 36.449219 25.226562 L 37.40625 25.226562 L 35.589844 31.066406 L 34.574219 31.066406 L 33.636719 27.570312 L 33.402344 26.574219 L 32.230469 31.066406 Z M 31.195312 31.066406 "/>
<path style=" stroke:none;fill-rule:nonzero;fill:rgb(0%,0%,0%);fill-opacity:1;" d="M 37.875 28.15625 C 37.875 27.078125 38.171875 26.277344 38.773438 25.753906 C 39.28125 25.324219 39.890625 25.109375 40.609375 25.109375 C 41.414062 25.109375 42.074219 25.371094 42.582031 25.890625 C 43.089844 26.414062 43.34375 27.136719 43.34375 28.058594 C 43.34375 28.816406 43.226562 29.40625 42.992188 29.835938 C 42.765625 30.265625 42.445312 30.605469 42.015625 30.851562 C 41.585938 31.085938 41.117188 31.203125 40.609375 31.203125 C 39.789062 31.203125 39.125 30.945312 38.617188 30.421875 C 38.117188 29.890625 37.875 29.132812 37.875 28.15625 Z M 38.890625 28.15625 C 38.890625 28.898438 39.050781 29.460938 39.378906 29.835938 C 39.699219 30.203125 40.109375 30.382812 40.609375 30.382812 C 41.101562 30.382812 41.511719 30.203125 41.839844 29.835938 C 42.160156 29.460938 42.328125 28.886719 42.328125 28.117188 C 42.328125 27.402344 42.160156 26.855469 41.839844 26.476562 C 41.511719 26.101562 41.101562 25.910156 40.609375 25.910156 C 40.109375 25.910156 39.699219 26.101562 39.378906 26.476562 C 39.050781 26.84375 38.890625 27.402344 38.890625 28.15625 Z M 38.890625 28.15625 "/>
<path style=" stroke:none;fill-rule:nonzero;fill:rgb(0%,0%,0%);fill-opacity:1;" d="M 44.480469 31.066406 L 44.480469 25.226562 L 45.378906 25.226562 L 45.378906 26.125 C 45.601562 25.710938 45.808594 25.4375 46.003906 25.304688 C 46.199219 25.175781 46.414062 25.109375 46.648438 25.109375 C 46.972656 25.109375 47.3125 25.214844 47.664062 25.421875 L 47.3125 26.339844 C 47.078125 26.199219 46.835938 26.125 46.589844 26.125 C 46.382812 26.125 46.1875 26.191406 46.003906 26.320312 C 45.835938 26.453125 45.710938 26.632812 45.632812 26.867188 C 45.527344 27.21875 45.476562 27.605469 45.476562 28.019531 L 45.476562 31.066406 Z M 44.480469 31.066406 "/>
<path style=" stroke:none;fill-rule:nonzero;fill:rgb(0%,0%,0%);fill-opacity:1;" d="M 48.25 31.066406 L 48.25 23.019531 L 49.246094 23.019531 L 49.246094 27.609375 L 51.589844 25.226562 L 52.859375 25.226562 L 50.632812 27.394531 L 53.09375 31.066406 L 51.863281 31.066406 L 49.949219 28.078125 L 49.246094 28.761719 L 49.246094 31.066406 Z M 48.25 31.066406 "/>
<path style="fill-rule:nonzero;fill:rgb(69.803922%,85.098039%,100%);fill-opacity:1;stroke-width:1;stroke-linecap:round;stroke-linejoin:round;stroke:rgb(0%,0%,0%);stroke-opacity:1;stroke-miterlimit:10;" d="M -225 380 L -175 380 L -175 398 L -225 398 Z M -225 380 " transform="matrix(1.25,0,0,1.25,563.75,-458.75)"/>
<path style=" stroke:none;fill-rule:nonzero;fill:rgb(0%,0%,0%);fill-opacity:1;" d="M 306.191406 27.902344 L 306.191406 26.964844 L 309.609375 26.964844 L 309.609375 29.953125 C 309.085938 30.371094 308.542969 30.683594 307.988281 30.890625 C 307.425781 31.09375 306.855469 31.203125 306.269531 31.203125 C 305.488281 31.203125 304.769531 31.035156 304.121094 30.695312 C 303.464844 30.359375 302.976562 29.871094 302.65625 29.230469 C 302.328125 28.59375 302.167969 27.878906 302.167969 27.082031 C 302.167969 26.300781 302.328125 25.574219 302.65625 24.894531 C 302.976562 24.207031 303.445312 23.699219 304.0625 23.371094 C 304.6875 23.046875 305.394531 22.882812 306.191406 22.882812 C 306.777344 22.882812 307.304688 22.980469 307.773438 23.175781 C 308.242188 23.359375 308.601562 23.621094 308.867188 23.957031 C 309.140625 24.285156 309.34375 24.71875 309.492188 25.265625 L 308.535156 25.519531 C 308.402344 25.117188 308.246094 24.796875 308.066406 24.5625 C 307.894531 24.328125 307.640625 24.140625 307.304688 23.996094 C 306.976562 23.855469 306.605469 23.78125 306.191406 23.78125 C 305.707031 23.78125 305.28125 23.859375 304.921875 24.015625 C 304.570312 24.160156 304.28125 24.355469 304.0625 24.601562 C 303.851562 24.835938 303.691406 25.097656 303.574219 25.382812 C 303.363281 25.890625 303.261719 26.433594 303.261719 27.003906 C 303.261719 27.734375 303.382812 28.339844 303.632812 28.820312 C 303.875 29.304688 304.238281 29.660156 304.707031 29.894531 C 305.175781 30.128906 305.671875 30.246094 306.210938 30.246094 C 306.679688 30.246094 307.128906 30.164062 307.558594 29.992188 C 307.996094 29.8125 308.339844 29.617188 308.574219 29.40625 L 308.574219 27.902344 Z M 306.191406 27.902344 "/>
<path style=" stroke:none;fill-rule:nonzero;fill:rgb(0%,0%,0%);fill-opacity:1;" d="M 311.171875 31.066406 L 311.171875 23.019531 L 314.21875 23.019531 C 314.75 23.019531 315.160156 23.046875 315.449219 23.097656 C 315.839844 23.164062 316.160156 23.289062 316.425781 23.46875 C 316.699219 23.652344 316.914062 23.914062 317.070312 24.25 C 317.234375 24.578125 317.324219 24.941406 317.324219 25.34375 C 317.324219 26.035156 317.097656 26.613281 316.660156 27.082031 C 316.230469 27.550781 315.449219 27.785156 314.316406 27.785156 L 312.246094 27.785156 L 312.246094 31.066406 Z M 312.246094 26.847656 L 314.335938 26.847656 C 315.007812 26.847656 315.492188 26.71875 315.78125 26.457031 C 316.078125 26.199219 316.230469 25.839844 316.230469 25.382812 C 316.230469 25.046875 316.140625 24.757812 315.976562 24.523438 C 315.804688 24.277344 315.574219 24.113281 315.292969 24.035156 C 315.121094 23.984375 314.789062 23.957031 314.296875 23.957031 L 312.246094 23.957031 Z M 312.246094 26.847656 "/>
<path style=" stroke:none;fill-rule:nonzero;fill:rgb(0%,0%,0%);fill-opacity:1;" d="M 323.96875 23.019531 L 325.042969 23.019531 L 325.042969 27.667969 C 325.042969 28.476562 324.945312 29.121094 324.75 29.601562 C 324.5625 30.070312 324.230469 30.457031 323.753906 30.753906 C 323.285156 31.054688 322.660156 31.203125 321.878906 31.203125 C 321.121094 31.203125 320.5 31.070312 320.023438 30.8125 C 319.554688 30.554688 319.210938 30.175781 319.007812 29.679688 C 318.796875 29.1875 318.695312 28.515625 318.695312 27.667969 L 318.695312 23.019531 L 319.769531 23.019531 L 319.769531 27.667969 C 319.769531 28.359375 319.832031 28.875 319.964844 29.210938 C 320.089844 29.539062 320.316406 29.792969 320.628906 29.972656 C 320.941406 30.15625 321.332031 30.246094 321.800781 30.246094 C 322.582031 30.246094 323.132812 30.070312 323.460938 29.71875 C 323.796875 29.355469 323.96875 28.671875 323.96875 27.667969 Z M 323.96875 23.019531 "/>
<path style="fill-rule:nonzero;fill:rgb(100%,100%,100%);fill-opacity:1;stroke-width:1;stroke-linecap:round;stroke-linejoin:round;stroke:rgb(0%,0%,0%);stroke-opacity:1;stroke-miterlimit:10;" d="M -450 412.8 L -400 412.8 L -400 448 L -450 448 Z M -450 412.8 " transform="matrix(1.25,0,0,1.25,563.75,-458.75)"/>
<path style=" stroke:none;fill-rule:nonzero;fill:rgb(0%,0%,0%);fill-opacity:1;" d="M 20.050781 79.984375 L 21.105469 80.257812 C 20.878906 81.132812 20.480469 81.800781 19.894531 82.269531 C 19.316406 82.726562 18.609375 82.953125 17.765625 82.953125 C 16.90625 82.953125 16.203125 82.777344 15.65625 82.425781 C 15.109375 82.074219 14.6875 81.566406 14.40625 80.902344 C 14.132812 80.226562 13.996094 79.503906 13.996094 78.734375 C 13.996094 77.890625 14.152344 77.152344 14.464844 76.527344 C 14.785156 75.902344 15.246094 75.433594 15.832031 75.121094 C 16.425781 74.796875 17.082031 74.632812 17.785156 74.632812 C 18.589844 74.632812 19.269531 74.84375 19.816406 75.257812 C 20.371094 75.664062 20.757812 76.234375 20.96875 76.976562 L 19.914062 77.210938 C 19.726562 76.625 19.464844 76.203125 19.113281 75.941406 C 18.761719 75.667969 18.3125 75.53125 17.765625 75.53125 C 17.148438 75.53125 16.636719 75.683594 16.222656 75.980469 C 15.800781 76.28125 15.507812 76.683594 15.34375 77.191406 C 15.171875 77.6875 15.089844 78.195312 15.089844 78.714844 C 15.089844 79.40625 15.1875 80.011719 15.382812 80.53125 C 15.585938 81.039062 15.898438 81.417969 16.320312 81.664062 C 16.734375 81.914062 17.1875 82.035156 17.6875 82.035156 C 18.28125 82.035156 18.785156 81.867188 19.191406 81.527344 C 19.605469 81.175781 19.894531 80.664062 20.050781 79.984375 Z M 20.050781 79.984375 "/>
<path style=" stroke:none;fill-rule:nonzero;fill:rgb(0%,0%,0%);fill-opacity:1;" d="M 22.292969 82.816406 L 22.292969 74.769531 L 23.289062 74.769531 L 23.289062 77.660156 C 23.746094 77.128906 24.324219 76.859375 25.027344 76.859375 C 25.457031 76.859375 25.828125 76.945312 26.140625 77.113281 C 26.464844 77.285156 26.695312 77.519531 26.824219 77.816406 C 26.96875 78.117188 27.039062 78.554688 27.039062 79.125 L 27.039062 82.816406 L 26.0625 82.816406 L 26.0625 79.125 C 26.0625 78.632812 25.953125 78.273438 25.730469 78.050781 C 25.523438 77.816406 25.222656 77.699219 24.832031 77.699219 C 24.53125 77.699219 24.253906 77.777344 23.992188 77.933594 C 23.730469 78.078125 23.550781 78.28125 23.445312 78.539062 C 23.339844 78.800781 23.289062 79.164062 23.289062 79.632812 L 23.289062 82.816406 Z M 22.292969 82.816406 "/>
<path style=" stroke:none;fill-rule:nonzero;fill:rgb(0%,0%,0%);fill-opacity:1;" d="M 28.550781 75.902344 L 28.550781 74.769531 L 29.546875 74.769531 L 29.546875 75.902344 Z M 28.550781 82.816406 L 28.550781 76.976562 L 29.546875 76.976562 L 29.546875 82.816406 Z M 28.550781 82.816406 "/>
<path style=" stroke:none;fill-rule:nonzero;fill:rgb(0%,0%,0%);fill-opacity:1;" d="M 31.050781 85.042969 L 31.050781 76.976562 L 31.949219 76.976562 L 31.949219 77.738281 C 32.15625 77.441406 32.390625 77.21875 32.652344 77.074219 C 32.925781 76.933594 33.257812 76.859375 33.648438 76.859375 C 34.140625 76.859375 34.578125 76.992188 34.957031 77.25 C 35.332031 77.5 35.621094 77.855469 35.816406 78.324219 C 36.011719 78.792969 36.109375 79.300781 36.109375 79.847656 C 36.109375 80.449219 35.996094 80.988281 35.777344 81.46875 C 35.566406 81.953125 35.261719 82.324219 34.859375 82.582031 C 34.453125 82.824219 34.023438 82.953125 33.570312 82.953125 C 33.242188 82.953125 32.949219 82.878906 32.691406 82.738281 C 32.429688 82.597656 32.214844 82.421875 32.046875 82.210938 L 32.046875 85.042969 Z M 31.949219 79.925781 C 31.949219 80.683594 32.097656 81.242188 32.398438 81.605469 C 32.710938 81.957031 33.082031 82.132812 33.511719 82.132812 C 33.941406 82.132812 34.3125 81.953125 34.625 81.585938 C 34.949219 81.210938 35.113281 80.628906 35.113281 79.847656 C 35.113281 79.105469 34.957031 78.554688 34.644531 78.1875 C 34.34375 77.8125 33.980469 77.621094 33.550781 77.621094 C 33.132812 77.621094 32.761719 77.824219 32.4375 78.226562 C 32.109375 78.617188 31.949219 79.183594 31.949219 79.925781 Z M 31.949219 79.925781 "/>
<path style=" stroke:none;fill-rule:nonzero;fill:rgb(0%,0%,0%);fill-opacity:1;" d="M 36.917969 81.078125 L 37.894531 80.921875 C 37.945312 81.3125 38.09375 81.613281 38.34375 81.820312 C 38.601562 82.03125 38.953125 82.132812 39.398438 82.132812 C 39.851562 82.132812 40.191406 82.042969 40.414062 81.859375 C 40.632812 81.679688 40.746094 81.464844 40.746094 81.214844 C 40.746094 80.980469 40.648438 80.804688 40.453125 80.6875 C 40.308594 80.597656 39.96875 80.480469 39.4375 80.335938 C 38.707031 80.15625 38.199219 80 37.914062 79.867188 C 37.640625 79.738281 37.429688 79.554688 37.289062 79.320312 C 37.144531 79.085938 37.074219 78.828125 37.074219 78.539062 C 37.074219 78.28125 37.132812 78.039062 37.25 77.816406 C 37.367188 77.597656 37.527344 77.40625 37.738281 77.25 C 37.894531 77.148438 38.101562 77.054688 38.363281 76.976562 C 38.636719 76.898438 38.921875 76.859375 39.222656 76.859375 C 39.675781 76.859375 40.074219 76.925781 40.414062 77.054688 C 40.765625 77.1875 41.023438 77.363281 41.195312 77.582031 C 41.363281 77.804688 41.480469 78.105469 41.546875 78.480469 L 40.570312 78.617188 C 40.53125 78.320312 40.398438 78.085938 40.179688 77.914062 C 39.96875 77.746094 39.675781 77.660156 39.300781 77.660156 C 38.84375 77.660156 38.519531 77.738281 38.324219 77.894531 C 38.128906 78.039062 38.03125 78.214844 38.03125 78.421875 C 38.03125 78.554688 38.070312 78.664062 38.148438 78.753906 C 38.226562 78.871094 38.355469 78.964844 38.539062 79.027344 C 38.628906 79.066406 38.914062 79.152344 39.398438 79.28125 C 40.101562 79.464844 40.589844 79.613281 40.863281 79.730469 C 41.148438 79.847656 41.371094 80.023438 41.527344 80.257812 C 41.683594 80.480469 41.761719 80.761719 41.761719 81.097656 C 41.761719 81.4375 41.664062 81.75 41.46875 82.035156 C 41.273438 82.324219 40.992188 82.550781 40.628906 82.71875 C 40.277344 82.875 39.867188 82.953125 39.398438 82.953125 C 38.640625 82.953125 38.0625 82.796875 37.660156 82.484375 C 37.269531 82.160156 37.019531 81.691406 36.917969 81.078125 Z M 36.917969 81.078125 "/>
<path style=" stroke:none;fill-rule:nonzero;fill:rgb(0%,0%,0%);fill-opacity:1;" d="M 46.917969 80.941406 L 47.953125 81.058594 C 47.78125 81.660156 47.476562 82.128906 47.035156 82.464844 C 46.605469 82.792969 46.050781 82.953125 45.375 82.953125 C 44.527344 82.953125 43.851562 82.695312 43.34375 82.171875 C 42.847656 81.640625 42.601562 80.898438 42.601562 79.945312 C 42.601562 78.96875 42.855469 78.214844 43.363281 77.679688 C 43.871094 77.132812 44.527344 76.859375 45.335938 76.859375 C 46.117188 76.859375 46.746094 77.128906 47.230469 77.660156 C 47.722656 78.183594 47.972656 78.925781 47.972656 79.886719 C 47.972656 79.953125 47.972656 80.042969 47.972656 80.160156 L 43.617188 80.160156 C 43.65625 80.800781 43.835938 81.289062 44.164062 81.625 C 44.488281 81.964844 44.898438 82.132812 45.394531 82.132812 C 45.757812 82.132812 46.0625 82.042969 46.3125 81.859375 C 46.570312 81.664062 46.773438 81.359375 46.917969 80.941406 Z M 43.675781 79.339844 L 46.9375 79.339844 C 46.898438 78.847656 46.773438 78.476562 46.566406 78.226562 C 46.253906 77.851562 45.84375 77.660156 45.335938 77.660156 C 44.878906 77.660156 44.496094 77.816406 44.183594 78.128906 C 43.882812 78.429688 43.714844 78.832031 43.675781 79.339844 Z M 43.675781 79.339844 "/>
<path style=" stroke:none;fill-rule:nonzero;fill:rgb(0%,0%,0%);fill-opacity:1;" d="M 51.359375 81.9375 L 51.496094 82.796875 C 51.207031 82.859375 50.957031 82.894531 50.753906 82.894531 C 50.386719 82.894531 50.109375 82.835938 49.914062 82.71875 C 49.71875 82.601562 49.570312 82.453125 49.484375 82.269531 C 49.40625 82.089844 49.367188 81.703125 49.367188 81.117188 L 49.367188 77.757812 L 48.644531 77.757812 L 48.644531 76.976562 L 49.367188 76.976562 L 49.367188 75.53125 L 50.363281 74.945312 L 50.363281 76.976562 L 51.359375 76.976562 L 51.359375 77.757812 L 50.363281 77.757812 L 50.363281 81.15625 C 50.363281 81.445312 50.371094 81.625 50.402344 81.703125 C 50.441406 81.78125 50.5 81.847656 50.578125 81.898438 C 50.65625 81.953125 50.761719 81.976562 50.910156 81.976562 C 51.027344 81.976562 51.171875 81.964844 51.359375 81.9375 Z M 51.359375 81.9375 "/>
<path style="fill:none;stroke-width:1;stroke-linecap:round;stroke-linejoin:round;stroke:rgb(0%,0%,0%);stroke-opacity:1;stroke-miterlimit:10;" d="M -325 430.265625 L -278.98125 430.01875 C -276.778125 430.00625 -275 428.221875 -275 426.01875 L -275 403.9 " transform="matrix(1.25,0,0,1.25,563.75,-458.75)"/>
<path style="fill:none;stroke-width:1;stroke-linecap:butt;stroke-linejoin:miter;stroke:rgb(0%,0%,0%);stroke-opacity:1;stroke-miterlimit:10;" d="M -275 399.9 L -275 403.9 M -276.5 403.9 L -275 399.9 L -273.5 403.9 " transform="matrix(1.25,0,0,1.25,563.75,-458.75)"/>
<path style="fill:none;stroke-width:1;stroke-linecap:round;stroke-linejoin:round;stroke:rgb(0%,0%,0%);stroke-opacity:1;stroke-miterlimit:10;" d="M -375 430.4 L -394.1 430.4 " transform="matrix(1.25,0,0,1.25,563.75,-458.75)"/>
<path style="fill:none;stroke-width:1;stroke-linecap:butt;stroke-linejoin:miter;stroke:rgb(0%,0%,0%);stroke-opacity:1;stroke-miterlimit:10;" d="M -398.1 430.4 L -394.1 430.4 M -394.1 431.9 L -398.1 430.4 L -394.1 428.9 " transform="matrix(1.25,0,0,1.25,563.75,-458.75)"/>
<path style="fill:none;stroke-width:1;stroke-linecap:round;stroke-linejoin:round;stroke:rgb(0%,0%,0%);stroke-opacity:1;stroke-miterlimit:10;" d="M -425 412.8 L -425 403.9 " transform="matrix(1.25,0,0,1.25,563.75,-458.75)"/>
<path style="fill:none;stroke-width:1;stroke-linecap:butt;stroke-linejoin:miter;stroke:rgb(0%,0%,0%);stroke-opacity:1;stroke-miterlimit:10;" d="M -425 399.9 L -425 403.9 M -426.5 403.9 L -425 399.9 L -423.5 403.9 " transform="matrix(1.25,0,0,1.25,563.75,-458.75)"/>
<path style=" stroke:none;fill-rule:nonzero;fill:rgb(0%,0%,0%);fill-opacity:1;" d="M 218.75 65.554688 L 215.722656 63.425781 L 212.910156 65.398438 L 212.910156 64.148438 L 214.277344 63.25 C 214.539062 63.09375 214.761719 62.964844 214.941406 62.859375 C 214.695312 62.691406 214.484375 62.539062 214.296875 62.410156 L 212.910156 61.433594 L 212.910156 60.242188 L 215.664062 62.253906 L 218.75 60.085938 L 218.75 61.296875 L 216.933594 62.507812 L 216.445312 62.820312 L 218.75 64.34375 Z M 218.75 65.554688 "/>
<path style=" stroke:none;fill-rule:nonzero;fill:rgb(0%,0%,0%);fill-opacity:1;" d="M 218.75 56.375 L 216.816406 56.375 L 216.816406 59.871094 L 215.917969 59.871094 L 210.703125 56.199219 L 210.703125 55.378906 L 215.917969 55.378906 L 215.917969 54.285156 L 216.816406 54.285156 L 216.816406 55.378906 L 218.75 55.378906 Z M 215.917969 56.375 L 212.285156 56.375 L 215.917969 58.894531 Z M 215.917969 56.375 "/>
<path style=" stroke:none;fill-rule:nonzero;fill:rgb(0%,0%,0%);fill-opacity:1;" d="M 311.25 68.683594 L 308.222656 66.554688 L 305.410156 68.527344 L 305.410156 67.277344 L 306.777344 66.378906 C 307.039062 66.222656 307.261719 66.09375 307.441406 65.988281 C 307.195312 65.820312 306.984375 65.667969 306.796875 65.539062 L 305.410156 64.5625 L 305.410156 63.371094 L 308.164062 65.382812 L 311.25 63.214844 L 311.25 64.425781 L 309.433594 65.636719 L 308.945312 65.949219 L 311.25 67.472656 Z M 311.25 68.683594 "/>
<path style=" stroke:none;fill-rule:nonzero;fill:rgb(0%,0%,0%);fill-opacity:1;" d="M 311.25 58.9375 L 311.25 59.933594 L 304.941406 59.933594 C 305.175781 60.167969 305.410156 60.480469 305.644531 60.871094 C 305.867188 61.261719 306.03125 61.605469 306.132812 61.90625 L 305.175781 61.90625 C 304.929688 61.359375 304.625 60.878906 304.257812 60.460938 C 303.882812 60.042969 303.515625 59.75 303.164062 59.582031 L 303.164062 58.9375 Z M 311.25 58.9375 "/>
<path style=" stroke:none;fill-rule:nonzero;fill:rgb(0%,0%,0%);fill-opacity:1;" d="M 305.175781 51.273438 L 305.253906 52.269531 C 304.863281 52.347656 304.578125 52.472656 304.394531 52.640625 C 304.121094 52.902344 303.984375 53.226562 303.984375 53.617188 C 303.984375 53.941406 304.070312 54.222656 304.238281 54.457031 C 304.472656 54.769531 304.804688 55.015625 305.234375 55.199219 C 305.664062 55.367188 306.285156 55.460938 307.089844 55.472656 C 306.738281 55.238281 306.480469 54.953125 306.308594 54.613281 C 306.128906 54.261719 306.035156 53.898438 306.035156 53.519531 C 306.035156 52.855469 306.28125 52.296875 306.757812 51.839844 C 307.242188 51.371094 307.867188 51.136719 308.632812 51.136719 C 309.140625 51.136719 309.617188 51.246094 310.058594 51.46875 C 310.488281 51.691406 310.820312 51.988281 311.054688 52.367188 C 311.273438 52.746094 311.386719 53.175781 311.386719 53.65625 C 311.386719 54.476562 311.089844 55.148438 310.488281 55.667969 C 309.878906 56.1875 308.875 56.449219 307.480469 56.449219 C 305.933594 56.449219 304.800781 56.164062 304.082031 55.589844 C 303.472656 55.09375 303.164062 54.417969 303.164062 53.558594 C 303.164062 52.933594 303.351562 52.417969 303.710938 52.015625 C 304.0625 51.613281 304.550781 51.363281 305.175781 51.273438 Z M 308.632812 55.316406 C 308.984375 55.316406 309.316406 55.246094 309.628906 55.101562 C 309.929688 54.957031 310.164062 54.757812 310.332031 54.496094 C 310.488281 54.234375 310.566406 53.960938 310.566406 53.675781 C 310.566406 53.257812 310.40625 52.902344 310.078125 52.601562 C 309.742188 52.300781 309.277344 52.152344 308.691406 52.152344 C 308.132812 52.152344 307.695312 52.300781 307.382812 52.601562 C 307.0625 52.886719 306.894531 53.257812 306.894531 53.714844 C 306.894531 54.15625 307.0625 54.535156 307.382812 54.847656 C 307.695312 55.160156 308.117188 55.316406 308.632812 55.316406 Z M 308.632812 55.316406 "/>
</g>
</svg>
