<?xml version="1.0" encoding="UTF-8"?>
<svg xmlns="http://www.w3.org/2000/svg" xmlns:xlink="http://www.w3.org/1999/xlink" width="409pt" height="185pt" viewBox="0 0 409 185" version="1.1">
<g id="surface1">
<path style="fill-rule:nonzero;fill:rgb(100%,100%,100%);fill-opacity:1;stroke-width:1;stroke-linecap:round;stroke-linejoin:round;stroke:rgb(0%,0%,0%);stroke-opacity:1;stroke-miterlimit:10;" d="M 112.778125 865.515625 C 117.075 869.8125 117.075 876.778125 112.778125 881.075 C 108.48125 885.36875 101.51875 885.36875 97.221875 881.075 C 92.925 876.778125 92.925 869.8125 97.221875 865.515625 C 101.51875 861.21875 108.48125 861.21875 112.778125 865.515625 " transform="matrix(1.25,0,0,1.25,-76.25,-966.25)"/>
<path style=" stroke:none;fill-rule:nonzero;fill:rgb(0%,0%,0%);fill-opacity:1;" d="M 54.527344 127.625 L 54.527344 125.417969 L 52.339844 125.417969 L 52.339844 124.5 L 54.527344 124.5 L 54.527344 122.3125 L 55.464844 122.3125 L 55.464844 124.5 L 57.652344 124.5 L 57.652344 125.417969 L 55.464844 125.417969 L 55.464844 127.625 Z M 54.527344 127.625 "/>
<path style="fill-rule:nonzero;fill:rgb(100%,100%,100%);fill-opacity:1;stroke-width:1;stroke-linecap:round;stroke-linejoin:round;stroke:rgb(0%,0%,0%);stroke-opacity:1;stroke-miterlimit:10;" d="M 144.778125 865.515625 C 149.075 869.8125 149.075 876.778125 144.778125 881.075 C 140.48125 885.36875 133.51875 885.36875 129.221875 881.075 C 124.925 876.778125 124.925 869.8125 129.221875 865.515625 C 133.51875 861.21875 140.48125 861.21875 144.778125 865.515625 " transform="matrix(1.25,0,0,1.25,-76.25,-966.25)"/>
<path style=" stroke:none;fill-rule:nonzero;fill:rgb(0%,0%,0%);fill-opacity:1;" d="M 94.527344 127.625 L 94.527344 125.417969 L 92.339844 125.417969 L 92.339844 124.5 L 94.527344 124.5 L 94.527344 122.3125 L 95.464844 122.3125 L 95.464844 124.5 L 97.652344 124.5 L 97.652344 125.417969 L 95.464844 125.417969 L 95.464844 127.625 Z M 94.527344 127.625 "/>
<path style="fill-rule:nonzero;fill:rgb(100%,100%,100%);fill-opacity:1;stroke-width:1;stroke-linecap:round;stroke-linejoin:round;stroke:rgb(0%,0%,0%);stroke-opacity:1;stroke-miterlimit:10;" d="M 176.778125 865.515625 C 181.075 869.8125 181.075 876.778125 176.778125 881.075 C 172.48125 885.36875 165.51875 885.36875 161.221875 881.075 C 156.925 876.778125 156.925 869.8125 161.221875 865.515625 C 165.51875 861.21875 172.48125 861.21875 176.778125 865.515625 " transform="matrix(1.25,0,0,1.25,-76.25,-966.25)"/>
<path style=" stroke:none;fill-rule:nonzero;fill:rgb(0%,0%,0%);fill-opacity:1;" d="M 134.527344 127.625 L 134.527344 125.417969 L 132.339844 125.417969 L 132.339844 124.5 L 134.527344 124.5 L 134.527344 122.3125 L 135.464844 122.3125 L 135.464844 124.5 L 137.652344 124.5 L 137.652344 125.417969 L 135.464844 125.417969 L 135.464844 127.625 Z M 134.527344 127.625 "/>
<path style="fill-rule:nonzero;fill:rgb(100%,100%,100%);fill-opacity:1;stroke-width:1;stroke-linecap:round;stroke-linejoin:round;stroke:rgb(0%,0%,0%);stroke-opacity:1;stroke-miterlimit:10;" d="M 208.778125 865.515625 C 213.075 869.8125 213.075 876.778125 208.778125 881.075 C 204.48125 885.36875 197.51875 885.36875 193.221875 881.075 C 188.925 876.778125 188.925 869.8125 193.221875 865.515625 C 197.51875 861.21875 204.48125 861.21875 208.778125 865.515625 " transform="matrix(1.25,0,0,1.25,-76.25,-966.25)"/>
<path style=" stroke:none;fill-rule:nonzero;fill:rgb(0%,0%,0%);fill-opacity:1;" d="M 174.527344 127.625 L 174.527344 125.417969 L 172.339844 125.417969 L 172.339844 124.5 L 174.527344 124.5 L 174.527344 122.3125 L 175.464844 122.3125 L 175.464844 124.5 L 177.652344 124.5 L 177.652344 125.417969 L 175.464844 125.417969 L 175.464844 127.625 Z M 174.527344 127.625 "/>
<path style="fill-rule:nonzero;fill:rgb(100%,100%,100%);fill-opacity:1;stroke-width:1;stroke-linecap:round;stroke-linejoin:round;stroke:rgb(0%,0%,0%);stroke-opacity:1;stroke-miterlimit:10;" d="M 240.778125 865.515625 C 245.075 869.8125 245.075 876.778125 240.778125 881.075 C 236.48125 885.36875 229.51875 885.36875 225.221875 881.075 C 220.925 876.778125 220.925 869.8125 225.221875 865.515625 C 229.51875 861.21875 236.48125 861.21875 240.778125 865.515625 " transform="matrix(1.25,0,0,1.25,-76.25,-966.25)"/>
<path style=" stroke:none;fill-rule:nonzero;fill:rgb(0%,0%,0%);fill-opacity:1;" d="M 214.527344 127.625 L 214.527344 125.417969 L 212.339844 125.417969 L 212.339844 124.5 L 214.527344 124.5 L 214.527344 122.3125 L 215.464844 122.3125 L 215.464844 124.5 L 217.652344 124.5 L 217.652344 125.417969 L 215.464844 125.417969 L 215.464844 127.625 Z M 214.527344 127.625 "/>
<path style="fill-rule:nonzero;fill:rgb(100%,100%,100%);fill-opacity:1;stroke-width:1;stroke-linecap:round;stroke-linejoin:round;stroke:rgb(0%,0%,0%);stroke-opacity:1;stroke-miterlimit:10;" d="M 272.778125 865.515625 C 277.075 869.8125 277.075 876.778125 272.778125 881.075 C 268.48125 885.36875 261.51875 885.36875 257.221875 881.075 C 252.925 876.778125 252.925 869.8125 257.221875 865.515625 C 261.51875 861.21875 268.48125 861.21875 272.778125 865.515625 " transform="matrix(1.25,0,0,1.25,-76.25,-966.25)"/>
<path style=" stroke:none;fill-rule:nonzero;fill:rgb(0%,0%,0%);fill-opacity:1;" d="M 254.527344 127.625 L 254.527344 125.417969 L 252.339844 125.417969 L 252.339844 124.5 L 254.527344 124.5 L 254.527344 122.3125 L 255.464844 122.3125 L 255.464844 124.5 L 257.652344 124.5 L 257.652344 125.417969 L 255.464844 125.417969 L 255.464844 127.625 Z M 254.527344 127.625 "/>
<path style="fill-rule:nonzero;fill:rgb(100%,100%,100%);fill-opacity:1;stroke-width:1;stroke-linecap:round;stroke-linejoin:round;stroke:rgb(0%,0%,0%);stroke-opacity:1;stroke-miterlimit:10;" d="M 304.778125 865.515625 C 309.075 869.8125 309.075 876.778125 304.778125 881.075 C 300.48125 885.36875 293.51875 885.36875 289.221875 881.075 C 284.925 876.778125 284.925 869.8125 289.221875 865.515625 C 293.51875 861.21875 300.48125 861.21875 304.778125 865.515625 " transform="matrix(1.25,0,0,1.25,-76.25,-966.25)"/>
<path style=" stroke:none;fill-rule:nonzero;fill:rgb(0%,0%,0%);fill-opacity:1;" d="M 294.527344 127.625 L 294.527344 125.417969 L 292.339844 125.417969 L 292.339844 124.5 L 294.527344 124.5 L 294.527344 122.3125 L 295.464844 122.3125 L 295.464844 124.5 L 297.652344 124.5 L 297.652344 125.417969 L 295.464844 125.417969 L 295.464844 127.625 Z M 294.527344 127.625 "/>
<path style="fill-rule:nonzero;fill:rgb(100%,100%,100%);fill-opacity:1;stroke-width:1;stroke-linecap:round;stroke-linejoin:round;stroke:rgb(0%,0%,0%);stroke-opacity:1;stroke-miterlimit:10;" d="M 336.778125 865.515625 C 341.075 869.8125 341.075 876.778125 336.778125 881.075 C 332.48125 885.36875 325.51875 885.36875 321.221875 881.075 C 316.925 876.778125 316.925 869.8125 321.221875 865.515625 C 325.51875 861.21875 332.48125 861.21875 336.778125 865.515625 " transform="matrix(1.25,0,0,1.25,-76.25,-966.25)"/>
<path style=" stroke:none;fill-rule:nonzero;fill:rgb(0%,0%,0%);fill-opacity:1;" d="M 334.527344 127.625 L 334.527344 125.417969 L 332.339844 125.417969 L 332.339844 124.5 L 334.527344 124.5 L 334.527344 122.3125 L 335.464844 122.3125 L 335.464844 124.5 L 337.652344 124.5 L 337.652344 125.417969 L 335.464844 125.417969 L 335.464844 127.625 Z M 334.527344 127.625 "/>
<path style=" stroke:none;fill-rule:nonzero;fill:rgb(0%,0%,0%);fill-opacity:1;" d="M 13.222656 85.390625 C 13.714844 85.734375 14.171875 85.976562 14.589844 86.132812 L 14.277344 86.875 C 13.691406 86.664062 13.109375 86.332031 12.539062 85.878906 C 11.9375 86.21875 11.28125 86.386719 10.566406 86.386719 C 9.835938 86.386719 9.171875 86.210938 8.574219 85.859375 C 7.988281 85.507812 7.53125 85.015625 7.207031 84.375 C 6.894531 83.742188 6.738281 83.023438 6.738281 82.226562 C 6.738281 81.4375 6.894531 80.710938 7.207031 80.058594 C 7.53125 79.410156 7.992188 78.914062 8.59375 78.574219 C 9.1875 78.222656 9.851562 78.046875 10.585938 78.046875 C 11.328125 78.046875 11.996094 78.234375 12.597656 78.59375 C 13.195312 78.945312 13.652344 79.445312 13.964844 80.078125 C 14.277344 80.703125 14.433594 81.421875 14.433594 82.226562 C 14.433594 82.882812 14.328125 83.472656 14.121094 84.003906 C 13.925781 84.539062 13.625 85 13.222656 85.390625 Z M 10.878906 84.023438 C 11.488281 84.195312 11.996094 84.449219 12.402344 84.785156 C 13.027344 84.226562 13.339844 83.375 13.339844 82.226562 C 13.339844 81.5625 13.226562 80.992188 13.007812 80.507812 C 12.78125 80.03125 12.460938 79.648438 12.03125 79.375 C 11.601562 79.101562 11.117188 78.964844 10.585938 78.964844 C 9.789062 78.964844 9.132812 79.238281 8.613281 79.785156 C 8.089844 80.332031 7.832031 81.148438 7.832031 82.226562 C 7.832031 83.273438 8.089844 84.070312 8.613281 84.628906 C 9.132812 85.191406 9.789062 85.46875 10.585938 85.46875 C 10.976562 85.46875 11.335938 85.398438 11.679688 85.253906 C 11.335938 85.046875 10.984375 84.898438 10.625 84.804688 Z M 10.878906 84.023438 "/>
<path style=" stroke:none;fill-rule:nonzero;fill:rgb(0%,0%,0%);fill-opacity:1;" d="M 19.199219 86.25 L 18.203125 86.25 L 18.203125 79.941406 C 17.96875 80.175781 17.65625 80.410156 17.265625 80.644531 C 16.875 80.867188 16.527344 81.03125 16.230469 81.132812 L 16.230469 80.175781 C 16.777344 79.929688 17.257812 79.625 17.675781 79.257812 C 18.089844 78.882812 18.382812 78.515625 18.554688 78.164062 L 19.199219 78.164062 Z M 19.199219 86.25 "/>
<path style="fill-rule:nonzero;fill:rgb(100%,100%,100%);fill-opacity:1;stroke-width:1;stroke-linecap:round;stroke-linejoin:round;stroke:rgb(0%,0%,0%);stroke-opacity:1;stroke-miterlimit:10;" d="M 90 896.29375 L 346 896.29375 L 346 920.29375 L 90 920.29375 Z M 90 896.29375 " transform="matrix(1.25,0,0,1.25,-76.25,-966.25)"/>
<path style="fill:none;stroke-width:0.5;stroke-linecap:round;stroke-linejoin:round;stroke:rgb(0%,0%,0%);stroke-opacity:1;stroke-miterlimit:10;" d="M 122 897.29375 L 122 919.29375 " transform="matrix(1.25,0,0,1.25,-76.25,-966.25)"/>
<path style="fill:none;stroke-width:0.5;stroke-linecap:round;stroke-linejoin:round;stroke:rgb(0%,0%,0%);stroke-opacity:1;stroke-miterlimit:10;" d="M 154 897.29375 L 154 919.29375 " transform="matrix(1.25,0,0,1.25,-76.25,-966.25)"/>
<path style="fill:none;stroke-width:0.5;stroke-linecap:round;stroke-linejoin:round;stroke:rgb(0%,0%,0%);stroke-opacity:1;stroke-miterlimit:10;" d="M 186 897.29375 L 186 919.29375 " transform="matrix(1.25,0,0,1.25,-76.25,-966.25)"/>
<path style="fill:none;stroke-width:0.5;stroke-linecap:round;stroke-linejoin:round;stroke:rgb(0%,0%,0%);stroke-opacity:1;stroke-miterlimit:10;" d="M 218 897.29375 L 218 919.29375 " transform="matrix(1.25,0,0,1.25,-76.25,-966.25)"/>
<path style="fill:none;stroke-width:0.5;stroke-linecap:round;stroke-linejoin:round;stroke:rgb(0%,0%,0%);stroke-opacity:1;stroke-miterlimit:10;" d="M 250 897.29375 L 250 919.29375 " transform="matrix(1.25,0,0,1.25,-76.25,-966.25)"/>
<path style="fill:none;stroke-width:0.5;stroke-linecap:round;stroke-linejoin:round;stroke:rgb(0%,0%,0%);stroke-opacity:1;stroke-miterlimit:10;" d="M 282 897.29375 L 282 919.29375 " transform="matrix(1.25,0,0,1.25,-76.25,-966.25)"/>
<path style="fill:none;stroke-width:0.5;stroke-linecap:round;stroke-linejoin:round;stroke:rgb(0%,0%,0%);stroke-opacity:1;stroke-miterlimit:10;" d="M 314 897.29375 L 314 919.29375 " transform="matrix(1.25,0,0,1.25,-76.25,-966.25)"/>
<path style=" stroke:none;fill-rule:nonzero;fill:rgb(0%,0%,0%);fill-opacity:1;" d="M 13.222656 174.140625 C 13.714844 174.484375 14.171875 174.726562 14.589844 174.882812 L 14.277344 175.625 C 13.691406 175.414062 13.109375 175.082031 12.539062 174.628906 C 11.9375 174.96875 11.28125 175.136719 10.566406 175.136719 C 9.835938 175.136719 9.171875 174.960938 8.574219 174.609375 C 7.988281 174.257812 7.53125 173.765625 7.207031 173.125 C 6.894531 172.492188 6.738281 171.773438 6.738281 170.976562 C 6.738281 170.1875 6.894531 169.460938 7.207031 168.808594 C 7.53125 168.160156 7.992188 167.664062 8.59375 167.324219 C 9.1875 166.972656 9.851562 166.796875 10.585938 166.796875 C 11.328125 166.796875 11.996094 166.984375 12.597656 167.34375 C 13.195312 167.695312 13.652344 168.195312 13.964844 168.828125 C 14.277344 169.453125 14.433594 170.171875 14.433594 170.976562 C 14.433594 171.632812 14.328125 172.222656 14.121094 172.753906 C 13.925781 173.289062 13.625 173.75 13.222656 174.140625 Z M 10.878906 172.773438 C 11.488281 172.945312 11.996094 173.199219 12.402344 173.535156 C 13.027344 172.976562 13.339844 172.125 13.339844 170.976562 C 13.339844 170.3125 13.226562 169.742188 13.007812 169.257812 C 12.78125 168.78125 12.460938 168.398438 12.03125 168.125 C 11.601562 167.851562 11.117188 167.714844 10.585938 167.714844 C 9.789062 167.714844 9.132812 167.988281 8.613281 168.535156 C 8.089844 169.082031 7.832031 169.898438 7.832031 170.976562 C 7.832031 172.023438 8.089844 172.820312 8.613281 173.378906 C 9.132812 173.941406 9.789062 174.21875 10.585938 174.21875 C 10.976562 174.21875 11.335938 174.148438 11.679688 174.003906 C 11.335938 173.796875 10.984375 173.648438 10.625 173.554688 Z M 10.878906 172.773438 "/>
<path style=" stroke:none;fill-rule:nonzero;fill:rgb(0%,0%,0%);fill-opacity:1;" d="M 15.46875 171.035156 C 15.46875 170.085938 15.566406 169.316406 15.761719 168.730469 C 15.957031 168.144531 16.242188 167.695312 16.621094 167.382812 C 17.011719 167.070312 17.5 166.914062 18.085938 166.914062 C 18.527344 166.914062 18.910156 167.007812 19.238281 167.1875 C 19.5625 167.359375 19.828125 167.609375 20.039062 167.929688 C 20.246094 168.257812 20.410156 168.652344 20.527344 169.121094 C 20.65625 169.589844 20.722656 170.230469 20.722656 171.035156 C 20.722656 171.972656 20.625 172.734375 20.429688 173.320312 C 20.234375 173.898438 19.941406 174.34375 19.550781 174.667969 C 19.171875 174.980469 18.683594 175.136719 18.085938 175.136719 C 17.316406 175.136719 16.710938 174.859375 16.269531 174.296875 C 15.734375 173.632812 15.46875 172.546875 15.46875 171.035156 Z M 16.484375 171.035156 C 16.484375 172.351562 16.632812 173.234375 16.933594 173.671875 C 17.246094 174.101562 17.628906 174.316406 18.085938 174.316406 C 18.539062 174.316406 18.925781 174.101562 19.238281 173.671875 C 19.550781 173.234375 19.707031 172.351562 19.707031 171.035156 C 19.707031 169.707031 19.550781 168.828125 19.238281 168.398438 C 18.925781 167.960938 18.539062 167.734375 18.085938 167.734375 C 17.628906 167.734375 17.265625 167.925781 16.992188 168.300781 C 16.652344 168.796875 16.484375 169.707031 16.484375 171.035156 Z M 16.484375 171.035156 "/>
<path style="fill:none;stroke-width:1;stroke-linecap:round;stroke-linejoin:round;stroke:rgb(0%,0%,0%);stroke-opacity:1;stroke-miterlimit:10;" d="M 105 884.29375 L 105 891.39375 " transform="matrix(1.25,0,0,1.25,-76.25,-966.25)"/>
<path style="fill-rule:nonzero;fill:rgb(0%,0%,0%);fill-opacity:1;stroke-width:1;stroke-linecap:butt;stroke-linejoin:miter;stroke:rgb(0%,0%,0%);stroke-opacity:1;stroke-miterlimit:10;" d="M 105 895.39375 L 106.5 891.39375 L 103.5 891.39375 Z M 105 895.39375 " transform="matrix(1.25,0,0,1.25,-76.25,-966.25)"/>
<path style="fill:none;stroke-width:1;stroke-linecap:round;stroke-linejoin:round;stroke:rgb(0%,0%,0%);stroke-opacity:1;stroke-miterlimit:10;" d="M 137 884.29375 L 137 891.4125 " transform="matrix(1.25,0,0,1.25,-76.25,-966.25)"/>
<path style="fill-rule:nonzero;fill:rgb(0%,0%,0%);fill-opacity:1;stroke-width:1;stroke-linecap:butt;stroke-linejoin:miter;stroke:rgb(0%,0%,0%);stroke-opacity:1;stroke-miterlimit:10;" d="M 136.659375 895.403125 L 138.496875 891.54375 L 135.503125 891.2875 Z M 136.659375 895.403125 " transform="matrix(1.25,0,0,1.25,-76.25,-966.25)"/>
<path style="fill:none;stroke-width:1;stroke-linecap:round;stroke-linejoin:round;stroke:rgb(0%,0%,0%);stroke-opacity:1;stroke-miterlimit:10;" d="M 169 884.29375 L 169 891.4125 " transform="matrix(1.25,0,0,1.25,-76.25,-966.25)"/>
<path style="fill-rule:nonzero;fill:rgb(0%,0%,0%);fill-opacity:1;stroke-width:1;stroke-linecap:butt;stroke-linejoin:miter;stroke:rgb(0%,0%,0%);stroke-opacity:1;stroke-miterlimit:10;" d="M 168.659375 895.403125 L 170.496875 891.54375 L 167.503125 891.2875 Z M 168.659375 895.403125 " transform="matrix(1.25,0,0,1.25,-76.25,-966.25)"/>
<path style="fill:none;stroke-width:1;stroke-linecap:round;stroke-linejoin:round;stroke:rgb(0%,0%,0%);stroke-opacity:1;stroke-miterlimit:10;" d="M 201 884.29375 L 201 891.4125 " transform="matrix(1.25,0,0,1.25,-76.25,-966.25)"/>
<path style="fill-rule:nonzero;fill:rgb(0%,0%,0%);fill-opacity:1;stroke-width:1;stroke-linecap:butt;stroke-linejoin:miter;stroke:rgb(0%,0%,0%);stroke-opacity:1;stroke-miterlimit:10;" d="M 200.659375 895.403125 L 202.496875 891.54375 L 199.503125 891.2875 Z M 200.659375 895.403125 " transform="matrix(1.25,0,0,1.25,-76.25,-966.25)"/>
<path style="fill:none;stroke-width:1;stroke-linecap:round;stroke-linejoin:round;stroke:rgb(0%,0%,0%);stroke-opacity:1;stroke-miterlimit:10;" d="M 233 884.29375 L 233 891.4125 " transform="matrix(1.25,0,0,1.25,-76.25,-966.25)"/>
<path style="fill-rule:nonzero;fill:rgb(0%,0%,0%);fill-opacity:1;stroke-width:1;stroke-linecap:butt;stroke-linejoin:miter;stroke:rgb(0%,0%,0%);stroke-opacity:1;stroke-miterlimit:10;" d="M 232.659375 895.403125 L 234.496875 891.54375 L 231.503125 891.2875 Z M 232.659375 895.403125 " transform="matrix(1.25,0,0,1.25,-76.25,-966.25)"/>
<path style="fill:none;stroke-width:1;stroke-linecap:round;stroke-linejoin:round;stroke:rgb(0%,0%,0%);stroke-opacity:1;stroke-miterlimit:10;" d="M 265 884.29375 L 265 891.4125 " transform="matrix(1.25,0,0,1.25,-76.25,-966.25)"/>
<path style="fill-rule:nonzero;fill:rgb(0%,0%,0%);fill-opacity:1;stroke-width:1;stroke-linecap:butt;stroke-linejoin:miter;stroke:rgb(0%,0%,0%);stroke-opacity:1;stroke-miterlimit:10;" d="M 264.659375 895.403125 L 266.496875 891.54375 L 263.503125 891.2875 Z M 264.659375 895.403125 " transform="matrix(1.25,0,0,1.25,-76.25,-966.25)"/>
<path style="fill:none;stroke-width:1;stroke-linecap:round;stroke-linejoin:round;stroke:rgb(0%,0%,0%);stroke-opacity:1;stroke-miterlimit:10;" d="M 297 884.29375 L 297 891.4125 " transform="matrix(1.25,0,0,1.25,-76.25,-966.25)"/>
<path style="fill-rule:nonzero;fill:rgb(0%,0%,0%);fill-opacity:1;stroke-width:1;stroke-linecap:butt;stroke-linejoin:miter;stroke:rgb(0%,0%,0%);stroke-opacity:1;stroke-miterlimit:10;" d="M 296.659375 895.403125 L 298.496875 891.54375 L 295.503125 891.2875 Z M 296.659375 895.403125 " transform="matrix(1.25,0,0,1.25,-76.25,-966.25)"/>
<path style="fill:none;stroke-width:1;stroke-linecap:round;stroke-linejoin:round;stroke:rgb(0%,0%,0%);stroke-opacity:1;stroke-miterlimit:10;" d="M 329 884.29375 L 329 891.4125 " transform="matrix(1.25,0,0,1.25,-76.25,-966.25)"/>
<path style="fill-rule:nonzero;fill:rgb(0%,0%,0%);fill-opacity:1;stroke-width:1;stroke-linecap:butt;stroke-linejoin:miter;stroke:rgb(0%,0%,0%);stroke-opacity:1;stroke-miterlimit:10;" d="M 328.659375 895.403125 L 330.496875 891.54375 L 327.503125 891.2875 Z M 328.659375 895.403125 " transform="matrix(1.25,0,0,1.25,-76.25,-966.25)"/>
<path style="fill:none;stroke-width:1;stroke-linecap:round;stroke-linejoin:round;stroke:rgb(0%,0%,0%);stroke-opacity:1;stroke-miterlimit:10;" d="M 94 851.29375 L 97.440625 858.175 " transform="matrix(1.25,0,0,1.25,-76.25,-966.25)"/>
<path style="fill-rule:nonzero;fill:rgb(0%,0%,0%);fill-opacity:1;stroke-width:1;stroke-linecap:butt;stroke-linejoin:miter;stroke:rgb(0%,0%,0%);stroke-opacity:1;stroke-miterlimit:10;" d="M 99.23125 861.753125 L 98.78125 857.503125 L 96.096875 858.846875 Z M 99.23125 861.753125 " transform="matrix(1.25,0,0,1.25,-76.25,-966.25)"/>
<path style="fill:none;stroke-width:1;stroke-linecap:round;stroke-linejoin:round;stroke:rgb(0%,0%,0%);stroke-opacity:1;stroke-miterlimit:10;" d="M 126 851.29375 L 129.440625 858.175 " transform="matrix(1.25,0,0,1.25,-76.25,-966.25)"/>
<path style="fill-rule:nonzero;fill:rgb(0%,0%,0%);fill-opacity:1;stroke-width:1;stroke-linecap:butt;stroke-linejoin:miter;stroke:rgb(0%,0%,0%);stroke-opacity:1;stroke-miterlimit:10;" d="M 131.23125 861.753125 L 130.78125 857.503125 L 128.096875 858.846875 Z M 131.23125 861.753125 " transform="matrix(1.25,0,0,1.25,-76.25,-966.25)"/>
<path style="fill:none;stroke-width:1;stroke-linecap:round;stroke-linejoin:round;stroke:rgb(0%,0%,0%);stroke-opacity:1;stroke-miterlimit:10;" d="M 158 851.29375 L 161.440625 858.175 " transform="matrix(1.25,0,0,1.25,-76.25,-966.25)"/>
<path style="fill-rule:nonzero;fill:rgb(0%,0%,0%);fill-opacity:1;stroke-width:1;stroke-linecap:butt;stroke-linejoin:miter;stroke:rgb(0%,0%,0%);stroke-opacity:1;stroke-miterlimit:10;" d="M 163.23125 861.753125 L 162.78125 857.503125 L 160.096875 858.846875 Z M 163.23125 861.753125 " transform="matrix(1.25,0,0,1.25,-76.25,-966.25)"/>
<path style="fill:none;stroke-width:1;stroke-linecap:round;stroke-linejoin:round;stroke:rgb(0%,0%,0%);stroke-opacity:1;stroke-miterlimit:10;" d="M 190 851.29375 L 193.440625 858.175 " transform="matrix(1.25,0,0,1.25,-76.25,-966.25)"/>
<path style="fill-rule:nonzero;fill:rgb(0%,0%,0%);fill-opacity:1;stroke-width:1;stroke-linecap:butt;stroke-linejoin:miter;stroke:rgb(0%,0%,0%);stroke-opacity:1;stroke-miterlimit:10;" d="M 195.23125 861.753125 L 194.78125 857.503125 L 192.096875 858.846875 Z M 195.23125 861.753125 " transform="matrix(1.25,0,0,1.25,-76.25,-966.25)"/>
<path style="fill:none;stroke-width:1;stroke-linecap:round;stroke-linejoin:round;stroke:rgb(0%,0%,0%);stroke-opacity:1;stroke-miterlimit:10;" d="M 222 851.29375 L 225.440625 858.175 " transform="matrix(1.25,0,0,1.25,-76.25,-966.25)"/>
<path style="fill-rule:nonzero;fill:rgb(0%,0%,0%);fill-opacity:1;stroke-width:1;stroke-linecap:butt;stroke-linejoin:miter;stroke:rgb(0%,0%,0%);stroke-opacity:1;stroke-miterlimit:10;" d="M 227.23125 861.753125 L 226.78125 857.503125 L 224.096875 858.846875 Z M 227.23125 861.753125 " transform="matrix(1.25,0,0,1.25,-76.25,-966.25)"/>
<path style="fill:none;stroke-width:1;stroke-linecap:round;stroke-linejoin:round;stroke:rgb(0%,0%,0%);stroke-opacity:1;stroke-miterlimit:10;" d="M 254 851.29375 L 257.440625 858.175 " transform="matrix(1.25,0,0,1.25,-76.25,-966.25)"/>
<path style="fill-rule:nonzero;fill:rgb(0%,0%,0%);fill-opacity:1;stroke-width:1;stroke-linecap:butt;stroke-linejoin:miter;stroke:rgb(0%,0%,0%);stroke-opacity:1;stroke-miterlimit:10;" d="M 259.23125 861.753125 L 258.78125 857.503125 L 256.096875 858.846875 Z M 259.23125 861.753125 " transform="matrix(1.25,0,0,1.25,-76.25,-966.25)"/>
<path style="fill:none;stroke-width:1;stroke-linecap:round;stroke-linejoin:round;stroke:rgb(0%,0%,0%);stroke-opacity:1;stroke-miterlimit:10;" d="M 286 851.29375 L 289.440625 858.175 " transform="matrix(1.25,0,0,1.25,-76.25,-966.25)"/>
<path style="fill-rule:nonzero;fill:rgb(0%,0%,0%);fill-opacity:1;stroke-width:1;stroke-linecap:butt;stroke-linejoin:miter;stroke:rgb(0%,0%,0%);stroke-opacity:1;stroke-miterlimit:10;" d="M 291.23125 861.753125 L 290.78125 857.503125 L 288.096875 858.846875 Z M 291.23125 861.753125 " transform="matrix(1.25,0,0,1.25,-76.25,-966.25)"/>
<path style="fill:none;stroke-width:1;stroke-linecap:round;stroke-linejoin:round;stroke:rgb(0%,0%,0%);stroke-opacity:1;stroke-miterlimit:10;" d="M 318 851.29375 L 321.440625 858.175 " transform="matrix(1.25,0,0,1.25,-76.25,-966.25)"/>
<path style="fill-rule:nonzero;fill:rgb(0%,0%,0%);fill-opacity:1;stroke-width:1;stroke-linecap:butt;stroke-linejoin:miter;stroke:rgb(0%,0%,0%);stroke-opacity:1;stroke-miterlimit:10;" d="M 323.23125 861.753125 L 322.78125 857.503125 L 320.096875 858.846875 Z M 323.23125 861.753125 " transform="matrix(1.25,0,0,1.25,-76.25,-966.25)"/>
<path style="fill:none;stroke-width:1;stroke-linecap:round;stroke-linejoin:round;stroke:rgb(0%,0%,0%);stroke-opacity:1;stroke-miterlimit:10;" d="M 116 808.29375 L 107.81875 856.628125 " transform="matrix(1.25,0,0,1.25,-76.25,-966.25)"/>
<path style="fill-rule:nonzero;fill:rgb(0%,0%,0%);fill-opacity:1;stroke-width:1;stroke-linecap:butt;stroke-linejoin:miter;stroke:rgb(0%,0%,0%);stroke-opacity:1;stroke-miterlimit:10;" d="M 107.153125 860.575 L 109.3 856.878125 L 106.340625 856.378125 Z M 107.153125 860.575 " transform="matrix(1.25,0,0,1.25,-76.25,-966.25)"/>
<path style="fill:none;stroke-width:1;stroke-linecap:round;stroke-linejoin:round;stroke:rgb(0%,0%,0%);stroke-opacity:1;stroke-miterlimit:10;" d="M 148 808.29375 L 139.81875 856.628125 " transform="matrix(1.25,0,0,1.25,-76.25,-966.25)"/>
<path style="fill-rule:nonzero;fill:rgb(0%,0%,0%);fill-opacity:1;stroke-width:1;stroke-linecap:butt;stroke-linejoin:miter;stroke:rgb(0%,0%,0%);stroke-opacity:1;stroke-miterlimit:10;" d="M 139.153125 860.575 L 141.3 856.878125 L 138.340625 856.378125 Z M 139.153125 860.575 " transform="matrix(1.25,0,0,1.25,-76.25,-966.25)"/>
<path style="fill:none;stroke-width:1;stroke-linecap:round;stroke-linejoin:round;stroke:rgb(0%,0%,0%);stroke-opacity:1;stroke-miterlimit:10;" d="M 180 808.29375 L 171.81875 856.628125 " transform="matrix(1.25,0,0,1.25,-76.25,-966.25)"/>
<path style="fill-rule:nonzero;fill:rgb(0%,0%,0%);fill-opacity:1;stroke-width:1;stroke-linecap:butt;stroke-linejoin:miter;stroke:rgb(0%,0%,0%);stroke-opacity:1;stroke-miterlimit:10;" d="M 171.153125 860.575 L 173.3 856.878125 L 170.340625 856.378125 Z M 171.153125 860.575 " transform="matrix(1.25,0,0,1.25,-76.25,-966.25)"/>
<path style="fill:none;stroke-width:1;stroke-linecap:round;stroke-linejoin:round;stroke:rgb(0%,0%,0%);stroke-opacity:1;stroke-miterlimit:10;" d="M 212 809.29375 L 203.8625 856.6375 " transform="matrix(1.25,0,0,1.25,-76.25,-966.25)"/>
<path style="fill-rule:nonzero;fill:rgb(0%,0%,0%);fill-opacity:1;stroke-width:1;stroke-linecap:butt;stroke-linejoin:miter;stroke:rgb(0%,0%,0%);stroke-opacity:1;stroke-miterlimit:10;" d="M 203.184375 860.578125 L 205.340625 856.890625 L 202.38125 856.38125 Z M 203.184375 860.578125 " transform="matrix(1.25,0,0,1.25,-76.25,-966.25)"/>
<path style="fill:none;stroke-width:1;stroke-linecap:round;stroke-linejoin:round;stroke:rgb(0%,0%,0%);stroke-opacity:1;stroke-miterlimit:10;" d="M 244 809.29375 L 235.8625 856.6375 " transform="matrix(1.25,0,0,1.25,-76.25,-966.25)"/>
<path style="fill-rule:nonzero;fill:rgb(0%,0%,0%);fill-opacity:1;stroke-width:1;stroke-linecap:butt;stroke-linejoin:miter;stroke:rgb(0%,0%,0%);stroke-opacity:1;stroke-miterlimit:10;" d="M 235.184375 860.578125 L 237.340625 856.890625 L 234.38125 856.38125 Z M 235.184375 860.578125 " transform="matrix(1.25,0,0,1.25,-76.25,-966.25)"/>
<path style="fill:none;stroke-width:1;stroke-linecap:round;stroke-linejoin:round;stroke:rgb(0%,0%,0%);stroke-opacity:1;stroke-miterlimit:10;" d="M 276 809.29375 L 267.8625 856.6375 " transform="matrix(1.25,0,0,1.25,-76.25,-966.25)"/>
<path style="fill-rule:nonzero;fill:rgb(0%,0%,0%);fill-opacity:1;stroke-width:1;stroke-linecap:butt;stroke-linejoin:miter;stroke:rgb(0%,0%,0%);stroke-opacity:1;stroke-miterlimit:10;" d="M 267.184375 860.578125 L 269.340625 856.890625 L 266.38125 856.38125 Z M 267.184375 860.578125 " transform="matrix(1.25,0,0,1.25,-76.25,-966.25)"/>
<path style="fill:none;stroke-width:1;stroke-linecap:round;stroke-linejoin:round;stroke:rgb(0%,0%,0%);stroke-opacity:1;stroke-miterlimit:10;" d="M 308 809.29375 L 299.8625 856.6375 " transform="matrix(1.25,0,0,1.25,-76.25,-966.25)"/>
<path style="fill-rule:nonzero;fill:rgb(0%,0%,0%);fill-opacity:1;stroke-width:1;stroke-linecap:butt;stroke-linejoin:miter;stroke:rgb(0%,0%,0%);stroke-opacity:1;stroke-miterlimit:10;" d="M 299.184375 860.578125 L 301.340625 856.890625 L 298.38125 856.38125 Z M 299.184375 860.578125 " transform="matrix(1.25,0,0,1.25,-76.25,-966.25)"/>
<path style="fill:none;stroke-width:1;stroke-linecap:round;stroke-linejoin:round;stroke:rgb(0%,0%,0%);stroke-opacity:1;stroke-miterlimit:10;" d="M 340 809.29375 L 331.8625 856.6375 " transform="matrix(1.25,0,0,1.25,-76.25,-966.25)"/>
<path style="fill-rule:nonzero;fill:rgb(0%,0%,0%);fill-opacity:1;stroke-width:1;stroke-linecap:butt;stroke-linejoin:miter;stroke:rgb(0%,0%,0%);stroke-opacity:1;stroke-miterlimit:10;" d="M 331.184375 860.578125 L 333.340625 856.890625 L 330.38125 856.38125 Z M 331.184375 860.578125 " transform="matrix(1.25,0,0,1.25,-76.25,-966.25)"/>
<path style="fill-rule:nonzero;fill:rgb(69.803922%,85.098039%,100%);fill-opacity:0.788235;stroke-width:1;stroke-linecap:round;stroke-linejoin:round;stroke:rgb(0%,0%,0%);stroke-opacity:1;stroke-miterlimit:10;" d="M 90 827.29375 L 346 827.29375 L 346 851.29375 L 90 851.29375 Z M 90 827.29375 " transform="matrix(1.25,0,0,1.25,-76.25,-966.25)"/>
<path style="fill:none;stroke-width:0.5;stroke-linecap:round;stroke-linejoin:round;stroke:rgb(0%,0%,0%);stroke-opacity:1;stroke-miterlimit:10;" d="M 122 828.29375 L 122 850.29375 " transform="matrix(1.25,0,0,1.25,-76.25,-966.25)"/>
<path style="fill:none;stroke-width:0.5;stroke-linecap:round;stroke-linejoin:round;stroke:rgb(0%,0%,0%);stroke-opacity:1;stroke-miterlimit:10;" d="M 154 828.29375 L 154 850.29375 " transform="matrix(1.25,0,0,1.25,-76.25,-966.25)"/>
<path style="fill:none;stroke-width:0.5;stroke-linecap:round;stroke-linejoin:round;stroke:rgb(0%,0%,0%);stroke-opacity:1;stroke-miterlimit:10;" d="M 186 828.29375 L 186 850.29375 " transform="matrix(1.25,0,0,1.25,-76.25,-966.25)"/>
<path style="fill:none;stroke-width:0.5;stroke-linecap:round;stroke-linejoin:round;stroke:rgb(0%,0%,0%);stroke-opacity:1;stroke-miterlimit:10;" d="M 218 828.29375 L 218 850.29375 " transform="matrix(1.25,0,0,1.25,-76.25,-966.25)"/>
<path style="fill:none;stroke-width:0.5;stroke-linecap:round;stroke-linejoin:round;stroke:rgb(0%,0%,0%);stroke-opacity:1;stroke-miterlimit:10;" d="M 250 828.29375 L 250 850.29375 " transform="matrix(1.25,0,0,1.25,-76.25,-966.25)"/>
<path style="fill:none;stroke-width:0.5;stroke-linecap:round;stroke-linejoin:round;stroke:rgb(0%,0%,0%);stroke-opacity:1;stroke-miterlimit:10;" d="M 282 828.29375 L 282 850.29375 " transform="matrix(1.25,0,0,1.25,-76.25,-966.25)"/>
<path style="fill:none;stroke-width:0.5;stroke-linecap:round;stroke-linejoin:round;stroke:rgb(0%,0%,0%);stroke-opacity:1;stroke-miterlimit:10;" d="M 314 828.29375 L 314 850.29375 " transform="matrix(1.25,0,0,1.25,-76.25,-966.25)"/>
<path style=" stroke:none;fill-rule:nonzero;fill:rgb(0%,0%,0%);fill-opacity:1;" d="M 13.222656 39.140625 C 13.714844 39.484375 14.171875 39.726562 14.589844 39.882812 L 14.277344 40.625 C 13.691406 40.414062 13.109375 40.082031 12.539062 39.628906 C 11.9375 39.96875 11.28125 40.136719 10.566406 40.136719 C 9.835938 40.136719 9.171875 39.960938 8.574219 39.609375 C 7.988281 39.257812 7.53125 38.765625 7.207031 38.125 C 6.894531 37.492188 6.738281 36.773438 6.738281 35.976562 C 6.738281 35.1875 6.894531 34.460938 7.207031 33.808594 C 7.53125 33.160156 7.992188 32.664062 8.59375 32.324219 C 9.1875 31.972656 9.851562 31.796875 10.585938 31.796875 C 11.328125 31.796875 11.996094 31.984375 12.597656 32.34375 C 13.195312 32.695312 13.652344 33.195312 13.964844 33.828125 C 14.277344 34.453125 14.433594 35.171875 14.433594 35.976562 C 14.433594 36.632812 14.328125 37.222656 14.121094 37.753906 C 13.925781 38.289062 13.625 38.75 13.222656 39.140625 Z M 10.878906 37.773438 C 11.488281 37.945312 11.996094 38.199219 12.402344 38.535156 C 13.027344 37.976562 13.339844 37.125 13.339844 35.976562 C 13.339844 35.3125 13.226562 34.742188 13.007812 34.257812 C 12.78125 33.78125 12.460938 33.398438 12.03125 33.125 C 11.601562 32.851562 11.117188 32.714844 10.585938 32.714844 C 9.789062 32.714844 9.132812 32.988281 8.613281 33.535156 C 8.089844 34.082031 7.832031 34.898438 7.832031 35.976562 C 7.832031 37.023438 8.089844 37.820312 8.613281 38.378906 C 9.132812 38.941406 9.789062 39.21875 10.585938 39.21875 C 10.976562 39.21875 11.335938 39.148438 11.679688 39.003906 C 11.335938 38.796875 10.984375 38.648438 10.625 38.554688 Z M 10.878906 37.773438 "/>
<path style=" stroke:none;fill-rule:nonzero;fill:rgb(0%,0%,0%);fill-opacity:1;" d="M 20.664062 39.042969 L 20.664062 40 L 15.332031 40 C 15.332031 39.765625 15.371094 39.539062 15.449219 39.316406 C 15.589844 38.953125 15.8125 38.59375 16.113281 38.242188 C 16.410156 37.890625 16.839844 37.492188 17.402344 37.03125 C 18.273438 36.304688 18.859375 35.734375 19.160156 35.3125 C 19.472656 34.898438 19.628906 34.5 19.628906 34.121094 C 19.628906 33.730469 19.484375 33.40625 19.199219 33.144531 C 18.925781 32.871094 18.566406 32.734375 18.125 32.734375 C 17.640625 32.734375 17.257812 32.882812 16.972656 33.164062 C 16.683594 33.453125 16.542969 33.847656 16.542969 34.355469 L 15.527344 34.238281 C 15.589844 33.484375 15.851562 32.910156 16.308594 32.519531 C 16.761719 32.117188 17.375 31.914062 18.144531 31.914062 C 18.910156 31.914062 19.515625 32.128906 19.960938 32.558594 C 20.414062 32.988281 20.644531 33.515625 20.644531 34.140625 C 20.644531 34.46875 20.578125 34.785156 20.449219 35.097656 C 20.316406 35.410156 20.097656 35.742188 19.785156 36.09375 C 19.484375 36.4375 18.984375 36.90625 18.28125 37.5 C 17.679688 38 17.296875 38.335938 17.128906 38.515625 C 16.957031 38.703125 16.820312 38.875 16.71875 39.042969 Z M 20.664062 39.042969 "/>
<path style="fill-rule:nonzero;fill:rgb(100%,100%,100%);fill-opacity:1;stroke-width:1;stroke-linecap:round;stroke-linejoin:round;stroke:rgb(0%,0%,0%);stroke-opacity:1;stroke-miterlimit:10;" d="M 89 789.29375 L 345 789.29375 L 345 813.29375 L 89 813.29375 Z M 89 789.29375 " transform="matrix(1.25,0,0,1.25,-76.25,-966.25)"/>
<path style="fill:none;stroke-width:0.5;stroke-linecap:round;stroke-linejoin:round;stroke:rgb(0%,0%,0%);stroke-opacity:1;stroke-miterlimit:10;" d="M 121 790.29375 L 121 812.29375 " transform="matrix(1.25,0,0,1.25,-76.25,-966.25)"/>
<path style="fill:none;stroke-width:0.5;stroke-linecap:round;stroke-linejoin:round;stroke:rgb(0%,0%,0%);stroke-opacity:1;stroke-miterlimit:10;" d="M 153 790.29375 L 153 812.29375 " transform="matrix(1.25,0,0,1.25,-76.25,-966.25)"/>
<path style="fill:none;stroke-width:0.5;stroke-linecap:round;stroke-linejoin:round;stroke:rgb(0%,0%,0%);stroke-opacity:1;stroke-miterlimit:10;" d="M 185 790.29375 L 185 812.29375 " transform="matrix(1.25,0,0,1.25,-76.25,-966.25)"/>
<path style="fill:none;stroke-width:0.5;stroke-linecap:round;stroke-linejoin:round;stroke:rgb(0%,0%,0%);stroke-opacity:1;stroke-miterlimit:10;" d="M 217 790.29375 L 217 812.29375 " transform="matrix(1.25,0,0,1.25,-76.25,-966.25)"/>
<path style="fill:none;stroke-width:0.5;stroke-linecap:round;stroke-linejoin:round;stroke:rgb(0%,0%,0%);stroke-opacity:1;stroke-miterlimit:10;" d="M 249 790.29375 L 249 812.29375 " transform="matrix(1.25,0,0,1.25,-76.25,-966.25)"/>
<path style="fill:none;stroke-width:0.5;stroke-linecap:round;stroke-linejoin:round;stroke:rgb(0%,0%,0%);stroke-opacity:1;stroke-miterlimit:10;" d="M 281 790.29375 L 281 812.29375 " transform="matrix(1.25,0,0,1.25,-76.25,-966.25)"/>
<path style="fill:none;stroke-width:0.5;stroke-linecap:round;stroke-linejoin:round;stroke:rgb(0%,0%,0%);stroke-opacity:1;stroke-miterlimit:10;" d="M 313 790.29375 L 313 812.29375 " transform="matrix(1.25,0,0,1.25,-76.25,-966.25)"/>
<path style=" stroke:none;fill-rule:nonzero;fill:rgb(0%,0%,0%);fill-opacity:1;" d="M 352.96875 12.285156 C 352.96875 11.335938 353.066406 10.566406 353.261719 9.980469 C 353.457031 9.394531 353.742188 8.945312 354.121094 8.632812 C 354.511719 8.320312 355 8.164062 355.585938 8.164062 C 356.023438 8.164062 356.410156 8.257812 356.738281 8.4375 C 357.0625 8.609375 357.328125 8.859375 357.539062 9.179688 C 357.742188 9.507812 357.910156 9.902344 358.027344 10.371094 C 358.15625 10.839844 358.222656 11.480469 358.222656 12.285156 C 358.222656 13.222656 358.125 13.984375 357.929688 14.570312 C 357.734375 15.148438 357.441406 15.59375 357.050781 15.917969 C 356.671875 16.230469 356.179688 16.386719 355.585938 16.386719 C 354.8125 16.386719 354.210938 16.109375 353.769531 15.546875 C 353.234375 14.882812 352.96875 13.796875 352.96875 12.285156 Z M 353.984375 12.285156 C 353.984375 13.601562 354.132812 14.484375 354.433594 14.921875 C 354.746094 15.351562 355.125 15.566406 355.585938 15.566406 C 356.039062 15.566406 356.425781 15.351562 356.738281 14.921875 C 357.050781 14.484375 357.207031 13.601562 357.207031 12.285156 C 357.207031 10.957031 357.050781 10.078125 356.738281 9.648438 C 356.425781 9.210938 356.039062 8.984375 355.585938 8.984375 C 355.125 8.984375 354.765625 9.175781 354.492188 9.550781 C 354.148438 10.046875 353.984375 10.957031 353.984375 12.285156 Z M 353.984375 12.285156 "/>
<path style=" stroke:none;fill-rule:nonzero;fill:rgb(0%,0%,0%);fill-opacity:1;" d="M 312.949219 16.25 L 311.953125 16.25 L 311.953125 9.941406 C 311.71875 10.175781 311.40625 10.410156 311.015625 10.644531 C 310.625 10.867188 310.277344 11.03125 309.980469 11.132812 L 309.980469 10.175781 C 310.527344 9.929688 311.007812 9.625 311.425781 9.257812 C 311.839844 8.882812 312.132812 8.515625 312.304688 8.164062 L 312.949219 8.164062 Z M 312.949219 16.25 "/>
<path style=" stroke:none;fill-rule:nonzero;fill:rgb(0%,0%,0%);fill-opacity:1;" d="M 320.613281 10.175781 L 319.617188 10.253906 C 319.539062 9.863281 319.410156 9.578125 319.246094 9.394531 C 318.980469 9.121094 318.660156 8.984375 318.269531 8.984375 C 317.941406 8.984375 317.664062 9.070312 317.429688 9.238281 C 317.117188 9.472656 316.867188 9.804688 316.6875 10.234375 C 316.515625 10.664062 316.421875 11.285156 316.414062 12.089844 C 316.648438 11.738281 316.929688 11.480469 317.273438 11.308594 C 317.625 11.128906 317.984375 11.035156 318.367188 11.035156 C 319.03125 11.035156 319.585938 11.28125 320.046875 11.757812 C 320.515625 12.242188 320.75 12.867188 320.75 13.632812 C 320.75 14.140625 320.636719 14.617188 320.417969 15.058594 C 320.191406 15.488281 319.894531 15.820312 319.519531 16.054688 C 319.136719 16.273438 318.707031 16.386719 318.230469 16.386719 C 317.410156 16.386719 316.734375 16.089844 316.21875 15.488281 C 315.695312 14.878906 315.4375 13.875 315.4375 12.480469 C 315.4375 10.933594 315.71875 9.800781 316.296875 9.082031 C 316.789062 8.472656 317.46875 8.164062 318.328125 8.164062 C 318.953125 8.164062 319.464844 8.351562 319.871094 8.710938 C 320.269531 9.0625 320.519531 9.550781 320.613281 10.175781 Z M 316.570312 13.632812 C 316.570312 13.984375 316.636719 14.316406 316.785156 14.628906 C 316.925781 14.929688 317.125 15.164062 317.390625 15.332031 C 317.648438 15.488281 317.921875 15.566406 318.210938 15.566406 C 318.625 15.566406 318.980469 15.40625 319.285156 15.078125 C 319.582031 14.742188 319.734375 14.277344 319.734375 13.691406 C 319.734375 13.132812 319.582031 12.695312 319.285156 12.382812 C 318.996094 12.0625 318.625 11.894531 318.171875 11.894531 C 317.726562 11.894531 317.351562 12.0625 317.039062 12.382812 C 316.726562 12.695312 316.570312 13.117188 316.570312 13.632812 Z M 316.570312 13.632812 "/>
<path style=" stroke:none;fill-rule:nonzero;fill:rgb(0%,0%,0%);fill-opacity:1;" d="M 269.21875 14.121094 L 270.214844 13.984375 C 270.332031 14.546875 270.515625 14.953125 270.78125 15.195312 C 271.054688 15.445312 271.390625 15.566406 271.796875 15.566406 C 272.25 15.566406 272.636719 15.410156 272.949219 15.097656 C 273.273438 14.773438 273.4375 14.371094 273.4375 13.886719 C 273.4375 13.433594 273.285156 13.0625 272.988281 12.773438 C 272.699219 12.476562 272.328125 12.324219 271.875 12.324219 C 271.679688 12.324219 271.445312 12.363281 271.171875 12.441406 L 271.289062 11.5625 C 271.351562 11.578125 271.40625 11.582031 271.445312 11.582031 C 271.859375 11.582031 272.234375 11.476562 272.578125 11.25 C 272.914062 11.03125 273.085938 10.695312 273.085938 10.234375 C 273.085938 9.875 272.960938 9.570312 272.714844 9.335938 C 272.464844 9.101562 272.148438 8.984375 271.757812 8.984375 C 271.375 8.984375 271.058594 9.109375 270.800781 9.355469 C 270.550781 9.589844 270.390625 9.953125 270.3125 10.429688 L 269.316406 10.253906 C 269.445312 9.589844 269.71875 9.078125 270.136719 8.710938 C 270.566406 8.351562 271.097656 8.164062 271.738281 8.164062 C 272.179688 8.164062 272.582031 8.261719 272.949219 8.457031 C 273.324219 8.640625 273.613281 8.898438 273.808594 9.21875 C 274.003906 9.546875 274.101562 9.890625 274.101562 10.253906 C 274.101562 10.605469 274.003906 10.929688 273.808594 11.210938 C 273.625 11.5 273.351562 11.726562 272.988281 11.894531 C 273.46875 12 273.835938 12.226562 274.101562 12.578125 C 274.359375 12.921875 274.492188 13.351562 274.492188 13.867188 C 274.492188 14.570312 274.226562 15.171875 273.710938 15.664062 C 273.203125 16.148438 272.558594 16.386719 271.777344 16.386719 C 271.074219 16.386719 270.488281 16.179688 270.019531 15.761719 C 269.550781 15.347656 269.28125 14.800781 269.21875 14.121094 Z M 269.21875 14.121094 "/>
<path style=" stroke:none;fill-rule:nonzero;fill:rgb(0%,0%,0%);fill-opacity:1;" d="M 280.671875 15.292969 L 280.671875 16.25 L 275.339844 16.25 C 275.339844 16.015625 275.378906 15.789062 275.457031 15.566406 C 275.597656 15.203125 275.816406 14.84375 276.121094 14.492188 C 276.417969 14.140625 276.847656 13.742188 277.410156 13.28125 C 278.277344 12.554688 278.863281 11.984375 279.167969 11.5625 C 279.480469 11.148438 279.636719 10.75 279.636719 10.371094 C 279.636719 9.980469 279.488281 9.65625 279.207031 9.394531 C 278.933594 9.121094 278.570312 8.984375 278.132812 8.984375 C 277.648438 8.984375 277.261719 9.132812 276.980469 9.414062 C 276.691406 9.703125 276.550781 10.097656 276.550781 10.605469 L 275.535156 10.488281 C 275.597656 9.734375 275.855469 9.160156 276.316406 8.769531 C 276.769531 8.367188 277.378906 8.164062 278.152344 8.164062 C 278.917969 8.164062 279.523438 8.378906 279.96875 8.808594 C 280.421875 9.238281 280.652344 9.765625 280.652344 10.390625 C 280.652344 10.71875 280.582031 11.035156 280.457031 11.347656 C 280.324219 11.660156 280.105469 11.992188 279.792969 12.34375 C 279.488281 12.6875 278.992188 13.15625 278.289062 13.75 C 277.6875 14.25 277.300781 14.585938 277.136719 14.765625 C 276.964844 14.953125 276.828125 15.125 276.726562 15.292969 Z M 280.671875 15.292969 "/>
<path style=" stroke:none;fill-rule:nonzero;fill:rgb(0%,0%,0%);fill-opacity:1;" d="M 233.003906 16.25 L 233.003906 14.316406 L 229.507812 14.316406 L 229.507812 13.417969 L 233.179688 8.203125 L 234 8.203125 L 234 13.417969 L 235.09375 13.417969 L 235.09375 14.316406 L 234 14.316406 L 234 16.25 Z M 233.003906 13.417969 L 233.003906 9.785156 L 230.484375 13.417969 Z M 233.003906 13.417969 "/>
<path style=" stroke:none;fill-rule:nonzero;fill:rgb(0%,0%,0%);fill-opacity:1;" d="M 237.621094 11.875 C 237.199219 11.734375 236.898438 11.523438 236.703125 11.25 C 236.507812 10.96875 236.410156 10.625 236.410156 10.234375 C 236.410156 9.648438 236.613281 9.160156 237.035156 8.769531 C 237.464844 8.367188 238.019531 8.164062 238.714844 8.164062 C 239.417969 8.164062 239.984375 8.375 240.414062 8.789062 C 240.84375 9.195312 241.058594 9.6875 241.058594 10.273438 C 241.058594 10.640625 240.960938 10.96875 240.765625 11.25 C 240.570312 11.523438 240.265625 11.734375 239.867188 11.875 C 240.359375 12.046875 240.734375 12.3125 241 12.675781 C 241.257812 13.027344 241.390625 13.453125 241.390625 13.945312 C 241.390625 14.640625 241.140625 15.214844 240.648438 15.683594 C 240.164062 16.152344 239.523438 16.386719 238.734375 16.386719 C 237.9375 16.386719 237.292969 16.152344 236.800781 15.683594 C 236.316406 15.214844 236.078125 14.628906 236.078125 13.925781 C 236.078125 13.40625 236.203125 12.96875 236.46875 12.617188 C 236.742188 12.257812 237.121094 12.007812 237.621094 11.875 Z M 237.425781 10.214844 C 237.425781 10.59375 237.542969 10.90625 237.777344 11.152344 C 238.019531 11.386719 238.34375 11.503906 238.734375 11.503906 C 239.125 11.503906 239.4375 11.386719 239.671875 11.152344 C 239.914062 10.90625 240.042969 10.605469 240.042969 10.253906 C 240.042969 9.902344 239.914062 9.605469 239.671875 9.355469 C 239.421875 9.109375 239.109375 8.984375 238.734375 8.984375 C 238.351562 8.984375 238.039062 9.109375 237.796875 9.355469 C 237.546875 9.589844 237.425781 9.878906 237.425781 10.214844 Z M 237.09375 13.925781 C 237.09375 14.214844 237.15625 14.488281 237.289062 14.746094 C 237.429688 15.007812 237.628906 15.210938 237.894531 15.351562 C 238.152344 15.5 238.441406 15.566406 238.753906 15.566406 C 239.222656 15.566406 239.601562 15.421875 239.90625 15.117188 C 240.21875 14.820312 240.375 14.433594 240.375 13.964844 C 240.375 13.484375 240.21875 13.085938 239.90625 12.773438 C 239.59375 12.460938 239.191406 12.304688 238.714844 12.304688 C 238.246094 12.304688 237.855469 12.460938 237.542969 12.773438 C 237.238281 13.085938 237.09375 13.472656 237.09375 13.925781 Z M 237.09375 13.925781 "/>
<path style=" stroke:none;fill-rule:nonzero;fill:rgb(0%,0%,0%);fill-opacity:1;" d="M 194.355469 10.175781 L 193.359375 10.253906 C 193.28125 9.863281 193.15625 9.578125 192.988281 9.394531 C 192.726562 9.121094 192.402344 8.984375 192.011719 8.984375 C 191.683594 8.984375 191.40625 9.070312 191.171875 9.238281 C 190.859375 9.472656 190.609375 9.804688 190.429688 10.234375 C 190.257812 10.664062 190.164062 11.285156 190.15625 12.089844 C 190.390625 11.738281 190.671875 11.480469 191.015625 11.308594 C 191.367188 11.128906 191.726562 11.035156 192.109375 11.035156 C 192.773438 11.035156 193.328125 11.28125 193.789062 11.757812 C 194.257812 12.242188 194.492188 12.867188 194.492188 13.632812 C 194.492188 14.140625 194.378906 14.617188 194.160156 15.058594 C 193.9375 15.488281 193.636719 15.820312 193.261719 16.054688 C 192.882812 16.273438 192.453125 16.386719 191.972656 16.386719 C 191.152344 16.386719 190.476562 16.089844 189.960938 15.488281 C 189.4375 14.878906 189.179688 13.875 189.179688 12.480469 C 189.179688 10.933594 189.460938 9.800781 190.039062 9.082031 C 190.53125 8.472656 191.210938 8.164062 192.070312 8.164062 C 192.695312 8.164062 193.207031 8.351562 193.613281 8.710938 C 194.015625 9.0625 194.261719 9.550781 194.355469 10.175781 Z M 190.3125 13.632812 C 190.3125 13.984375 190.382812 14.316406 190.527344 14.628906 C 190.667969 14.929688 190.867188 15.164062 191.132812 15.332031 C 191.390625 15.488281 191.664062 15.566406 191.953125 15.566406 C 192.367188 15.566406 192.726562 15.40625 193.027344 15.078125 C 193.324219 14.742188 193.476562 14.277344 193.476562 13.691406 C 193.476562 13.132812 193.324219 12.695312 193.027344 12.382812 C 192.738281 12.0625 192.367188 11.894531 191.914062 11.894531 C 191.46875 11.894531 191.09375 12.0625 190.78125 12.382812 C 190.46875 12.695312 190.3125 13.117188 190.3125 13.632812 Z M 190.3125 13.632812 "/>
<path style=" stroke:none;fill-rule:nonzero;fill:rgb(0%,0%,0%);fill-opacity:1;" d="M 198.640625 16.25 L 198.640625 14.316406 L 195.144531 14.316406 L 195.144531 13.417969 L 198.816406 8.203125 L 199.636719 8.203125 L 199.636719 13.417969 L 200.730469 13.417969 L 200.730469 14.316406 L 199.636719 14.316406 L 199.636719 16.25 Z M 198.640625 13.417969 L 198.640625 9.785156 L 196.121094 13.417969 Z M 198.640625 13.417969 "/>
<path style=" stroke:none;fill-rule:nonzero;fill:rgb(0%,0%,0%);fill-opacity:1;" d="M 150.742188 11.875 C 150.320312 11.734375 150.019531 11.523438 149.824219 11.25 C 149.628906 10.96875 149.53125 10.625 149.53125 10.234375 C 149.53125 9.648438 149.734375 9.160156 150.15625 8.769531 C 150.585938 8.367188 151.140625 8.164062 151.835938 8.164062 C 152.539062 8.164062 153.105469 8.375 153.535156 8.789062 C 153.964844 9.195312 154.179688 9.6875 154.179688 10.273438 C 154.179688 10.640625 154.082031 10.96875 153.886719 11.25 C 153.691406 11.523438 153.390625 11.734375 152.988281 11.875 C 153.480469 12.046875 153.859375 12.3125 154.121094 12.675781 C 154.378906 13.027344 154.511719 13.453125 154.511719 13.945312 C 154.511719 14.640625 154.261719 15.214844 153.769531 15.683594 C 153.285156 16.152344 152.648438 16.386719 151.855469 16.386719 C 151.058594 16.386719 150.414062 16.152344 149.921875 15.683594 C 149.4375 15.214844 149.199219 14.628906 149.199219 13.925781 C 149.199219 13.40625 149.328125 12.96875 149.589844 12.617188 C 149.863281 12.257812 150.242188 12.007812 150.742188 11.875 Z M 150.546875 10.214844 C 150.546875 10.59375 150.664062 10.90625 150.898438 11.152344 C 151.140625 11.386719 151.464844 11.503906 151.855469 11.503906 C 152.246094 11.503906 152.558594 11.386719 152.792969 11.152344 C 153.039062 10.90625 153.164062 10.605469 153.164062 10.253906 C 153.164062 9.902344 153.039062 9.605469 152.792969 9.355469 C 152.542969 9.109375 152.230469 8.984375 151.855469 8.984375 C 151.476562 8.984375 151.164062 9.109375 150.917969 9.355469 C 150.667969 9.589844 150.546875 9.878906 150.546875 10.214844 Z M 150.214844 13.925781 C 150.214844 14.214844 150.277344 14.488281 150.410156 14.746094 C 150.550781 15.007812 150.75 15.210938 151.015625 15.351562 C 151.273438 15.5 151.5625 15.566406 151.875 15.566406 C 152.34375 15.566406 152.726562 15.421875 153.027344 15.117188 C 153.339844 14.820312 153.496094 14.433594 153.496094 13.964844 C 153.496094 13.484375 153.339844 13.085938 153.027344 12.773438 C 152.714844 12.460938 152.3125 12.304688 151.835938 12.304688 C 151.367188 12.304688 150.976562 12.460938 150.664062 12.773438 C 150.359375 13.085938 150.214844 13.472656 150.214844 13.925781 Z M 150.214844 13.925781 "/>
<path style=" stroke:none;fill-rule:nonzero;fill:rgb(0%,0%,0%);fill-opacity:1;" d="M 155.476562 12.285156 C 155.476562 11.335938 155.574219 10.566406 155.769531 9.980469 C 155.964844 9.394531 156.246094 8.945312 156.628906 8.632812 C 157.019531 8.320312 157.507812 8.164062 158.09375 8.164062 C 158.53125 8.164062 158.917969 8.257812 159.246094 8.4375 C 159.566406 8.609375 159.835938 8.859375 160.046875 9.179688 C 160.25 9.507812 160.417969 9.902344 160.535156 10.371094 C 160.660156 10.839844 160.730469 11.480469 160.730469 12.285156 C 160.730469 13.222656 160.632812 13.984375 160.4375 14.570312 C 160.242188 15.148438 159.949219 15.59375 159.558594 15.917969 C 159.175781 16.230469 158.6875 16.386719 158.09375 16.386719 C 157.320312 16.386719 156.714844 16.109375 156.277344 15.546875 C 155.738281 14.882812 155.476562 13.796875 155.476562 12.285156 Z M 156.492188 12.285156 C 156.492188 13.601562 156.636719 14.484375 156.941406 14.921875 C 157.253906 15.351562 157.632812 15.566406 158.09375 15.566406 C 158.546875 15.566406 158.933594 15.351562 159.246094 14.921875 C 159.558594 14.484375 159.714844 13.601562 159.714844 12.285156 C 159.714844 10.957031 159.558594 10.078125 159.246094 9.648438 C 158.933594 9.210938 158.546875 8.984375 158.09375 8.984375 C 157.632812 8.984375 157.273438 9.175781 157 9.550781 C 156.65625 10.046875 156.492188 10.957031 156.492188 12.285156 Z M 156.492188 12.285156 "/>
<path style=" stroke:none;fill-rule:nonzero;fill:rgb(0%,0%,0%);fill-opacity:1;" d="M 109.996094 14.394531 L 110.933594 14.296875 C 111.011719 14.742188 111.160156 15.070312 111.382812 15.273438 C 111.617188 15.46875 111.914062 15.566406 112.28125 15.566406 C 112.578125 15.566406 112.839844 15.503906 113.0625 15.371094 C 113.296875 15.230469 113.484375 15.039062 113.628906 14.804688 C 113.785156 14.570312 113.90625 14.257812 114 13.867188 C 114.101562 13.476562 114.15625 13.078125 114.15625 12.65625 C 114.15625 12.617188 114.148438 12.554688 114.136719 12.460938 C 113.941406 12.773438 113.671875 13.027344 113.335938 13.222656 C 112.996094 13.417969 112.625 13.515625 112.222656 13.515625 C 111.558594 13.515625 110.992188 13.277344 110.523438 12.792969 C 110.066406 12.3125 109.839844 11.675781 109.839844 10.878906 C 109.839844 10.058594 110.078125 9.40625 110.5625 8.90625 C 111.042969 8.414062 111.648438 8.164062 112.378906 8.164062 C 112.898438 8.164062 113.375 8.3125 113.804688 8.59375 C 114.234375 8.867188 114.558594 9.265625 114.78125 9.785156 C 115.015625 10.308594 115.132812 11.0625 115.132812 12.050781 C 115.132812 13.082031 115.019531 13.902344 114.800781 14.511719 C 114.578125 15.125 114.246094 15.59375 113.804688 15.917969 C 113.359375 16.230469 112.839844 16.386719 112.242188 16.386719 C 111.617188 16.386719 111.101562 16.210938 110.699219 15.859375 C 110.308594 15.507812 110.074219 15.019531 109.996094 14.394531 Z M 114.039062 10.839844 C 114.039062 10.269531 113.882812 9.820312 113.570312 9.492188 C 113.269531 9.15625 112.910156 8.984375 112.496094 8.984375 C 112.050781 8.984375 111.667969 9.171875 111.34375 9.53125 C 111.015625 9.882812 110.855469 10.347656 110.855469 10.917969 C 110.855469 11.425781 111.003906 11.84375 111.304688 12.167969 C 111.617188 12.480469 112 12.636719 112.457031 12.636719 C 112.925781 12.636719 113.300781 12.480469 113.589844 12.167969 C 113.886719 11.84375 114.039062 11.402344 114.039062 10.839844 Z M 114.039062 10.839844 "/>
<path style=" stroke:none;fill-rule:nonzero;fill:rgb(0%,0%,0%);fill-opacity:1;" d="M 121.234375 10.175781 L 120.238281 10.253906 C 120.160156 9.863281 120.03125 9.578125 119.867188 9.394531 C 119.601562 9.121094 119.28125 8.984375 118.890625 8.984375 C 118.5625 8.984375 118.285156 9.070312 118.050781 9.238281 C 117.738281 9.472656 117.488281 9.804688 117.308594 10.234375 C 117.136719 10.664062 117.042969 11.285156 117.035156 12.089844 C 117.269531 11.738281 117.550781 11.480469 117.894531 11.308594 C 118.246094 11.128906 118.605469 11.035156 118.988281 11.035156 C 119.652344 11.035156 120.207031 11.28125 120.667969 11.757812 C 121.136719 12.242188 121.371094 12.867188 121.371094 13.632812 C 121.371094 14.140625 121.257812 14.617188 121.039062 15.058594 C 120.8125 15.488281 120.515625 15.820312 120.140625 16.054688 C 119.757812 16.273438 119.328125 16.386719 118.851562 16.386719 C 118.03125 16.386719 117.355469 16.089844 116.839844 15.488281 C 116.316406 14.878906 116.058594 13.875 116.058594 12.480469 C 116.058594 10.933594 116.339844 9.800781 116.917969 9.082031 C 117.410156 8.472656 118.089844 8.164062 118.949219 8.164062 C 119.574219 8.164062 120.085938 8.351562 120.492188 8.710938 C 120.890625 9.0625 121.140625 9.550781 121.234375 10.175781 Z M 117.191406 13.632812 C 117.191406 13.984375 117.257812 14.316406 117.40625 14.628906 C 117.546875 14.929688 117.746094 15.164062 118.011719 15.332031 C 118.269531 15.488281 118.542969 15.566406 118.832031 15.566406 C 119.246094 15.566406 119.601562 15.40625 119.90625 15.078125 C 120.203125 14.742188 120.355469 14.277344 120.355469 13.691406 C 120.355469 13.132812 120.203125 12.695312 119.90625 12.382812 C 119.617188 12.0625 119.246094 11.894531 118.792969 11.894531 C 118.347656 11.894531 117.972656 12.0625 117.660156 12.382812 C 117.347656 12.695312 117.191406 13.117188 117.191406 13.632812 Z M 117.191406 13.632812 "/>
<path style=" stroke:none;fill-rule:nonzero;fill:rgb(0%,0%,0%);fill-opacity:1;" d="M 70.238281 16.25 L 69.242188 16.25 L 69.242188 9.941406 C 69.007812 10.175781 68.695312 10.410156 68.304688 10.644531 C 67.914062 10.867188 67.566406 11.03125 67.269531 11.132812 L 67.269531 10.175781 C 67.816406 9.929688 68.296875 9.625 68.714844 9.257812 C 69.128906 8.882812 69.421875 8.515625 69.59375 8.164062 L 70.238281 8.164062 Z M 70.238281 16.25 "/>
<path style=" stroke:none;fill-rule:nonzero;fill:rgb(0%,0%,0%);fill-opacity:1;" d="M 75.660156 16.25 L 74.664062 16.25 L 74.664062 9.941406 C 74.429688 10.175781 74.117188 10.410156 73.726562 10.644531 C 73.335938 10.867188 72.988281 11.03125 72.691406 11.132812 L 72.691406 10.175781 C 73.238281 9.929688 73.714844 9.625 74.136719 9.257812 C 74.550781 8.882812 74.84375 8.515625 75.015625 8.164062 L 75.660156 8.164062 Z M 75.660156 16.25 "/>
<path style=" stroke:none;fill-rule:nonzero;fill:rgb(0%,0%,0%);fill-opacity:1;" d="M 83.378906 15.292969 L 83.378906 16.25 L 78.046875 16.25 C 78.046875 16.015625 78.085938 15.789062 78.164062 15.566406 C 78.304688 15.203125 78.523438 14.84375 78.828125 14.492188 C 79.125 14.140625 79.554688 13.742188 80.117188 13.28125 C 80.984375 12.554688 81.570312 11.984375 81.875 11.5625 C 82.1875 11.148438 82.34375 10.75 82.34375 10.371094 C 82.34375 9.980469 82.195312 9.65625 81.914062 9.394531 C 81.640625 9.121094 81.277344 8.984375 80.839844 8.984375 C 80.355469 8.984375 79.96875 9.132812 79.6875 9.414062 C 79.398438 9.703125 79.257812 10.097656 79.257812 10.605469 L 78.242188 10.488281 C 78.304688 9.734375 78.5625 9.160156 79.023438 8.769531 C 79.476562 8.367188 80.085938 8.164062 80.859375 8.164062 C 81.625 8.164062 82.230469 8.378906 82.675781 8.808594 C 83.128906 9.238281 83.359375 9.765625 83.359375 10.390625 C 83.359375 10.71875 83.289062 11.035156 83.164062 11.347656 C 83.03125 11.660156 82.8125 11.992188 82.5 12.34375 C 82.195312 12.6875 81.699219 13.15625 80.996094 13.75 C 80.394531 14.25 80.007812 14.585938 79.84375 14.765625 C 79.671875 14.953125 79.535156 15.125 79.433594 15.292969 Z M 83.378906 15.292969 "/>
<path style=" stroke:none;fill-rule:nonzero;fill:rgb(0%,0%,0%);fill-opacity:1;" d="M 29.820312 16.25 L 28.824219 16.25 L 28.824219 9.941406 C 28.589844 10.175781 28.277344 10.410156 27.886719 10.644531 C 27.496094 10.867188 27.148438 11.03125 26.851562 11.132812 L 26.851562 10.175781 C 27.398438 9.929688 27.878906 9.625 28.296875 9.257812 C 28.710938 8.882812 29.003906 8.515625 29.175781 8.164062 L 29.820312 8.164062 Z M 29.820312 16.25 "/>
<path style=" stroke:none;fill-rule:nonzero;fill:rgb(0%,0%,0%);fill-opacity:1;" d="M 37.542969 15.292969 L 37.542969 16.25 L 32.210938 16.25 C 32.210938 16.015625 32.25 15.789062 32.328125 15.566406 C 32.46875 15.203125 32.6875 14.84375 32.992188 14.492188 C 33.289062 14.140625 33.71875 13.742188 34.28125 13.28125 C 35.148438 12.554688 35.734375 11.984375 36.039062 11.5625 C 36.351562 11.148438 36.507812 10.75 36.507812 10.371094 C 36.507812 9.980469 36.359375 9.65625 36.078125 9.394531 C 35.804688 9.121094 35.441406 8.984375 35.003906 8.984375 C 34.519531 8.984375 34.132812 9.132812 33.851562 9.414062 C 33.5625 9.703125 33.421875 10.097656 33.421875 10.605469 L 32.40625 10.488281 C 32.46875 9.734375 32.726562 9.160156 33.1875 8.769531 C 33.640625 8.367188 34.25 8.164062 35.023438 8.164062 C 35.789062 8.164062 36.394531 8.378906 36.839844 8.808594 C 37.292969 9.238281 37.523438 9.765625 37.523438 10.390625 C 37.523438 10.71875 37.453125 11.035156 37.328125 11.347656 C 37.195312 11.660156 36.976562 11.992188 36.664062 12.34375 C 36.359375 12.6875 35.863281 13.15625 35.160156 13.75 C 34.558594 14.25 34.171875 14.585938 34.007812 14.765625 C 33.835938 14.953125 33.699219 15.125 33.597656 15.292969 Z M 37.542969 15.292969 "/>
<path style=" stroke:none;fill-rule:nonzero;fill:rgb(0%,0%,0%);fill-opacity:1;" d="M 40.128906 11.875 C 39.707031 11.734375 39.40625 11.523438 39.210938 11.25 C 39.015625 10.96875 38.917969 10.625 38.917969 10.234375 C 38.917969 9.648438 39.121094 9.160156 39.542969 8.769531 C 39.972656 8.367188 40.527344 8.164062 41.222656 8.164062 C 41.925781 8.164062 42.492188 8.375 42.921875 8.789062 C 43.351562 9.195312 43.566406 9.6875 43.566406 10.273438 C 43.566406 10.640625 43.46875 10.96875 43.273438 11.25 C 43.078125 11.523438 42.773438 11.734375 42.375 11.875 C 42.867188 12.046875 43.242188 12.3125 43.507812 12.675781 C 43.765625 13.027344 43.898438 13.453125 43.898438 13.945312 C 43.898438 14.640625 43.648438 15.214844 43.15625 15.683594 C 42.671875 16.152344 42.03125 16.386719 41.242188 16.386719 C 40.445312 16.386719 39.800781 16.152344 39.308594 15.683594 C 38.824219 15.214844 38.585938 14.628906 38.585938 13.925781 C 38.585938 13.40625 38.710938 12.96875 38.976562 12.617188 C 39.25 12.257812 39.628906 12.007812 40.128906 11.875 Z M 39.933594 10.214844 C 39.933594 10.59375 40.050781 10.90625 40.285156 11.152344 C 40.527344 11.386719 40.851562 11.503906 41.242188 11.503906 C 41.632812 11.503906 41.945312 11.386719 42.179688 11.152344 C 42.421875 10.90625 42.550781 10.605469 42.550781 10.253906 C 42.550781 9.902344 42.421875 9.605469 42.179688 9.355469 C 41.929688 9.109375 41.617188 8.984375 41.242188 8.984375 C 40.859375 8.984375 40.546875 9.109375 40.304688 9.355469 C 40.054688 9.589844 39.933594 9.878906 39.933594 10.214844 Z M 39.601562 13.925781 C 39.601562 14.214844 39.664062 14.488281 39.796875 14.746094 C 39.9375 15.007812 40.136719 15.210938 40.402344 15.351562 C 40.660156 15.5 40.949219 15.566406 41.261719 15.566406 C 41.730469 15.566406 42.109375 15.421875 42.414062 15.117188 C 42.726562 14.820312 42.882812 14.433594 42.882812 13.964844 C 42.882812 13.484375 42.726562 13.085938 42.414062 12.773438 C 42.101562 12.460938 41.699219 12.304688 41.222656 12.304688 C 40.753906 12.304688 40.363281 12.460938 40.050781 12.773438 C 39.746094 13.085938 39.601562 13.472656 39.601562 13.925781 Z M 39.601562 13.925781 "/>
<path style=" stroke:none;fill-rule:nonzero;fill:rgb(0%,0%,0%);fill-opacity:1;" d="M 373.613281 40 L 371.386719 34.160156 L 372.441406 34.160156 L 373.691406 37.65625 C 373.820312 38.039062 373.945312 38.429688 374.0625 38.828125 C 374.148438 38.53125 374.277344 38.164062 374.433594 37.734375 L 375.722656 34.160156 L 376.738281 34.160156 L 374.53125 40 Z M 373.613281 40 "/>
<path style=" stroke:none;fill-rule:nonzero;fill:rgb(0%,0%,0%);fill-opacity:1;" d="M 381.601562 38.125 L 382.636719 38.242188 C 382.464844 38.84375 382.15625 39.3125 381.71875 39.648438 C 381.289062 39.976562 380.734375 40.136719 380.058594 40.136719 C 379.210938 40.136719 378.535156 39.878906 378.027344 39.355469 C 377.53125 38.824219 377.285156 38.082031 377.285156 37.128906 C 377.285156 36.152344 377.539062 35.398438 378.046875 34.863281 C 378.554688 34.316406 379.210938 34.042969 380.019531 34.042969 C 380.800781 34.042969 381.429688 34.3125 381.914062 34.84375 C 382.40625 35.367188 382.65625 36.109375 382.65625 37.070312 C 382.65625 37.140625 382.65625 37.226562 382.65625 37.34375 L 378.300781 37.34375 C 378.339844 37.984375 378.519531 38.472656 378.847656 38.808594 C 379.171875 39.148438 379.578125 39.316406 380.078125 39.316406 C 380.4375 39.316406 380.746094 39.226562 380.996094 39.042969 C 381.253906 38.847656 381.453125 38.546875 381.601562 38.125 Z M 378.359375 36.523438 L 381.621094 36.523438 C 381.582031 36.03125 381.453125 35.660156 381.25 35.410156 C 380.9375 35.035156 380.527344 34.84375 380.019531 34.84375 C 379.5625 34.84375 379.179688 35 378.867188 35.3125 C 378.5625 35.617188 378.398438 36.015625 378.359375 36.523438 Z M 378.359375 36.523438 "/>
<path style=" stroke:none;fill-rule:nonzero;fill:rgb(0%,0%,0%);fill-opacity:1;" d="M 387.683594 37.871094 L 388.660156 37.988281 C 388.550781 38.667969 388.277344 39.195312 387.839844 39.570312 C 387.394531 39.949219 386.851562 40.136719 386.21875 40.136719 C 385.421875 40.136719 384.78125 39.878906 384.304688 39.355469 C 383.820312 38.835938 383.582031 38.085938 383.582031 37.109375 C 383.582031 36.476562 383.683594 35.917969 383.894531 35.449219 C 384.097656 34.980469 384.410156 34.628906 384.832031 34.394531 C 385.261719 34.160156 385.730469 34.042969 386.238281 34.042969 C 386.863281 34.042969 387.375 34.210938 387.78125 34.53125 C 388.179688 34.84375 388.445312 35.292969 388.5625 35.878906 L 387.605469 36.035156 C 387.511719 35.644531 387.351562 35.351562 387.117188 35.15625 C 386.882812 34.953125 386.597656 34.84375 386.277344 34.84375 C 385.769531 34.84375 385.359375 35.03125 385.046875 35.390625 C 384.742188 35.742188 384.597656 36.304688 384.597656 37.070312 C 384.597656 37.867188 384.742188 38.4375 385.046875 38.789062 C 385.34375 39.140625 385.734375 39.316406 386.21875 39.316406 C 386.609375 39.316406 386.929688 39.199219 387.195312 38.964844 C 387.453125 38.730469 387.613281 38.367188 387.683594 37.871094 Z M 387.683594 37.871094 "/>
<path style=" stroke:none;fill-rule:nonzero;fill:rgb(0%,0%,0%);fill-opacity:1;" d="M 391.667969 39.121094 L 391.804688 39.980469 C 391.515625 40.042969 391.265625 40.078125 391.0625 40.078125 C 390.695312 40.078125 390.417969 40.019531 390.222656 39.902344 C 390.027344 39.785156 389.878906 39.640625 389.792969 39.453125 C 389.714844 39.273438 389.675781 38.886719 389.675781 38.300781 L 389.675781 34.941406 L 388.953125 34.941406 L 388.953125 34.160156 L 389.675781 34.160156 L 389.675781 32.714844 L 390.671875 32.128906 L 390.671875 34.160156 L 391.667969 34.160156 L 391.667969 34.941406 L 390.671875 34.941406 L 390.671875 38.339844 C 390.671875 38.628906 390.679688 38.808594 390.710938 38.886719 C 390.75 38.964844 390.808594 39.03125 390.886719 39.082031 C 390.964844 39.136719 391.070312 39.160156 391.21875 39.160156 C 391.335938 39.160156 391.480469 39.148438 391.667969 39.121094 Z M 391.667969 39.121094 "/>
<path style=" stroke:none;fill-rule:nonzero;fill:rgb(0%,0%,0%);fill-opacity:1;" d="M 392.253906 37.089844 C 392.253906 36.011719 392.550781 35.210938 393.152344 34.6875 C 393.660156 34.257812 394.269531 34.042969 394.988281 34.042969 C 395.792969 34.042969 396.453125 34.304688 396.960938 34.824219 C 397.46875 35.347656 397.722656 36.070312 397.722656 36.992188 C 397.722656 37.75 397.605469 38.339844 397.371094 38.769531 C 397.144531 39.199219 396.824219 39.539062 396.394531 39.785156 C 395.964844 40.019531 395.496094 40.136719 394.988281 40.136719 C 394.167969 40.136719 393.503906 39.878906 392.996094 39.355469 C 392.496094 38.824219 392.253906 38.066406 392.253906 37.089844 Z M 393.269531 37.089844 C 393.269531 37.832031 393.429688 38.394531 393.757812 38.769531 C 394.078125 39.136719 394.488281 39.316406 394.988281 39.316406 C 395.480469 39.316406 395.890625 39.136719 396.21875 38.769531 C 396.539062 38.394531 396.707031 37.820312 396.707031 37.050781 C 396.707031 36.335938 396.539062 35.789062 396.21875 35.410156 C 395.890625 35.035156 395.480469 34.84375 394.988281 34.84375 C 394.488281 34.84375 394.078125 35.035156 393.757812 35.410156 C 393.429688 35.777344 393.269531 36.335938 393.269531 37.089844 Z M 393.269531 37.089844 "/>
<path style=" stroke:none;fill-rule:nonzero;fill:rgb(0%,0%,0%);fill-opacity:1;" d="M 398.863281 40 L 398.863281 34.160156 L 399.761719 34.160156 L 399.761719 35.058594 C 399.980469 34.644531 400.191406 34.371094 400.386719 34.238281 C 400.582031 34.109375 400.796875 34.042969 401.03125 34.042969 C 401.351562 34.042969 401.695312 34.148438 402.046875 34.355469 L 401.695312 35.273438 C 401.460938 35.132812 401.214844 35.058594 400.972656 35.058594 C 400.761719 35.058594 400.566406 35.125 400.386719 35.253906 C 400.214844 35.386719 400.09375 35.566406 400.015625 35.800781 C 399.90625 36.152344 399.859375 36.539062 399.859375 36.953125 L 399.859375 40 Z M 398.863281 40 "/>
</g>
</svg>
