<?xml version="1.0" encoding="UTF-8"?>
<svg xmlns="http://www.w3.org/2000/svg" xmlns:xlink="http://www.w3.org/1999/xlink" width="306pt" height="229pt" viewBox="0 0 306 229" version="1.1">
<defs>
<clipPath id="clip1">
  <path d="M 53.273438 70 L 297.398438 70 L 297.398438 133 L 53.273438 133 Z M 53.273438 70 "/>
</clipPath>
<clipPath id="clip2">
  <path d="M 53.273438 130 L 297.398438 130 L 297.398438 148 L 53.273438 148 Z M 53.273438 130 "/>
</clipPath>
<clipPath id="clip3">
  <path d="M 53.273438 145 L 297.398438 145 L 297.398438 159 L 53.273438 159 Z M 53.273438 145 "/>
</clipPath>
<clipPath id="clip4">
  <path d="M 53.273438 156 L 297.398438 156 L 297.398438 168 L 53.273438 168 Z M 53.273438 156 "/>
</clipPath>
<clipPath id="clip5">
  <path d="M 53.273438 165 L 297.398438 165 L 297.398438 176 L 53.273438 176 Z M 53.273438 165 "/>
</clipPath>
<clipPath id="clip6">
  <path d="M 53.273438 173 L 265 173 L 265 182.25 L 53.273438 182.25 Z M 53.273438 173 "/>
</clipPath>
<clipPath id="clip7">
  <path d="M 262 181 L 297.398438 181 L 297.398438 182.25 L 262 182.25 Z M 262 181 "/>
</clipPath>
<clipPath id="clip8">
  <path d="M 53.273438 181 L 56 181 L 56 182.25 L 53.273438 182.25 Z M 53.273438 181 "/>
</clipPath>
</defs>
<g id="surface1">
<rect x="0" y="0" width="306" height="229" style="fill:rgb(100%,100%,100%);fill-opacity:1;stroke:none;"/>
<path style=" stroke:none;fill-rule:nonzero;fill:rgb(100%,100%,100%);fill-opacity:1;" d="M 53.273438 182.25 L 297.402344 182.25 L 297.402344 9 L 53.273438 9 Z M 53.273438 182.25 "/>
<path style="fill:none;stroke-width:0.8;stroke-linecap:butt;stroke-linejoin:round;stroke:rgb(0%,0%,0%);stroke-opacity:1;stroke-miterlimit:4;" d="M 0.000000000000014211 0 L 0.000000000000014211 3.5 " transform="matrix(1.25,0,0,1.25,110.492187,182.25)"/>
<path style=" stroke:none;fill-rule:nonzero;fill:rgb(0%,0%,0%);fill-opacity:1;" d="M 102.601562 196.0625 L 110.425781 196.0625 L 110.425781 197.097656 L 102.601562 197.097656 Z M 102.601562 196.0625 "/>
<path style=" stroke:none;fill-rule:nonzero;fill:rgb(0%,0%,0%);fill-opacity:1;" d="M 116.476562 192.460938 L 113.363281 197.324219 L 116.476562 197.324219 Z M 116.152344 191.386719 L 117.703125 191.386719 L 117.703125 197.324219 L 119.003906 197.324219 L 119.003906 198.351562 L 117.703125 198.351562 L 117.703125 200.5 L 116.476562 200.5 L 116.476562 198.351562 L 112.363281 198.351562 L 112.363281 197.160156 Z M 116.152344 191.386719 "/>
<path style="fill:none;stroke-width:0.8;stroke-linecap:butt;stroke-linejoin:round;stroke:rgb(0%,0%,0%);stroke-opacity:1;stroke-miterlimit:4;" d="M 0.000000000000028422 0 L 0.000000000000028422 3.5 " transform="matrix(1.25,0,0,1.25,186.78125,182.25)"/>
<path style=" stroke:none;fill-rule:nonzero;fill:rgb(0%,0%,0%);fill-opacity:1;" d="M 178.890625 196.0625 L 186.714844 196.0625 L 186.714844 197.097656 L 178.890625 197.097656 Z M 178.890625 196.0625 "/>
<path style=" stroke:none;fill-rule:nonzero;fill:rgb(0%,0%,0%);fill-opacity:1;" d="M 190.441406 199.460938 L 194.742188 199.460938 L 194.742188 200.5 L 188.957031 200.5 L 188.957031 199.460938 C 189.425781 198.976562 190.0625 198.328125 190.871094 197.511719 C 191.679688 196.695312 192.1875 196.167969 192.394531 195.933594 C 192.789062 195.488281 193.0625 195.113281 193.21875 194.808594 C 193.375 194.5 193.457031 194.199219 193.457031 193.902344 C 193.457031 193.417969 193.285156 193.023438 192.945312 192.71875 C 192.605469 192.410156 192.164062 192.257812 191.617188 192.257812 C 191.230469 192.257812 190.824219 192.324219 190.394531 192.460938 C 189.964844 192.59375 189.507812 192.796875 189.019531 193.070312 L 189.019531 191.824219 C 189.515625 191.625 189.976562 191.476562 190.410156 191.375 C 190.839844 191.273438 191.234375 191.222656 191.59375 191.222656 C 192.539062 191.222656 193.289062 191.457031 193.851562 191.929688 C 194.414062 192.402344 194.695312 193.03125 194.695312 193.820312 C 194.695312 194.195312 194.625 194.550781 194.484375 194.886719 C 194.34375 195.222656 194.089844 195.617188 193.71875 196.074219 C 193.617188 196.191406 193.292969 196.53125 192.746094 197.097656 C 192.203125 197.660156 191.433594 198.449219 190.441406 199.460938 Z M 190.441406 199.460938 "/>
<path style="fill:none;stroke-width:0.8;stroke-linecap:butt;stroke-linejoin:round;stroke:rgb(0%,0%,0%);stroke-opacity:1;stroke-miterlimit:4;" d="M -0.000001 0 L -0.000001 3.5 " transform="matrix(1.25,0,0,1.25,263.070314,182.25)"/>
<path style=" stroke:none;fill-rule:nonzero;fill:rgb(0%,0%,0%);fill-opacity:1;" d="M 263.066406 192.199219 C 262.433594 192.199219 261.957031 192.511719 261.636719 193.136719 C 261.316406 193.757812 261.15625 194.699219 261.15625 195.953125 C 261.15625 197.199219 261.316406 198.136719 261.636719 198.761719 C 261.957031 199.386719 262.433594 199.699219 263.066406 199.699219 C 263.707031 199.699219 264.183594 199.386719 264.503906 198.761719 C 264.824219 198.136719 264.984375 197.199219 264.984375 195.953125 C 264.984375 194.699219 264.824219 193.757812 264.503906 193.136719 C 264.183594 192.511719 263.707031 192.199219 263.066406 192.199219 Z M 263.066406 191.222656 C 264.089844 191.222656 264.871094 191.625 265.410156 192.433594 C 265.949219 193.242188 266.21875 194.414062 266.21875 195.953125 C 266.21875 197.484375 265.949219 198.65625 265.410156 199.464844 C 264.871094 200.273438 264.089844 200.675781 263.066406 200.675781 C 262.046875 200.675781 261.265625 200.273438 260.726562 199.464844 C 260.1875 198.65625 259.917969 197.484375 259.917969 195.953125 C 259.917969 194.414062 260.1875 193.242188 260.726562 192.433594 C 261.265625 191.625 262.046875 191.222656 263.066406 191.222656 Z M 263.066406 191.222656 "/>
<path style=" stroke:none;fill-rule:nonzero;fill:rgb(0%,0%,0%);fill-opacity:1;" d="M 174.523438 210.761719 L 172.050781 214.085938 L 174.648438 217.597656 L 173.324219 217.597656 L 171.335938 214.910156 L 169.347656 217.597656 L 168.019531 217.597656 L 170.675781 214.019531 L 168.246094 210.761719 L 169.570312 210.761719 L 171.382812 213.195312 L 173.195312 210.761719 Z M 174.523438 210.761719 "/>
<path style=" stroke:none;fill-rule:nonzero;fill:rgb(0%,0%,0%);fill-opacity:1;" d="M 176.609375 216.558594 L 178.625 216.558594 L 178.625 209.605469 L 176.433594 210.046875 L 176.433594 208.921875 L 178.613281 208.484375 L 179.84375 208.484375 L 179.84375 216.558594 L 181.859375 216.558594 L 181.859375 217.597656 L 176.609375 217.597656 Z M 176.609375 216.558594 "/>
<path style="fill:none;stroke-width:0.8;stroke-linecap:butt;stroke-linejoin:round;stroke:rgb(0%,0%,0%);stroke-opacity:1;stroke-miterlimit:4;" d="M -0.001562 -0.000754 L -3.501562 -0.000754 " transform="matrix(1.25,0,0,1.25,53.27539,153.801724)"/>
<path style=" stroke:none;fill-rule:nonzero;fill:rgb(0%,0%,0%);fill-opacity:1;" d="M 27.421875 154.113281 L 35.246094 154.113281 L 35.246094 155.148438 L 27.421875 155.148438 Z M 27.421875 154.113281 "/>
<path style=" stroke:none;fill-rule:nonzero;fill:rgb(0%,0%,0%);fill-opacity:1;" d="M 38.96875 157.511719 L 43.273438 157.511719 L 43.273438 158.550781 L 37.488281 158.550781 L 37.488281 157.511719 C 37.953125 157.027344 38.59375 156.378906 39.398438 155.5625 C 40.207031 154.746094 40.714844 154.222656 40.921875 153.984375 C 41.316406 153.542969 41.59375 153.167969 41.75 152.859375 C 41.90625 152.550781 41.984375 152.25 41.984375 151.953125 C 41.984375 151.46875 41.816406 151.074219 41.476562 150.769531 C 41.136719 150.464844 40.691406 150.308594 40.148438 150.308594 C 39.761719 150.308594 39.351562 150.378906 38.921875 150.511719 C 38.496094 150.644531 38.035156 150.847656 37.546875 151.121094 L 37.546875 149.875 C 38.042969 149.675781 38.507812 149.527344 38.9375 149.425781 C 39.371094 149.324219 39.765625 149.273438 40.125 149.273438 C 41.066406 149.273438 41.820312 149.507812 42.382812 149.980469 C 42.941406 150.453125 43.222656 151.082031 43.222656 151.871094 C 43.222656 152.246094 43.152344 152.601562 43.011719 152.9375 C 42.875 153.273438 42.617188 153.667969 42.246094 154.125 C 42.144531 154.242188 41.820312 154.585938 41.277344 155.148438 C 40.730469 155.710938 39.964844 156.5 38.96875 157.511719 Z M 38.96875 157.511719 "/>
<path style="fill:none;stroke-width:0.8;stroke-linecap:butt;stroke-linejoin:round;stroke:rgb(0%,0%,0%);stroke-opacity:1;stroke-miterlimit:4;" d="M -0.001562 0.000862 L -3.501562 0.000862 " transform="matrix(1.25,0,0,1.25,53.27539,96.905172)"/>
<path style=" stroke:none;fill-rule:nonzero;fill:rgb(0%,0%,0%);fill-opacity:1;" d="M 40.542969 93.351562 C 39.910156 93.351562 39.433594 93.664062 39.113281 94.289062 C 38.792969 94.914062 38.632812 95.851562 38.632812 97.105469 C 38.632812 98.355469 38.792969 99.292969 39.113281 99.917969 C 39.433594 100.542969 39.910156 100.855469 40.542969 100.855469 C 41.183594 100.855469 41.664062 100.542969 41.980469 99.917969 C 42.300781 99.292969 42.460938 98.355469 42.460938 97.105469 C 42.460938 95.851562 42.300781 94.914062 41.980469 94.289062 C 41.664062 93.664062 41.183594 93.351562 40.542969 93.351562 Z M 40.542969 92.375 C 41.566406 92.375 42.347656 92.78125 42.886719 93.589844 C 43.425781 94.398438 43.695312 95.570312 43.695312 97.105469 C 43.695312 98.640625 43.425781 99.8125 42.886719 100.621094 C 42.347656 101.429688 41.566406 101.832031 40.542969 101.832031 C 39.523438 101.832031 38.742188 101.429688 38.203125 100.621094 C 37.664062 99.8125 37.394531 98.640625 37.394531 97.105469 C 37.394531 95.570312 37.664062 94.398438 38.203125 93.589844 C 38.742188 92.78125 39.523438 92.375 40.542969 92.375 Z M 40.542969 92.375 "/>
<path style="fill:none;stroke-width:0.8;stroke-linecap:butt;stroke-linejoin:round;stroke:rgb(0%,0%,0%);stroke-opacity:1;stroke-miterlimit:4;" d="M -0.001562 -0.000647 L -3.501562 -0.000647 " transform="matrix(1.25,0,0,1.25,53.27539,40.008621)"/>
<path style=" stroke:none;fill-rule:nonzero;fill:rgb(0%,0%,0%);fill-opacity:1;" d="M 38.96875 43.71875 L 43.273438 43.71875 L 43.273438 44.757812 L 37.488281 44.757812 L 37.488281 43.71875 C 37.957031 43.234375 38.59375 42.585938 39.398438 41.769531 C 40.207031 40.953125 40.714844 40.429688 40.921875 40.191406 C 41.316406 39.75 41.59375 39.375 41.75 39.066406 C 41.90625 38.757812 41.984375 38.457031 41.984375 38.160156 C 41.984375 37.675781 41.816406 37.28125 41.476562 36.976562 C 41.136719 36.671875 40.695312 36.515625 40.148438 36.515625 C 39.761719 36.515625 39.351562 36.585938 38.921875 36.71875 C 38.496094 36.851562 38.035156 37.054688 37.546875 37.328125 L 37.546875 36.082031 C 38.042969 35.882812 38.507812 35.734375 38.9375 35.632812 C 39.371094 35.53125 39.765625 35.480469 40.125 35.480469 C 41.070312 35.480469 41.820312 35.714844 42.382812 36.1875 C 42.945312 36.660156 43.222656 37.289062 43.222656 38.078125 C 43.222656 38.453125 43.152344 38.808594 43.011719 39.144531 C 42.875 39.480469 42.617188 39.875 42.246094 40.332031 C 42.144531 40.449219 41.824219 40.792969 41.277344 41.355469 C 40.734375 41.917969 39.964844 42.707031 38.96875 43.71875 Z M 38.96875 43.71875 "/>
<path style=" stroke:none;fill-rule:nonzero;fill:rgb(0%,0%,0%);fill-opacity:1;" d="M 11.660156 96.4375 L 14.988281 98.914062 L 18.496094 96.3125 L 18.496094 97.636719 L 15.8125 99.625 L 18.496094 101.617188 L 18.496094 102.941406 L 14.921875 100.285156 L 11.660156 102.714844 L 11.660156 101.390625 L 14.097656 99.578125 L 11.660156 97.765625 Z M 11.660156 96.4375 "/>
<path style=" stroke:none;fill-rule:nonzero;fill:rgb(0%,0%,0%);fill-opacity:1;" d="M 17.460938 93.503906 L 17.460938 89.203125 L 18.496094 89.203125 L 18.496094 94.988281 L 17.460938 94.988281 C 16.976562 94.519531 16.328125 93.882812 15.511719 93.074219 C 14.695312 92.265625 14.167969 91.757812 13.929688 91.550781 C 13.488281 91.15625 13.113281 90.882812 12.804688 90.726562 C 12.5 90.566406 12.195312 90.488281 11.898438 90.488281 C 11.414062 90.488281 11.019531 90.660156 10.714844 91 C 10.410156 91.339844 10.257812 91.78125 10.257812 92.328125 C 10.257812 92.714844 10.324219 93.121094 10.457031 93.550781 C 10.59375 93.980469 10.796875 94.4375 11.070312 94.925781 L 9.824219 94.925781 C 9.625 94.429688 9.472656 93.96875 9.371094 93.535156 C 9.269531 93.105469 9.21875 92.707031 9.21875 92.351562 C 9.21875 91.40625 9.457031 90.652344 9.929688 90.09375 C 10.402344 89.53125 11.03125 89.25 11.820312 89.25 C 12.195312 89.25 12.550781 89.320312 12.886719 89.460938 C 13.222656 89.601562 13.617188 89.855469 14.070312 90.226562 C 14.191406 90.328125 14.53125 90.652344 15.09375 91.199219 C 15.660156 91.742188 16.449219 92.511719 17.460938 93.503906 Z M 17.460938 93.503906 "/>
<path style="fill:none;stroke-width:1.5;stroke-linecap:square;stroke-linejoin:round;stroke:rgb(100%,49.803922%,5.490196%);stroke-opacity:1;stroke-miterlimit:4;" d="M 57.878125 123.040625 L 76.1875 13.8 L 101.453125 112.11875 L 127.16875 78.253125 L 150.01875 59.571875 L 168.696875 93.315625 L 183.046875 72.2875 L 193.5125 74.340625 L 200.778125 83.00625 L 205.571875 74.18125 L 208.553125 77.790625 L 210.275 78.95625 L 211.15625 76.103125 L 211.5125 78.0875 L 211.565625 77.728125 L 211.45625 77.059375 L 211.284375 77.840625 L 211.096875 77.471875 L 210.928125 77.4125 L 210.7875 77.65 L 210.675 77.465625 " transform="matrix(1.25,0,0,1.25,0,0.000000000000014211)"/>
<path style="fill-rule:nonzero;fill:rgb(100%,49.803922%,5.490196%);fill-opacity:1;stroke-width:1;stroke-linecap:butt;stroke-linejoin:round;stroke:rgb(100%,49.803922%,5.490196%);stroke-opacity:1;stroke-miterlimit:4;" d="M 0.000000000000014211 2.999246 C 0.796875 2.999246 1.559375 2.683621 2.121875 2.121121 C 2.684375 1.558621 3 0.796121 3 -0.000754 C 3 -0.794504 2.684375 -1.560129 2.121875 -2.122629 C 1.559375 -2.685129 0.796875 -3.000754 0.000000000000014211 -3.000754 C -0.796875 -3.000754 -1.559375 -2.685129 -2.121875 -2.122629 C -2.684375 -1.560129 -3 -0.794504 -3 -0.000754 C -3 0.796121 -2.684375 1.558621 -2.121875 2.121121 C -1.559375 2.683621 -0.796875 2.999246 0.000000000000014211 2.999246 Z M 0.000000000000014211 2.999246 " transform="matrix(1.25,0,0,1.25,72.347656,153.801724)"/>
<path style="fill-rule:nonzero;fill:rgb(100%,49.803922%,5.490196%);fill-opacity:1;stroke-width:1;stroke-linecap:butt;stroke-linejoin:round;stroke:rgb(100%,49.803922%,5.490196%);stroke-opacity:1;stroke-miterlimit:4;" d="M 0.000000000000014211 3 C 0.796875 3 1.559375 2.684375 2.121875 2.121875 C 2.684375 1.559375 3 0.796875 3 -0.000000000000008882 C 3 -0.796875 2.684375 -1.559375 2.121875 -2.121875 C 1.559375 -2.684375 0.796875 -3 0.000000000000014211 -3 C -0.796875 -3 -1.559375 -2.684375 -2.121875 -2.121875 C -2.684375 -1.559375 -3 -0.796875 -3 -0.000000000000008882 C -3 0.796875 -2.684375 1.559375 -2.121875 2.121875 C -1.559375 2.684375 -0.796875 3 0.000000000000014211 3 Z M 0.000000000000014211 3 " transform="matrix(1.25,0,0,1.25,95.234375,17.25)"/>
<path style="fill-rule:nonzero;fill:rgb(100%,49.803922%,5.490196%);fill-opacity:1;stroke-width:1;stroke-linecap:butt;stroke-linejoin:round;stroke:rgb(100%,49.803922%,5.490196%);stroke-opacity:1;stroke-miterlimit:4;" d="M -0.001313 3.001509 C 0.795562 3.001509 1.558062 2.682759 2.120562 2.120259 C 2.683062 1.557759 2.998687 0.795259 2.998687 0.001509 C 2.998687 -0.795366 2.683062 -1.557866 2.120562 -2.120366 C 1.558062 -2.682866 0.795562 -2.998491 -0.001313 -2.998491 C -0.795063 -2.998491 -1.557563 -2.682866 -2.120063 -2.120366 C -2.682563 -1.557866 -3.001313 -0.795366 -3.001313 0.001509 C -3.001313 0.795259 -2.682563 1.557759 -2.120063 2.120259 C -1.557563 2.682759 -0.795063 3.001509 -0.001313 3.001509 Z M -0.001313 3.001509 " transform="matrix(1.25,0,0,1.25,126.818047,140.146551)"/>
<path style="fill-rule:nonzero;fill:rgb(100%,49.803922%,5.490196%);fill-opacity:1;stroke-width:1;stroke-linecap:butt;stroke-linejoin:round;stroke:rgb(100%,49.803922%,5.490196%);stroke-opacity:1;stroke-miterlimit:4;" d="M 0.000626 3.000711 C 0.794376 3.000711 1.560001 2.685086 2.122501 2.122586 C 2.685001 1.560086 3.000626 0.794461 3.000626 0.000711 C 3.000626 -0.796164 2.685001 -1.558664 2.122501 -2.121164 C 1.560001 -2.683664 0.794376 -2.999289 0.000626 -2.999289 C -0.796249 -2.999289 -1.558749 -2.683664 -2.121249 -2.121164 C -2.683749 -1.558664 -2.999374 -0.796164 -2.999374 0.000711 C -2.999374 0.794461 -2.683749 1.560086 -2.121249 2.122586 C -1.558749 2.685086 -0.796249 3.000711 0.000626 3.000711 Z M 0.000626 3.000711 " transform="matrix(1.25,0,0,1.25,158.960155,97.815517)"/>
<path style="fill-rule:nonzero;fill:rgb(100%,49.803922%,5.490196%);fill-opacity:1;stroke-width:1;stroke-linecap:butt;stroke-linejoin:round;stroke:rgb(100%,49.803922%,5.490196%);stroke-opacity:1;stroke-miterlimit:4;" d="M -0.000792 2.999737 C 0.796083 2.999737 1.558583 2.684112 2.121083 2.121612 C 2.683583 1.559112 2.999208 0.796612 2.999208 -0.000263 C 2.999208 -0.797138 2.683583 -1.559638 2.121083 -2.122138 C 1.558583 -2.684638 0.796083 -3.000263 -0.000792 -3.000263 C -0.794542 -3.000263 -1.560167 -2.684638 -2.122667 -2.122138 C -2.685167 -1.559638 -3.000792 -0.797138 -3.000792 -0.000263 C -3.000792 0.796612 -2.685167 1.559112 -2.122667 2.121612 C -1.560167 2.684112 -0.794542 2.999737 -0.000792 2.999737 Z M -0.000792 2.999737 " transform="matrix(1.25,0,0,1.25,187.524427,74.465173)"/>
<path style="fill-rule:nonzero;fill:rgb(100%,49.803922%,5.490196%);fill-opacity:1;stroke-width:1;stroke-linecap:butt;stroke-linejoin:round;stroke:rgb(100%,49.803922%,5.490196%);stroke-opacity:1;stroke-miterlimit:4;" d="M -0.000782 2.998825 C 0.796093 2.998825 1.558593 2.6832 2.121093 2.1207 C 2.683593 1.5582 2.999218 0.7957 2.999218 -0.001175 C 2.999218 -0.794925 2.683593 -1.557425 2.121093 -2.119925 C 1.558593 -2.682425 0.796093 -3.001175 -0.000782 -3.001175 C -0.794532 -3.001175 -1.560157 -2.682425 -2.122657 -2.119925 C -2.685157 -1.557425 -3.000782 -0.794925 -3.000782 -0.001175 C -3.000782 0.7957 -2.685157 1.5582 -2.122657 2.1207 C -1.560157 2.6832 -0.794532 2.998825 -0.000782 2.998825 Z M -0.000782 2.998825 " transform="matrix(1.25,0,0,1.25,210.872071,116.646)"/>
<path style="fill-rule:nonzero;fill:rgb(100%,49.803922%,5.490196%);fill-opacity:1;stroke-width:1;stroke-linecap:butt;stroke-linejoin:round;stroke:rgb(100%,49.803922%,5.490196%);stroke-opacity:1;stroke-miterlimit:4;" d="M -0.00087 3.000758 C 0.796005 3.000758 1.558505 2.685133 2.121005 2.122633 C 2.683505 1.560133 2.99913 0.794508 2.99913 0.000758 C 2.99913 -0.796117 2.683505 -1.558617 2.121005 -2.121117 C 1.558505 -2.683617 0.796005 -2.999242 -0.00087 -2.999242 C -0.79462 -2.999242 -1.560245 -2.683617 -2.122745 -2.121117 C -2.685245 -1.558617 -3.00087 -0.796117 -3.00087 0.000758 C -3.00087 0.794508 -2.685245 1.560133 -2.122745 2.122633 C -1.560245 2.685133 -0.79462 3.000758 -0.00087 3.000758 Z M -0.00087 3.000758 " transform="matrix(1.25,0,0,1.25,228.809681,90.358428)"/>
<path style="fill-rule:nonzero;fill:rgb(100%,49.803922%,5.490196%);fill-opacity:1;stroke-width:1;stroke-linecap:butt;stroke-linejoin:round;stroke:rgb(100%,49.803922%,5.490196%);stroke-opacity:1;stroke-miterlimit:4;" d="M 0.00069 2.999162 C 0.79444 2.999162 1.560065 2.683537 2.122565 2.121037 C 2.685065 1.558537 3.00069 0.796037 3.00069 -0.000838 C 3.00069 -0.794588 2.685065 -1.560213 2.122565 -2.122713 C 1.560065 -2.685213 0.79444 -3.000838 0.00069 -3.000838 C -0.796185 -3.000838 -1.558685 -2.685213 -2.121185 -2.122713 C -2.683685 -1.560213 -2.99931 -0.794588 -2.99931 -0.000838 C -2.99931 0.796037 -2.683685 1.558537 -2.121185 2.121037 C -1.558685 2.683537 -0.796185 2.999162 0.00069 2.999162 Z M 0.00069 2.999162 " transform="matrix(1.25,0,0,1.25,241.889762,92.926829)"/>
<path style="fill-rule:nonzero;fill:rgb(100%,49.803922%,5.490196%);fill-opacity:1;stroke-width:1;stroke-linecap:butt;stroke-linejoin:round;stroke:rgb(100%,49.803922%,5.490196%);stroke-opacity:1;stroke-miterlimit:4;" d="M 0.00095 2.999007 C 0.7947 2.999007 1.5572 2.683382 2.122825 2.120882 C 2.685325 1.558382 3.00095 0.795882 3.00095 -0.000993 C 3.00095 -0.794743 2.685325 -1.557243 2.122825 -2.122868 C 1.5572 -2.685368 0.7947 -3.000993 0.00095 -3.000993 C -0.795925 -3.000993 -1.558425 -2.685368 -2.120925 -2.122868 C -2.683425 -1.557243 -2.99905 -0.794743 -2.99905 -0.000993 C -2.99905 0.795882 -2.683425 1.558382 -2.120925 2.120882 C -1.558425 2.683382 -0.795925 2.999007 0.00095 2.999007 Z M 0.00095 2.999007 " transform="matrix(1.25,0,0,1.25,250.971469,103.759054)"/>
<path style="fill-rule:nonzero;fill:rgb(100%,49.803922%,5.490196%);fill-opacity:1;stroke-width:1;stroke-linecap:butt;stroke-linejoin:round;stroke:rgb(100%,49.803922%,5.490196%);stroke-opacity:1;stroke-miterlimit:4;" d="M 0.000528 3.000569 C 0.794278 3.000569 1.559903 2.684944 2.122403 2.122444 C 2.684903 1.559944 3.000528 0.794319 3.000528 0.000569 C 3.000528 -0.796306 2.684903 -1.558806 2.122403 -2.121306 C 1.559903 -2.683806 0.794278 -2.999431 0.000528 -2.999431 C -0.796347 -2.999431 -1.558847 -2.683806 -2.121347 -2.121306 C -2.683847 -1.558806 -2.999472 -0.796306 -2.999472 0.000569 C -2.999472 0.794319 -2.683847 1.559944 -2.121347 2.122444 C -1.558847 2.684944 -0.796347 3.000569 0.000528 3.000569 Z M 0.000528 3.000569 " transform="matrix(1.25,0,0,1.25,256.964184,92.725851)"/>
<path style="fill-rule:nonzero;fill:rgb(100%,49.803922%,5.490196%);fill-opacity:1;stroke-width:1;stroke-linecap:butt;stroke-linejoin:round;stroke:rgb(100%,49.803922%,5.490196%);stroke-opacity:1;stroke-miterlimit:4;" d="M -0.001496 2.998928 C 0.795379 2.998928 1.557879 2.683303 2.120379 2.120803 C 2.682879 1.558303 2.998504 0.795803 2.998504 -0.001072 C 2.998504 -0.794822 2.682879 -1.557322 2.120379 -2.119822 C 1.557879 -2.685447 0.795379 -3.001072 -0.001496 -3.001072 C -0.795246 -3.001072 -1.557746 -2.685447 -2.120246 -2.119822 C -2.682746 -1.557322 -3.001496 -0.794822 -3.001496 -0.001072 C -3.001496 0.795803 -2.682746 1.558303 -2.120246 2.120803 C -1.557746 2.683303 -0.795246 2.998928 -0.001496 2.998928 Z M -0.001496 2.998928 " transform="matrix(1.25,0,0,1.25,260.693276,97.239621)"/>
<path style="fill-rule:nonzero;fill:rgb(100%,49.803922%,5.490196%);fill-opacity:1;stroke-width:1;stroke-linecap:butt;stroke-linejoin:round;stroke:rgb(100%,49.803922%,5.490196%);stroke-opacity:1;stroke-miterlimit:4;" d="M 0.000546 3.001186 C 0.794296 3.001186 1.559921 2.682436 2.122421 2.119936 C 2.684921 1.557436 3.000546 0.794936 3.000546 0.001186 C 3.000546 -0.795689 2.684921 -1.558189 2.122421 -2.120689 C 1.559921 -2.683189 0.794296 -2.998814 0.000546 -2.998814 C -0.796329 -2.998814 -1.558829 -2.683189 -2.121329 -2.120689 C -2.683829 -1.558189 -2.999454 -0.795689 -2.999454 0.001186 C -2.999454 0.794936 -2.683829 1.557436 -2.121329 2.119936 C -1.558829 2.682436 -0.796329 3.001186 0.000546 3.001186 Z M 0.000546 3.001186 " transform="matrix(1.25,0,0,1.25,262.843067,98.69383)"/>
<path style="fill-rule:nonzero;fill:rgb(100%,49.803922%,5.490196%);fill-opacity:1;stroke-width:1;stroke-linecap:butt;stroke-linejoin:round;stroke:rgb(100%,49.803922%,5.490196%);stroke-opacity:1;stroke-miterlimit:4;" d="M 0.000064 3.0006 C 0.796939 3.0006 1.559439 2.684975 2.121939 2.122475 C 2.684439 1.559975 3.000064 0.79435 3.000064 0.0006 C 3.000064 -0.796275 2.684439 -1.558775 2.121939 -2.121275 C 1.559439 -2.683775 0.796939 -2.9994 0.000064 -2.9994 C -0.796811 -2.9994 -1.559311 -2.683775 -2.121811 -2.121275 C -2.684311 -1.558775 -2.999936 -0.796275 -2.999936 0.0006 C -2.999936 0.79435 -2.684311 1.559975 -2.121811 2.122475 C -1.559311 2.684975 -0.796811 3.0006 0.000064 3.0006 Z M 0.000064 3.0006 " transform="matrix(1.25,0,0,1.25,263.945232,95.128156)"/>
<path style="fill-rule:nonzero;fill:rgb(100%,49.803922%,5.490196%);fill-opacity:1;stroke-width:1;stroke-linecap:butt;stroke-linejoin:round;stroke:rgb(100%,49.803922%,5.490196%);stroke-opacity:1;stroke-miterlimit:4;" d="M -0.00056 2.999374 C 0.796315 2.999374 1.558815 2.683749 2.121315 2.121249 C 2.683815 1.558749 2.99944 0.796249 2.99944 -0.000626 C 2.99944 -0.794376 2.683815 -1.560001 2.121315 -2.122501 C 1.558815 -2.685001 0.796315 -3.000626 -0.00056 -3.000626 C -0.79431 -3.000626 -1.559935 -2.685001 -2.122435 -2.122501 C -2.684935 -1.560001 -3.00056 -0.794376 -3.00056 -0.000626 C -3.00056 0.796249 -2.684935 1.558749 -2.122435 2.121249 C -1.559935 2.683749 -0.79431 2.999374 -0.00056 2.999374 Z M -0.00056 2.999374 " transform="matrix(1.25,0,0,1.25,264.391325,97.610157)"/>
<path style="fill-rule:nonzero;fill:rgb(100%,49.803922%,5.490196%);fill-opacity:1;stroke-width:1;stroke-linecap:butt;stroke-linejoin:round;stroke:rgb(100%,49.803922%,5.490196%);stroke-opacity:1;stroke-miterlimit:4;" d="M 0.000946 3.00077 C 0.794696 3.00077 1.557196 2.685145 2.122821 2.122645 C 2.685321 1.560145 3.000946 0.79452 3.000946 0.00077 C 3.000946 -0.796105 2.685321 -1.558605 2.122821 -2.121105 C 1.557196 -2.683605 0.794696 -2.99923 0.000946 -2.99923 C -0.795929 -2.99923 -1.558429 -2.683605 -2.120929 -2.121105 C -2.683429 -1.558605 -2.999054 -0.796105 -2.999054 0.00077 C -2.999054 0.79452 -2.683429 1.560145 -2.120929 2.122645 C -1.558429 2.685145 -0.795929 3.00077 0.000946 3.00077 Z M 0.000946 3.00077 " transform="matrix(1.25,0,0,1.25,264.455849,97.159194)"/>
<path style="fill-rule:nonzero;fill:rgb(100%,49.803922%,5.490196%);fill-opacity:1;stroke-width:1;stroke-linecap:butt;stroke-linejoin:round;stroke:rgb(100%,49.803922%,5.490196%);stroke-opacity:1;stroke-miterlimit:4;" d="M -0.001228 3.000126 C 0.795647 3.000126 1.558147 2.684501 2.120647 2.122001 C 2.683147 1.559501 2.998772 0.797001 2.998772 0.000126 C 2.998772 -0.796749 2.683147 -1.559249 2.120647 -2.121749 C 1.558147 -2.684249 0.795647 -2.999874 -0.001228 -2.999874 C -0.794978 -2.999874 -1.557478 -2.684249 -2.119978 -2.121749 C -2.682478 -1.559249 -3.001228 -0.796749 -3.001228 0.000126 C -3.001228 0.797001 -2.682478 1.559501 -2.119978 2.122001 C -1.557478 2.684501 -0.794978 3.000126 -0.001228 3.000126 Z M -0.001228 3.000126 " transform="matrix(1.25,0,0,1.25,264.321847,96.324061)"/>
<path style="fill-rule:nonzero;fill:rgb(100%,49.803922%,5.490196%);fill-opacity:1;stroke-width:1;stroke-linecap:butt;stroke-linejoin:round;stroke:rgb(100%,49.803922%,5.490196%);stroke-opacity:1;stroke-miterlimit:4;" d="M 0.000645 2.999695 C 0.794395 2.999695 1.56002 2.68407 2.12252 2.12157 C 2.68502 1.55907 3.000645 0.79657 3.000645 -0.000305 C 3.000645 -0.794055 2.68502 -1.55968 2.12252 -2.12218 C 1.56002 -2.68468 0.794395 -3.000305 0.000645 -3.000305 C -0.79623 -3.000305 -1.55873 -2.68468 -2.12123 -2.12218 C -2.68373 -1.55968 -2.999355 -0.794055 -2.999355 -0.000305 C -2.999355 0.79657 -2.68373 1.55907 -2.12123 2.12157 C -1.55873 2.68407 -0.79623 2.999695 0.000645 2.999695 Z M 0.000645 2.999695 " transform="matrix(1.25,0,0,1.25,264.104662,97.301163)"/>
<path style="fill-rule:nonzero;fill:rgb(100%,49.803922%,5.490196%);fill-opacity:1;stroke-width:1;stroke-linecap:butt;stroke-linejoin:round;stroke:rgb(100%,49.803922%,5.490196%);stroke-opacity:1;stroke-miterlimit:4;" d="M -0.000683 3.000405 C 0.796192 3.000405 1.558692 2.68478 2.121192 2.12228 C 2.683692 1.55978 2.999317 0.794155 2.999317 0.000405 C 2.999317 -0.79647 2.683692 -1.55897 2.121192 -2.12147 C 1.558692 -2.68397 0.796192 -2.999595 -0.000683 -2.999595 C -0.794433 -2.999595 -1.560058 -2.68397 -2.122558 -2.12147 C -2.685058 -1.55897 -3.000683 -0.79647 -3.000683 0.000405 C -3.000683 0.794155 -2.685058 1.55978 -2.122558 2.12228 C -1.560058 2.68478 -0.794433 3.000405 -0.000683 3.000405 Z M -0.000683 3.000405 " transform="matrix(1.25,0,0,1.25,263.871947,96.839337)"/>
<path style="fill-rule:nonzero;fill:rgb(100%,49.803922%,5.490196%);fill-opacity:1;stroke-width:1;stroke-linecap:butt;stroke-linejoin:round;stroke:rgb(100%,49.803922%,5.490196%);stroke-opacity:1;stroke-miterlimit:4;" d="M 0.000609 2.999357 C 0.794359 2.999357 1.559984 2.683732 2.122484 2.121232 C 2.684984 1.558732 3.000609 0.796232 3.000609 -0.000643 C 3.000609 -0.794393 2.684984 -1.560018 2.122484 -2.122518 C 1.559984 -2.685018 0.794359 -3.000643 0.000609 -3.000643 C -0.796266 -3.000643 -1.558766 -2.685018 -2.121266 -2.122518 C -2.683766 -1.560018 -2.999391 -0.794393 -2.999391 -0.000643 C -2.999391 0.796232 -2.683766 1.558732 -2.121266 2.121232 C -1.558766 2.683732 -0.796266 2.999357 0.000609 2.999357 Z M 0.000609 2.999357 " transform="matrix(1.25,0,0,1.25,263.659395,96.766429)"/>
<path style="fill-rule:nonzero;fill:rgb(100%,49.803922%,5.490196%);fill-opacity:1;stroke-width:1;stroke-linecap:butt;stroke-linejoin:round;stroke:rgb(100%,49.803922%,5.490196%);stroke-opacity:1;stroke-miterlimit:4;" d="M 0.001558 2.999633 C 0.795308 2.999633 1.557808 2.684008 2.120308 2.121508 C 2.682808 1.559008 3.001558 0.796508 3.001558 -0.000367 C 3.001558 -0.794117 2.682808 -1.559742 2.120308 -2.122242 C 1.557808 -2.684742 0.795308 -3.000367 0.001558 -3.000367 C -0.795317 -3.000367 -1.557817 -2.684742 -2.120317 -2.122242 C -2.682817 -1.559742 -2.998442 -0.794117 -2.998442 -0.000367 C -2.998442 0.796508 -2.682817 1.559008 -2.120317 2.121508 C -1.557817 2.684008 -0.795317 2.999633 0.001558 2.999633 Z M 0.001558 2.999633 " transform="matrix(1.25,0,0,1.25,263.482427,97.062959)"/>
<path style="fill-rule:nonzero;fill:rgb(100%,49.803922%,5.490196%);fill-opacity:1;stroke-width:1;stroke-linecap:butt;stroke-linejoin:round;stroke:rgb(100%,49.803922%,5.490196%);stroke-opacity:1;stroke-miterlimit:4;" d="M -0.000593 2.999596 C 0.796282 2.999596 1.558782 2.683971 2.121282 2.121471 C 2.683782 1.558971 2.999407 0.796471 2.999407 -0.000404 C 2.999407 -0.794154 2.683782 -1.559779 2.121282 -2.122279 C 1.558782 -2.684779 0.796282 -3.000404 -0.000593 -3.000404 C -0.794343 -3.000404 -1.559968 -2.684779 -2.122468 -2.122279 C -2.684968 -1.559779 -3.000593 -0.794154 -3.000593 -0.000404 C -3.000593 0.796471 -2.684968 1.558971 -2.122468 2.121471 C -1.559968 2.683971 -0.794343 2.999596 -0.000593 2.999596 Z M -0.000593 2.999596 " transform="matrix(1.25,0,0,1.25,263.344491,96.832536)"/>
<g clip-path="url(#clip1)" clip-rule="nonzero">
<path style="fill:none;stroke-width:1.5;stroke-linecap:butt;stroke-linejoin:round;stroke:rgb(12.156863%,46.666667%,70.588235%);stroke-opacity:1;stroke-miterlimit:4;" d="M 97.1 57.040625 L 94.496875 57.46875 L 91.44375 57.984375 L 88.39375 58.5125 L 85.34375 59.05625 L 83.909375 59.31875 L 82.290625 59.65 L 79.240625 60.296875 L 76.1875 60.95625 L 73.30625 61.59375 L 73.1375 61.6375 L 70.084375 62.434375 L 67.034375 63.246875 L 64.753125 63.86875 L 63.98125 64.11875 L 60.928125 65.121875 L 57.878125 66.14375 L 54.828125 67.421875 L 52.4875 68.421875 L 51.775 68.809375 L 48.721875 70.51875 L 48.409375 70.696875 L 45.671875 72.88125 L 45.559375 72.971875 L 43.88125 75.246875 L 43.31875 77.525 L 43.88125 79.8 L 45.559375 82.075 L 45.671875 82.165625 L 48.409375 84.353125 L 48.721875 84.53125 L 51.775 86.2375 L 52.4875 86.628125 L 54.828125 87.625 L 57.878125 88.903125 L 60.928125 89.928125 L 63.98125 90.93125 L 64.753125 91.178125 L 67.034375 91.8 L 70.084375 92.615625 L 73.1375 93.4125 L 73.30625 93.45625 L 76.1875 94.09375 L 79.240625 94.753125 L 82.290625 95.396875 L 83.909375 95.73125 L 85.34375 95.990625 L 88.39375 96.534375 L 91.44375 97.0625 L 94.496875 97.578125 L 97.1 98.00625 L 97.546875 98.071875 L 100.6 98.509375 L 103.653125 98.934375 L 106.703125 99.35 L 109.753125 99.75 L 112.80625 100.1375 L 113.96875 100.28125 L 115.859375 100.49375 L 118.909375 100.825 L 121.9625 101.14375 L 125.0125 101.453125 L 128.065625 101.75 L 131.115625 102.0375 L 134.16875 102.315625 L 136.96875 102.559375 L 137.21875 102.578125 L 140.271875 102.8125 L 143.321875 103.034375 L 146.375 103.246875 L 149.425 103.45 L 152.478125 103.640625 L 155.528125 103.825 L 158.58125 103.996875 L 161.63125 104.1625 L 164.684375 104.315625 L 167.734375 104.459375 L 170.7875 104.590625 L 173.8375 104.715625 L 176.8875 104.828125 L 177.034375 104.834375 L 179.940625 104.925 L 182.99375 105.0125 L 186.04375 105.090625 L 189.096875 105.15625 L 192.146875 105.215625 L 195.2 105.265625 L 198.25 105.309375 L 201.303125 105.340625 L 204.353125 105.3625 L 207.40625 105.375 L 210.45625 105.38125 L 213.509375 105.375 L 216.559375 105.3625 L 219.6125 105.340625 L 222.6625 105.309375 L 225.715625 105.265625 L 228.765625 105.215625 L 231.81875 105.15625 L 234.86875 105.090625 L 237.921875 105.0125 " transform="matrix(1.25,0,0,1.25,0,0.000000000000014211)"/>
</g>
<g clip-path="url(#clip2)" clip-rule="nonzero">
<path style="fill:none;stroke-width:1.5;stroke-linecap:butt;stroke-linejoin:round;stroke:rgb(12.156863%,46.666667%,70.588235%);stroke-opacity:1;stroke-miterlimit:4;" d="M 42.61875 105.265625 L 45.671875 105.7625 L 48.721875 106.25 L 51.775 106.728125 L 54.2625 107.109375 L 54.828125 107.190625 L 57.878125 107.615625 L 60.928125 108.034375 L 63.98125 108.440625 L 67.034375 108.84375 L 70.084375 109.234375 L 71.290625 109.3875 L 73.1375 109.603125 L 76.1875 109.95 L 79.240625 110.29375 L 82.290625 110.625 L 85.34375 110.953125 L 88.39375 111.26875 L 91.44375 111.578125 L 92.278125 111.6625 L 94.496875 111.86875 L 97.546875 112.14375 L 100.6 112.409375 L 103.653125 112.671875 L 106.703125 112.925 L 109.753125 113.171875 L 112.80625 113.409375 L 115.859375 113.640625 L 118.909375 113.865625 L 119.94375 113.9375 L 121.9625 114.071875 L 125.0125 114.26875 L 128.065625 114.459375 L 131.115625 114.640625 L 134.16875 114.81875 L 137.21875 114.9875 L 140.271875 115.146875 L 143.321875 115.303125 L 146.375 115.453125 L 149.425 115.59375 L 152.478125 115.728125 L 155.528125 115.85625 L 158.58125 115.975 L 161.63125 116.090625 L 164.684375 116.196875 L 165.209375 116.2125 L 167.734375 116.290625 L 170.7875 116.378125 L 173.8375 116.459375 L 176.8875 116.534375 L 179.940625 116.603125 L 182.99375 116.665625 L 186.04375 116.721875 L 189.096875 116.76875 L 192.146875 116.8125 L 195.2 116.846875 L 198.25 116.878125 L 201.303125 116.9 L 204.353125 116.915625 L 207.40625 116.925 L 210.45625 116.928125 L 213.509375 116.925 L 216.559375 116.915625 L 219.6125 116.9 L 222.6625 116.878125 L 225.715625 116.846875 L 228.765625 116.8125 L 231.81875 116.76875 L 234.86875 116.721875 L 237.921875 116.665625 " transform="matrix(1.25,0,0,1.25,0,0.000000000000014211)"/>
</g>
<g clip-path="url(#clip3)" clip-rule="nonzero">
<path style="fill:none;stroke-width:1.5;stroke-linecap:butt;stroke-linejoin:round;stroke:rgb(12.156863%,46.666667%,70.588235%);stroke-opacity:1;stroke-miterlimit:4;" d="M 42.61875 116.846875 L 45.671875 117.203125 L 48.721875 117.55 L 51.775 117.890625 L 54.828125 118.225 L 57.275 118.490625 L 57.878125 118.55 L 60.928125 118.85625 L 63.98125 119.153125 L 67.034375 119.446875 L 70.084375 119.73125 L 73.1375 120.0125 L 76.1875 120.284375 L 79.240625 120.553125 L 81.715625 120.765625 L 82.290625 120.8125 L 85.34375 121.053125 L 88.39375 121.290625 L 91.44375 121.521875 L 94.496875 121.746875 L 97.546875 121.965625 L 100.6 122.178125 L 103.653125 122.384375 L 106.703125 122.5875 L 109.753125 122.78125 L 112.80625 122.971875 L 113.96875 123.040625 L 115.859375 123.15 L 118.909375 123.31875 L 121.9625 123.48125 L 125.0125 123.640625 L 128.065625 123.79375 L 131.115625 123.940625 L 134.16875 124.08125 L 137.21875 124.21875 L 140.271875 124.35 L 143.321875 124.475 L 146.375 124.59375 L 149.425 124.70625 L 152.478125 124.815625 L 155.528125 124.91875 L 158.58125 125.015625 L 161.63125 125.10625 L 164.684375 125.19375 L 167.734375 125.271875 L 169.54375 125.31875 L 170.7875 125.346875 L 173.8375 125.4125 L 176.8875 125.471875 L 179.940625 125.528125 L 182.99375 125.578125 L 186.04375 125.625 L 189.096875 125.6625 L 192.146875 125.696875 L 195.2 125.728125 L 198.25 125.75 L 201.303125 125.76875 L 204.353125 125.784375 L 207.40625 125.790625 L 210.45625 125.79375 L 213.509375 125.790625 L 216.559375 125.784375 L 219.6125 125.76875 L 222.6625 125.75 L 225.715625 125.728125 L 228.765625 125.696875 L 231.81875 125.6625 L 234.86875 125.625 L 237.921875 125.578125 " transform="matrix(1.25,0,0,1.25,0,0.000000000000014211)"/>
</g>
<g clip-path="url(#clip4)" clip-rule="nonzero">
<path style="fill:none;stroke-width:1.5;stroke-linecap:butt;stroke-linejoin:round;stroke:rgb(12.156863%,46.666667%,70.588235%);stroke-opacity:1;stroke-miterlimit:4;" d="M 42.61875 125.728125 L 45.671875 126.015625 L 48.721875 126.3 L 51.775 126.578125 L 54.828125 126.85 L 57.878125 127.115625 L 60.928125 127.378125 L 63.478125 127.59375 L 63.98125 127.634375 L 67.034375 127.875 L 70.084375 128.109375 L 73.1375 128.340625 L 76.1875 128.565625 L 79.240625 128.784375 L 82.290625 129 L 85.34375 129.209375 L 88.39375 129.4125 L 91.44375 129.6125 L 94.496875 129.809375 L 95.471875 129.86875 L 97.546875 129.99375 L 100.6 130.16875 L 103.653125 130.340625 L 106.703125 130.509375 L 109.753125 130.671875 L 112.80625 130.828125 L 115.859375 130.98125 L 118.909375 131.128125 L 121.9625 131.271875 L 125.0125 131.409375 L 128.065625 131.540625 L 131.115625 131.66875 L 134.16875 131.79375 L 137.21875 131.9125 L 140.271875 132.025 L 143.321875 132.134375 L 143.60625 132.14375 L 146.375 132.234375 L 149.425 132.33125 L 152.478125 132.421875 L 155.528125 132.50625 L 158.58125 132.5875 L 161.63125 132.665625 L 164.684375 132.7375 L 167.734375 132.803125 L 170.7875 132.865625 L 173.8375 132.925 L 176.8875 132.978125 L 179.940625 133.028125 L 182.99375 133.071875 L 186.04375 133.109375 L 189.096875 133.146875 L 192.146875 133.175 L 195.2 133.2 L 198.25 133.221875 L 201.303125 133.2375 L 204.353125 133.25 L 207.40625 133.25625 L 210.45625 133.259375 L 213.509375 133.25625 L 216.559375 133.25 L 219.6125 133.2375 L 222.6625 133.221875 L 225.715625 133.2 L 228.765625 133.175 L 231.81875 133.146875 L 234.86875 133.109375 L 237.921875 133.071875 " transform="matrix(1.25,0,0,1.25,0,0.000000000000014211)"/>
</g>
<g clip-path="url(#clip5)" clip-rule="nonzero">
<path style="fill:none;stroke-width:1.5;stroke-linecap:butt;stroke-linejoin:round;stroke:rgb(12.156863%,46.666667%,70.588235%);stroke-opacity:1;stroke-miterlimit:4;" d="M 42.61875 133.2 L 45.671875 133.453125 L 48.721875 133.703125 L 51.775 133.946875 L 54.828125 134.1875 L 57.878125 134.421875 L 60.928125 134.640625 L 63.98125 134.859375 L 67.034375 135.06875 L 70.084375 135.278125 L 73.1375 135.48125 L 76.1875 135.678125 L 79.240625 135.871875 L 82.290625 136.0625 L 85.34375 136.246875 L 88.39375 136.428125 L 91.44375 136.60625 L 93.06875 136.696875 L 94.496875 136.775 L 97.546875 136.934375 L 100.6 137.090625 L 103.653125 137.24375 L 106.703125 137.39375 L 109.753125 137.5375 L 112.80625 137.675 L 115.859375 137.809375 L 118.909375 137.940625 L 121.9625 138.06875 L 125.0125 138.190625 L 128.065625 138.309375 L 131.115625 138.421875 L 134.16875 138.53125 L 137.21875 138.6375 L 140.271875 138.7375 L 143.321875 138.834375 L 146.375 138.928125 L 147.9375 138.971875 L 149.425 139.0125 L 152.478125 139.09375 L 155.528125 139.171875 L 158.58125 139.24375 L 161.63125 139.3125 L 164.684375 139.375 L 167.734375 139.434375 L 170.7875 139.490625 L 173.8375 139.54375 L 176.8875 139.590625 L 179.940625 139.634375 L 182.99375 139.675 L 186.04375 139.709375 L 189.096875 139.740625 L 192.146875 139.765625 L 195.2 139.790625 L 198.25 139.809375 L 201.303125 139.821875 L 204.353125 139.834375 L 207.40625 139.840625 L 213.509375 139.840625 L 216.559375 139.834375 L 219.6125 139.821875 L 222.6625 139.809375 L 225.715625 139.790625 L 228.765625 139.765625 L 231.81875 139.740625 L 234.86875 139.709375 L 237.921875 139.675 " transform="matrix(1.25,0,0,1.25,0,0.000000000000014211)"/>
</g>
<g clip-path="url(#clip6)" clip-rule="nonzero">
<path style="fill:none;stroke-width:1.5;stroke-linecap:butt;stroke-linejoin:round;stroke:rgb(12.156863%,46.666667%,70.588235%);stroke-opacity:1;stroke-miterlimit:4;" d="M 42.61875 139.790625 L 45.671875 140.015625 L 48.721875 140.2375 L 51.775 140.453125 L 54.828125 140.665625 L 57.878125 140.875 L 60.928125 141.08125 L 63.478125 141.246875 L 63.98125 141.28125 L 67.034375 141.46875 L 70.084375 141.65625 L 73.1375 141.8375 L 76.1875 142.015625 L 79.240625 142.1875 L 82.290625 142.359375 L 85.34375 142.525 L 91.44375 142.84375 L 94.496875 142.996875 L 97.546875 143.146875 L 100.6 143.29375 L 103.653125 143.434375 L 105.640625 143.525 L 106.703125 143.571875 L 109.753125 143.7 L 112.80625 143.825 L 115.859375 143.946875 L 118.909375 144.065625 L 121.9625 144.178125 L 125.0125 144.2875 L 128.065625 144.39375 L 131.115625 144.496875 L 134.16875 144.59375 L 137.21875 144.690625 L 140.271875 144.78125 L 143.321875 144.865625 L 146.375 144.95 L 149.425 145.028125 L 152.478125 145.103125 L 155.528125 145.175 L 158.58125 145.24375 L 161.63125 145.30625 L 164.684375 145.365625 L 167.734375 145.421875 L 170.7875 145.475 L 173.8375 145.521875 L 176.8875 145.565625 L 179.940625 145.60625 L 182.99375 145.64375 L 186.04375 145.678125 L 189.096875 145.70625 L 192.146875 145.73125 L 195.2 145.753125 L 198.25 145.76875 L 201.303125 145.78125 L 204.353125 145.79375 L 207.40625 145.796875 L 210.45625 145.8 " transform="matrix(1.25,0,0,1.25,0,0.000000000000014211)"/>
</g>
<g clip-path="url(#clip7)" clip-rule="nonzero">
<path style="fill:none;stroke-width:1.5;stroke-linecap:butt;stroke-linejoin:round;stroke:rgb(12.156863%,46.666667%,70.588235%);stroke-opacity:1;stroke-miterlimit:4;" d="M 210.45625 145.8 L 213.509375 145.796875 L 216.559375 145.79375 L 219.6125 145.78125 L 222.6625 145.76875 L 225.715625 145.753125 L 228.765625 145.73125 L 231.81875 145.70625 L 234.86875 145.678125 L 237.921875 145.64375 " transform="matrix(1.25,0,0,1.25,0,0.000000000000014211)"/>
</g>
<g clip-path="url(#clip8)" clip-rule="nonzero">
<path style="fill:none;stroke-width:1.5;stroke-linecap:butt;stroke-linejoin:round;stroke:rgb(12.156863%,46.666667%,70.588235%);stroke-opacity:1;stroke-miterlimit:4;" d="M 42.61875 145.753125 L 43.31875 145.8 " transform="matrix(1.25,0,0,1.25,0,0.000000000000014211)"/>
</g>
<path style="fill:none;stroke-width:0.8;stroke-linecap:square;stroke-linejoin:miter;stroke:rgb(0%,0%,0%);stroke-opacity:1;stroke-miterlimit:4;" d="M 42.61875 145.8 L 42.61875 7.2 " transform="matrix(1.25,0,0,1.25,0,0.000000000000014211)"/>
<path style="fill:none;stroke-width:0.8;stroke-linecap:square;stroke-linejoin:miter;stroke:rgb(0%,0%,0%);stroke-opacity:1;stroke-miterlimit:4;" d="M 237.921875 145.8 L 237.921875 7.2 " transform="matrix(1.25,0,0,1.25,0,0.000000000000014211)"/>
<path style="fill:none;stroke-width:0.8;stroke-linecap:square;stroke-linejoin:miter;stroke:rgb(0%,0%,0%);stroke-opacity:1;stroke-miterlimit:4;" d="M 42.61875 145.8 L 237.921875 145.8 " transform="matrix(1.25,0,0,1.25,0,0.000000000000014211)"/>
<path style="fill:none;stroke-width:0.8;stroke-linecap:square;stroke-linejoin:miter;stroke:rgb(0%,0%,0%);stroke-opacity:1;stroke-miterlimit:4;" d="M 42.61875 7.2 L 237.921875 7.2 " transform="matrix(1.25,0,0,1.25,0,0.000000000000014211)"/>
</g>
</svg>
