<?xml version="1.0" encoding="UTF-8"?>
<svg xmlns="http://www.w3.org/2000/svg" xmlns:xlink="http://www.w3.org/1999/xlink" width="306pt" height="229pt" viewBox="0 0 306 229" version="1.1">
<defs>
<clipPath id="clip1">
  <path d="M 53.273438 28 L 297.398438 28 L 297.398438 114 L 53.273438 114 Z M 53.273438 28 "/>
</clipPath>
<clipPath id="clip2">
  <path d="M 53.273438 111 L 297.398438 111 L 297.398438 134 L 53.273438 134 Z M 53.273438 111 "/>
</clipPath>
<clipPath id="clip3">
  <path d="M 53.273438 131 L 297.398438 131 L 297.398438 149 L 53.273438 149 Z M 53.273438 131 "/>
</clipPath>
<clipPath id="clip4">
  <path d="M 53.273438 146 L 297.398438 146 L 297.398438 162 L 53.273438 162 Z M 53.273438 146 "/>
</clipPath>
<clipPath id="clip5">
  <path d="M 53.273438 159 L 297.398438 159 L 297.398438 173 L 53.273438 173 Z M 53.273438 159 "/>
</clipPath>
<clipPath id="clip6">
  <path d="M 53.273438 170 L 265 170 L 265 182.25 L 53.273438 182.25 Z M 53.273438 170 "/>
</clipPath>
<clipPath id="clip7">
  <path d="M 262 181 L 297.398438 181 L 297.398438 182.25 L 262 182.25 Z M 262 181 "/>
</clipPath>
<clipPath id="clip8">
  <path d="M 53.273438 181 L 56 181 L 56 182.25 L 53.273438 182.25 Z M 53.273438 181 "/>
</clipPath>
</defs>
<g id="surface1">
<rect x="0" y="0" width="306" height="229" style="fill:rgb(100%,100%,100%);fill-opacity:1;stroke:none;"/>
<path style=" stroke:none;fill-rule:nonzero;fill:rgb(100%,100%,100%);fill-opacity:1;" d="M 53.273438 182.25 L 297.402344 182.25 L 297.402344 9 L 53.273438 9 Z M 53.273438 182.25 "/>
<path style="fill:none;stroke-width:0.8;stroke-linecap:butt;stroke-linejoin:round;stroke:rgb(0%,0%,0%);stroke-opacity:1;stroke-miterlimit:4;" d="M 0.000000000000014211 0 L 0.000000000000014211 3.5 " transform="matrix(1.25,0,0,1.25,110.492187,182.25)"/>
<path style=" stroke:none;fill-rule:nonzero;fill:rgb(0%,0%,0%);fill-opacity:1;" d="M 102.601562 196.0625 L 110.425781 196.0625 L 110.425781 197.097656 L 102.601562 197.097656 Z M 102.601562 196.0625 "/>
<path style=" stroke:none;fill-rule:nonzero;fill:rgb(0%,0%,0%);fill-opacity:1;" d="M 116.476562 192.460938 L 113.363281 197.324219 L 116.476562 197.324219 Z M 116.152344 191.386719 L 117.703125 191.386719 L 117.703125 197.324219 L 119.003906 197.324219 L 119.003906 198.351562 L 117.703125 198.351562 L 117.703125 200.5 L 116.476562 200.5 L 116.476562 198.351562 L 112.363281 198.351562 L 112.363281 197.160156 Z M 116.152344 191.386719 "/>
<path style="fill:none;stroke-width:0.8;stroke-linecap:butt;stroke-linejoin:round;stroke:rgb(0%,0%,0%);stroke-opacity:1;stroke-miterlimit:4;" d="M 0.000000000000028422 0 L 0.000000000000028422 3.5 " transform="matrix(1.25,0,0,1.25,186.78125,182.25)"/>
<path style=" stroke:none;fill-rule:nonzero;fill:rgb(0%,0%,0%);fill-opacity:1;" d="M 178.890625 196.0625 L 186.714844 196.0625 L 186.714844 197.097656 L 178.890625 197.097656 Z M 178.890625 196.0625 "/>
<path style=" stroke:none;fill-rule:nonzero;fill:rgb(0%,0%,0%);fill-opacity:1;" d="M 190.441406 199.460938 L 194.742188 199.460938 L 194.742188 200.5 L 188.957031 200.5 L 188.957031 199.460938 C 189.425781 198.976562 190.0625 198.328125 190.871094 197.511719 C 191.679688 196.695312 192.1875 196.167969 192.394531 195.933594 C 192.789062 195.488281 193.0625 195.113281 193.21875 194.808594 C 193.375 194.5 193.457031 194.199219 193.457031 193.902344 C 193.457031 193.417969 193.285156 193.023438 192.945312 192.71875 C 192.605469 192.410156 192.164062 192.257812 191.617188 192.257812 C 191.230469 192.257812 190.824219 192.324219 190.394531 192.460938 C 189.964844 192.59375 189.507812 192.796875 189.019531 193.070312 L 189.019531 191.824219 C 189.515625 191.625 189.976562 191.476562 190.410156 191.375 C 190.839844 191.273438 191.234375 191.222656 191.59375 191.222656 C 192.539062 191.222656 193.289062 191.457031 193.851562 191.929688 C 194.414062 192.402344 194.695312 193.03125 194.695312 193.820312 C 194.695312 194.195312 194.625 194.550781 194.484375 194.886719 C 194.34375 195.222656 194.089844 195.617188 193.71875 196.074219 C 193.617188 196.191406 193.292969 196.53125 192.746094 197.097656 C 192.203125 197.660156 191.433594 198.449219 190.441406 199.460938 Z M 190.441406 199.460938 "/>
<path style="fill:none;stroke-width:0.8;stroke-linecap:butt;stroke-linejoin:round;stroke:rgb(0%,0%,0%);stroke-opacity:1;stroke-miterlimit:4;" d="M -0.000001 0 L -0.000001 3.5 " transform="matrix(1.25,0,0,1.25,263.070314,182.25)"/>
<path style=" stroke:none;fill-rule:nonzero;fill:rgb(0%,0%,0%);fill-opacity:1;" d="M 263.066406 192.199219 C 262.433594 192.199219 261.957031 192.511719 261.636719 193.136719 C 261.316406 193.757812 261.15625 194.699219 261.15625 195.953125 C 261.15625 197.199219 261.316406 198.136719 261.636719 198.761719 C 261.957031 199.386719 262.433594 199.699219 263.066406 199.699219 C 263.707031 199.699219 264.183594 199.386719 264.503906 198.761719 C 264.824219 198.136719 264.984375 197.199219 264.984375 195.953125 C 264.984375 194.699219 264.824219 193.757812 264.503906 193.136719 C 264.183594 192.511719 263.707031 192.199219 263.066406 192.199219 Z M 263.066406 191.222656 C 264.089844 191.222656 264.871094 191.625 265.410156 192.433594 C 265.949219 193.242188 266.21875 194.414062 266.21875 195.953125 C 266.21875 197.484375 265.949219 198.65625 265.410156 199.464844 C 264.871094 200.273438 264.089844 200.675781 263.066406 200.675781 C 262.046875 200.675781 261.265625 200.273438 260.726562 199.464844 C 260.1875 198.65625 259.917969 197.484375 259.917969 195.953125 C 259.917969 194.414062 260.1875 193.242188 260.726562 192.433594 C 261.265625 191.625 262.046875 191.222656 263.066406 191.222656 Z M 263.066406 191.222656 "/>
<path style=" stroke:none;fill-rule:nonzero;fill:rgb(0%,0%,0%);fill-opacity:1;" d="M 174.523438 210.761719 L 172.050781 214.085938 L 174.648438 217.597656 L 173.324219 217.597656 L 171.335938 214.910156 L 169.347656 217.597656 L 168.019531 217.597656 L 170.675781 214.019531 L 168.246094 210.761719 L 169.570312 210.761719 L 171.382812 213.195312 L 173.195312 210.761719 Z M 174.523438 210.761719 "/>
<path style=" stroke:none;fill-rule:nonzero;fill:rgb(0%,0%,0%);fill-opacity:1;" d="M 176.609375 216.558594 L 178.625 216.558594 L 178.625 209.605469 L 176.433594 210.046875 L 176.433594 208.921875 L 178.613281 208.484375 L 179.84375 208.484375 L 179.84375 216.558594 L 181.859375 216.558594 L 181.859375 217.597656 L 176.609375 217.597656 Z M 176.609375 216.558594 "/>
<path style="fill:none;stroke-width:0.8;stroke-linecap:butt;stroke-linejoin:round;stroke:rgb(0%,0%,0%);stroke-opacity:1;stroke-miterlimit:4;" d="M -0.001562 0 L -3.501562 0 " transform="matrix(1.25,0,0,1.25,53.27539,182.25)"/>
<path style=" stroke:none;fill-rule:nonzero;fill:rgb(0%,0%,0%);fill-opacity:1;" d="M 27.421875 182.5625 L 35.246094 182.5625 L 35.246094 183.597656 L 27.421875 183.597656 Z M 27.421875 182.5625 "/>
<path style=" stroke:none;fill-rule:nonzero;fill:rgb(0%,0%,0%);fill-opacity:1;" d="M 41.644531 182.085938 C 42.234375 182.210938 42.695312 182.472656 43.023438 182.875 C 43.355469 183.273438 43.523438 183.765625 43.523438 184.351562 C 43.523438 185.25 43.214844 185.945312 42.59375 186.4375 C 41.976562 186.929688 41.097656 187.175781 39.957031 187.175781 C 39.578125 187.175781 39.183594 187.140625 38.777344 187.0625 C 38.375 186.988281 37.957031 186.875 37.523438 186.722656 L 37.523438 185.535156 C 37.867188 185.734375 38.238281 185.882812 38.644531 185.984375 C 39.054688 186.085938 39.480469 186.136719 39.921875 186.136719 C 40.695312 186.136719 41.285156 185.984375 41.6875 185.679688 C 42.09375 185.375 42.296875 184.933594 42.296875 184.351562 C 42.296875 183.8125 42.109375 183.394531 41.730469 183.089844 C 41.355469 182.789062 40.832031 182.636719 40.160156 182.636719 L 39.097656 182.636719 L 39.097656 181.621094 L 40.210938 181.621094 C 40.816406 181.621094 41.277344 181.5 41.601562 181.257812 C 41.921875 181.015625 42.082031 180.667969 42.082031 180.210938 C 42.082031 179.746094 41.917969 179.386719 41.585938 179.136719 C 41.253906 178.882812 40.78125 178.757812 40.160156 178.757812 C 39.824219 178.757812 39.460938 178.796875 39.074219 178.871094 C 38.6875 178.941406 38.261719 179.054688 37.796875 179.210938 L 37.796875 178.113281 C 38.265625 177.980469 38.707031 177.882812 39.113281 177.820312 C 39.523438 177.753906 39.910156 177.722656 40.269531 177.722656 C 41.207031 177.722656 41.945312 177.933594 42.492188 178.359375 C 43.035156 178.785156 43.308594 179.359375 43.308594 180.082031 C 43.308594 180.589844 43.164062 181.015625 42.875 181.363281 C 42.585938 181.710938 42.175781 181.949219 41.644531 182.085938 Z M 41.644531 182.085938 "/>
<path style="fill:none;stroke-width:0.8;stroke-linecap:butt;stroke-linejoin:round;stroke:rgb(0%,0%,0%);stroke-opacity:1;stroke-miterlimit:4;" d="M -0.001562 0.000446 L -3.501562 0.000446 " transform="matrix(1.25,0,0,1.25,53.27539,142.964286)"/>
<path style=" stroke:none;fill-rule:nonzero;fill:rgb(0%,0%,0%);fill-opacity:1;" d="M 27.421875 143.277344 L 35.246094 143.277344 L 35.246094 144.3125 L 27.421875 144.3125 Z M 27.421875 143.277344 "/>
<path style=" stroke:none;fill-rule:nonzero;fill:rgb(0%,0%,0%);fill-opacity:1;" d="M 38.96875 146.675781 L 43.273438 146.675781 L 43.273438 147.714844 L 37.488281 147.714844 L 37.488281 146.675781 C 37.953125 146.191406 38.59375 145.542969 39.398438 144.726562 C 40.207031 143.910156 40.714844 143.382812 40.921875 143.148438 C 41.316406 142.703125 41.59375 142.328125 41.75 142.023438 C 41.90625 141.714844 41.984375 141.414062 41.984375 141.117188 C 41.984375 140.632812 41.816406 140.238281 41.476562 139.933594 C 41.136719 139.625 40.691406 139.472656 40.148438 139.472656 C 39.761719 139.472656 39.351562 139.539062 38.921875 139.675781 C 38.496094 139.808594 38.035156 140.011719 37.546875 140.285156 L 37.546875 139.039062 C 38.042969 138.839844 38.507812 138.691406 38.9375 138.589844 C 39.371094 138.488281 39.765625 138.4375 40.125 138.4375 C 41.066406 138.4375 41.820312 138.671875 42.382812 139.144531 C 42.941406 139.617188 43.222656 140.246094 43.222656 141.035156 C 43.222656 141.410156 43.152344 141.765625 43.011719 142.101562 C 42.875 142.4375 42.617188 142.832031 42.246094 143.289062 C 42.144531 143.40625 41.820312 143.746094 41.277344 144.3125 C 40.730469 144.875 39.964844 145.664062 38.96875 146.675781 Z M 38.96875 146.675781 "/>
<path style="fill:none;stroke-width:0.8;stroke-linecap:butt;stroke-linejoin:round;stroke:rgb(0%,0%,0%);stroke-opacity:1;stroke-miterlimit:4;" d="M -0.001562 0.000893 L -3.501562 0.000893 " transform="matrix(1.25,0,0,1.25,53.27539,103.678571)"/>
<path style=" stroke:none;fill-rule:nonzero;fill:rgb(0%,0%,0%);fill-opacity:1;" d="M 27.421875 103.988281 L 35.246094 103.988281 L 35.246094 105.027344 L 27.421875 105.027344 Z M 27.421875 103.988281 "/>
<path style=" stroke:none;fill-rule:nonzero;fill:rgb(0%,0%,0%);fill-opacity:1;" d="M 38.121094 107.390625 L 40.136719 107.390625 L 40.136719 100.4375 L 37.945312 100.875 L 37.945312 99.753906 L 40.125 99.3125 L 41.355469 99.3125 L 41.355469 107.390625 L 43.371094 107.390625 L 43.371094 108.425781 L 38.121094 108.425781 Z M 38.121094 107.390625 "/>
<path style="fill:none;stroke-width:0.8;stroke-linecap:butt;stroke-linejoin:round;stroke:rgb(0%,0%,0%);stroke-opacity:1;stroke-miterlimit:4;" d="M -0.001562 0.001339 L -3.501562 0.001339 " transform="matrix(1.25,0,0,1.25,53.27539,64.392858)"/>
<path style=" stroke:none;fill-rule:nonzero;fill:rgb(0%,0%,0%);fill-opacity:1;" d="M 40.542969 60.839844 C 39.910156 60.839844 39.433594 61.152344 39.113281 61.777344 C 38.792969 62.402344 38.632812 63.339844 38.632812 64.59375 C 38.632812 65.84375 38.792969 66.78125 39.113281 67.40625 C 39.433594 68.03125 39.910156 68.34375 40.542969 68.34375 C 41.183594 68.34375 41.664062 68.03125 41.980469 67.40625 C 42.300781 66.78125 42.460938 65.84375 42.460938 64.59375 C 42.460938 63.339844 42.300781 62.402344 41.980469 61.777344 C 41.664062 61.152344 41.183594 60.839844 40.542969 60.839844 Z M 40.542969 59.863281 C 41.566406 59.863281 42.347656 60.269531 42.886719 61.078125 C 43.425781 61.882812 43.695312 63.058594 43.695312 64.59375 C 43.695312 66.128906 43.425781 67.300781 42.886719 68.109375 C 42.347656 68.914062 41.566406 69.320312 40.542969 69.320312 C 39.523438 69.320312 38.742188 68.914062 38.203125 68.109375 C 37.664062 67.300781 37.394531 66.128906 37.394531 64.59375 C 37.394531 63.058594 37.664062 61.882812 38.203125 61.078125 C 38.742188 60.269531 39.523438 59.863281 40.542969 59.863281 Z M 40.542969 59.863281 "/>
<path style="fill:none;stroke-width:0.8;stroke-linecap:butt;stroke-linejoin:round;stroke:rgb(0%,0%,0%);stroke-opacity:1;stroke-miterlimit:4;" d="M -0.001562 -0.001339 L -3.501562 -0.001339 " transform="matrix(1.25,0,0,1.25,53.27539,25.107143)"/>
<path style=" stroke:none;fill-rule:nonzero;fill:rgb(0%,0%,0%);fill-opacity:1;" d="M 38.121094 28.820312 L 40.136719 28.820312 L 40.136719 21.867188 L 37.945312 22.304688 L 37.945312 21.183594 L 40.125 20.742188 L 41.355469 20.742188 L 41.355469 28.820312 L 43.371094 28.820312 L 43.371094 29.855469 L 38.121094 29.855469 Z M 38.121094 28.820312 "/>
<path style=" stroke:none;fill-rule:nonzero;fill:rgb(0%,0%,0%);fill-opacity:1;" d="M 11.660156 96.4375 L 14.988281 98.914062 L 18.496094 96.3125 L 18.496094 97.636719 L 15.8125 99.625 L 18.496094 101.617188 L 18.496094 102.941406 L 14.921875 100.285156 L 11.660156 102.714844 L 11.660156 101.390625 L 14.097656 99.578125 L 11.660156 97.765625 Z M 11.660156 96.4375 "/>
<path style=" stroke:none;fill-rule:nonzero;fill:rgb(0%,0%,0%);fill-opacity:1;" d="M 17.460938 93.503906 L 17.460938 89.203125 L 18.496094 89.203125 L 18.496094 94.988281 L 17.460938 94.988281 C 16.976562 94.519531 16.328125 93.882812 15.511719 93.074219 C 14.695312 92.265625 14.167969 91.757812 13.929688 91.550781 C 13.488281 91.15625 13.113281 90.882812 12.804688 90.726562 C 12.5 90.566406 12.195312 90.488281 11.898438 90.488281 C 11.414062 90.488281 11.019531 90.660156 10.714844 91 C 10.410156 91.339844 10.257812 91.78125 10.257812 92.328125 C 10.257812 92.714844 10.324219 93.121094 10.457031 93.550781 C 10.59375 93.980469 10.796875 94.4375 11.070312 94.925781 L 9.824219 94.925781 C 9.625 94.429688 9.472656 93.96875 9.371094 93.535156 C 9.269531 93.105469 9.21875 92.707031 9.21875 92.351562 C 9.21875 91.40625 9.457031 90.652344 9.929688 90.09375 C 10.402344 89.53125 11.03125 89.25 11.820312 89.25 C 12.195312 89.25 12.550781 89.320312 12.886719 89.460938 C 13.222656 89.601562 13.617188 89.855469 14.070312 90.226562 C 14.191406 90.328125 14.53125 90.652344 15.09375 91.199219 C 15.660156 91.742188 16.449219 92.511719 17.460938 93.503906 Z M 17.460938 93.503906 "/>
<path style="fill:none;stroke-width:1.5;stroke-linecap:square;stroke-linejoin:round;stroke:rgb(100%,49.803922%,5.490196%);stroke-opacity:1;stroke-miterlimit:4;" d="M 57.878125 114.371875 L 70.084375 13.8 L 81.315625 74.14375 L 91.646875 37.9375 L 101.15 59.659375 L 109.89375 46.625 L 117.940625 54.446875 L 125.340625 49.75625 L 132.15 52.56875 L 138.415625 50.88125 L 144.178125 51.89375 L 149.48125 51.2875 L 154.359375 51.65 L 158.846875 51.43125 L 162.975 51.5625 L 166.775 51.484375 L 170.26875 51.53125 L 173.484375 51.503125 L 176.440625 51.521875 L 179.1625 51.509375 L 181.665625 51.515625 " transform="matrix(1.25,0,0,1.25,0,0.000000000000014211)"/>
<path style="fill-rule:nonzero;fill:rgb(100%,49.803922%,5.490196%);fill-opacity:1;stroke-width:1;stroke-linecap:butt;stroke-linejoin:round;stroke:rgb(100%,49.803922%,5.490196%);stroke-opacity:1;stroke-miterlimit:4;" d="M 0.000000000000014211 3.000446 C 0.796875 3.000446 1.559375 2.684821 2.121875 2.122321 C 2.684375 1.559821 3 0.794196 3 0.000446 C 3 -0.796429 2.684375 -1.558929 2.121875 -2.121429 C 1.559375 -2.683929 0.796875 -2.999554 0.000000000000014211 -2.999554 C -0.796875 -2.999554 -1.559375 -2.683929 -2.121875 -2.121429 C -2.684375 -1.558929 -3 -0.796429 -3 0.000446 C -3 0.794196 -2.684375 1.559821 -2.121875 2.122321 C -1.559375 2.684821 -0.796875 3.000446 0.000000000000014211 3.000446 Z M 0.000000000000014211 3.000446 " transform="matrix(1.25,0,0,1.25,72.347656,142.964286)"/>
<path style="fill-rule:nonzero;fill:rgb(100%,49.803922%,5.490196%);fill-opacity:1;stroke-width:1;stroke-linecap:butt;stroke-linejoin:round;stroke:rgb(100%,49.803922%,5.490196%);stroke-opacity:1;stroke-miterlimit:4;" d="M 0.000000000000014211 3 C 0.796875 3 1.559375 2.684375 2.121875 2.121875 C 2.684375 1.559375 3 0.796875 3 -0.000000000000008882 C 3 -0.796875 2.684375 -1.559375 2.121875 -2.121875 C 1.559375 -2.684375 0.796875 -3 0.000000000000014211 -3 C -0.796875 -3 -1.559375 -2.684375 -2.121875 -2.121875 C -2.684375 -1.559375 -3 -0.796875 -3 -0.000000000000008882 C -3 0.796875 -2.684375 1.559375 -2.121875 2.121875 C -1.559375 2.684375 -0.796875 3 0.000000000000014211 3 Z M 0.000000000000014211 3 " transform="matrix(1.25,0,0,1.25,87.605469,17.25)"/>
<path style="fill-rule:nonzero;fill:rgb(100%,49.803922%,5.490196%);fill-opacity:1;stroke-width:1;stroke-linecap:butt;stroke-linejoin:round;stroke:rgb(100%,49.803922%,5.490196%);stroke-opacity:1;stroke-miterlimit:4;" d="M 0.0015 3.000893 C 0.79525 3.000893 1.55775 2.685268 2.12025 2.122768 C 2.68275 1.560268 3.0015 0.794643 3.0015 0.000893 C 3.0015 -0.795982 2.68275 -1.558482 2.12025 -2.120982 C 1.55775 -2.683482 0.79525 -2.999107 0.0015 -2.999107 C -0.795375 -2.999107 -1.557875 -2.683482 -2.120375 -2.120982 C -2.682875 -1.558482 -2.9985 -0.795982 -2.9985 0.000893 C -2.9985 0.794643 -2.682875 1.560268 -2.120375 2.122768 C -1.557875 2.685268 -0.795375 3.000893 0.0015 3.000893 Z M 0.0015 3.000893 " transform="matrix(1.25,0,0,1.25,101.642656,92.678571)"/>
<path style="fill-rule:nonzero;fill:rgb(100%,49.803922%,5.490196%);fill-opacity:1;stroke-width:1;stroke-linecap:butt;stroke-linejoin:round;stroke:rgb(100%,49.803922%,5.490196%);stroke-opacity:1;stroke-miterlimit:4;" d="M 0.00138 3.000357 C 0.79513 3.000357 1.55763 2.684732 2.12013 2.122232 C 2.68263 1.559732 3.00138 0.794107 3.00138 0.000357 C 3.00138 -0.796518 2.68263 -1.559018 2.12013 -2.121518 C 1.55763 -2.684018 0.79513 -2.999643 0.00138 -2.999643 C -0.795495 -2.999643 -1.557995 -2.684018 -2.120495 -2.121518 C -2.682995 -1.559018 -2.99862 -0.796518 -2.99862 0.000357 C -2.99862 0.794107 -2.682995 1.559732 -2.120495 2.122232 C -1.557995 2.684732 -0.795495 3.000357 0.00138 3.000357 Z M 0.00138 3.000357 " transform="matrix(1.25,0,0,1.25,114.556869,47.421429)"/>
<path style="fill-rule:nonzero;fill:rgb(100%,49.803922%,5.490196%);fill-opacity:1;stroke-width:1;stroke-linecap:butt;stroke-linejoin:round;stroke:rgb(100%,49.803922%,5.490196%);stroke-opacity:1;stroke-miterlimit:4;" d="M -0.000356 2.998804 C 0.796519 2.998804 1.559019 2.683179 2.121519 2.120679 C 2.684019 1.558179 2.999644 0.795679 2.999644 -0.001196 C 2.999644 -0.794946 2.684019 -1.557446 2.121519 -2.119946 C 1.559019 -2.682446 0.796519 -3.001196 -0.000356 -3.001196 C -0.794106 -3.001196 -1.559731 -2.682446 -2.122231 -2.119946 C -2.684731 -1.557446 -3.000356 -0.794946 -3.000356 -0.001196 C -3.000356 0.795679 -2.684731 1.558179 -2.122231 2.120679 C -1.559731 2.683179 -0.794106 2.998804 -0.000356 2.998804 Z M -0.000356 2.998804 " transform="matrix(1.25,0,0,1.25,126.437945,74.575714)"/>
<path style="fill-rule:nonzero;fill:rgb(100%,49.803922%,5.490196%);fill-opacity:1;stroke-width:1;stroke-linecap:butt;stroke-linejoin:round;stroke:rgb(100%,49.803922%,5.490196%);stroke-opacity:1;stroke-miterlimit:4;" d="M -0.001077 2.998486 C 0.795798 2.998486 1.558298 2.682861 2.120798 2.120361 C 2.683298 1.557861 2.998923 0.795361 2.998923 -0.001514 C 2.998923 -0.795264 2.683298 -1.557764 2.120798 -2.120264 C 1.558298 -2.682764 0.795798 -3.001514 -0.001077 -3.001514 C -0.794827 -3.001514 -1.557327 -2.682764 -2.119827 -2.120264 C -2.685452 -1.557764 -3.001077 -0.795264 -3.001077 -0.001514 C -3.001077 0.795361 -2.685452 1.557861 -2.119827 2.120361 C -1.557327 2.682861 -0.794827 2.998486 -0.001077 2.998486 Z M -0.001077 2.998486 " transform="matrix(1.25,0,0,1.25,137.368534,58.283143)"/>
<path style="fill-rule:nonzero;fill:rgb(100%,49.803922%,5.490196%);fill-opacity:1;stroke-width:1;stroke-linecap:butt;stroke-linejoin:round;stroke:rgb(100%,49.803922%,5.490196%);stroke-opacity:1;stroke-miterlimit:4;" d="M 0.000884 2.999926 C 0.794634 2.999926 1.560259 2.684301 2.122759 2.121801 C 2.685259 1.559301 3.000884 0.796801 3.000884 -0.000074 C 3.000884 -0.796949 2.685259 -1.559449 2.122759 -2.121949 C 1.560259 -2.684449 0.794634 -3.000074 0.000884 -3.000074 C -0.795991 -3.000074 -1.558491 -2.684449 -2.120991 -2.121949 C -2.683491 -1.559449 -2.999116 -0.796949 -2.999116 -0.000074 C -2.999116 0.796801 -2.683491 1.559301 -2.120991 2.121801 C -1.558491 2.684301 -0.795991 2.999926 0.000884 2.999926 Z M 0.000884 2.999926 " transform="matrix(1.25,0,0,1.25,147.424676,68.058686)"/>
<path style="fill-rule:nonzero;fill:rgb(100%,49.803922%,5.490196%);fill-opacity:1;stroke-width:1;stroke-linecap:butt;stroke-linejoin:round;stroke:rgb(100%,49.803922%,5.490196%);stroke-opacity:1;stroke-miterlimit:4;" d="M -0.000437 3.001562 C 0.796438 3.001562 1.558938 2.682812 2.121438 2.120312 C 2.683938 1.557812 2.999563 0.795312 2.999563 0.001562 C 2.999563 -0.795313 2.683938 -1.557813 2.121438 -2.120313 C 1.558938 -2.682813 0.796438 -2.998438 -0.000437 -2.998438 C -0.794187 -2.998438 -1.559812 -2.682813 -2.122312 -2.120313 C -2.684812 -1.557813 -3.000437 -0.795313 -3.000437 0.001562 C -3.000437 0.795312 -2.684812 1.557812 -2.122312 2.120312 C -1.559812 2.682812 -0.794187 3.001562 -0.000437 3.001562 Z M -0.000437 3.001562 " transform="matrix(1.25,0,0,1.25,156.676327,62.19336)"/>
<path style="fill-rule:nonzero;fill:rgb(100%,49.803922%,5.490196%);fill-opacity:1;stroke-width:1;stroke-linecap:butt;stroke-linejoin:round;stroke:rgb(100%,49.803922%,5.490196%);stroke-opacity:1;stroke-miterlimit:4;" d="M -0.000277 2.998706 C 0.796598 2.998706 1.559098 2.683081 2.121598 2.120581 C 2.684098 1.558081 2.999723 0.795581 2.999723 -0.001294 C 2.999723 -0.795044 2.684098 -1.557544 2.121598 -2.120044 C 1.559098 -2.682544 0.796598 -3.001294 -0.000277 -3.001294 C -0.797152 -3.001294 -1.559652 -2.682544 -2.122152 -2.120044 C -2.684652 -1.557544 -3.000277 -0.795044 -3.000277 -0.001294 C -3.000277 0.795581 -2.684652 1.558081 -2.122152 2.120581 C -1.559652 2.683081 -0.797152 2.998706 -0.000277 2.998706 Z M -0.000277 2.998706 " transform="matrix(1.25,0,0,1.25,165.187846,65.712555)"/>
<path style="fill-rule:nonzero;fill:rgb(100%,49.803922%,5.490196%);fill-opacity:1;stroke-width:1;stroke-linecap:butt;stroke-linejoin:round;stroke:rgb(100%,49.803922%,5.490196%);stroke-opacity:1;stroke-miterlimit:4;" d="M 0.00087 3.000419 C 0.79462 3.000419 1.560245 2.684794 2.122745 2.122294 C 2.685245 1.559794 3.00087 0.794169 3.00087 0.000419 C 3.00087 -0.796456 2.685245 -1.558956 2.122745 -2.121456 C 1.560245 -2.683956 0.79462 -2.999581 0.00087 -2.999581 C -0.796005 -2.999581 -1.558505 -2.683956 -2.121005 -2.121456 C -2.683505 -1.558956 -2.99913 -0.796456 -2.99913 0.000419 C -2.99913 0.794169 -2.683505 1.559794 -2.121005 2.122294 C -1.558505 2.684794 -0.796005 3.000419 0.00087 3.000419 Z M 0.00087 3.000419 " transform="matrix(1.25,0,0,1.25,173.018444,63.601039)"/>
<path style="fill-rule:nonzero;fill:rgb(100%,49.803922%,5.490196%);fill-opacity:1;stroke-width:1;stroke-linecap:butt;stroke-linejoin:round;stroke:rgb(100%,49.803922%,5.490196%);stroke-opacity:1;stroke-miterlimit:4;" d="M 0.00005 2.999391 C 0.796925 2.999391 1.559425 2.683766 2.121925 2.121266 C 2.684425 1.558766 3.00005 0.796266 3.00005 -0.000609 C 3.00005 -0.794359 2.684425 -1.559984 2.121925 -2.122484 C 1.559425 -2.684984 0.796925 -3.000609 0.00005 -3.000609 C -0.796825 -3.000609 -1.559325 -2.684984 -2.121825 -2.122484 C -2.684325 -1.559984 -2.99995 -0.794359 -2.99995 -0.000609 C -2.99995 0.796266 -2.684325 1.558766 -2.121825 2.121266 C -1.559325 2.683766 -0.796825 2.999391 0.00005 2.999391 Z M 0.00005 2.999391 " transform="matrix(1.25,0,0,1.25,180.222594,64.867949)"/>
<path style="fill-rule:nonzero;fill:rgb(100%,49.803922%,5.490196%);fill-opacity:1;stroke-width:1;stroke-linecap:butt;stroke-linejoin:round;stroke:rgb(100%,49.803922%,5.490196%);stroke-opacity:1;stroke-miterlimit:4;" d="M 0.000921 3.001258 C 0.794671 3.001258 1.560296 2.682508 2.122796 2.120008 C 2.685296 1.557508 3.000921 0.795008 3.000921 0.001258 C 3.000921 -0.795617 2.685296 -1.558117 2.122796 -2.120617 C 1.560296 -2.683117 0.794671 -2.998742 0.000921 -2.998742 C -0.795954 -2.998742 -1.558454 -2.683117 -2.120954 -2.120617 C -2.683454 -1.558117 -2.999079 -0.795617 -2.999079 0.001258 C -2.999079 0.795008 -2.683454 1.557508 -2.120954 2.120008 C -1.558454 2.682508 -0.795954 3.001258 0.000921 3.001258 Z M 0.000921 3.001258 " transform="matrix(1.25,0,0,1.25,186.850411,64.107803)"/>
<path style="fill-rule:nonzero;fill:rgb(100%,49.803922%,5.490196%);fill-opacity:1;stroke-width:1;stroke-linecap:butt;stroke-linejoin:round;stroke:rgb(100%,49.803922%,5.490196%);stroke-opacity:1;stroke-miterlimit:4;" d="M 0.000973 2.998888 C 0.794723 2.998888 1.557223 2.683263 2.122848 2.120763 C 2.685348 1.558263 3.000973 0.795763 3.000973 -0.001112 C 3.000973 -0.794862 2.685348 -1.557362 2.122848 -2.119862 C 1.557223 -2.682362 0.794723 -3.001112 0.000973 -3.001112 C -0.795902 -3.001112 -1.558402 -2.682362 -2.120902 -2.119862 C -2.683402 -1.557362 -2.999027 -0.794862 -2.999027 -0.001112 C -2.999027 0.795763 -2.683402 1.558263 -2.120902 2.120763 C -1.558402 2.683263 -0.795902 2.998888 0.000973 2.998888 Z M 0.000973 2.998888 " transform="matrix(1.25,0,0,1.25,192.948002,64.56389)"/>
<path style="fill-rule:nonzero;fill:rgb(100%,49.803922%,5.490196%);fill-opacity:1;stroke-width:1;stroke-linecap:butt;stroke-linejoin:round;stroke:rgb(100%,49.803922%,5.490196%);stroke-opacity:1;stroke-miterlimit:4;" d="M 0.000645 2.99906 C 0.794395 2.99906 1.56002 2.683435 2.12252 2.120935 C 2.68502 1.558435 3.000645 0.795935 3.000645 -0.00094 C 3.000645 -0.79469 2.68502 -1.55719 2.12252 -2.122815 C 1.56002 -2.685315 0.794395 -3.00094 0.000645 -3.00094 C -0.79623 -3.00094 -1.55873 -2.685315 -2.12123 -2.122815 C -2.68373 -1.55719 -2.999355 -0.79469 -2.999355 -0.00094 C -2.999355 0.795935 -2.68373 1.558435 -2.12123 2.120935 C -1.55873 2.683435 -0.79623 2.99906 0.000645 2.99906 Z M 0.000645 2.99906 " transform="matrix(1.25,0,0,1.25,198.557787,64.290238)"/>
<path style="fill-rule:nonzero;fill:rgb(100%,49.803922%,5.490196%);fill-opacity:1;stroke-width:1;stroke-linecap:butt;stroke-linejoin:round;stroke:rgb(100%,49.803922%,5.490196%);stroke-opacity:1;stroke-miterlimit:4;" d="M -0.000032 2.998957 C 0.796843 2.998957 1.559343 2.683332 2.121843 2.120832 C 2.684343 1.558332 2.999968 0.795832 2.999968 -0.001043 C 2.999968 -0.794793 2.684343 -1.557293 2.121843 -2.119793 C 1.559343 -2.685418 0.796843 -3.001043 -0.000032 -3.001043 C -0.796907 -3.001043 -1.559407 -2.685418 -2.121907 -2.119793 C -2.684407 -1.557293 -3.000032 -0.794793 -3.000032 -0.001043 C -3.000032 0.795832 -2.684407 1.558332 -2.121907 2.120832 C -1.559407 2.683332 -0.796907 2.998957 -0.000032 2.998957 Z M -0.000032 2.998957 " transform="matrix(1.25,0,0,1.25,203.71879,64.454429)"/>
<path style="fill-rule:nonzero;fill:rgb(100%,49.803922%,5.490196%);fill-opacity:1;stroke-width:1;stroke-linecap:butt;stroke-linejoin:round;stroke:rgb(100%,49.803922%,5.490196%);stroke-opacity:1;stroke-miterlimit:4;" d="M 0.001471 2.999644 C 0.795221 2.999644 1.557721 2.684019 2.120221 2.121519 C 2.682721 1.559019 3.001471 0.796519 3.001471 -0.000356 C 3.001471 -0.794106 2.682721 -1.559731 2.120221 -2.122231 C 1.557721 -2.684731 0.795221 -3.000356 0.001471 -3.000356 C -0.795404 -3.000356 -1.557904 -2.684731 -2.120404 -2.122231 C -2.682904 -1.559731 -2.998529 -0.794106 -2.998529 -0.000356 C -2.998529 0.796519 -2.682904 1.559019 -2.120404 2.121519 C -1.557904 2.684019 -0.795404 2.999644 0.001471 2.999644 Z M 0.001471 2.999644 " transform="matrix(1.25,0,0,1.25,208.466911,64.355914)"/>
<path style="fill-rule:nonzero;fill:rgb(100%,49.803922%,5.490196%);fill-opacity:1;stroke-width:1;stroke-linecap:butt;stroke-linejoin:round;stroke:rgb(100%,49.803922%,5.490196%);stroke-opacity:1;stroke-miterlimit:4;" d="M 0.000603 2.999232 C 0.794353 2.999232 1.559978 2.683607 2.122478 2.121107 C 2.684978 1.558607 3.000603 0.796107 3.000603 -0.000768 C 3.000603 -0.794518 2.684978 -1.560143 2.122478 -2.122643 C 1.559978 -2.685143 0.794353 -3.000768 0.000603 -3.000768 C -0.796272 -3.000768 -1.558772 -2.685143 -2.121272 -2.122643 C -2.683772 -1.560143 -2.999397 -0.794518 -2.999397 -0.000768 C -2.999397 0.796107 -2.683772 1.558607 -2.121272 2.121107 C -1.558772 2.683607 -0.796272 2.999232 0.000603 2.999232 Z M 0.000603 2.999232 " transform="matrix(1.25,0,0,1.25,212.835184,64.415023)"/>
<path style="fill-rule:nonzero;fill:rgb(100%,49.803922%,5.490196%);fill-opacity:1;stroke-width:1;stroke-linecap:butt;stroke-linejoin:round;stroke:rgb(100%,49.803922%,5.490196%);stroke-opacity:1;stroke-miterlimit:4;" d="M 0.00118 2.999479 C 0.79493 2.999479 1.55743 2.683854 2.11993 2.121354 C 2.68243 1.558854 3.00118 0.796354 3.00118 -0.000521 C 3.00118 -0.794271 2.68243 -1.559896 2.11993 -2.122396 C 1.55743 -2.684896 0.79493 -3.000521 0.00118 -3.000521 C -0.795695 -3.000521 -1.558195 -2.684896 -2.120695 -2.122396 C -2.683195 -1.559896 -2.99882 -0.794271 -2.99882 -0.000521 C -2.99882 0.796354 -2.683195 1.558854 -2.120695 2.121354 C -1.558195 2.683854 -0.795695 2.999479 0.00118 2.999479 Z M 0.00118 2.999479 " transform="matrix(1.25,0,0,1.25,216.853994,64.379558)"/>
<path style="fill-rule:nonzero;fill:rgb(100%,49.803922%,5.490196%);fill-opacity:1;stroke-width:1;stroke-linecap:butt;stroke-linejoin:round;stroke:rgb(100%,49.803922%,5.490196%);stroke-opacity:1;stroke-miterlimit:4;" d="M -0.000415 3.001206 C 0.79646 3.001206 1.55896 2.682456 2.12146 2.119956 C 2.68396 1.557456 2.999585 0.794956 2.999585 0.001206 C 2.999585 -0.795669 2.68396 -1.558169 2.12146 -2.120669 C 1.55896 -2.683169 0.79646 -2.998794 -0.000415 -2.998794 C -0.794165 -2.998794 -1.55979 -2.683169 -2.12229 -2.120669 C -2.68479 -1.558169 -3.000415 -0.795669 -3.000415 0.001206 C -3.000415 0.794956 -2.68479 1.557456 -2.12229 2.119956 C -1.55979 2.682456 -0.794165 3.001206 -0.000415 3.001206 Z M -0.000415 3.001206 " transform="matrix(1.25,0,0,1.25,220.5513,64.400836)"/>
<path style="fill-rule:nonzero;fill:rgb(100%,49.803922%,5.490196%);fill-opacity:1;stroke-width:1;stroke-linecap:butt;stroke-linejoin:round;stroke:rgb(100%,49.803922%,5.490196%);stroke-opacity:1;stroke-miterlimit:4;" d="M 0.000243 2.99892 C 0.797118 2.99892 1.559618 2.683295 2.122118 2.120795 C 2.684618 1.558295 3.000243 0.795795 3.000243 -0.00108 C 3.000243 -0.79483 2.684618 -1.55733 2.122118 -2.11983 C 1.559618 -2.685455 0.797118 -3.00108 0.000243 -3.00108 C -0.796632 -3.00108 -1.559132 -2.685455 -2.121632 -2.11983 C -2.684132 -1.55733 -2.999757 -0.79483 -2.999757 -0.00108 C -2.999757 0.795795 -2.684132 1.558295 -2.121632 2.120795 C -1.559132 2.683295 -0.796632 2.99892 0.000243 2.99892 Z M 0.000243 2.99892 " transform="matrix(1.25,0,0,1.25,223.952821,64.388069)"/>
<path style="fill-rule:nonzero;fill:rgb(100%,49.803922%,5.490196%);fill-opacity:1;stroke-width:1;stroke-linecap:butt;stroke-linejoin:round;stroke:rgb(100%,49.803922%,5.490196%);stroke-opacity:1;stroke-miterlimit:4;" d="M -0.000151 2.999041 C 0.796724 2.999041 1.559224 2.683416 2.121724 2.120916 C 2.684224 1.558416 2.999849 0.795916 2.999849 -0.000959 C 2.999849 -0.794709 2.684224 -1.557209 2.121724 -2.122834 C 1.559224 -2.685334 0.796724 -3.000959 -0.000151 -3.000959 C -0.797026 -3.000959 -1.559526 -2.685334 -2.122026 -2.122834 C -2.684526 -1.557209 -3.000151 -0.794709 -3.000151 -0.000959 C -3.000151 0.795916 -2.684526 1.558416 -2.122026 2.120916 C -1.559526 2.683416 -0.797026 2.999041 -0.000151 2.999041 Z M -0.000151 2.999041 " transform="matrix(1.25,0,0,1.25,227.08222,64.39573)"/>
<g clip-path="url(#clip1)" clip-rule="nonzero">
<path style="fill:none;stroke-width:1.5;stroke-linecap:butt;stroke-linejoin:round;stroke:rgb(12.156863%,46.666667%,70.588235%);stroke-opacity:1;stroke-miterlimit:4;" d="M 97.1 23.228125 L 94.496875 23.81875 L 91.44375 24.53125 L 88.39375 25.2625 L 85.34375 26.009375 L 83.909375 26.371875 L 82.290625 26.83125 L 79.240625 27.721875 L 76.1875 28.634375 L 73.30625 29.515625 L 73.1375 29.575 L 70.084375 30.675 L 67.034375 31.8 L 64.753125 32.65625 L 63.98125 33 L 60.928125 34.384375 L 57.878125 35.8 L 54.828125 37.5625 L 52.4875 38.94375 L 51.775 39.48125 L 48.721875 41.8375 L 48.409375 42.084375 L 45.671875 45.103125 L 45.559375 45.228125 L 43.88125 48.371875 L 43.31875 51.515625 L 43.88125 54.65625 L 45.559375 57.8 L 45.671875 57.925 L 48.409375 60.94375 L 48.721875 61.190625 L 51.775 63.546875 L 52.4875 64.084375 L 54.828125 65.465625 L 57.878125 67.228125 L 60.928125 68.64375 L 63.98125 70.028125 L 64.753125 70.371875 L 67.034375 71.228125 L 70.084375 72.353125 L 73.1375 73.453125 L 73.30625 73.515625 L 76.1875 74.39375 L 79.240625 75.30625 L 82.290625 76.196875 L 83.909375 76.65625 L 85.34375 77.01875 L 88.39375 77.765625 L 91.44375 78.496875 L 94.496875 79.209375 L 97.1 79.8 L 97.546875 79.890625 L 100.6 80.49375 L 103.653125 81.08125 L 106.703125 81.653125 L 109.753125 82.20625 L 112.80625 82.74375 L 113.96875 82.94375 L 115.859375 83.234375 L 118.909375 83.690625 L 121.9625 84.13125 L 125.0125 84.559375 L 128.065625 84.971875 L 131.115625 85.36875 L 134.16875 85.75 L 136.96875 86.084375 L 137.21875 86.1125 L 140.271875 86.434375 L 143.321875 86.740625 L 146.375 87.034375 L 149.425 87.315625 L 152.478125 87.58125 L 155.528125 87.834375 L 158.58125 88.075 L 161.63125 88.3 L 164.684375 88.5125 L 167.734375 88.709375 L 170.7875 88.89375 L 173.8375 89.065625 L 176.8875 89.221875 L 177.034375 89.228125 L 179.940625 89.353125 L 182.99375 89.475 L 186.04375 89.58125 L 189.096875 89.675 L 192.146875 89.75625 L 195.2 89.825 L 198.25 89.88125 L 201.303125 89.925 L 204.353125 89.95625 L 207.40625 89.978125 L 210.45625 89.984375 L 213.509375 89.978125 L 216.559375 89.95625 L 219.6125 89.925 L 222.6625 89.88125 L 225.715625 89.825 L 228.765625 89.75625 L 231.81875 89.675 L 234.86875 89.58125 L 237.921875 89.475 " transform="matrix(1.25,0,0,1.25,0,0.000000000000014211)"/>
</g>
<g clip-path="url(#clip2)" clip-rule="nonzero">
<path style="fill:none;stroke-width:1.5;stroke-linecap:butt;stroke-linejoin:round;stroke:rgb(12.156863%,46.666667%,70.588235%);stroke-opacity:1;stroke-miterlimit:4;" d="M 42.61875 89.825 L 45.671875 90.509375 L 48.721875 91.184375 L 51.775 91.84375 L 54.2625 92.371875 L 54.828125 92.48125 L 57.878125 93.06875 L 60.928125 93.646875 L 63.98125 94.209375 L 67.034375 94.7625 L 70.084375 95.30625 L 71.290625 95.515625 L 73.1375 95.8125 L 76.1875 96.29375 L 79.240625 96.765625 L 82.290625 97.228125 L 85.34375 97.675 L 88.39375 98.115625 L 91.44375 98.54375 L 92.278125 98.65625 L 94.496875 98.940625 L 97.546875 99.321875 L 100.6 99.690625 L 103.653125 100.05 L 106.703125 100.4 L 109.753125 100.740625 L 112.80625 101.06875 L 115.859375 101.390625 L 118.909375 101.7 L 119.94375 101.8 L 121.9625 101.984375 L 125.0125 102.25625 L 128.065625 102.51875 L 131.115625 102.771875 L 134.16875 103.015625 L 137.21875 103.246875 L 140.271875 103.471875 L 143.321875 103.684375 L 146.375 103.890625 L 149.425 104.084375 L 152.478125 104.271875 L 155.528125 104.446875 L 158.58125 104.615625 L 161.63125 104.771875 L 164.684375 104.91875 L 165.209375 104.94375 L 167.734375 105.05 L 170.7875 105.171875 L 173.8375 105.284375 L 176.8875 105.3875 L 179.940625 105.48125 L 182.99375 105.565625 L 186.04375 105.64375 L 189.096875 105.709375 L 192.146875 105.76875 L 195.2 105.81875 L 198.25 105.859375 L 201.303125 105.890625 L 204.353125 105.9125 L 207.40625 105.925 L 210.45625 105.93125 L 213.509375 105.925 L 216.559375 105.9125 L 219.6125 105.890625 L 222.6625 105.859375 L 225.715625 105.81875 L 228.765625 105.76875 L 231.81875 105.709375 L 234.86875 105.64375 L 237.921875 105.565625 " transform="matrix(1.25,0,0,1.25,0,0.000000000000014211)"/>
</g>
<g clip-path="url(#clip3)" clip-rule="nonzero">
<path style="fill:none;stroke-width:1.5;stroke-linecap:butt;stroke-linejoin:round;stroke:rgb(12.156863%,46.666667%,70.588235%);stroke-opacity:1;stroke-miterlimit:4;" d="M 42.61875 105.81875 L 45.671875 106.30625 L 48.721875 106.7875 L 51.775 107.259375 L 54.828125 107.721875 L 57.275 108.084375 L 57.878125 108.171875 L 60.928125 108.590625 L 63.98125 109.003125 L 67.034375 109.40625 L 70.084375 109.8 L 73.1375 110.1875 L 76.1875 110.565625 L 79.240625 110.934375 L 81.715625 111.228125 L 82.290625 111.29375 L 85.34375 111.628125 L 88.39375 111.953125 L 91.44375 112.271875 L 94.496875 112.58125 L 97.546875 112.884375 L 100.6 113.178125 L 103.653125 113.465625 L 106.703125 113.74375 L 109.753125 114.0125 L 112.80625 114.275 L 113.96875 114.371875 L 115.859375 114.521875 L 118.909375 114.75625 L 121.9625 114.98125 L 125.0125 115.2 L 128.065625 115.409375 L 131.115625 115.6125 L 134.16875 115.809375 L 137.21875 115.996875 L 140.271875 116.178125 L 143.321875 116.35 L 146.375 116.5125 L 149.425 116.671875 L 152.478125 116.821875 L 155.528125 116.9625 L 158.58125 117.096875 L 161.63125 117.221875 L 164.684375 117.340625 L 167.734375 117.453125 L 169.54375 117.515625 L 170.7875 117.553125 L 173.8375 117.646875 L 176.8875 117.73125 L 179.940625 117.80625 L 182.99375 117.875 L 186.04375 117.9375 L 189.096875 117.99375 L 192.146875 118.040625 L 195.2 118.08125 L 198.25 118.1125 L 201.303125 118.140625 L 204.353125 118.15625 L 207.40625 118.16875 L 210.45625 118.171875 L 213.509375 118.16875 L 216.559375 118.15625 L 219.6125 118.140625 L 222.6625 118.1125 L 225.715625 118.08125 L 228.765625 118.040625 L 231.81875 117.99375 L 234.86875 117.9375 L 237.921875 117.875 " transform="matrix(1.25,0,0,1.25,0,0.000000000000014211)"/>
</g>
<g clip-path="url(#clip4)" clip-rule="nonzero">
<path style="fill:none;stroke-width:1.5;stroke-linecap:butt;stroke-linejoin:round;stroke:rgb(12.156863%,46.666667%,70.588235%);stroke-opacity:1;stroke-miterlimit:4;" d="M 42.61875 118.08125 L 45.671875 118.478125 L 48.721875 118.86875 L 51.775 119.253125 L 54.828125 119.63125 L 57.878125 120 L 60.928125 120.3625 L 63.478125 120.65625 L 63.98125 120.7125 L 67.034375 121.04375 L 70.084375 121.36875 L 73.1375 121.6875 L 76.1875 121.996875 L 79.240625 122.303125 L 82.290625 122.6 L 85.34375 122.8875 L 88.39375 123.171875 L 91.44375 123.446875 L 94.496875 123.715625 L 95.471875 123.8 L 97.546875 123.971875 L 100.6 124.215625 L 103.653125 124.453125 L 106.703125 124.68125 L 109.753125 124.90625 L 112.80625 125.125 L 115.859375 125.334375 L 118.909375 125.5375 L 121.9625 125.734375 L 125.0125 125.925 L 128.065625 126.109375 L 131.115625 126.2875 L 134.16875 126.459375 L 137.21875 126.621875 L 140.271875 126.778125 L 143.321875 126.928125 L 143.60625 126.94375 L 146.375 127.06875 L 149.425 127.2 L 152.478125 127.325 L 155.528125 127.44375 L 158.58125 127.55625 L 161.63125 127.6625 L 164.684375 127.759375 L 167.734375 127.853125 L 170.7875 127.940625 L 173.8375 128.021875 L 176.8875 128.09375 L 179.940625 128.1625 L 182.99375 128.221875 L 186.04375 128.278125 L 189.096875 128.325 L 192.146875 128.365625 L 195.2 128.403125 L 198.25 128.43125 L 201.303125 128.453125 L 204.353125 128.46875 L 207.40625 128.478125 L 210.45625 128.48125 L 213.509375 128.478125 L 216.559375 128.46875 L 219.6125 128.453125 L 222.6625 128.43125 L 225.715625 128.403125 L 228.765625 128.365625 L 231.81875 128.325 L 234.86875 128.278125 L 237.921875 128.221875 " transform="matrix(1.25,0,0,1.25,0,0.000000000000014211)"/>
</g>
<g clip-path="url(#clip5)" clip-rule="nonzero">
<path style="fill:none;stroke-width:1.5;stroke-linecap:butt;stroke-linejoin:round;stroke:rgb(12.156863%,46.666667%,70.588235%);stroke-opacity:1;stroke-miterlimit:4;" d="M 42.61875 128.403125 L 45.671875 128.753125 L 48.721875 129.09375 L 51.775 129.43125 L 54.828125 129.7625 L 57.878125 130.084375 L 60.928125 130.390625 L 63.98125 130.690625 L 67.034375 130.98125 L 70.084375 131.26875 L 73.1375 131.55 L 76.1875 131.825 L 79.240625 132.090625 L 82.290625 132.353125 L 85.34375 132.609375 L 88.39375 132.859375 L 91.44375 133.103125 L 93.06875 133.228125 L 94.496875 133.334375 L 97.546875 133.55625 L 100.6 133.775 L 103.653125 133.984375 L 106.703125 134.190625 L 109.753125 134.3875 L 112.80625 134.58125 L 115.859375 134.76875 L 118.909375 134.946875 L 121.9625 135.121875 L 125.0125 135.290625 L 128.065625 135.45625 L 131.115625 135.6125 L 134.16875 135.7625 L 137.21875 135.909375 L 140.271875 136.046875 L 143.321875 136.18125 L 146.375 136.309375 L 147.9375 136.371875 L 149.425 136.428125 L 152.478125 136.540625 L 155.528125 136.646875 L 158.58125 136.746875 L 161.63125 136.840625 L 164.684375 136.928125 L 167.734375 137.0125 L 170.7875 137.0875 L 173.8375 137.159375 L 176.8875 137.225 L 179.940625 137.284375 L 182.99375 137.340625 L 186.04375 137.3875 L 189.096875 137.43125 L 192.146875 137.46875 L 195.2 137.5 L 198.25 137.525 L 201.303125 137.546875 L 204.353125 137.559375 L 207.40625 137.56875 L 210.45625 137.571875 L 213.509375 137.56875 L 216.559375 137.559375 L 219.6125 137.546875 L 222.6625 137.525 L 225.715625 137.5 L 228.765625 137.46875 L 231.81875 137.43125 L 234.86875 137.3875 L 237.921875 137.340625 " transform="matrix(1.25,0,0,1.25,0,0.000000000000014211)"/>
</g>
<g clip-path="url(#clip6)" clip-rule="nonzero">
<path style="fill:none;stroke-width:1.5;stroke-linecap:butt;stroke-linejoin:round;stroke:rgb(12.156863%,46.666667%,70.588235%);stroke-opacity:1;stroke-miterlimit:4;" d="M 42.61875 137.5 L 45.671875 137.8125 L 48.721875 138.115625 L 51.775 138.415625 L 54.828125 138.7125 L 57.878125 139 L 60.928125 139.284375 L 63.478125 139.515625 L 63.98125 139.559375 L 67.034375 139.81875 L 70.084375 140.078125 L 73.1375 140.328125 L 76.1875 140.571875 L 79.240625 140.8125 L 82.290625 141.046875 L 85.34375 141.275 L 88.39375 141.5 L 91.44375 141.715625 L 94.496875 141.928125 L 97.546875 142.1375 L 100.6 142.3375 L 103.653125 142.534375 L 105.640625 142.65625 L 106.703125 142.721875 L 109.753125 142.9 L 112.80625 143.071875 L 115.859375 143.240625 L 118.909375 143.403125 L 121.9625 143.559375 L 125.0125 143.7125 L 128.065625 143.859375 L 131.115625 144 L 134.16875 144.134375 L 137.21875 144.265625 L 140.271875 144.390625 L 143.321875 144.509375 L 146.375 144.625 L 149.425 144.734375 L 152.478125 144.8375 L 155.528125 144.9375 L 158.58125 145.03125 L 161.63125 145.11875 L 164.684375 145.2 L 167.734375 145.278125 L 170.7875 145.35 L 173.8375 145.415625 L 176.8875 145.478125 L 179.940625 145.534375 L 182.99375 145.584375 L 186.04375 145.628125 L 189.096875 145.66875 L 192.146875 145.703125 L 195.2 145.734375 L 198.25 145.75625 L 201.303125 145.775 L 204.353125 145.790625 L 207.40625 145.796875 L 210.45625 145.8 " transform="matrix(1.25,0,0,1.25,0,0.000000000000014211)"/>
</g>
<g clip-path="url(#clip7)" clip-rule="nonzero">
<path style="fill:none;stroke-width:1.5;stroke-linecap:butt;stroke-linejoin:round;stroke:rgb(12.156863%,46.666667%,70.588235%);stroke-opacity:1;stroke-miterlimit:4;" d="M 210.45625 145.8 L 213.509375 145.796875 L 216.559375 145.790625 L 219.6125 145.775 L 222.6625 145.75625 L 225.715625 145.734375 L 228.765625 145.703125 L 231.81875 145.66875 L 234.86875 145.628125 L 237.921875 145.584375 " transform="matrix(1.25,0,0,1.25,0,0.000000000000014211)"/>
</g>
<g clip-path="url(#clip8)" clip-rule="nonzero">
<path style="fill:none;stroke-width:1.5;stroke-linecap:butt;stroke-linejoin:round;stroke:rgb(12.156863%,46.666667%,70.588235%);stroke-opacity:1;stroke-miterlimit:4;" d="M 42.61875 145.734375 L 43.31875 145.8 " transform="matrix(1.25,0,0,1.25,0,0.000000000000014211)"/>
</g>
<path style="fill:none;stroke-width:0.8;stroke-linecap:square;stroke-linejoin:miter;stroke:rgb(0%,0%,0%);stroke-opacity:1;stroke-miterlimit:4;" d="M 42.61875 145.8 L 42.61875 7.2 " transform="matrix(1.25,0,0,1.25,0,0.000000000000014211)"/>
<path style="fill:none;stroke-width:0.8;stroke-linecap:square;stroke-linejoin:miter;stroke:rgb(0%,0%,0%);stroke-opacity:1;stroke-miterlimit:4;" d="M 237.921875 145.8 L 237.921875 7.2 " transform="matrix(1.25,0,0,1.25,0,0.000000000000014211)"/>
<path style="fill:none;stroke-width:0.8;stroke-linecap:square;stroke-linejoin:miter;stroke:rgb(0%,0%,0%);stroke-opacity:1;stroke-miterlimit:4;" d="M 42.61875 145.8 L 237.921875 145.8 " transform="matrix(1.25,0,0,1.25,0,0.000000000000014211)"/>
<path style="fill:none;stroke-width:0.8;stroke-linecap:square;stroke-linejoin:miter;stroke:rgb(0%,0%,0%);stroke-opacity:1;stroke-miterlimit:4;" d="M 42.61875 7.2 L 237.921875 7.2 " transform="matrix(1.25,0,0,1.25,0,0.000000000000014211)"/>
</g>
</svg>
