<?xml version="1.0" encoding="UTF-8"?>
<svg xmlns="http://www.w3.org/2000/svg" xmlns:xlink="http://www.w3.org/1999/xlink" width="330pt" height="229pt" viewBox="0 0 330 229" version="1.1">
<defs>
<clipPath id="clip1">
  <path d="M 77.136719 81 L 321.261719 81 L 321.261719 84 L 77.136719 84 Z M 77.136719 81 "/>
</clipPath>
<clipPath id="clip2">
  <path d="M 77.136719 81 L 288 81 L 288 84 L 77.136719 84 Z M 77.136719 81 "/>
</clipPath>
<clipPath id="clip3">
  <path d="M 285 81 L 321.261719 81 L 321.261719 84 L 285 84 Z M 285 81 "/>
</clipPath>
<clipPath id="clip4">
  <path d="M 77.136719 81 L 79 81 L 79 84 L 77.136719 84 Z M 77.136719 81 "/>
</clipPath>
</defs>
<g id="surface1">
<rect x="0" y="0" width="330" height="229" style="fill:rgb(100%,100%,100%);fill-opacity:1;stroke:none;"/>
<path style=" stroke:none;fill-rule:nonzero;fill:rgb(100%,100%,100%);fill-opacity:1;" d="M 77.136719 182.25 L 321.257812 182.25 L 321.257812 9 L 77.136719 9 Z M 77.136719 182.25 "/>
<path style="fill:none;stroke-width:0.8;stroke-linecap:butt;stroke-linejoin:round;stroke:rgb(0%,0%,0%);stroke-opacity:1;stroke-miterlimit:4;" d="M -0.000000000000028422 0 L -0.000000000000028422 3.5 " transform="matrix(1.25,0,0,1.25,134.351563,182.25)"/>
<path style=" stroke:none;fill-rule:nonzero;fill:rgb(0%,0%,0%);fill-opacity:1;" d="M 126.460938 196.0625 L 134.285156 196.0625 L 134.285156 197.097656 L 126.460938 197.097656 Z M 126.460938 196.0625 "/>
<path style=" stroke:none;fill-rule:nonzero;fill:rgb(0%,0%,0%);fill-opacity:1;" d="M 140.335938 192.460938 L 137.222656 197.324219 L 140.335938 197.324219 Z M 140.011719 191.386719 L 141.5625 191.386719 L 141.5625 197.324219 L 142.863281 197.324219 L 142.863281 198.351562 L 141.5625 198.351562 L 141.5625 200.5 L 140.335938 200.5 L 140.335938 198.351562 L 136.222656 198.351562 L 136.222656 197.160156 Z M 140.011719 191.386719 "/>
<path style="fill:none;stroke-width:0.8;stroke-linecap:butt;stroke-linejoin:round;stroke:rgb(0%,0%,0%);stroke-opacity:1;stroke-miterlimit:4;" d="M -0.000000000000028422 0 L -0.000000000000028422 3.5 " transform="matrix(1.25,0,0,1.25,210.640625,182.25)"/>
<path style=" stroke:none;fill-rule:nonzero;fill:rgb(0%,0%,0%);fill-opacity:1;" d="M 202.75 196.0625 L 210.574219 196.0625 L 210.574219 197.097656 L 202.75 197.097656 Z M 202.75 196.0625 "/>
<path style=" stroke:none;fill-rule:nonzero;fill:rgb(0%,0%,0%);fill-opacity:1;" d="M 214.300781 199.460938 L 218.601562 199.460938 L 218.601562 200.5 L 212.816406 200.5 L 212.816406 199.460938 C 213.285156 198.976562 213.921875 198.328125 214.730469 197.511719 C 215.539062 196.695312 216.046875 196.167969 216.253906 195.933594 C 216.648438 195.488281 216.921875 195.113281 217.078125 194.808594 C 217.234375 194.5 217.316406 194.199219 217.316406 193.902344 C 217.316406 193.417969 217.144531 193.023438 216.804688 192.71875 C 216.464844 192.410156 216.023438 192.257812 215.476562 192.257812 C 215.089844 192.257812 214.683594 192.324219 214.253906 192.460938 C 213.824219 192.59375 213.367188 192.796875 212.878906 193.070312 L 212.878906 191.824219 C 213.375 191.625 213.835938 191.476562 214.269531 191.375 C 214.699219 191.273438 215.09375 191.222656 215.453125 191.222656 C 216.398438 191.222656 217.148438 191.457031 217.710938 191.929688 C 218.273438 192.402344 218.554688 193.03125 218.554688 193.820312 C 218.554688 194.195312 218.484375 194.550781 218.34375 194.886719 C 218.203125 195.222656 217.949219 195.617188 217.578125 196.074219 C 217.476562 196.191406 217.152344 196.53125 216.605469 197.097656 C 216.0625 197.660156 215.292969 198.449219 214.300781 199.460938 Z M 214.300781 199.460938 "/>
<path style="fill:none;stroke-width:0.8;stroke-linecap:butt;stroke-linejoin:round;stroke:rgb(0%,0%,0%);stroke-opacity:1;stroke-miterlimit:4;" d="M -0.000001 0 L -0.000001 3.5 " transform="matrix(1.25,0,0,1.25,286.929689,182.25)"/>
<path style=" stroke:none;fill-rule:nonzero;fill:rgb(0%,0%,0%);fill-opacity:1;" d="M 286.925781 192.199219 C 286.292969 192.199219 285.816406 192.511719 285.496094 193.136719 C 285.175781 193.757812 285.015625 194.699219 285.015625 195.953125 C 285.015625 197.199219 285.175781 198.136719 285.496094 198.761719 C 285.816406 199.386719 286.292969 199.699219 286.925781 199.699219 C 287.566406 199.699219 288.042969 199.386719 288.363281 198.761719 C 288.683594 198.136719 288.84375 197.199219 288.84375 195.953125 C 288.84375 194.699219 288.683594 193.757812 288.363281 193.136719 C 288.042969 192.511719 287.566406 192.199219 286.925781 192.199219 Z M 286.925781 191.222656 C 287.949219 191.222656 288.730469 191.625 289.269531 192.433594 C 289.808594 193.242188 290.078125 194.414062 290.078125 195.953125 C 290.078125 197.484375 289.808594 198.65625 289.269531 199.464844 C 288.730469 200.273438 287.949219 200.675781 286.925781 200.675781 C 285.90625 200.675781 285.125 200.273438 284.585938 199.464844 C 284.046875 198.65625 283.777344 197.484375 283.777344 195.953125 C 283.777344 194.414062 284.046875 193.242188 284.585938 192.433594 C 285.125 191.625 285.90625 191.222656 286.925781 191.222656 Z M 286.925781 191.222656 "/>
<path style=" stroke:none;fill-rule:nonzero;fill:rgb(0%,0%,0%);fill-opacity:1;" d="M 198.382812 210.761719 L 195.910156 214.085938 L 198.511719 217.597656 L 197.1875 217.597656 L 195.195312 214.910156 L 193.207031 217.597656 L 191.882812 217.597656 L 194.539062 214.019531 L 192.109375 210.761719 L 193.433594 210.761719 L 195.246094 213.195312 L 197.058594 210.761719 Z M 198.382812 210.761719 "/>
<path style=" stroke:none;fill-rule:nonzero;fill:rgb(0%,0%,0%);fill-opacity:1;" d="M 200.46875 216.558594 L 202.484375 216.558594 L 202.484375 209.605469 L 200.292969 210.046875 L 200.292969 208.921875 L 202.472656 208.484375 L 203.703125 208.484375 L 203.703125 216.558594 L 205.71875 216.558594 L 205.71875 217.597656 L 200.46875 217.597656 Z M 200.46875 216.558594 "/>
<path style="fill:none;stroke-width:0.8;stroke-linecap:butt;stroke-linejoin:round;stroke:rgb(0%,0%,0%);stroke-opacity:1;stroke-miterlimit:4;" d="M 0.001562 0.001531 L -3.498438 0.001531 " transform="matrix(1.25,0,0,1.25,77.134766,137.404336)"/>
<path style=" stroke:none;fill-rule:nonzero;fill:rgb(0%,0%,0%);fill-opacity:1;" d="M 27.421875 137.714844 L 35.246094 137.714844 L 35.246094 138.753906 L 27.421875 138.753906 Z M 27.421875 137.714844 "/>
<path style=" stroke:none;fill-rule:nonzero;fill:rgb(0%,0%,0%);fill-opacity:1;" d="M 38.121094 141.117188 L 40.136719 141.117188 L 40.136719 134.164062 L 37.945312 134.601562 L 37.945312 133.480469 L 40.125 133.039062 L 41.355469 133.039062 L 41.355469 141.117188 L 43.371094 141.117188 L 43.371094 142.152344 L 38.121094 142.152344 Z M 38.121094 141.117188 "/>
<path style=" stroke:none;fill-rule:nonzero;fill:rgb(0%,0%,0%);fill-opacity:1;" d="M 48.496094 133.851562 C 47.863281 133.851562 47.386719 134.164062 47.066406 134.789062 C 46.746094 135.414062 46.585938 136.351562 46.585938 137.605469 C 46.585938 138.855469 46.746094 139.792969 47.066406 140.417969 C 47.386719 141.042969 47.863281 141.355469 48.496094 141.355469 C 49.136719 141.355469 49.617188 141.042969 49.933594 140.417969 C 50.253906 139.792969 50.414062 138.855469 50.414062 137.605469 C 50.414062 136.351562 50.253906 135.414062 49.933594 134.789062 C 49.617188 134.164062 49.136719 133.851562 48.496094 133.851562 Z M 48.496094 132.875 C 49.519531 132.875 50.300781 133.28125 50.839844 134.089844 C 51.378906 134.894531 51.648438 136.070312 51.648438 137.605469 C 51.648438 139.140625 51.378906 140.3125 50.839844 141.121094 C 50.300781 141.925781 49.519531 142.332031 48.496094 142.332031 C 47.476562 142.332031 46.695312 141.925781 46.15625 141.121094 C 45.617188 140.3125 45.347656 139.140625 45.347656 137.605469 C 45.347656 136.070312 45.617188 134.894531 46.15625 134.089844 C 46.695312 133.28125 47.476562 132.875 48.496094 132.875 Z M 48.496094 132.875 "/>
<path style=" stroke:none;fill-rule:nonzero;fill:rgb(0%,0%,0%);fill-opacity:1;" d="M 56.449219 133.851562 C 55.816406 133.851562 55.339844 134.164062 55.019531 134.789062 C 54.699219 135.414062 54.539062 136.351562 54.539062 137.605469 C 54.539062 138.855469 54.699219 139.792969 55.019531 140.417969 C 55.339844 141.042969 55.816406 141.355469 56.449219 141.355469 C 57.089844 141.355469 57.566406 141.042969 57.886719 140.417969 C 58.207031 139.792969 58.367188 138.855469 58.367188 137.605469 C 58.367188 136.351562 58.207031 135.414062 57.886719 134.789062 C 57.566406 134.164062 57.089844 133.851562 56.449219 133.851562 Z M 56.449219 132.875 C 57.472656 132.875 58.253906 133.28125 58.792969 134.089844 C 59.332031 134.894531 59.601562 136.070312 59.601562 137.605469 C 59.601562 139.140625 59.332031 140.3125 58.792969 141.121094 C 58.253906 141.925781 57.472656 142.332031 56.449219 142.332031 C 55.429688 142.332031 54.648438 141.925781 54.109375 141.121094 C 53.570312 140.3125 53.300781 139.140625 53.300781 137.605469 C 53.300781 136.070312 53.570312 134.894531 54.109375 134.089844 C 54.648438 133.28125 55.429688 132.875 56.449219 132.875 Z M 56.449219 132.875 "/>
<path style=" stroke:none;fill-rule:nonzero;fill:rgb(0%,0%,0%);fill-opacity:1;" d="M 64.402344 133.851562 C 63.769531 133.851562 63.292969 134.164062 62.972656 134.789062 C 62.652344 135.414062 62.492188 136.351562 62.492188 137.605469 C 62.492188 138.855469 62.652344 139.792969 62.972656 140.417969 C 63.292969 141.042969 63.769531 141.355469 64.402344 141.355469 C 65.042969 141.355469 65.519531 141.042969 65.839844 140.417969 C 66.160156 139.792969 66.320312 138.855469 66.320312 137.605469 C 66.320312 136.351562 66.160156 135.414062 65.839844 134.789062 C 65.519531 134.164062 65.042969 133.851562 64.402344 133.851562 Z M 64.402344 132.875 C 65.425781 132.875 66.207031 133.28125 66.746094 134.089844 C 67.285156 134.894531 67.554688 136.070312 67.554688 137.605469 C 67.554688 139.140625 67.285156 140.3125 66.746094 141.121094 C 66.207031 141.925781 65.425781 142.332031 64.402344 142.332031 C 63.382812 142.332031 62.601562 141.925781 62.0625 141.121094 C 61.523438 140.3125 61.253906 139.140625 61.253906 137.605469 C 61.253906 136.070312 61.523438 134.894531 62.0625 134.089844 C 62.601562 133.28125 63.382812 132.875 64.402344 132.875 Z M 64.402344 132.875 "/>
<path style="fill:none;stroke-width:0.8;stroke-linecap:butt;stroke-linejoin:round;stroke:rgb(0%,0%,0%);stroke-opacity:1;stroke-miterlimit:4;" d="M 0.001562 0 L -3.498438 0 " transform="matrix(1.25,0,0,1.25,77.134766,82.5)"/>
<path style=" stroke:none;fill-rule:nonzero;fill:rgb(0%,0%,0%);fill-opacity:1;" d="M 64.40625 78.949219 C 63.769531 78.949219 63.292969 79.261719 62.972656 79.886719 C 62.652344 80.507812 62.496094 81.449219 62.496094 82.703125 C 62.496094 83.949219 62.652344 84.886719 62.972656 85.511719 C 63.292969 86.136719 63.769531 86.449219 64.40625 86.449219 C 65.042969 86.449219 65.523438 86.136719 65.84375 85.511719 C 66.164062 84.886719 66.324219 83.949219 66.324219 82.703125 C 66.324219 81.449219 66.164062 80.507812 65.84375 79.886719 C 65.523438 79.261719 65.042969 78.949219 64.40625 78.949219 Z M 64.40625 77.972656 C 65.425781 77.972656 66.207031 78.375 66.746094 79.183594 C 67.285156 79.992188 67.554688 81.164062 67.554688 82.703125 C 67.554688 84.234375 67.285156 85.40625 66.746094 86.214844 C 66.207031 87.023438 65.425781 87.425781 64.40625 87.425781 C 63.382812 87.425781 62.605469 87.023438 62.066406 86.214844 C 61.527344 85.40625 61.257812 84.234375 61.257812 82.703125 C 61.257812 81.164062 61.527344 79.992188 62.066406 79.183594 C 62.605469 78.375 63.382812 77.972656 64.40625 77.972656 Z M 64.40625 77.972656 "/>
<path style="fill:none;stroke-width:0.8;stroke-linecap:butt;stroke-linejoin:round;stroke:rgb(0%,0%,0%);stroke-opacity:1;stroke-miterlimit:4;" d="M 0.001562 -0.001531 L -3.498438 -0.001531 " transform="matrix(1.25,0,0,1.25,77.134766,27.595664)"/>
<path style=" stroke:none;fill-rule:nonzero;fill:rgb(0%,0%,0%);fill-opacity:1;" d="M 38.121094 31.308594 L 40.136719 31.308594 L 40.136719 24.355469 L 37.945312 24.792969 L 37.945312 23.671875 L 40.125 23.230469 L 41.355469 23.230469 L 41.355469 31.308594 L 43.371094 31.308594 L 43.371094 32.34375 L 38.121094 32.34375 Z M 38.121094 31.308594 "/>
<path style=" stroke:none;fill-rule:nonzero;fill:rgb(0%,0%,0%);fill-opacity:1;" d="M 48.496094 24.042969 C 47.863281 24.042969 47.386719 24.355469 47.066406 24.980469 C 46.746094 25.605469 46.585938 26.542969 46.585938 27.796875 C 46.585938 29.046875 46.746094 29.984375 47.066406 30.609375 C 47.386719 31.234375 47.863281 31.546875 48.496094 31.546875 C 49.136719 31.546875 49.617188 31.234375 49.933594 30.609375 C 50.253906 29.984375 50.414062 29.046875 50.414062 27.796875 C 50.414062 26.542969 50.253906 25.605469 49.933594 24.980469 C 49.617188 24.355469 49.136719 24.042969 48.496094 24.042969 Z M 48.496094 23.066406 C 49.519531 23.066406 50.300781 23.472656 50.839844 24.28125 C 51.378906 25.085938 51.648438 26.261719 51.648438 27.796875 C 51.648438 29.332031 51.378906 30.503906 50.839844 31.3125 C 50.300781 32.117188 49.519531 32.523438 48.496094 32.523438 C 47.476562 32.523438 46.695312 32.117188 46.15625 31.3125 C 45.617188 30.503906 45.347656 29.332031 45.347656 27.796875 C 45.347656 26.261719 45.617188 25.085938 46.15625 24.28125 C 46.695312 23.472656 47.476562 23.066406 48.496094 23.066406 Z M 48.496094 23.066406 "/>
<path style=" stroke:none;fill-rule:nonzero;fill:rgb(0%,0%,0%);fill-opacity:1;" d="M 56.449219 24.042969 C 55.816406 24.042969 55.339844 24.355469 55.019531 24.980469 C 54.699219 25.605469 54.539062 26.542969 54.539062 27.796875 C 54.539062 29.046875 54.699219 29.984375 55.019531 30.609375 C 55.339844 31.234375 55.816406 31.546875 56.449219 31.546875 C 57.089844 31.546875 57.570312 31.234375 57.886719 30.609375 C 58.207031 29.984375 58.367188 29.046875 58.367188 27.796875 C 58.367188 26.542969 58.207031 25.605469 57.886719 24.980469 C 57.570312 24.355469 57.089844 24.042969 56.449219 24.042969 Z M 56.449219 23.066406 C 57.472656 23.066406 58.253906 23.472656 58.792969 24.28125 C 59.332031 25.085938 59.601562 26.261719 59.601562 27.796875 C 59.601562 29.332031 59.332031 30.503906 58.792969 31.3125 C 58.253906 32.117188 57.472656 32.523438 56.449219 32.523438 C 55.429688 32.523438 54.648438 32.117188 54.109375 31.3125 C 53.570312 30.503906 53.300781 29.332031 53.300781 27.796875 C 53.300781 26.261719 53.570312 25.085938 54.109375 24.28125 C 54.648438 23.472656 55.429688 23.066406 56.449219 23.066406 Z M 56.449219 23.066406 "/>
<path style=" stroke:none;fill-rule:nonzero;fill:rgb(0%,0%,0%);fill-opacity:1;" d="M 64.402344 24.042969 C 63.769531 24.042969 63.292969 24.355469 62.972656 24.980469 C 62.652344 25.605469 62.492188 26.542969 62.492188 27.796875 C 62.492188 29.046875 62.652344 29.984375 62.972656 30.609375 C 63.292969 31.234375 63.769531 31.546875 64.402344 31.546875 C 65.042969 31.546875 65.523438 31.234375 65.839844 30.609375 C 66.160156 29.984375 66.320312 29.046875 66.320312 27.796875 C 66.320312 26.542969 66.160156 25.605469 65.839844 24.980469 C 65.523438 24.355469 65.042969 24.042969 64.402344 24.042969 Z M 64.402344 23.066406 C 65.425781 23.066406 66.207031 23.472656 66.746094 24.28125 C 67.285156 25.085938 67.554688 26.261719 67.554688 27.796875 C 67.554688 29.332031 67.285156 30.503906 66.746094 31.3125 C 66.207031 32.117188 65.425781 32.523438 64.402344 32.523438 C 63.382812 32.523438 62.601562 32.117188 62.0625 31.3125 C 61.523438 30.503906 61.253906 29.332031 61.253906 27.796875 C 61.253906 26.261719 61.523438 25.085938 62.0625 24.28125 C 62.601562 23.472656 63.382812 23.066406 64.402344 23.066406 Z M 64.402344 23.066406 "/>
<path style=" stroke:none;fill-rule:nonzero;fill:rgb(0%,0%,0%);fill-opacity:1;" d="M 11.664062 96.4375 L 14.988281 98.914062 L 18.5 96.3125 L 18.5 97.636719 L 15.8125 99.625 L 18.5 101.617188 L 18.5 102.941406 L 14.921875 100.285156 L 11.664062 102.714844 L 11.664062 101.390625 L 14.097656 99.578125 L 11.664062 97.765625 Z M 11.664062 96.4375 "/>
<path style=" stroke:none;fill-rule:nonzero;fill:rgb(0%,0%,0%);fill-opacity:1;" d="M 17.460938 93.503906 L 17.460938 89.203125 L 18.5 89.203125 L 18.5 94.988281 L 17.460938 94.988281 C 16.976562 94.519531 16.328125 93.882812 15.511719 93.074219 C 14.695312 92.265625 14.167969 91.757812 13.933594 91.550781 C 13.488281 91.15625 13.113281 90.882812 12.808594 90.726562 C 12.5 90.566406 12.199219 90.488281 11.902344 90.488281 C 11.417969 90.488281 11.023438 90.660156 10.71875 91 C 10.410156 91.339844 10.257812 91.78125 10.257812 92.328125 C 10.257812 92.714844 10.324219 93.121094 10.460938 93.550781 C 10.59375 93.980469 10.796875 94.4375 11.070312 94.925781 L 9.824219 94.925781 C 9.625 94.429688 9.476562 93.96875 9.375 93.535156 C 9.273438 93.105469 9.222656 92.707031 9.222656 92.351562 C 9.222656 91.40625 9.457031 90.652344 9.929688 90.09375 C 10.402344 89.53125 11.03125 89.25 11.820312 89.25 C 12.195312 89.25 12.550781 89.320312 12.886719 89.460938 C 13.222656 89.601562 13.617188 89.855469 14.074219 90.226562 C 14.191406 90.328125 14.53125 90.652344 15.097656 91.199219 C 15.660156 91.742188 16.449219 92.511719 17.460938 93.503906 Z M 17.460938 93.503906 "/>
<path style="fill:none;stroke-width:1.5;stroke-linecap:square;stroke-linejoin:round;stroke:rgb(100%,49.803922%,5.490196%);stroke-opacity:1;stroke-miterlimit:4;" d="M 76.965625 66.0875 L 95.275 65.878125 L 111.3875 66.171875 L 125.565625 65.759375 L 138.04375 66.3375 L 149.021875 65.528125 L 158.684375 66.6625 L 167.1875 65.075 L 174.671875 67.296875 L 181.25625 64.184375 L 187.05 68.540625 L 192.15 62.44375 L 196.6375 70.98125 L 200.584375 59.028125 L 204.059375 75.7625 L 207.11875 52.334375 L 209.809375 85.13125 L 212.178125 39.215625 L 214.2625 103.5 L 216.096875 13.5 L 217.709375 139.5 " transform="matrix(1.25,0,0,1.25,0.000000000000028422,0)"/>
<path style="fill-rule:nonzero;fill:rgb(100%,49.803922%,5.490196%);fill-opacity:1;stroke-width:1;stroke-linecap:butt;stroke-linejoin:round;stroke:rgb(100%,49.803922%,5.490196%);stroke-opacity:1;stroke-miterlimit:4;" d="M -0.000000000000028422 2.999653 C 0.796875 2.999653 1.559375 2.684028 2.121875 2.121528 C 2.684375 1.559028 3 0.796528 3 -0.000347 C 3 -0.794097 2.684375 -1.559722 2.121875 -2.122222 C 1.559375 -2.684722 0.796875 -3.000347 -0.000000000000028422 -3.000347 C -0.796875 -3.000347 -1.559375 -2.684722 -2.121875 -2.122222 C -2.684375 -1.559722 -3 -0.794097 -3 -0.000347 C -3 0.796528 -2.684375 1.559028 -2.121875 2.121528 C -1.559375 2.684028 -0.796875 2.999653 -0.000000000000028422 2.999653 Z M -0.000000000000028422 2.999653 " transform="matrix(1.25,0,0,1.25,96.207031,82.609809)"/>
<path style="fill-rule:nonzero;fill:rgb(100%,49.803922%,5.490196%);fill-opacity:1;stroke-width:1;stroke-linecap:butt;stroke-linejoin:round;stroke:rgb(100%,49.803922%,5.490196%);stroke-opacity:1;stroke-miterlimit:4;" d="M -0.000000000000028422 3.001111 C 0.796875 3.001111 1.559375 2.682361 2.121875 2.119861 C 2.684375 1.557361 3 0.794861 3 0.001111 C 3 -0.795764 2.684375 -1.558264 2.121875 -2.120764 C 1.559375 -2.683264 0.796875 -2.998889 -0.000000000000028422 -2.998889 C -0.796875 -2.998889 -1.559375 -2.683264 -2.121875 -2.120764 C -2.684375 -1.558264 -3 -0.795764 -3 0.001111 C -3 0.794861 -2.684375 1.557361 -2.121875 2.119861 C -1.559375 2.682361 -0.796875 3.001111 -0.000000000000028422 3.001111 Z M -0.000000000000028422 3.001111 " transform="matrix(1.25,0,0,1.25,119.09375,82.346268)"/>
<path style="fill-rule:nonzero;fill:rgb(100%,49.803922%,5.490196%);fill-opacity:1;stroke-width:1;stroke-linecap:butt;stroke-linejoin:round;stroke:rgb(100%,49.803922%,5.490196%);stroke-opacity:1;stroke-miterlimit:4;" d="M 0.00025 2.999695 C 0.797125 2.999695 1.559625 2.68407 2.122125 2.12157 C 2.684625 1.55907 3.00025 0.79657 3.00025 -0.000305 C 3.00025 -0.794055 2.684625 -1.55968 2.122125 -2.12218 C 1.559625 -2.68468 0.797125 -3.000305 0.00025 -3.000305 C -0.796625 -3.000305 -1.559125 -2.68468 -2.121625 -2.12218 C -2.684125 -1.55968 -2.99975 -0.794055 -2.99975 -0.000305 C -2.99975 0.79657 -2.684125 1.55907 -2.121625 2.12157 C -1.559125 2.68407 -0.796625 2.999695 0.00025 2.999695 Z M 0.00025 2.999695 " transform="matrix(1.25,0,0,1.25,139.234063,82.715225)"/>
<path style="fill-rule:nonzero;fill:rgb(100%,49.803922%,5.490196%);fill-opacity:1;stroke-width:1;stroke-linecap:butt;stroke-linejoin:round;stroke:rgb(100%,49.803922%,5.490196%);stroke-opacity:1;stroke-miterlimit:4;" d="M -0.000405 3.000427 C 0.79647 3.000427 1.55897 2.684802 2.12147 2.122302 C 2.68397 1.559802 2.999595 0.794177 2.999595 0.000427 C 2.999595 -0.796448 2.68397 -1.558948 2.12147 -2.121448 C 1.55897 -2.683948 0.79647 -2.999573 -0.000405 -2.999573 C -0.794155 -2.999573 -1.55978 -2.683948 -2.12228 -2.121448 C -2.68478 -1.558948 -3.000405 -0.796448 -3.000405 0.000427 C -3.000405 0.794177 -2.68478 1.559802 -2.12228 2.122302 C -1.55978 2.684802 -0.794155 3.000427 -0.000405 3.000427 Z M -0.000405 3.000427 " transform="matrix(1.25,0,0,1.25,156.957538,82.198685)"/>
<path style="fill-rule:nonzero;fill:rgb(100%,49.803922%,5.490196%);fill-opacity:1;stroke-width:1;stroke-linecap:butt;stroke-linejoin:round;stroke:rgb(100%,49.803922%,5.490196%);stroke-opacity:1;stroke-miterlimit:4;" d="M 0.000393 3.000027 C 0.794143 3.000027 1.559768 2.684402 2.122268 2.121902 C 2.684768 1.559402 3.000393 0.796902 3.000393 0.000027 C 3.000393 -0.796848 2.684768 -1.559348 2.122268 -2.121848 C 1.559768 -2.684348 0.794143 -2.999973 0.000393 -2.999973 C -0.796482 -2.999973 -1.558982 -2.684348 -2.121482 -2.121848 C -2.683982 -1.559348 -2.999607 -0.796848 -2.999607 0.000027 C -2.999607 0.796902 -2.683982 1.559402 -2.121482 2.121902 C -1.558982 2.684402 -0.796482 3.000027 0.000393 3.000027 Z M 0.000393 3.000027 " transform="matrix(1.25,0,0,1.25,172.554196,82.921841)"/>
<path style="fill-rule:nonzero;fill:rgb(100%,49.803922%,5.490196%);fill-opacity:1;stroke-width:1;stroke-linecap:butt;stroke-linejoin:round;stroke:rgb(100%,49.803922%,5.490196%);stroke-opacity:1;stroke-miterlimit:4;" d="M -0.001529 3.000587 C 0.795346 3.000587 1.557846 2.684962 2.120346 2.122462 C 2.682846 1.559962 2.998471 0.794337 2.998471 0.000587 C 2.998471 -0.796288 2.682846 -1.558788 2.120346 -2.121288 C 1.557846 -2.683788 0.795346 -2.999413 -0.001529 -2.999413 C -0.795279 -2.999413 -1.557779 -2.683788 -2.120279 -2.121288 C -2.682779 -1.558788 -3.001529 -0.796288 -3.001529 0.000587 C -3.001529 0.794337 -2.682779 1.559962 -2.120279 2.122462 C -1.557779 2.684962 -0.795279 3.000587 -0.001529 3.000587 Z M -0.001529 3.000587 " transform="matrix(1.25,0,0,1.25,186.279255,81.909423)"/>
<path style="fill-rule:nonzero;fill:rgb(100%,49.803922%,5.490196%);fill-opacity:1;stroke-width:1;stroke-linecap:butt;stroke-linejoin:round;stroke:rgb(100%,49.803922%,5.490196%);stroke-opacity:1;stroke-miterlimit:4;" d="M -0.001471 3.001053 C 0.795404 3.001053 1.557904 2.685428 2.120404 2.119803 C 2.682904 1.557303 2.998529 0.794803 2.998529 0.001053 C 2.998529 -0.795822 2.682904 -1.558322 2.120404 -2.120822 C 1.557904 -2.683322 0.795404 -2.998947 -0.001471 -2.998947 C -0.795221 -2.998947 -1.557721 -2.683322 -2.120221 -2.120822 C -2.682721 -1.558322 -3.001471 -0.795822 -3.001471 0.001053 C -3.001471 0.794803 -2.682721 1.557303 -2.120221 2.119803 C -1.557721 2.685428 -0.795221 3.001053 -0.001471 3.001053 Z M -0.001471 3.001053 " transform="matrix(1.25,0,0,1.25,198.357308,83.326809)"/>
<path style="fill-rule:nonzero;fill:rgb(100%,49.803922%,5.490196%);fill-opacity:1;stroke-width:1;stroke-linecap:butt;stroke-linejoin:round;stroke:rgb(100%,49.803922%,5.490196%);stroke-opacity:1;stroke-miterlimit:4;" d="M -0.001294 3.001025 C 0.795581 3.001025 1.558081 2.6854 2.120581 2.119775 C 2.683081 1.557275 2.998706 0.794775 2.998706 0.001025 C 2.998706 -0.79585 2.683081 -1.55835 2.120581 -2.12085 C 1.558081 -2.68335 0.795581 -2.998975 -0.001294 -2.998975 C -0.795044 -2.998975 -1.557544 -2.68335 -2.120044 -2.12085 C -2.682544 -1.55835 -3.001294 -0.79585 -3.001294 0.001025 C -3.001294 0.794775 -2.682544 1.557275 -2.120044 2.119775 C -1.557544 2.6854 -0.795044 3.001025 -0.001294 3.001025 Z M -0.001294 3.001025 " transform="matrix(1.25,0,0,1.25,208.985993,81.342469)"/>
<path style="fill-rule:nonzero;fill:rgb(100%,49.803922%,5.490196%);fill-opacity:1;stroke-width:1;stroke-linecap:butt;stroke-linejoin:round;stroke:rgb(100%,49.803922%,5.490196%);stroke-opacity:1;stroke-miterlimit:4;" d="M 0.000486 3.00044 C 0.794236 3.00044 1.559861 2.684815 2.122361 2.122315 C 2.684861 1.559815 3.000486 0.79419 3.000486 0.00044 C 3.000486 -0.796435 2.684861 -1.558935 2.122361 -2.121435 C 1.559861 -2.683935 0.794236 -2.99956 0.000486 -2.99956 C -0.796389 -2.99956 -1.558889 -2.683935 -2.121389 -2.121435 C -2.683889 -1.558935 -2.999514 -0.796435 -2.999514 0.00044 C -2.999514 0.79419 -2.683889 1.559815 -2.121389 2.122315 C -1.558889 2.684815 -0.796389 3.00044 0.000486 3.00044 Z M 0.000486 3.00044 " transform="matrix(1.25,0,0,1.25,218.339236,84.120544)"/>
<path style="fill-rule:nonzero;fill:rgb(100%,49.803922%,5.490196%);fill-opacity:1;stroke-width:1;stroke-linecap:butt;stroke-linejoin:round;stroke:rgb(100%,49.803922%,5.490196%);stroke-opacity:1;stroke-miterlimit:4;" d="M 0.000178 2.999385 C 0.797053 2.999385 1.559553 2.68376 2.122053 2.12126 C 2.684553 1.55876 3.000178 0.79626 3.000178 -0.000615 C 3.000178 -0.794365 2.684553 -1.55999 2.122053 -2.12249 C 1.559553 -2.68499 0.797053 -3.000615 0.000178 -3.000615 C -0.796697 -3.000615 -1.559197 -2.68499 -2.121697 -2.12249 C -2.684197 -1.55999 -2.999822 -0.794365 -2.999822 -0.000615 C -2.999822 0.79626 -2.684197 1.55876 -2.121697 2.12126 C -1.559197 2.68376 -0.796697 2.999385 0.000178 2.999385 Z M 0.000178 2.999385 " transform="matrix(1.25,0,0,1.25,226.57009,80.231237)"/>
<path style="fill-rule:nonzero;fill:rgb(100%,49.803922%,5.490196%);fill-opacity:1;stroke-width:1;stroke-linecap:butt;stroke-linejoin:round;stroke:rgb(100%,49.803922%,5.490196%);stroke-opacity:1;stroke-miterlimit:4;" d="M -0.000594 2.999611 C 0.796281 2.999611 1.558781 2.683986 2.121281 2.121486 C 2.683781 1.558986 2.999406 0.796486 2.999406 -0.000389 C 2.999406 -0.794139 2.683781 -1.559764 2.121281 -2.122264 C 1.558781 -2.684764 0.796281 -3.000389 -0.000594 -3.000389 C -0.794344 -3.000389 -1.559969 -2.684764 -2.122469 -2.122264 C -2.684969 -1.559764 -3.000594 -0.794139 -3.000594 -0.000389 C -3.000594 0.796486 -2.684969 1.558986 -2.122469 2.121486 C -1.559969 2.683986 -0.794344 2.999611 -0.000594 2.999611 Z M -0.000594 2.999611 " transform="matrix(1.25,0,0,1.25,233.813243,85.676268)"/>
<path style="fill-rule:nonzero;fill:rgb(100%,49.803922%,5.490196%);fill-opacity:1;stroke-width:1;stroke-linecap:butt;stroke-linejoin:round;stroke:rgb(100%,49.803922%,5.490196%);stroke-opacity:1;stroke-miterlimit:4;" d="M 0.000227 3.001169 C 0.797102 3.001169 1.559602 2.682419 2.122102 2.119919 C 2.684602 1.557419 3.000227 0.794919 3.000227 0.001169 C 3.000227 -0.795706 2.684602 -1.558206 2.122102 -2.120706 C 1.559602 -2.683206 0.797102 -2.998831 0.000227 -2.998831 C -0.796648 -2.998831 -1.559148 -2.683206 -2.121648 -2.120706 C -2.684148 -1.558206 -2.999773 -0.795706 -2.999773 0.001169 C -2.999773 0.794919 -2.684148 1.557419 -2.121648 2.119919 C -1.559148 2.682419 -0.796648 3.001169 0.000227 3.001169 Z M 0.000227 3.001169 " transform="matrix(1.25,0,0,1.25,240.187216,78.053226)"/>
<path style="fill-rule:nonzero;fill:rgb(100%,49.803922%,5.490196%);fill-opacity:1;stroke-width:1;stroke-linecap:butt;stroke-linejoin:round;stroke:rgb(100%,49.803922%,5.490196%);stroke-opacity:1;stroke-miterlimit:4;" d="M 0.00045 3.000863 C 0.7942 3.000863 1.559825 2.685238 2.122325 2.122738 C 2.684825 1.560238 3.00045 0.794613 3.00045 0.000863 C 3.00045 -0.796012 2.684825 -1.558512 2.122325 -2.121012 C 1.559825 -2.683512 0.7942 -2.999137 0.00045 -2.999137 C -0.796425 -2.999137 -1.558925 -2.683512 -2.121425 -2.121012 C -2.683925 -1.558512 -2.99955 -0.796012 -2.99955 0.000863 C -2.99955 0.794613 -2.683925 1.560238 -2.121425 2.122738 C -1.558925 2.685238 -0.796425 3.000863 0.00045 3.000863 Z M 0.00045 3.000863 " transform="matrix(1.25,0,0,1.25,245.796313,88.725484)"/>
<path style="fill-rule:nonzero;fill:rgb(100%,49.803922%,5.490196%);fill-opacity:1;stroke-width:1;stroke-linecap:butt;stroke-linejoin:round;stroke:rgb(100%,49.803922%,5.490196%);stroke-opacity:1;stroke-miterlimit:4;" d="M -0.001479 3.000666 C 0.795396 3.000666 1.557896 2.685041 2.120396 2.122541 C 2.682896 1.560041 2.998521 0.794416 2.998521 0.000666 C 2.998521 -0.796209 2.682896 -1.558709 2.120396 -2.121209 C 1.557896 -2.683709 0.795396 -2.999334 -0.001479 -2.999334 C -0.795229 -2.999334 -1.557729 -2.683709 -2.120229 -2.121209 C -2.682729 -1.558709 -3.001479 -0.796209 -3.001479 0.000666 C -3.001479 0.794416 -2.682729 1.560041 -2.120229 2.122541 C -1.557729 2.685041 -0.795229 3.000666 -0.001479 3.000666 Z M -0.001479 3.000666 " transform="matrix(1.25,0,0,1.25,250.732318,73.784324)"/>
<path style="fill-rule:nonzero;fill:rgb(100%,49.803922%,5.490196%);fill-opacity:1;stroke-width:1;stroke-linecap:butt;stroke-linejoin:round;stroke:rgb(100%,49.803922%,5.490196%);stroke-opacity:1;stroke-miterlimit:4;" d="M -0.001427 3.000942 C 0.795448 3.000942 1.557948 2.685317 2.120448 2.122817 C 2.682948 1.557192 2.998573 0.794692 2.998573 0.000942 C 2.998573 -0.795933 2.682948 -1.558433 2.120448 -2.120933 C 1.557948 -2.683433 0.795448 -2.999058 -0.001427 -2.999058 C -0.795177 -2.999058 -1.557677 -2.683433 -2.120177 -2.120933 C -2.682677 -1.558433 -3.001427 -0.795933 -3.001427 0.000942 C -3.001427 0.794692 -2.682677 1.557192 -2.120177 2.122817 C -1.557677 2.685317 -0.795177 3.000942 -0.001427 3.000942 Z M -0.001427 3.000942 " transform="matrix(1.25,0,0,1.25,255.076003,94.701947)"/>
<path style="fill-rule:nonzero;fill:rgb(100%,49.803922%,5.490196%);fill-opacity:1;stroke-width:1;stroke-linecap:butt;stroke-linejoin:round;stroke:rgb(100%,49.803922%,5.490196%);stroke-opacity:1;stroke-miterlimit:4;" d="M -0.000005 3.000556 C 0.79687 3.000556 1.55937 2.684931 2.12187 2.122431 C 2.68437 1.559931 2.999995 0.794306 2.999995 0.000556 C 2.999995 -0.796319 2.68437 -1.558819 2.12187 -2.121319 C 1.55937 -2.683819 0.79687 -2.999444 -0.000005 -2.999444 C -0.79688 -2.999444 -1.55938 -2.683819 -2.12188 -2.121319 C -2.68438 -1.558819 -3.000005 -0.796319 -3.000005 0.000556 C -3.000005 0.794306 -2.68438 1.559931 -2.12188 2.122431 C -1.55938 2.684931 -0.79688 3.000556 -0.000005 3.000556 Z M -0.000005 3.000556 " transform="matrix(1.25,0,0,1.25,258.898444,65.417274)"/>
<path style="fill-rule:nonzero;fill:rgb(100%,49.803922%,5.490196%);fill-opacity:1;stroke-width:1;stroke-linecap:butt;stroke-linejoin:round;stroke:rgb(100%,49.803922%,5.490196%);stroke-opacity:1;stroke-miterlimit:4;" d="M -0.00038 2.998597 C 0.796495 2.998597 1.558995 2.682972 2.121495 2.120472 C 2.683995 1.557972 2.99962 0.795472 2.99962 -0.001403 C 2.99962 -0.795153 2.683995 -1.557653 2.121495 -2.120153 C 1.558995 -2.682653 0.796495 -3.001403 -0.00038 -3.001403 C -0.79413 -3.001403 -1.559755 -2.682653 -2.122255 -2.120153 C -2.684755 -1.557653 -3.00038 -0.795153 -3.00038 -0.001403 C -3.00038 0.795472 -2.684755 1.557972 -2.122255 2.120472 C -1.559755 2.682972 -0.79413 2.998597 -0.00038 2.998597 Z M -0.00038 2.998597 " transform="matrix(1.25,0,0,1.25,262.262194,106.415816)"/>
<path style="fill-rule:nonzero;fill:rgb(100%,49.803922%,5.490196%);fill-opacity:1;stroke-width:1;stroke-linecap:butt;stroke-linejoin:round;stroke:rgb(100%,49.803922%,5.490196%);stroke-opacity:1;stroke-miterlimit:4;" d="M 0.000291 3.001339 C 0.797166 3.001339 1.559666 2.682589 2.122166 2.120089 C 2.684666 1.557589 3.000291 0.795089 3.000291 0.001339 C 3.000291 -0.795536 2.684666 -1.558036 2.122166 -2.120536 C 1.559666 -2.683036 0.797166 -2.998661 0.000291 -2.998661 C -0.796584 -2.998661 -1.559084 -2.683036 -2.121584 -2.120536 C -2.684084 -1.558036 -2.999709 -0.795536 -2.999709 0.001339 C -2.999709 0.795089 -2.684084 1.557589 -2.121584 2.120089 C -1.559084 2.682589 -0.796584 3.001339 0.000291 3.001339 Z M 0.000291 3.001339 " transform="matrix(1.25,0,0,1.25,265.222292,49.017858)"/>
<path style="fill-rule:nonzero;fill:rgb(100%,49.803922%,5.490196%);fill-opacity:1;stroke-width:1;stroke-linecap:butt;stroke-linejoin:round;stroke:rgb(100%,49.803922%,5.490196%);stroke-opacity:1;stroke-miterlimit:4;" d="M 0.000756 3 C 0.794506 3 1.560131 2.684375 2.122631 2.121875 C 2.685131 1.559375 3.000756 0.796875 3.000756 0 C 3.000756 -0.796875 2.685131 -1.559375 2.122631 -2.121875 C 1.560131 -2.684375 0.794506 -3 0.000756 -3 C -0.796119 -3 -1.558619 -2.684375 -2.121119 -2.121875 C -2.683619 -1.559375 -2.999244 -0.796875 -2.999244 0 C -2.999244 0.796875 -2.683619 1.559375 -2.121119 2.121875 C -1.558619 2.684375 -0.796119 3 0.000756 3 Z M 0.000756 3 " transform="matrix(1.25,0,0,1.25,267.82718,129.375)"/>
<path style="fill-rule:nonzero;fill:rgb(100%,49.803922%,5.490196%);fill-opacity:1;stroke-width:1;stroke-linecap:butt;stroke-linejoin:round;stroke:rgb(100%,49.803922%,5.490196%);stroke-opacity:1;stroke-miterlimit:4;" d="M 0.00129 3 C 0.79504 3 1.55754 2.684375 2.12004 2.121875 C 2.68254 1.559375 3.00129 0.796875 3.00129 0 C 3.00129 -0.796875 2.68254 -1.559375 2.12004 -2.121875 C 1.55754 -2.684375 0.79504 -3 0.00129 -3 C -0.795585 -3 -1.558085 -2.684375 -2.120585 -2.121875 C -2.683085 -1.559375 -2.99871 -0.796875 -2.99871 0 C -2.99871 0.796875 -2.683085 1.559375 -2.120585 2.121875 C -1.558085 2.684375 -0.795585 3 0.00129 3 Z M 0.00129 3 " transform="matrix(1.25,0,0,1.25,270.119481,16.875)"/>
<path style="fill-rule:nonzero;fill:rgb(100%,49.803922%,5.490196%);fill-opacity:1;stroke-width:1;stroke-linecap:butt;stroke-linejoin:round;stroke:rgb(100%,49.803922%,5.490196%);stroke-opacity:1;stroke-miterlimit:4;" d="M 0.00001 3 C 0.796885 3 1.559385 2.684375 2.121885 2.121875 C 2.684385 1.559375 3.00001 0.796875 3.00001 0 C 3.00001 -0.796875 2.684385 -1.559375 2.121885 -2.121875 C 1.559385 -2.684375 0.796885 -3 0.00001 -3 C -0.796865 -3 -1.559365 -2.684375 -2.121865 -2.121875 C -2.684365 -1.559375 -2.99999 -0.796875 -2.99999 0 C -2.99999 0.796875 -2.684365 1.559375 -2.121865 2.121875 C -1.559365 2.684375 -0.796865 3 0.00001 3 Z M 0.00001 3 " transform="matrix(1.25,0,0,1.25,272.136706,174.375)"/>
<g clip-path="url(#clip1)" clip-rule="nonzero">
<path style="fill:none;stroke-width:1.5;stroke-linecap:butt;stroke-linejoin:round;stroke:rgb(12.156863%,46.666667%,70.588235%);stroke-opacity:1;stroke-miterlimit:4;" d="M 116.1875 65.959375 L 113.584375 65.9625 L 107.48125 65.9625 L 104.43125 65.965625 L 98.328125 65.965625 L 95.275 65.96875 L 92.225 65.96875 L 89.171875 65.971875 L 86.121875 65.971875 L 83.840625 65.975 L 80.015625 65.975 L 73.915625 65.98125 L 71.575 65.98125 L 70.8625 65.984375 L 67.809375 65.9875 L 67.496875 65.9875 L 64.759375 65.990625 L 64.646875 65.990625 L 62.96875 65.996875 L 62.40625 66 L 62.96875 66.003125 L 64.646875 66.009375 L 64.759375 66.009375 L 67.496875 66.0125 L 67.809375 66.0125 L 70.8625 66.015625 L 71.575 66.01875 L 73.915625 66.01875 L 80.015625 66.025 L 83.840625 66.025 L 86.121875 66.028125 L 89.171875 66.028125 L 92.225 66.03125 L 95.275 66.03125 L 98.328125 66.034375 L 104.43125 66.034375 L 107.48125 66.0375 L 113.584375 66.0375 L 116.1875 66.040625 L 125.790625 66.040625 L 128.840625 66.04375 L 137.996875 66.04375 L 141.05 66.046875 L 156.30625 66.046875 L 159.359375 66.05 L 180.71875 66.05 L 183.771875 66.053125 L 257.00625 66.053125 " transform="matrix(1.25,0,0,1.25,0.000000000000028422,0)"/>
<path style="fill:none;stroke-width:1.5;stroke-linecap:butt;stroke-linejoin:round;stroke:rgb(12.156863%,46.666667%,70.588235%);stroke-opacity:1;stroke-miterlimit:4;" d="M 61.70625 66.053125 L 64.759375 66.053125 L 67.809375 66.05625 L 73.915625 66.05625 L 76.965625 66.059375 L 86.121875 66.059375 L 89.171875 66.0625 L 101.378125 66.0625 L 104.43125 66.065625 L 116.634375 66.065625 L 119.6875 66.06875 L 139.03125 66.06875 L 141.05 66.071875 L 165.4625 66.071875 L 168.5125 66.075 L 257.00625 66.075 " transform="matrix(1.25,0,0,1.25,0.000000000000028422,0)"/>
<path style="fill:none;stroke-width:1.5;stroke-linecap:butt;stroke-linejoin:round;stroke:rgb(12.156863%,46.666667%,70.588235%);stroke-opacity:1;stroke-miterlimit:4;" d="M 61.70625 66.075 L 64.759375 66.078125 L 76.965625 66.078125 L 80.015625 66.08125 L 95.275 66.08125 L 98.328125 66.084375 L 116.634375 66.084375 L 119.6875 66.0875 L 144.1 66.0875 L 147.153125 66.090625 L 186.821875 66.090625 L 188.63125 66.09375 L 257.00625 66.09375 " transform="matrix(1.25,0,0,1.25,0.000000000000028422,0)"/>
<path style="fill:none;stroke-width:1.5;stroke-linecap:butt;stroke-linejoin:round;stroke:rgb(12.156863%,46.666667%,70.588235%);stroke-opacity:1;stroke-miterlimit:4;" d="M 61.70625 66.09375 L 73.915625 66.09375 L 76.965625 66.096875 L 92.225 66.096875 L 95.275 66.1 L 116.634375 66.1 L 119.6875 66.103125 L 150.203125 66.103125 L 153.25625 66.10625 L 257.00625 66.10625 " transform="matrix(1.25,0,0,1.25,0.000000000000028422,0)"/>
<path style="fill:none;stroke-width:1.5;stroke-linecap:butt;stroke-linejoin:round;stroke:rgb(12.156863%,46.666667%,70.588235%);stroke-opacity:1;stroke-miterlimit:4;" d="M 61.70625 66.10625 L 64.759375 66.109375 L 83.06875 66.109375 L 86.121875 66.1125 L 110.53125 66.1125 L 112.15625 66.115625 L 144.1 66.115625 L 147.153125 66.11875 L 257.00625 66.11875 " transform="matrix(1.25,0,0,1.25,0.000000000000028422,0)"/>
</g>
<g clip-path="url(#clip2)" clip-rule="nonzero">
<path style="fill:none;stroke-width:1.5;stroke-linecap:butt;stroke-linejoin:round;stroke:rgb(12.156863%,46.666667%,70.588235%);stroke-opacity:1;stroke-miterlimit:4;" d="M 61.70625 66.11875 L 64.759375 66.121875 L 86.121875 66.121875 L 89.171875 66.125 L 113.584375 66.125 L 116.634375 66.128125 L 156.30625 66.128125 L 159.359375 66.13125 L 229.54375 66.13125 " transform="matrix(1.25,0,0,1.25,0.000000000000028422,0)"/>
</g>
<g clip-path="url(#clip3)" clip-rule="nonzero">
<path style="fill:none;stroke-width:1.5;stroke-linecap:butt;stroke-linejoin:round;stroke:rgb(12.156863%,46.666667%,70.588235%);stroke-opacity:1;stroke-miterlimit:4;" d="M 229.54375 66.13125 L 257.00625 66.13125 " transform="matrix(1.25,0,0,1.25,0.000000000000028422,0)"/>
</g>
<g clip-path="url(#clip4)" clip-rule="nonzero">
<path style="fill:none;stroke-width:1.5;stroke-linecap:butt;stroke-linejoin:round;stroke:rgb(12.156863%,46.666667%,70.588235%);stroke-opacity:1;stroke-miterlimit:4;" d="M 61.70625 66.13125 L 62.40625 66.13125 " transform="matrix(1.25,0,0,1.25,0.000000000000028422,0)"/>
</g>
<path style="fill:none;stroke-width:0.8;stroke-linecap:square;stroke-linejoin:miter;stroke:rgb(0%,0%,0%);stroke-opacity:1;stroke-miterlimit:4;" d="M 61.709375 145.8 L 61.709375 7.2 " transform="matrix(1.25,0,0,1.25,0.000000000000028422,0)"/>
<path style="fill:none;stroke-width:0.8;stroke-linecap:square;stroke-linejoin:miter;stroke:rgb(0%,0%,0%);stroke-opacity:1;stroke-miterlimit:4;" d="M 257.00625 145.8 L 257.00625 7.2 " transform="matrix(1.25,0,0,1.25,0.000000000000028422,0)"/>
<path style="fill:none;stroke-width:0.8;stroke-linecap:square;stroke-linejoin:miter;stroke:rgb(0%,0%,0%);stroke-opacity:1;stroke-miterlimit:4;" d="M 61.70625 145.8 L 257.00625 145.8 " transform="matrix(1.25,0,0,1.25,0.000000000000028422,0)"/>
<path style="fill:none;stroke-width:0.8;stroke-linecap:square;stroke-linejoin:miter;stroke:rgb(0%,0%,0%);stroke-opacity:1;stroke-miterlimit:4;" d="M 61.70625 7.2 L 257.00625 7.2 " transform="matrix(1.25,0,0,1.25,0.000000000000028422,0)"/>
</g>
</svg>
