<?xml version="1.0" encoding="UTF-8"?>
<svg xmlns="http://www.w3.org/2000/svg" xmlns:xlink="http://www.w3.org/1999/xlink" width="510pt" height="159pt" viewBox="0 0 510 159" version="1.1">
<g id="surface1">
<path style="fill-rule:nonzero;fill:rgb(40%,74.901961%,100%);fill-opacity:1;stroke-width:1;stroke-linecap:round;stroke-linejoin:round;stroke:rgb(0%,0%,0%);stroke-opacity:1;stroke-miterlimit:10;" d="M 68 339 L 134 339 L 134 363 L 68 363 Z M 68 339 " transform="matrix(1.25,0,0,1.25,12.5,-422.5)"/>
<path style=" stroke:none;fill-rule:nonzero;fill:rgb(0%,0%,0%);fill-opacity:1;" d="M 113.792969 16.90625 C 113.792969 15.828125 114.09375 15.027344 114.691406 14.503906 C 115.199219 14.074219 115.8125 13.859375 116.527344 13.859375 C 117.335938 13.859375 117.992188 14.121094 118.5 14.640625 C 119.007812 15.164062 119.261719 15.886719 119.261719 16.808594 C 119.261719 17.566406 119.144531 18.15625 118.910156 18.585938 C 118.6875 19.015625 118.363281 19.355469 117.933594 19.601562 C 117.503906 19.835938 117.035156 19.953125 116.527344 19.953125 C 115.707031 19.953125 115.042969 19.695312 114.535156 19.171875 C 114.039062 18.640625 113.792969 17.882812 113.792969 16.90625 Z M 114.808594 16.90625 C 114.808594 17.648438 114.972656 18.210938 115.296875 18.585938 C 115.621094 18.953125 116.03125 19.132812 116.527344 19.132812 C 117.023438 19.132812 117.433594 18.953125 117.757812 18.585938 C 118.082031 18.210938 118.246094 17.636719 118.246094 16.867188 C 118.246094 16.152344 118.082031 15.605469 117.757812 15.226562 C 117.433594 14.851562 117.023438 14.660156 116.527344 14.660156 C 116.03125 14.660156 115.621094 14.851562 115.296875 15.226562 C 114.972656 15.59375 114.808594 16.152344 114.808594 16.90625 Z M 114.808594 16.90625 "/>
<path style=" stroke:none;fill-rule:nonzero;fill:rgb(0%,0%,0%);fill-opacity:1;" d="M 120.421875 19.816406 L 120.421875 13.976562 L 121.320312 13.976562 L 121.320312 14.816406 C 121.738281 14.179688 122.355469 13.859375 123.175781 13.859375 C 123.527344 13.859375 123.847656 13.925781 124.132812 14.054688 C 124.433594 14.171875 124.652344 14.335938 124.796875 14.542969 C 124.941406 14.738281 125.042969 14.980469 125.109375 15.265625 C 125.148438 15.449219 125.167969 15.769531 125.167969 16.222656 L 125.167969 19.816406 L 124.171875 19.816406 L 124.171875 16.261719 C 124.171875 15.859375 124.132812 15.558594 124.054688 15.363281 C 123.976562 15.167969 123.839844 15.011719 123.644531 14.894531 C 123.449219 14.765625 123.222656 14.699219 122.960938 14.699219 C 122.542969 14.699219 122.179688 14.835938 121.867188 15.109375 C 121.566406 15.371094 121.417969 15.878906 121.417969 16.632812 L 121.417969 19.816406 Z M 120.421875 19.816406 "/>
<path style=" stroke:none;fill-rule:nonzero;fill:rgb(0%,0%,0%);fill-opacity:1;" d="M 130.664062 17.941406 L 131.699219 18.058594 C 131.527344 18.660156 131.222656 19.128906 130.78125 19.464844 C 130.351562 19.792969 129.796875 19.953125 129.121094 19.953125 C 128.273438 19.953125 127.597656 19.695312 127.089844 19.171875 C 126.59375 18.640625 126.347656 17.898438 126.347656 16.945312 C 126.347656 15.96875 126.601562 15.214844 127.109375 14.679688 C 127.617188 14.132812 128.273438 13.859375 129.082031 13.859375 C 129.863281 13.859375 130.492188 14.128906 130.976562 14.660156 C 131.46875 15.183594 131.71875 15.925781 131.71875 16.886719 C 131.71875 16.953125 131.71875 17.042969 131.71875 17.160156 L 127.363281 17.160156 C 127.402344 17.800781 127.582031 18.289062 127.910156 18.625 C 128.234375 18.964844 128.644531 19.132812 129.140625 19.132812 C 129.503906 19.132812 129.808594 19.042969 130.058594 18.859375 C 130.316406 18.664062 130.519531 18.359375 130.664062 17.941406 Z M 127.421875 16.339844 L 130.683594 16.339844 C 130.644531 15.847656 130.519531 15.476562 130.3125 15.226562 C 130 14.851562 129.589844 14.660156 129.082031 14.660156 C 128.625 14.660156 128.242188 14.816406 127.929688 15.128906 C 127.628906 15.429688 127.460938 15.832031 127.421875 16.339844 Z M 127.421875 16.339844 "/>
<path style=" stroke:none;fill-rule:nonzero;fill:rgb(0%,0%,0%);fill-opacity:1;" d="M 132.546875 18.078125 L 133.523438 17.921875 C 133.574219 18.3125 133.722656 18.613281 133.972656 18.820312 C 134.230469 19.03125 134.582031 19.132812 135.027344 19.132812 C 135.480469 19.132812 135.820312 19.042969 136.042969 18.859375 C 136.261719 18.679688 136.375 18.464844 136.375 18.214844 C 136.375 17.980469 136.277344 17.804688 136.082031 17.6875 C 135.9375 17.597656 135.597656 17.480469 135.066406 17.335938 C 134.335938 17.15625 133.828125 17 133.542969 16.867188 C 133.269531 16.738281 133.058594 16.554688 132.917969 16.320312 C 132.773438 16.085938 132.703125 15.828125 132.703125 15.539062 C 132.703125 15.28125 132.761719 15.039062 132.878906 14.816406 C 132.996094 14.597656 133.15625 14.40625 133.367188 14.25 C 133.523438 14.148438 133.730469 14.054688 133.992188 13.976562 C 134.265625 13.898438 134.550781 13.859375 134.851562 13.859375 C 135.304688 13.859375 135.703125 13.925781 136.042969 14.054688 C 136.394531 14.1875 136.652344 14.363281 136.824219 14.582031 C 136.992188 14.804688 137.109375 15.105469 137.175781 15.480469 L 136.199219 15.617188 C 136.160156 15.320312 136.027344 15.085938 135.808594 14.914062 C 135.597656 14.746094 135.304688 14.660156 134.929688 14.660156 C 134.472656 14.660156 134.148438 14.738281 133.953125 14.894531 C 133.757812 15.039062 133.660156 15.214844 133.660156 15.421875 C 133.660156 15.554688 133.699219 15.664062 133.777344 15.753906 C 133.855469 15.871094 133.984375 15.964844 134.167969 16.027344 C 134.257812 16.066406 134.542969 16.152344 135.027344 16.28125 C 135.730469 16.464844 136.21875 16.613281 136.492188 16.730469 C 136.777344 16.847656 137 17.023438 137.15625 17.257812 C 137.3125 17.480469 137.390625 17.761719 137.390625 18.097656 C 137.390625 18.4375 137.292969 18.75 137.097656 19.035156 C 136.902344 19.324219 136.621094 19.550781 136.257812 19.71875 C 135.90625 19.875 135.496094 19.953125 135.027344 19.953125 C 134.269531 19.953125 133.691406 19.796875 133.289062 19.484375 C 132.898438 19.160156 132.648438 18.691406 132.546875 18.078125 Z M 132.546875 18.078125 "/>
<path style=" stroke:none;fill-rule:nonzero;fill:rgb(0%,0%,0%);fill-opacity:1;" d="M 140.457031 22.179688 C 139.910156 21.484375 139.445312 20.683594 139.070312 19.777344 C 138.691406 18.855469 138.503906 17.898438 138.503906 16.90625 C 138.503906 16.035156 138.644531 15.195312 138.933594 14.386719 C 139.257812 13.464844 139.765625 12.546875 140.457031 11.632812 L 141.160156 11.632812 C 140.714844 12.390625 140.421875 12.929688 140.28125 13.253906 C 140.058594 13.761719 139.882812 14.289062 139.753906 14.835938 C 139.597656 15.527344 139.519531 16.21875 139.519531 16.90625 C 139.519531 18.664062 140.066406 20.421875 141.160156 22.179688 Z M 140.457031 22.179688 "/>
<path style=" stroke:none;fill-rule:nonzero;fill:rgb(0%,0%,0%);fill-opacity:1;" d="M 145.765625 19.816406 L 144.769531 19.816406 L 144.769531 13.507812 C 144.535156 13.742188 144.222656 13.976562 143.832031 14.210938 C 143.441406 14.433594 143.09375 14.597656 142.796875 14.699219 L 142.796875 13.742188 C 143.34375 13.496094 143.824219 13.191406 144.242188 12.824219 C 144.65625 12.449219 144.949219 12.082031 145.121094 11.730469 L 145.765625 11.730469 Z M 145.765625 19.816406 "/>
<path style=" stroke:none;fill-rule:nonzero;fill:rgb(0%,0%,0%);fill-opacity:1;" d="M 148.820312 19.816406 L 148.820312 18.683594 L 149.953125 18.683594 L 149.953125 19.816406 C 149.953125 20.230469 149.875 20.5625 149.71875 20.8125 C 149.570312 21.070312 149.347656 21.269531 149.035156 21.417969 L 148.761719 20.988281 C 148.964844 20.894531 149.117188 20.757812 149.210938 20.578125 C 149.3125 20.40625 149.371094 20.152344 149.386719 19.816406 Z M 148.820312 19.816406 "/>
<path style=" stroke:none;fill-rule:nonzero;fill:rgb(0%,0%,0%);fill-opacity:1;" d="M 159.738281 18.859375 L 159.738281 19.816406 L 154.40625 19.816406 C 154.40625 19.582031 154.445312 19.355469 154.523438 19.132812 C 154.664062 18.769531 154.886719 18.410156 155.1875 18.058594 C 155.484375 17.707031 155.914062 17.304688 156.476562 16.847656 C 157.347656 16.121094 157.933594 15.546875 158.234375 15.128906 C 158.546875 14.714844 158.703125 14.316406 158.703125 13.9375 C 158.703125 13.546875 158.558594 13.222656 158.273438 12.960938 C 158 12.6875 157.640625 12.550781 157.199219 12.550781 C 156.714844 12.550781 156.332031 12.695312 156.046875 12.980469 C 155.757812 13.269531 155.617188 13.664062 155.617188 14.171875 L 154.601562 14.054688 C 154.664062 13.300781 154.925781 12.726562 155.382812 12.335938 C 155.835938 11.933594 156.449219 11.730469 157.21875 11.730469 C 157.984375 11.730469 158.589844 11.945312 159.035156 12.375 C 159.488281 12.804688 159.71875 13.332031 159.71875 13.957031 C 159.71875 14.285156 159.652344 14.601562 159.523438 14.914062 C 159.390625 15.226562 159.171875 15.558594 158.859375 15.910156 C 158.558594 16.25 158.058594 16.71875 157.355469 17.316406 C 156.753906 17.8125 156.371094 18.152344 156.203125 18.332031 C 156.03125 18.515625 155.894531 18.691406 155.792969 18.859375 Z M 159.738281 18.859375 "/>
<path style=" stroke:none;fill-rule:nonzero;fill:rgb(0%,0%,0%);fill-opacity:1;" d="M 161.71875 22.179688 L 161.015625 22.179688 C 162.109375 20.421875 162.65625 18.664062 162.65625 16.90625 C 162.65625 16.21875 162.578125 15.535156 162.421875 14.855469 C 162.289062 14.308594 162.113281 13.78125 161.894531 13.273438 C 161.746094 12.949219 161.453125 12.402344 161.015625 11.632812 L 161.71875 11.632812 C 162.40625 12.546875 162.914062 13.464844 163.242188 14.386719 C 163.523438 15.195312 163.671875 16.035156 163.671875 16.90625 C 163.671875 17.898438 163.480469 18.855469 163.105469 19.777344 C 162.722656 20.683594 162.265625 21.484375 161.71875 22.179688 Z M 161.71875 22.179688 "/>
<path style="fill-rule:nonzero;fill:rgb(40%,74.901961%,100%);fill-opacity:1;stroke-width:1;stroke-linecap:round;stroke-linejoin:round;stroke:rgb(0%,0%,0%);stroke-opacity:1;stroke-miterlimit:10;" d="M 247.425 339 L 279 339 L 279 363 L 247.425 363 Z M 247.425 339 " transform="matrix(1.25,0,0,1.25,12.5,-422.5)"/>
<path style=" stroke:none;fill-rule:nonzero;fill:rgb(0%,0%,0%);fill-opacity:1;" d="M 330.652344 19.816406 L 332.78125 16.789062 L 330.808594 13.976562 L 332.058594 13.976562 L 332.957031 15.34375 C 333.113281 15.605469 333.242188 15.828125 333.347656 16.007812 C 333.515625 15.761719 333.667969 15.546875 333.796875 15.363281 L 334.773438 13.976562 L 335.964844 13.976562 L 333.953125 16.730469 L 336.121094 19.816406 L 334.910156 19.816406 L 333.699219 18 L 333.386719 17.511719 L 331.863281 19.816406 Z M 330.652344 19.816406 "/>
<path style=" stroke:none;fill-rule:nonzero;fill:rgb(0%,0%,0%);fill-opacity:1;" d="M 339.675781 13.234375 L 339.929688 12.453125 C 340.515625 12.664062 340.9375 12.84375 341.199219 13 C 341.132812 12.335938 341.09375 11.882812 341.082031 11.632812 L 341.882812 11.632812 C 341.871094 11.984375 341.832031 12.433594 341.765625 12.980469 C 342.144531 12.800781 342.574219 12.625 343.054688 12.453125 L 343.308594 13.234375 C 342.839844 13.390625 342.382812 13.496094 341.941406 13.546875 C 342.164062 13.742188 342.476562 14.089844 342.878906 14.582031 L 342.234375 15.050781 C 342.011719 14.765625 341.757812 14.375 341.472656 13.878906 C 341.199219 14.386719 340.957031 14.777344 340.75 15.050781 L 340.105469 14.582031 C 340.535156 14.0625 340.839844 13.71875 341.023438 13.546875 C 340.554688 13.457031 340.105469 13.351562 339.675781 13.234375 Z M 339.675781 13.234375 "/>
<path style=" stroke:none;fill-rule:nonzero;fill:rgb(0%,0%,0%);fill-opacity:1;" d="M 347.53125 22.0625 L 347.414062 21.144531 C 347.636719 21.191406 347.824219 21.222656 347.980469 21.222656 C 348.203125 21.222656 348.378906 21.183594 348.507812 21.105469 C 348.636719 21.035156 348.75 20.9375 348.839844 20.8125 C 348.890625 20.703125 348.988281 20.460938 349.132812 20.070312 C 349.160156 20.015625 349.191406 19.9375 349.230469 19.835938 L 347.003906 13.976562 L 348.078125 13.976562 L 349.289062 17.355469 C 349.445312 17.785156 349.589844 18.234375 349.71875 18.703125 C 349.824219 18.261719 349.953125 17.820312 350.109375 17.375 L 351.359375 13.976562 L 352.355469 13.976562 L 350.128906 19.914062 C 349.894531 20.546875 349.710938 20.992188 349.582031 21.242188 C 349.398438 21.5625 349.199219 21.796875 348.976562 21.945312 C 348.753906 22.101562 348.480469 22.179688 348.15625 22.179688 C 347.972656 22.179688 347.765625 22.140625 347.53125 22.0625 Z M 347.53125 22.0625 "/>
<path style="fill-rule:nonzero;fill:rgb(40%,74.901961%,100%);fill-opacity:1;stroke-width:1;stroke-linecap:round;stroke-linejoin:round;stroke:rgb(0%,0%,0%);stroke-opacity:1;stroke-miterlimit:10;" d="M 302.425 339 L 334 339 L 334 363 L 302.425 363 Z M 302.425 339 " transform="matrix(1.25,0,0,1.25,12.5,-422.5)"/>
<path style=" stroke:none;fill-rule:nonzero;fill:rgb(0%,0%,0%);fill-opacity:1;" d="M 397.421875 22.042969 L 397.421875 21.339844 L 403.984375 21.339844 L 403.984375 22.042969 Z M 397.421875 22.042969 "/>
<path style=" stroke:none;fill-rule:nonzero;fill:rgb(0%,0%,0%);fill-opacity:1;" d="M 409.792969 18.507812 L 409.792969 16.300781 L 407.605469 16.300781 L 407.605469 15.382812 L 409.792969 15.382812 L 409.792969 13.195312 L 410.730469 13.195312 L 410.730469 15.382812 L 412.917969 15.382812 L 412.917969 16.300781 L 410.730469 16.300781 L 410.730469 18.507812 Z M 409.792969 18.507812 "/>
<path style=" stroke:none;fill-rule:nonzero;fill:rgb(0%,0%,0%);fill-opacity:1;" d="M 422.339844 18.859375 L 422.339844 19.816406 L 417.007812 19.816406 C 417.007812 19.582031 417.046875 19.355469 417.125 19.132812 C 417.265625 18.769531 417.488281 18.410156 417.789062 18.058594 C 418.085938 17.707031 418.515625 17.304688 419.078125 16.847656 C 419.949219 16.121094 420.535156 15.546875 420.835938 15.128906 C 421.148438 14.714844 421.304688 14.316406 421.304688 13.9375 C 421.304688 13.546875 421.160156 13.222656 420.875 12.960938 C 420.601562 12.6875 420.242188 12.550781 419.800781 12.550781 C 419.316406 12.550781 418.933594 12.695312 418.648438 12.980469 C 418.359375 13.269531 418.21875 13.664062 418.21875 14.171875 L 417.203125 14.054688 C 417.265625 13.300781 417.527344 12.726562 417.984375 12.335938 C 418.4375 11.933594 419.050781 11.730469 419.820312 11.730469 C 420.585938 11.730469 421.191406 11.945312 421.636719 12.375 C 422.089844 12.804688 422.320312 13.332031 422.320312 13.957031 C 422.320312 14.285156 422.253906 14.601562 422.125 14.914062 C 421.992188 15.226562 421.773438 15.558594 421.460938 15.910156 C 421.160156 16.25 420.660156 16.71875 419.957031 17.316406 C 419.355469 17.8125 418.972656 18.152344 418.804688 18.332031 C 418.632812 18.515625 418.496094 18.691406 418.394531 18.859375 Z M 422.339844 18.859375 "/>
<path style="fill-rule:nonzero;fill:rgb(100%,100%,100%);fill-opacity:1;stroke-width:1;stroke-linecap:round;stroke-linejoin:round;stroke:rgb(0%,0%,0%);stroke-opacity:1;stroke-miterlimit:10;" d="M 134 339 L 158 339 L 158 363 L 134 363 Z M 134 339 " transform="matrix(1.25,0,0,1.25,12.5,-422.5)"/>
<path style="fill-rule:nonzero;fill:rgb(100%,100%,100%);fill-opacity:1;stroke-width:1;stroke-linecap:round;stroke-linejoin:round;stroke:rgb(0%,0%,0%);stroke-opacity:1;stroke-miterlimit:10;" d="M 224 339 L 248 339 L 248 363 L 224 363 Z M 224 339 " transform="matrix(1.25,0,0,1.25,12.5,-422.5)"/>
<path style="fill-rule:nonzero;fill:rgb(100%,100%,100%);fill-opacity:1;stroke-width:1;stroke-linecap:round;stroke-linejoin:round;stroke:rgb(0%,0%,0%);stroke-opacity:1;stroke-miterlimit:10;" d="M 279 339 L 303 339 L 303 363 L 279 363 Z M 279 339 " transform="matrix(1.25,0,0,1.25,12.5,-422.5)"/>
<path style="fill-rule:nonzero;fill:rgb(40%,74.901961%,100%);fill-opacity:1;stroke-width:1;stroke-linecap:round;stroke-linejoin:round;stroke:rgb(0%,0%,0%);stroke-opacity:1;stroke-miterlimit:10;" d="M 357.425 339 L 397 339 L 397 363 L 357.425 363 Z M 357.425 339 " transform="matrix(1.25,0,0,1.25,12.5,-422.5)"/>
<path style=" stroke:none;fill-rule:nonzero;fill:rgb(0%,0%,0%);fill-opacity:1;" d="M 467.257812 22.042969 L 467.257812 13.976562 L 468.15625 13.976562 L 468.15625 14.738281 C 468.359375 14.441406 468.59375 14.21875 468.859375 14.074219 C 469.132812 13.933594 469.464844 13.859375 469.855469 13.859375 C 470.347656 13.859375 470.78125 13.992188 471.164062 14.25 C 471.539062 14.5 471.828125 14.855469 472.023438 15.324219 C 472.21875 15.792969 472.316406 16.300781 472.316406 16.847656 C 472.316406 17.449219 472.203125 17.988281 471.984375 18.46875 C 471.773438 18.953125 471.464844 19.324219 471.066406 19.582031 C 470.660156 19.824219 470.230469 19.953125 469.777344 19.953125 C 469.449219 19.953125 469.15625 19.878906 468.898438 19.738281 C 468.632812 19.597656 468.417969 19.421875 468.253906 19.210938 L 468.253906 22.042969 Z M 468.15625 16.925781 C 468.15625 17.683594 468.300781 18.242188 468.605469 18.605469 C 468.917969 18.957031 469.289062 19.132812 469.71875 19.132812 C 470.148438 19.132812 470.519531 18.953125 470.832031 18.585938 C 471.152344 18.210938 471.320312 17.628906 471.320312 16.847656 C 471.320312 16.105469 471.164062 15.554688 470.851562 15.1875 C 470.546875 14.8125 470.1875 14.621094 469.757812 14.621094 C 469.335938 14.621094 468.964844 14.824219 468.644531 15.226562 C 468.316406 15.617188 468.15625 16.183594 468.15625 16.925781 Z M 468.15625 16.925781 "/>
<path style=" stroke:none;fill-rule:nonzero;fill:rgb(0%,0%,0%);fill-opacity:1;" d="M 473.496094 19.816406 L 473.496094 13.976562 L 474.394531 13.976562 L 474.394531 14.875 C 474.613281 14.460938 474.824219 14.1875 475.019531 14.054688 C 475.214844 13.925781 475.429688 13.859375 475.664062 13.859375 C 475.984375 13.859375 476.328125 13.964844 476.679688 14.171875 L 476.328125 15.089844 C 476.09375 14.949219 475.847656 14.875 475.605469 14.875 C 475.394531 14.875 475.199219 14.941406 475.019531 15.070312 C 474.847656 15.203125 474.726562 15.382812 474.648438 15.617188 C 474.539062 15.96875 474.492188 16.355469 474.492188 16.769531 L 474.492188 19.816406 Z M 473.496094 19.816406 "/>
<path style=" stroke:none;fill-rule:nonzero;fill:rgb(0%,0%,0%);fill-opacity:1;" d="M 477.261719 12.902344 L 477.261719 11.769531 L 478.257812 11.769531 L 478.257812 12.902344 Z M 477.261719 19.816406 L 477.261719 13.976562 L 478.257812 13.976562 L 478.257812 19.816406 Z M 477.261719 19.816406 "/>
<path style=" stroke:none;fill-rule:nonzero;fill:rgb(0%,0%,0%);fill-opacity:1;" d="M 479.757812 19.816406 L 479.757812 13.976562 L 480.65625 13.976562 L 480.65625 14.816406 C 481.074219 14.179688 481.691406 13.859375 482.511719 13.859375 C 482.863281 13.859375 483.183594 13.925781 483.46875 14.054688 C 483.769531 14.171875 483.988281 14.335938 484.132812 14.542969 C 484.277344 14.738281 484.378906 14.980469 484.445312 15.265625 C 484.484375 15.449219 484.503906 15.769531 484.503906 16.222656 L 484.503906 19.816406 L 483.507812 19.816406 L 483.507812 16.261719 C 483.507812 15.859375 483.46875 15.558594 483.390625 15.363281 C 483.3125 15.167969 483.175781 15.011719 482.980469 14.894531 C 482.785156 14.765625 482.558594 14.699219 482.296875 14.699219 C 481.878906 14.699219 481.515625 14.835938 481.203125 15.109375 C 480.902344 15.371094 480.753906 15.878906 480.753906 16.632812 L 480.753906 19.816406 Z M 479.757812 19.816406 "/>
<path style=" stroke:none;fill-rule:nonzero;fill:rgb(0%,0%,0%);fill-opacity:1;" d="M 488.183594 18.9375 L 488.320312 19.796875 C 488.035156 19.859375 487.785156 19.894531 487.578125 19.894531 C 487.214844 19.894531 486.933594 19.835938 486.738281 19.71875 C 486.542969 19.601562 486.398438 19.453125 486.308594 19.269531 C 486.230469 19.089844 486.191406 18.703125 486.191406 18.117188 L 486.191406 14.757812 L 485.46875 14.757812 L 485.46875 13.976562 L 486.191406 13.976562 L 486.191406 12.53125 L 487.1875 11.945312 L 487.1875 13.976562 L 488.183594 13.976562 L 488.183594 14.757812 L 487.1875 14.757812 L 487.1875 18.15625 C 487.1875 18.445312 487.199219 18.625 487.226562 18.703125 C 487.265625 18.78125 487.324219 18.847656 487.402344 18.898438 C 487.480469 18.953125 487.589844 18.976562 487.734375 18.976562 C 487.851562 18.976562 488 18.964844 488.183594 18.9375 Z M 488.183594 18.9375 "/>
<path style=" stroke:none;fill-rule:nonzero;fill:rgb(0%,0%,0%);fill-opacity:1;" d="M 491.035156 22.179688 C 490.488281 21.484375 490.027344 20.683594 489.648438 19.777344 C 489.269531 18.855469 489.082031 17.898438 489.082031 16.90625 C 489.082031 16.035156 489.226562 15.195312 489.511719 14.386719 C 489.835938 13.464844 490.34375 12.546875 491.035156 11.632812 L 491.738281 11.632812 C 491.296875 12.390625 491.003906 12.929688 490.859375 13.253906 C 490.636719 13.761719 490.460938 14.289062 490.332031 14.835938 C 490.175781 15.527344 490.097656 16.21875 490.097656 16.90625 C 490.097656 18.664062 490.644531 20.421875 491.738281 22.179688 Z M 491.035156 22.179688 "/>
<path style=" stroke:none;fill-rule:nonzero;fill:rgb(0%,0%,0%);fill-opacity:1;" d="M 492.359375 19.816406 L 492.359375 19.015625 L 496.070312 14.757812 C 495.652344 14.773438 495.28125 14.777344 494.957031 14.777344 L 492.59375 14.777344 L 492.59375 13.976562 L 497.359375 13.976562 L 497.359375 14.640625 L 494.195312 18.332031 L 493.589844 19.015625 C 494.03125 18.976562 494.449219 18.957031 494.839844 18.957031 L 497.535156 18.957031 L 497.535156 19.816406 Z M 492.359375 19.816406 "/>
<path style=" stroke:none;fill-rule:nonzero;fill:rgb(0%,0%,0%);fill-opacity:1;" d="M 499.15625 22.179688 L 498.453125 22.179688 C 499.546875 20.421875 500.09375 18.664062 500.09375 16.90625 C 500.09375 16.21875 500.015625 15.535156 499.859375 14.855469 C 499.730469 14.308594 499.554688 13.78125 499.332031 13.273438 C 499.1875 12.949219 498.894531 12.402344 498.453125 11.632812 L 499.15625 11.632812 C 499.847656 12.546875 500.355469 13.464844 500.679688 14.386719 C 500.964844 15.195312 501.109375 16.035156 501.109375 16.90625 C 501.109375 17.898438 500.921875 18.855469 500.542969 19.777344 C 500.164062 20.683594 499.703125 21.484375 499.15625 22.179688 Z M 499.15625 22.179688 "/>
<path style="fill-rule:nonzero;fill:rgb(100%,100%,100%);fill-opacity:1;stroke-width:1;stroke-linecap:round;stroke-linejoin:round;stroke:rgb(0%,0%,0%);stroke-opacity:1;stroke-miterlimit:10;" d="M 334 339 L 358 339 L 358 363 L 334 363 Z M 334 339 " transform="matrix(1.25,0,0,1.25,12.5,-422.5)"/>
<path style=" stroke:none;fill-rule:nonzero;fill:rgb(0%,0%,0%);fill-opacity:1;" d="M 191.136719 8.242188 L 189.9375 6.8125 L 185.625 10.421875 L 186.835938 11.855469 Z M 204.375 10.429688 L 200.0625 6.8125 L 198.851562 8.242188 L 203.164062 11.859375 Z M 195 8.8125 C 190.34375 8.8125 186.5625 12.59375 186.5625 17.25 C 186.5625 21.914062 190.332031 25.6875 195 25.6875 C 199.65625 25.6875 203.4375 21.914062 203.4375 17.25 C 203.4375 12.59375 199.65625 8.8125 195 8.8125 Z M 195 23.8125 C 191.371094 23.8125 188.4375 20.878906 188.4375 17.25 C 188.4375 13.625 191.371094 10.6875 195 10.6875 C 198.628906 10.6875 201.5625 13.625 201.5625 17.25 C 201.5625 20.878906 198.628906 23.8125 195 23.8125 Z M 192.1875 15.375 L 195.589844 15.375 L 192.1875 19.316406 L 192.1875 21 L 197.8125 21 L 197.8125 19.125 L 194.410156 19.125 L 197.8125 15.191406 L 197.8125 13.5 L 192.1875 13.5 Z M 192.1875 15.375 "/>
<path style="fill-rule:nonzero;fill:rgb(100%,100%,100%);fill-opacity:1;stroke-width:1;stroke-linecap:round;stroke-linejoin:round;stroke:rgb(0%,0%,0%);stroke-opacity:1;stroke-miterlimit:10;" d="M 44 339 L 68 339 L 68 363 L 44 363 Z M 44 339 " transform="matrix(1.25,0,0,1.25,12.5,-422.5)"/>
<path style=" stroke:none;fill-rule:nonzero;fill:rgb(0%,0%,0%);fill-opacity:1;" d="M 78.636719 8.242188 L 77.4375 6.8125 L 73.125 10.421875 L 74.335938 11.855469 Z M 91.875 10.429688 L 87.5625 6.8125 L 86.351562 8.242188 L 90.664062 11.859375 Z M 82.5 8.8125 C 77.84375 8.8125 74.0625 12.59375 74.0625 17.25 C 74.0625 21.914062 77.832031 25.6875 82.5 25.6875 C 87.15625 25.6875 90.9375 21.914062 90.9375 17.25 C 90.9375 12.59375 87.15625 8.8125 82.5 8.8125 Z M 82.5 23.8125 C 78.871094 23.8125 75.9375 20.878906 75.9375 17.25 C 75.9375 13.625 78.871094 10.6875 82.5 10.6875 C 86.128906 10.6875 89.0625 13.625 89.0625 17.25 C 89.0625 20.878906 86.128906 23.8125 82.5 23.8125 Z M 79.6875 15.375 L 83.089844 15.375 L 79.6875 19.316406 L 79.6875 21 L 85.3125 21 L 85.3125 19.125 L 81.910156 19.125 L 85.3125 15.191406 L 85.3125 13.5 L 79.6875 13.5 Z M 79.6875 15.375 "/>
<path style=" stroke:none;fill-rule:nonzero;fill:rgb(0%,0%,0%);fill-opacity:1;" d="M 372.386719 8.242188 L 371.1875 6.8125 L 366.875 10.421875 L 368.085938 11.855469 Z M 385.625 10.429688 L 381.3125 6.8125 L 380.101562 8.242188 L 384.414062 11.859375 Z M 376.25 8.8125 C 371.59375 8.8125 367.8125 12.59375 367.8125 17.25 C 367.8125 21.914062 371.582031 25.6875 376.25 25.6875 C 380.90625 25.6875 384.6875 21.914062 384.6875 17.25 C 384.6875 12.59375 380.90625 8.8125 376.25 8.8125 Z M 376.25 23.8125 C 372.621094 23.8125 369.6875 20.878906 369.6875 17.25 C 369.6875 13.625 372.621094 10.6875 376.25 10.6875 C 379.878906 10.6875 382.8125 13.625 382.8125 17.25 C 382.8125 20.878906 379.878906 23.8125 376.25 23.8125 Z M 373.4375 15.375 L 376.839844 15.375 L 373.4375 19.316406 L 373.4375 21 L 379.0625 21 L 379.0625 19.125 L 375.660156 19.125 L 379.0625 15.191406 L 379.0625 13.5 L 373.4375 13.5 Z M 373.4375 15.375 "/>
<path style=" stroke:none;fill-rule:nonzero;fill:rgb(0%,0%,0%);fill-opacity:1;" d="M 303.636719 8.242188 L 302.4375 6.8125 L 298.125 10.421875 L 299.335938 11.855469 Z M 316.875 10.429688 L 312.5625 6.8125 L 311.351562 8.242188 L 315.664062 11.859375 Z M 307.5 8.8125 C 302.84375 8.8125 299.0625 12.59375 299.0625 17.25 C 299.0625 21.914062 302.832031 25.6875 307.5 25.6875 C 312.15625 25.6875 315.9375 21.914062 315.9375 17.25 C 315.9375 12.59375 312.15625 8.8125 307.5 8.8125 Z M 307.5 23.8125 C 303.871094 23.8125 300.9375 20.878906 300.9375 17.25 C 300.9375 13.625 303.871094 10.6875 307.5 10.6875 C 311.128906 10.6875 314.0625 13.625 314.0625 17.25 C 314.0625 20.878906 311.128906 23.8125 307.5 23.8125 Z M 304.6875 15.375 L 308.089844 15.375 L 304.6875 19.316406 L 304.6875 21 L 310.3125 21 L 310.3125 19.125 L 306.910156 19.125 L 310.3125 15.191406 L 310.3125 13.5 L 304.6875 13.5 Z M 304.6875 15.375 "/>
<path style=" stroke:none;fill-rule:nonzero;fill:rgb(0%,0%,0%);fill-opacity:1;" d="M 441.136719 8.242188 L 439.9375 6.8125 L 435.625 10.421875 L 436.835938 11.855469 Z M 454.375 10.429688 L 450.0625 6.8125 L 448.851562 8.242188 L 453.164062 11.859375 Z M 445 8.8125 C 440.34375 8.8125 436.5625 12.59375 436.5625 17.25 C 436.5625 21.914062 440.332031 25.6875 445 25.6875 C 449.65625 25.6875 453.4375 21.914062 453.4375 17.25 C 453.4375 12.59375 449.65625 8.8125 445 8.8125 Z M 445 23.8125 C 441.371094 23.8125 438.4375 20.878906 438.4375 17.25 C 438.4375 13.625 441.371094 10.6875 445 10.6875 C 448.628906 10.6875 451.5625 13.625 451.5625 17.25 C 451.5625 20.878906 448.628906 23.8125 445 23.8125 Z M 442.1875 15.375 L 445.589844 15.375 L 442.1875 19.316406 L 442.1875 21 L 447.8125 21 L 447.8125 19.125 L 444.410156 19.125 L 447.8125 15.191406 L 447.8125 13.5 L 442.1875 13.5 Z M 442.1875 15.375 "/>
<path style=" stroke:none;fill-rule:nonzero;fill:rgb(0%,0%,0%);fill-opacity:1;" d="M 7.167969 84.632812 L 7.167969 76.585938 L 12.597656 76.585938 L 12.597656 77.523438 L 8.242188 77.523438 L 8.242188 80.023438 L 12.011719 80.023438 L 12.011719 80.980469 L 8.242188 80.980469 L 8.242188 84.632812 Z M 7.167969 84.632812 "/>
<path style=" stroke:none;fill-rule:nonzero;fill:rgb(0%,0%,0%);fill-opacity:1;" d="M 13.84375 84.632812 L 13.84375 78.792969 L 14.742188 78.792969 L 14.742188 79.691406 C 14.960938 79.277344 15.171875 79.003906 15.367188 78.871094 C 15.5625 78.742188 15.777344 78.675781 16.011719 78.675781 C 16.335938 78.675781 16.675781 78.78125 17.027344 78.988281 L 16.675781 79.90625 C 16.441406 79.765625 16.199219 79.691406 15.953125 79.691406 C 15.742188 79.691406 15.546875 79.757812 15.367188 79.886719 C 15.195312 80.019531 15.074219 80.199219 14.996094 80.433594 C 14.890625 80.785156 14.839844 81.171875 14.839844 81.585938 L 14.839844 84.632812 Z M 13.84375 84.632812 "/>
<path style=" stroke:none;fill-rule:nonzero;fill:rgb(0%,0%,0%);fill-opacity:1;" d="M 17.238281 81.722656 C 17.238281 80.644531 17.535156 79.84375 18.136719 79.320312 C 18.644531 78.890625 19.253906 78.675781 19.972656 78.675781 C 20.777344 78.675781 21.4375 78.9375 21.945312 79.457031 C 22.453125 79.980469 22.707031 80.703125 22.707031 81.625 C 22.707031 82.382812 22.589844 82.972656 22.355469 83.402344 C 22.132812 83.832031 21.808594 84.171875 21.378906 84.417969 C 20.949219 84.652344 20.480469 84.769531 19.972656 84.769531 C 19.152344 84.769531 18.488281 84.511719 17.980469 83.988281 C 17.484375 83.457031 17.238281 82.699219 17.238281 81.722656 Z M 18.253906 81.722656 C 18.253906 82.464844 18.414062 83.027344 18.742188 83.402344 C 19.066406 83.769531 19.476562 83.949219 19.972656 83.949219 C 20.464844 83.949219 20.875 83.769531 21.203125 83.402344 C 21.527344 83.027344 21.691406 82.453125 21.691406 81.683594 C 21.691406 80.96875 21.527344 80.421875 21.203125 80.042969 C 20.875 79.667969 20.464844 79.476562 19.972656 79.476562 C 19.476562 79.476562 19.066406 79.667969 18.742188 80.042969 C 18.414062 80.410156 18.253906 80.96875 18.253906 81.722656 Z M 18.253906 81.722656 "/>
<path style=" stroke:none;fill-rule:nonzero;fill:rgb(0%,0%,0%);fill-opacity:1;" d="M 23.867188 84.632812 L 23.867188 78.792969 L 24.765625 78.792969 L 24.765625 79.632812 C 25.179688 78.996094 25.800781 78.675781 26.621094 78.675781 C 26.972656 78.675781 27.289062 78.742188 27.578125 78.871094 C 27.875 78.988281 28.09375 79.152344 28.242188 79.359375 C 28.382812 79.554688 28.484375 79.796875 28.554688 80.082031 C 28.59375 80.265625 28.613281 80.585938 28.613281 81.039062 L 28.613281 84.632812 L 27.617188 84.632812 L 27.617188 81.078125 C 27.617188 80.675781 27.578125 80.375 27.5 80.179688 C 27.421875 79.984375 27.285156 79.828125 27.089844 79.710938 C 26.894531 79.582031 26.664062 79.515625 26.40625 79.515625 C 25.984375 79.515625 25.625 79.652344 25.3125 79.925781 C 25.007812 80.1875 24.863281 80.695312 24.863281 81.449219 L 24.863281 84.632812 Z M 23.867188 84.632812 "/>
<path style=" stroke:none;fill-rule:nonzero;fill:rgb(0%,0%,0%);fill-opacity:1;" d="M 32.292969 83.753906 L 32.429688 84.613281 C 32.140625 84.675781 31.890625 84.710938 31.6875 84.710938 C 31.320312 84.710938 31.042969 84.652344 30.847656 84.535156 C 30.652344 84.417969 30.503906 84.269531 30.417969 84.085938 C 30.339844 83.90625 30.300781 83.519531 30.300781 82.933594 L 30.300781 79.574219 L 29.578125 79.574219 L 29.578125 78.792969 L 30.300781 78.792969 L 30.300781 77.347656 L 31.296875 76.761719 L 31.296875 78.792969 L 32.292969 78.792969 L 32.292969 79.574219 L 31.296875 79.574219 L 31.296875 82.972656 C 31.296875 83.261719 31.304688 83.441406 31.335938 83.519531 C 31.375 83.597656 31.433594 83.664062 31.511719 83.714844 C 31.589844 83.769531 31.695312 83.792969 31.84375 83.792969 C 31.960938 83.792969 32.105469 83.78125 32.292969 83.753906 Z M 32.292969 83.753906 "/>
<path style=" stroke:none;fill-rule:nonzero;fill:rgb(0%,0%,0%);fill-opacity:1;" d="M 37.234375 82.757812 L 38.269531 82.875 C 38.097656 83.476562 37.789062 83.945312 37.351562 84.28125 C 36.921875 84.609375 36.363281 84.769531 35.691406 84.769531 C 34.839844 84.769531 34.167969 84.511719 33.660156 83.988281 C 33.160156 83.457031 32.917969 82.714844 32.917969 81.761719 C 32.917969 80.785156 33.171875 80.03125 33.679688 79.496094 C 34.1875 78.949219 34.839844 78.675781 35.652344 78.675781 C 36.433594 78.675781 37.0625 78.945312 37.546875 79.476562 C 38.039062 80 38.289062 80.742188 38.289062 81.703125 C 38.289062 81.769531 38.289062 81.859375 38.289062 81.976562 L 33.933594 81.976562 C 33.972656 82.617188 34.152344 83.105469 34.480469 83.441406 C 34.800781 83.78125 35.210938 83.949219 35.710938 83.949219 C 36.070312 83.949219 36.378906 83.859375 36.628906 83.675781 C 36.886719 83.480469 37.085938 83.175781 37.234375 82.757812 Z M 33.992188 81.15625 L 37.253906 81.15625 C 37.214844 80.664062 37.085938 80.292969 36.882812 80.042969 C 36.570312 79.667969 36.160156 79.476562 35.652344 79.476562 C 35.191406 79.476562 34.8125 79.632812 34.5 79.945312 C 34.195312 80.246094 34.03125 80.648438 33.992188 81.15625 Z M 33.992188 81.15625 "/>
<path style=" stroke:none;fill-rule:nonzero;fill:rgb(0%,0%,0%);fill-opacity:1;" d="M 39.507812 84.632812 L 39.507812 78.792969 L 40.40625 78.792969 L 40.40625 79.632812 C 40.820312 78.996094 41.441406 78.675781 42.261719 78.675781 C 42.613281 78.675781 42.929688 78.742188 43.21875 78.871094 C 43.515625 78.988281 43.734375 79.152344 43.882812 79.359375 C 44.023438 79.554688 44.125 79.796875 44.195312 80.082031 C 44.234375 80.265625 44.253906 80.585938 44.253906 81.039062 L 44.253906 84.632812 L 43.257812 84.632812 L 43.257812 81.078125 C 43.257812 80.675781 43.21875 80.375 43.140625 80.179688 C 43.0625 79.984375 42.925781 79.828125 42.730469 79.710938 C 42.535156 79.582031 42.304688 79.515625 42.046875 79.515625 C 41.625 79.515625 41.265625 79.652344 40.953125 79.925781 C 40.648438 80.1875 40.503906 80.695312 40.503906 81.449219 L 40.503906 84.632812 Z M 39.507812 84.632812 "/>
<path style=" stroke:none;fill-rule:nonzero;fill:rgb(0%,0%,0%);fill-opacity:1;" d="M 49.554688 84.632812 L 49.554688 83.890625 C 49.171875 84.476562 48.625 84.769531 47.914062 84.769531 C 47.453125 84.769531 47.035156 84.636719 46.644531 84.378906 C 46.253906 84.121094 45.945312 83.761719 45.726562 83.304688 C 45.515625 82.851562 45.414062 82.324219 45.414062 81.722656 C 45.414062 81.136719 45.511719 80.609375 45.707031 80.140625 C 45.902344 79.660156 46.183594 79.296875 46.566406 79.046875 C 46.957031 78.800781 47.390625 78.675781 47.875 78.675781 C 48.226562 78.675781 48.539062 78.75 48.8125 78.890625 C 49.085938 79.035156 49.304688 79.230469 49.476562 79.476562 L 49.476562 76.585938 L 50.472656 76.585938 L 50.472656 84.632812 Z M 46.429688 81.722656 C 46.429688 82.464844 46.585938 83.027344 46.898438 83.402344 C 47.210938 83.769531 47.582031 83.949219 48.011719 83.949219 C 48.441406 83.949219 48.800781 83.773438 49.105469 83.421875 C 49.417969 83.070312 49.574219 82.53125 49.574219 81.800781 C 49.574219 81.007812 49.417969 80.421875 49.105469 80.042969 C 48.792969 79.667969 48.410156 79.476562 47.972656 79.476562 C 47.527344 79.476562 47.15625 79.660156 46.859375 80.023438 C 46.570312 80.390625 46.429688 80.957031 46.429688 81.722656 Z M 46.429688 81.722656 "/>
<path style=" stroke:none;fill-rule:nonzero;fill:rgb(0%,0%,0%);fill-opacity:1;" d="M 7.070312 148.382812 L 7.070312 140.335938 L 10.097656 140.335938 C 10.707031 140.335938 11.195312 140.421875 11.5625 140.589844 C 11.9375 140.746094 12.230469 140.996094 12.441406 141.332031 C 12.660156 141.671875 12.773438 142.023438 12.773438 142.386719 C 12.773438 142.738281 12.675781 143.066406 12.480469 143.363281 C 12.296875 143.664062 12.015625 143.910156 11.640625 144.105469 C 12.117188 144.25 12.492188 144.492188 12.753906 144.828125 C 13.027344 145.167969 13.164062 145.570312 13.164062 146.039062 C 13.164062 146.417969 13.078125 146.769531 12.910156 147.09375 C 12.753906 147.421875 12.558594 147.675781 12.324219 147.855469 C 12.089844 148.027344 11.796875 148.15625 11.445312 148.246094 C 11.09375 148.339844 10.65625 148.382812 10.136719 148.382812 Z M 8.144531 143.714844 L 9.882812 143.714844 C 10.351562 143.714844 10.6875 143.683594 10.898438 143.617188 C 11.171875 143.539062 11.371094 143.410156 11.503906 143.226562 C 11.644531 143.03125 11.71875 142.796875 11.71875 142.523438 C 11.71875 142.25 11.648438 142.015625 11.523438 141.820312 C 11.390625 141.613281 11.210938 141.46875 10.976562 141.390625 C 10.742188 141.3125 10.332031 141.273438 9.746094 141.273438 L 8.144531 141.273438 Z M 8.144531 147.425781 L 10.136719 147.425781 C 10.488281 147.425781 10.734375 147.414062 10.878906 147.386719 C 11.113281 147.347656 11.3125 147.277344 11.484375 147.171875 C 11.648438 147.070312 11.789062 146.917969 11.894531 146.722656 C 11.996094 146.527344 12.050781 146.300781 12.050781 146.039062 C 12.050781 145.742188 11.972656 145.480469 11.816406 145.257812 C 11.660156 145.039062 11.445312 144.886719 11.171875 144.808594 C 10.898438 144.71875 10.507812 144.671875 10 144.671875 L 8.144531 144.671875 Z M 8.144531 147.425781 "/>
<path style=" stroke:none;fill-rule:nonzero;fill:rgb(0%,0%,0%);fill-opacity:1;" d="M 18.304688 147.660156 C 17.9375 147.972656 17.585938 148.195312 17.25 148.324219 C 16.90625 148.449219 16.546875 148.519531 16.15625 148.519531 C 15.515625 148.519531 15.023438 148.363281 14.671875 148.050781 C 14.328125 147.738281 14.164062 147.335938 14.164062 146.839844 C 14.164062 146.554688 14.226562 146.292969 14.359375 146.058594 C 14.484375 145.824219 14.65625 145.636719 14.867188 145.492188 C 15.070312 145.351562 15.304688 145.238281 15.570312 145.160156 C 15.765625 145.121094 16.058594 145.078125 16.449219 145.023438 C 17.253906 144.933594 17.84375 144.816406 18.226562 144.671875 C 18.226562 144.542969 18.226562 144.457031 18.226562 144.417969 C 18.226562 144.015625 18.132812 143.734375 17.953125 143.578125 C 17.6875 143.34375 17.3125 143.226562 16.820312 143.226562 C 16.351562 143.226562 16.003906 143.3125 15.785156 143.480469 C 15.558594 143.636719 15.398438 143.925781 15.296875 144.339844 L 14.339844 144.222656 C 14.417969 143.808594 14.554688 143.476562 14.75 143.226562 C 14.953125 142.96875 15.246094 142.773438 15.628906 142.640625 C 16.019531 142.5 16.457031 142.425781 16.957031 142.425781 C 17.464844 142.425781 17.863281 142.484375 18.167969 142.601562 C 18.480469 142.71875 18.703125 142.871094 18.851562 143.050781 C 19.007812 143.222656 19.109375 143.441406 19.164062 143.714844 C 19.203125 143.886719 19.222656 144.183594 19.222656 144.613281 L 19.222656 145.941406 C 19.222656 146.855469 19.242188 147.433594 19.28125 147.679688 C 19.320312 147.929688 19.402344 148.164062 19.535156 148.382812 L 18.5 148.382812 C 18.390625 148.175781 18.328125 147.933594 18.304688 147.660156 Z M 18.226562 145.453125 C 17.859375 145.597656 17.316406 145.722656 16.605469 145.824219 C 16.199219 145.890625 15.910156 145.960938 15.746094 146.039062 C 15.574219 146.105469 15.441406 146.210938 15.355469 146.351562 C 15.261719 146.496094 15.21875 146.652344 15.21875 146.820312 C 15.21875 147.082031 15.316406 147.304688 15.511719 147.484375 C 15.707031 147.65625 16 147.738281 16.390625 147.738281 C 16.765625 147.738281 17.101562 147.65625 17.40625 147.484375 C 17.703125 147.316406 17.921875 147.089844 18.070312 146.800781 C 18.171875 146.582031 18.226562 146.253906 18.226562 145.824219 Z M 18.226562 145.453125 "/>
<path style=" stroke:none;fill-rule:nonzero;fill:rgb(0%,0%,0%);fill-opacity:1;" d="M 24.5625 146.253906 L 25.539062 146.371094 C 25.429688 147.050781 25.15625 147.578125 24.71875 147.953125 C 24.273438 148.332031 23.730469 148.519531 23.097656 148.519531 C 22.300781 148.519531 21.660156 148.261719 21.183594 147.738281 C 20.699219 147.21875 20.460938 146.46875 20.460938 145.492188 C 20.460938 144.855469 20.5625 144.300781 20.773438 143.832031 C 20.976562 143.363281 21.289062 143.011719 21.710938 142.777344 C 22.140625 142.542969 22.609375 142.425781 23.117188 142.425781 C 23.742188 142.425781 24.253906 142.589844 24.660156 142.914062 C 25.058594 143.226562 25.324219 143.675781 25.441406 144.261719 L 24.484375 144.417969 C 24.390625 144.027344 24.230469 143.734375 23.996094 143.539062 C 23.761719 143.332031 23.476562 143.226562 23.15625 143.226562 C 22.648438 143.226562 22.238281 143.410156 21.925781 143.773438 C 21.621094 144.125 21.476562 144.6875 21.476562 145.453125 C 21.476562 146.25 21.621094 146.820312 21.925781 147.171875 C 22.222656 147.523438 22.613281 147.699219 23.097656 147.699219 C 23.488281 147.699219 23.808594 147.582031 24.074219 147.347656 C 24.332031 147.113281 24.492188 146.75 24.5625 146.253906 Z M 24.5625 146.253906 "/>
<path style=" stroke:none;fill-rule:nonzero;fill:rgb(0%,0%,0%);fill-opacity:1;" d="M 26.378906 148.382812 L 26.378906 140.335938 L 27.375 140.335938 L 27.375 144.925781 L 29.71875 142.542969 L 30.988281 142.542969 L 28.761719 144.710938 L 31.222656 148.382812 L 29.992188 148.382812 L 28.078125 145.394531 L 27.375 146.078125 L 27.375 148.382812 Z M 26.378906 148.382812 "/>
<path style=" stroke:none;fill-rule:nonzero;fill:rgb(0%,0%,0%);fill-opacity:1;" d="M 35.988281 146.507812 L 37.023438 146.625 C 36.851562 147.226562 36.542969 147.695312 36.105469 148.03125 C 35.675781 148.359375 35.117188 148.519531 34.445312 148.519531 C 33.59375 148.519531 32.921875 148.261719 32.414062 147.738281 C 31.914062 147.207031 31.671875 146.464844 31.671875 145.511719 C 31.671875 144.535156 31.925781 143.78125 32.433594 143.246094 C 32.941406 142.699219 33.59375 142.425781 34.40625 142.425781 C 35.1875 142.425781 35.816406 142.695312 36.300781 143.226562 C 36.792969 143.75 37.042969 144.492188 37.042969 145.453125 C 37.042969 145.519531 37.042969 145.609375 37.042969 145.726562 L 32.6875 145.726562 C 32.726562 146.367188 32.90625 146.855469 33.234375 147.191406 C 33.554688 147.53125 33.964844 147.699219 34.464844 147.699219 C 34.824219 147.699219 35.132812 147.609375 35.382812 147.425781 C 35.640625 147.230469 35.839844 146.925781 35.988281 146.507812 Z M 32.746094 144.90625 L 36.007812 144.90625 C 35.96875 144.414062 35.839844 144.042969 35.636719 143.792969 C 35.324219 143.417969 34.914062 143.226562 34.40625 143.226562 C 33.945312 143.226562 33.566406 143.382812 33.253906 143.695312 C 32.949219 143.996094 32.785156 144.398438 32.746094 144.90625 Z M 32.746094 144.90625 "/>
<path style=" stroke:none;fill-rule:nonzero;fill:rgb(0%,0%,0%);fill-opacity:1;" d="M 38.261719 148.382812 L 38.261719 142.542969 L 39.160156 142.542969 L 39.160156 143.382812 C 39.574219 142.746094 40.195312 142.425781 41.015625 142.425781 C 41.367188 142.425781 41.683594 142.492188 41.972656 142.621094 C 42.269531 142.738281 42.488281 142.902344 42.636719 143.109375 C 42.777344 143.304688 42.878906 143.546875 42.949219 143.832031 C 42.988281 144.015625 43.007812 144.335938 43.007812 144.789062 L 43.007812 148.382812 L 42.011719 148.382812 L 42.011719 144.828125 C 42.011719 144.425781 41.972656 144.125 41.894531 143.929688 C 41.816406 143.734375 41.679688 143.578125 41.484375 143.460938 C 41.289062 143.332031 41.058594 143.265625 40.800781 143.265625 C 40.378906 143.265625 40.019531 143.402344 39.707031 143.675781 C 39.402344 143.9375 39.257812 144.445312 39.257812 145.199219 L 39.257812 148.382812 Z M 38.261719 148.382812 "/>
<path style=" stroke:none;fill-rule:nonzero;fill:rgb(0%,0%,0%);fill-opacity:1;" d="M 48.308594 148.382812 L 48.308594 147.640625 C 47.925781 148.226562 47.378906 148.519531 46.667969 148.519531 C 46.207031 148.519531 45.789062 148.386719 45.398438 148.128906 C 45.007812 147.871094 44.699219 147.511719 44.480469 147.054688 C 44.269531 146.601562 44.167969 146.074219 44.167969 145.472656 C 44.167969 144.886719 44.265625 144.359375 44.460938 143.890625 C 44.65625 143.410156 44.9375 143.046875 45.320312 142.796875 C 45.710938 142.550781 46.144531 142.425781 46.628906 142.425781 C 46.980469 142.425781 47.292969 142.5 47.566406 142.640625 C 47.839844 142.785156 48.058594 142.980469 48.230469 143.226562 L 48.230469 140.335938 L 49.226562 140.335938 L 49.226562 148.382812 Z M 45.183594 145.472656 C 45.183594 146.214844 45.339844 146.777344 45.652344 147.152344 C 45.964844 147.519531 46.335938 147.699219 46.765625 147.699219 C 47.195312 147.699219 47.554688 147.523438 47.859375 147.171875 C 48.171875 146.820312 48.328125 146.28125 48.328125 145.550781 C 48.328125 144.757812 48.171875 144.171875 47.859375 143.792969 C 47.546875 143.417969 47.164062 143.226562 46.726562 143.226562 C 46.28125 143.226562 45.910156 143.410156 45.613281 143.773438 C 45.324219 144.140625 45.183594 144.707031 45.183594 145.472656 Z M 45.183594 145.472656 "/>
<path style="fill-rule:nonzero;fill:rgb(100%,100%,100%);fill-opacity:1;stroke-width:1;stroke-linecap:round;stroke-linejoin:round;stroke:rgb(0%,0%,0%);stroke-opacity:1;stroke-miterlimit:10;" d="M 44 389 L 68 389 L 68 413 L 44 413 Z M 44 389 " transform="matrix(1.25,0,0,1.25,12.5,-422.5)"/>
<path style=" stroke:none;fill-rule:nonzero;fill:rgb(0%,0%,0%);fill-opacity:1;" d="M 78.636719 70.742188 L 77.4375 69.3125 L 73.125 72.921875 L 74.335938 74.355469 Z M 91.875 72.929688 L 87.5625 69.3125 L 86.351562 70.742188 L 90.664062 74.359375 Z M 82.5 71.3125 C 77.84375 71.3125 74.0625 75.09375 74.0625 79.75 C 74.0625 84.414062 77.832031 88.1875 82.5 88.1875 C 87.15625 88.1875 90.9375 84.414062 90.9375 79.75 C 90.9375 75.09375 87.15625 71.3125 82.5 71.3125 Z M 82.5 86.3125 C 78.871094 86.3125 75.9375 83.378906 75.9375 79.75 C 75.9375 76.125 78.871094 73.1875 82.5 73.1875 C 86.128906 73.1875 89.0625 76.125 89.0625 79.75 C 89.0625 83.378906 86.128906 86.3125 82.5 86.3125 Z M 79.6875 77.875 L 83.089844 77.875 L 79.6875 81.816406 L 79.6875 83.5 L 85.3125 83.5 L 85.3125 81.625 L 81.910156 81.625 L 85.3125 77.691406 L 85.3125 76 L 79.6875 76 Z M 79.6875 77.875 "/>
<path style="fill-rule:nonzero;fill:rgb(100%,100%,100%);fill-opacity:1;stroke-width:1;stroke-linecap:round;stroke-linejoin:round;stroke:rgb(0%,0%,0%);stroke-opacity:1;stroke-miterlimit:10;" d="M 68 389 L 92 389 L 92 413 L 68 413 Z M 68 389 " transform="matrix(1.25,0,0,1.25,12.5,-422.5)"/>
<path style=" stroke:none;fill-rule:nonzero;fill:rgb(0%,0%,0%);fill-opacity:1;" d="M 108.636719 70.742188 L 107.4375 69.3125 L 103.125 72.921875 L 104.335938 74.355469 Z M 121.875 72.929688 L 117.5625 69.3125 L 116.351562 70.742188 L 120.664062 74.359375 Z M 112.5 71.3125 C 107.84375 71.3125 104.0625 75.09375 104.0625 79.75 C 104.0625 84.414062 107.832031 88.1875 112.5 88.1875 C 117.15625 88.1875 120.9375 84.414062 120.9375 79.75 C 120.9375 75.09375 117.15625 71.3125 112.5 71.3125 Z M 112.5 86.3125 C 108.871094 86.3125 105.9375 83.378906 105.9375 79.75 C 105.9375 76.125 108.871094 73.1875 112.5 73.1875 C 116.128906 73.1875 119.0625 76.125 119.0625 79.75 C 119.0625 83.378906 116.128906 86.3125 112.5 86.3125 Z M 109.6875 77.875 L 113.089844 77.875 L 109.6875 81.816406 L 109.6875 83.5 L 115.3125 83.5 L 115.3125 81.625 L 111.910156 81.625 L 115.3125 77.691406 L 115.3125 76 L 109.6875 76 Z M 109.6875 77.875 "/>
<path style="fill-rule:nonzero;fill:rgb(100%,100%,100%);fill-opacity:1;stroke-width:1;stroke-linecap:round;stroke-linejoin:round;stroke:rgb(0%,0%,0%);stroke-opacity:1;stroke-miterlimit:10;" d="M 92 389 L 116 389 L 116 413 L 92 413 Z M 92 389 " transform="matrix(1.25,0,0,1.25,12.5,-422.5)"/>
<path style=" stroke:none;fill-rule:nonzero;fill:rgb(0%,0%,0%);fill-opacity:1;" d="M 138.636719 70.742188 L 137.4375 69.3125 L 133.125 72.921875 L 134.335938 74.355469 Z M 151.875 72.929688 L 147.5625 69.3125 L 146.351562 70.742188 L 150.664062 74.359375 Z M 142.5 71.3125 C 137.84375 71.3125 134.0625 75.09375 134.0625 79.75 C 134.0625 84.414062 137.832031 88.1875 142.5 88.1875 C 147.15625 88.1875 150.9375 84.414062 150.9375 79.75 C 150.9375 75.09375 147.15625 71.3125 142.5 71.3125 Z M 142.5 86.3125 C 138.871094 86.3125 135.9375 83.378906 135.9375 79.75 C 135.9375 76.125 138.871094 73.1875 142.5 73.1875 C 146.128906 73.1875 149.0625 76.125 149.0625 79.75 C 149.0625 83.378906 146.128906 86.3125 142.5 86.3125 Z M 139.6875 77.875 L 143.089844 77.875 L 139.6875 81.816406 L 139.6875 83.5 L 145.3125 83.5 L 145.3125 81.625 L 141.910156 81.625 L 145.3125 77.691406 L 145.3125 76 L 139.6875 76 Z M 139.6875 77.875 "/>
<path style="fill-rule:nonzero;fill:rgb(100%,100%,100%);fill-opacity:1;stroke-width:1;stroke-linecap:round;stroke-linejoin:round;stroke:rgb(0%,0%,0%);stroke-opacity:1;stroke-miterlimit:10;" d="M 116 389 L 140 389 L 140 413 L 116 413 Z M 116 389 " transform="matrix(1.25,0,0,1.25,12.5,-422.5)"/>
<path style=" stroke:none;fill-rule:nonzero;fill:rgb(0%,0%,0%);fill-opacity:1;" d="M 168.636719 70.742188 L 167.4375 69.3125 L 163.125 72.921875 L 164.335938 74.355469 Z M 181.875 72.929688 L 177.5625 69.3125 L 176.351562 70.742188 L 180.664062 74.359375 Z M 172.5 71.3125 C 167.84375 71.3125 164.0625 75.09375 164.0625 79.75 C 164.0625 84.414062 167.832031 88.1875 172.5 88.1875 C 177.15625 88.1875 180.9375 84.414062 180.9375 79.75 C 180.9375 75.09375 177.15625 71.3125 172.5 71.3125 Z M 172.5 86.3125 C 168.871094 86.3125 165.9375 83.378906 165.9375 79.75 C 165.9375 76.125 168.871094 73.1875 172.5 73.1875 C 176.128906 73.1875 179.0625 76.125 179.0625 79.75 C 179.0625 83.378906 176.128906 86.3125 172.5 86.3125 Z M 169.6875 77.875 L 173.089844 77.875 L 169.6875 81.816406 L 169.6875 83.5 L 175.3125 83.5 L 175.3125 81.625 L 171.910156 81.625 L 175.3125 77.691406 L 175.3125 76 L 169.6875 76 Z M 169.6875 77.875 "/>
<path style="fill-rule:nonzero;fill:rgb(100%,100%,100%);fill-opacity:1;stroke-width:1;stroke-linecap:round;stroke-linejoin:round;stroke:rgb(0%,0%,0%);stroke-opacity:1;stroke-miterlimit:10;" d="M 140 389 L 164 389 L 164 413 L 140 413 Z M 140 389 " transform="matrix(1.25,0,0,1.25,12.5,-422.5)"/>
<path style=" stroke:none;fill-rule:nonzero;fill:rgb(0%,0%,0%);fill-opacity:1;" d="M 198.636719 70.742188 L 197.4375 69.3125 L 193.125 72.921875 L 194.335938 74.355469 Z M 211.875 72.929688 L 207.5625 69.3125 L 206.351562 70.742188 L 210.664062 74.359375 Z M 202.5 71.3125 C 197.84375 71.3125 194.0625 75.09375 194.0625 79.75 C 194.0625 84.414062 197.832031 88.1875 202.5 88.1875 C 207.15625 88.1875 210.9375 84.414062 210.9375 79.75 C 210.9375 75.09375 207.15625 71.3125 202.5 71.3125 Z M 202.5 86.3125 C 198.871094 86.3125 195.9375 83.378906 195.9375 79.75 C 195.9375 76.125 198.871094 73.1875 202.5 73.1875 C 206.128906 73.1875 209.0625 76.125 209.0625 79.75 C 209.0625 83.378906 206.128906 86.3125 202.5 86.3125 Z M 199.6875 77.875 L 203.089844 77.875 L 199.6875 81.816406 L 199.6875 83.5 L 205.3125 83.5 L 205.3125 81.625 L 201.910156 81.625 L 205.3125 77.691406 L 205.3125 76 L 199.6875 76 Z M 199.6875 77.875 "/>
<path style="fill-rule:nonzero;fill:rgb(40%,74.901961%,100%);fill-opacity:1;stroke-width:1;stroke-linecap:round;stroke-linejoin:round;stroke:rgb(0%,0%,0%);stroke-opacity:1;stroke-miterlimit:10;" d="M 200 440 L 231.575 440 L 231.575 464 L 200 464 Z M 200 440 " transform="matrix(1.25,0,0,1.25,12.5,-422.5)"/>
<path style=" stroke:none;fill-rule:nonzero;fill:rgb(0%,0%,0%);fill-opacity:1;" d="M 271.371094 146.066406 L 273.5 143.039062 L 271.527344 140.226562 L 272.777344 140.226562 L 273.675781 141.59375 C 273.832031 141.855469 273.960938 142.078125 274.066406 142.257812 C 274.234375 142.011719 274.386719 141.796875 274.515625 141.613281 L 275.492188 140.226562 L 276.683594 140.226562 L 274.671875 142.980469 L 276.839844 146.066406 L 275.628906 146.066406 L 274.417969 144.25 L 274.105469 143.761719 L 272.582031 146.066406 Z M 271.371094 146.066406 "/>
<path style=" stroke:none;fill-rule:nonzero;fill:rgb(0%,0%,0%);fill-opacity:1;" d="M 280.398438 139.484375 L 280.652344 138.703125 C 281.238281 138.914062 281.65625 139.09375 281.921875 139.25 C 281.851562 138.585938 281.8125 138.132812 281.804688 137.882812 L 282.605469 137.882812 C 282.589844 138.234375 282.550781 138.683594 282.488281 139.230469 C 282.863281 139.050781 283.292969 138.875 283.777344 138.703125 L 284.03125 139.484375 C 283.5625 139.640625 283.101562 139.746094 282.664062 139.796875 C 282.882812 139.992188 283.195312 140.339844 283.601562 140.832031 L 282.957031 141.300781 C 282.730469 141.015625 282.476562 140.625 282.195312 140.128906 C 281.921875 140.636719 281.675781 141.027344 281.472656 141.300781 L 280.828125 140.832031 C 281.257812 140.3125 281.558594 139.96875 281.746094 139.796875 C 281.277344 139.707031 280.828125 139.601562 280.398438 139.484375 Z M 280.398438 139.484375 "/>
<path style=" stroke:none;fill-rule:nonzero;fill:rgb(0%,0%,0%);fill-opacity:1;" d="M 288.253906 148.3125 L 288.136719 147.394531 C 288.355469 147.441406 288.546875 147.472656 288.703125 147.472656 C 288.921875 147.472656 289.097656 147.433594 289.230469 147.355469 C 289.355469 147.285156 289.46875 147.1875 289.5625 147.0625 C 289.609375 146.953125 289.707031 146.710938 289.855469 146.320312 C 289.878906 146.265625 289.914062 146.1875 289.953125 146.085938 L 287.726562 140.226562 L 288.800781 140.226562 L 290.011719 143.605469 C 290.167969 144.035156 290.308594 144.484375 290.441406 144.953125 C 290.542969 144.511719 290.675781 144.070312 290.832031 143.625 L 292.082031 140.226562 L 293.078125 140.226562 L 290.851562 146.164062 C 290.617188 146.796875 290.429688 147.242188 290.304688 147.492188 C 290.117188 147.8125 289.917969 148.046875 289.699219 148.195312 C 289.472656 148.351562 289.199219 148.429688 288.878906 148.429688 C 288.691406 148.429688 288.488281 148.390625 288.253906 148.3125 Z M 288.253906 148.3125 "/>
<path style="fill-rule:nonzero;fill:rgb(40%,74.901961%,100%);fill-opacity:1;stroke-width:1;stroke-linecap:round;stroke-linejoin:round;stroke:rgb(0%,0%,0%);stroke-opacity:1;stroke-miterlimit:10;" d="M 231.575 440 L 263.15 440 L 263.15 464 L 231.575 464 Z M 231.575 440 " transform="matrix(1.25,0,0,1.25,12.5,-422.5)"/>
<path style=" stroke:none;fill-rule:nonzero;fill:rgb(0%,0%,0%);fill-opacity:1;" d="M 308.859375 148.292969 L 308.859375 147.589844 L 315.421875 147.589844 L 315.421875 148.292969 Z M 308.859375 148.292969 "/>
<path style=" stroke:none;fill-rule:nonzero;fill:rgb(0%,0%,0%);fill-opacity:1;" d="M 321.230469 144.757812 L 321.230469 142.550781 L 319.042969 142.550781 L 319.042969 141.632812 L 321.230469 141.632812 L 321.230469 139.445312 L 322.167969 139.445312 L 322.167969 141.632812 L 324.355469 141.632812 L 324.355469 142.550781 L 322.167969 142.550781 L 322.167969 144.757812 Z M 321.230469 144.757812 "/>
<path style=" stroke:none;fill-rule:nonzero;fill:rgb(0%,0%,0%);fill-opacity:1;" d="M 333.777344 145.109375 L 333.777344 146.066406 L 328.445312 146.066406 C 328.445312 145.832031 328.484375 145.605469 328.5625 145.382812 C 328.703125 145.019531 328.925781 144.660156 329.226562 144.308594 C 329.523438 143.957031 329.953125 143.554688 330.515625 143.097656 C 331.386719 142.371094 331.972656 141.796875 332.273438 141.378906 C 332.585938 140.964844 332.742188 140.566406 332.742188 140.1875 C 332.742188 139.796875 332.597656 139.472656 332.3125 139.210938 C 332.039062 138.9375 331.679688 138.800781 331.238281 138.800781 C 330.753906 138.800781 330.371094 138.945312 330.085938 139.230469 C 329.796875 139.519531 329.65625 139.914062 329.65625 140.421875 L 328.640625 140.304688 C 328.703125 139.550781 328.964844 138.976562 329.421875 138.585938 C 329.875 138.183594 330.488281 137.980469 331.257812 137.980469 C 332.023438 137.980469 332.628906 138.195312 333.074219 138.625 C 333.527344 139.054688 333.757812 139.582031 333.757812 140.207031 C 333.757812 140.535156 333.691406 140.851562 333.5625 141.164062 C 333.429688 141.476562 333.210938 141.808594 332.898438 142.160156 C 332.597656 142.5 332.097656 142.96875 331.394531 143.566406 C 330.792969 144.0625 330.410156 144.402344 330.242188 144.582031 C 330.070312 144.765625 329.933594 144.941406 329.832031 145.109375 Z M 333.777344 145.109375 "/>
<path style="fill:none;stroke-width:1;stroke-linecap:round;stroke-linejoin:round;stroke:rgb(0%,0%,0%);stroke-opacity:1;stroke-miterlimit:10;" d="M 263 389.5 L 302.575 389.5 L 302.575 413.5 L 263 413.5 Z M 263 389.5 " transform="matrix(1.25,0,0,1.25,12.5,-422.5)"/>
<path style=" stroke:none;fill-rule:nonzero;fill:rgb(0%,0%,0%);fill-opacity:1;" d="M 349.226562 85.167969 L 349.226562 77.101562 L 350.125 77.101562 L 350.125 77.863281 C 350.328125 77.566406 350.5625 77.34375 350.828125 77.199219 C 351.101562 77.058594 351.433594 76.984375 351.824219 76.984375 C 352.316406 76.984375 352.75 77.117188 353.132812 77.375 C 353.507812 77.625 353.796875 77.980469 353.992188 78.449219 C 354.1875 78.917969 354.285156 79.425781 354.285156 79.972656 C 354.285156 80.574219 354.171875 81.113281 353.953125 81.59375 C 353.742188 82.078125 353.433594 82.449219 353.035156 82.707031 C 352.628906 82.949219 352.199219 83.078125 351.746094 83.078125 C 351.417969 83.078125 351.125 83.003906 350.867188 82.863281 C 350.601562 82.722656 350.386719 82.546875 350.222656 82.335938 L 350.222656 85.167969 Z M 350.125 80.050781 C 350.125 80.808594 350.269531 81.367188 350.574219 81.730469 C 350.886719 82.082031 351.257812 82.257812 351.6875 82.257812 C 352.117188 82.257812 352.488281 82.078125 352.800781 81.710938 C 353.121094 81.335938 353.289062 80.753906 353.289062 79.972656 C 353.289062 79.230469 353.132812 78.679688 352.820312 78.3125 C 352.515625 77.9375 352.15625 77.746094 351.726562 77.746094 C 351.304688 77.746094 350.933594 77.949219 350.613281 78.351562 C 350.285156 78.742188 350.125 79.308594 350.125 80.050781 Z M 350.125 80.050781 "/>
<path style=" stroke:none;fill-rule:nonzero;fill:rgb(0%,0%,0%);fill-opacity:1;" d="M 355.464844 82.941406 L 355.464844 77.101562 L 356.363281 77.101562 L 356.363281 78 C 356.582031 77.585938 356.792969 77.3125 356.988281 77.179688 C 357.183594 77.050781 357.398438 76.984375 357.632812 76.984375 C 357.953125 76.984375 358.296875 77.089844 358.648438 77.296875 L 358.296875 78.214844 C 358.0625 78.074219 357.816406 78 357.574219 78 C 357.363281 78 357.167969 78.066406 356.988281 78.195312 C 356.816406 78.328125 356.695312 78.507812 356.617188 78.742188 C 356.507812 79.09375 356.460938 79.480469 356.460938 79.894531 L 356.460938 82.941406 Z M 355.464844 82.941406 "/>
<path style=" stroke:none;fill-rule:nonzero;fill:rgb(0%,0%,0%);fill-opacity:1;" d="M 359.230469 76.027344 L 359.230469 74.894531 L 360.226562 74.894531 L 360.226562 76.027344 Z M 359.230469 82.941406 L 359.230469 77.101562 L 360.226562 77.101562 L 360.226562 82.941406 Z M 359.230469 82.941406 "/>
<path style=" stroke:none;fill-rule:nonzero;fill:rgb(0%,0%,0%);fill-opacity:1;" d="M 361.730469 82.941406 L 361.730469 77.101562 L 362.628906 77.101562 L 362.628906 77.941406 C 363.042969 77.304688 363.664062 76.984375 364.484375 76.984375 C 364.835938 76.984375 365.152344 77.050781 365.441406 77.179688 C 365.738281 77.296875 365.957031 77.460938 366.105469 77.667969 C 366.246094 77.863281 366.347656 78.105469 366.417969 78.390625 C 366.457031 78.574219 366.476562 78.894531 366.476562 79.347656 L 366.476562 82.941406 L 365.480469 82.941406 L 365.480469 79.386719 C 365.480469 78.984375 365.441406 78.683594 365.363281 78.488281 C 365.285156 78.292969 365.148438 78.136719 364.953125 78.019531 C 364.757812 77.890625 364.527344 77.824219 364.269531 77.824219 C 363.847656 77.824219 363.488281 77.960938 363.175781 78.234375 C 362.871094 78.496094 362.726562 79.003906 362.726562 79.757812 L 362.726562 82.941406 Z M 361.730469 82.941406 "/>
<path style=" stroke:none;fill-rule:nonzero;fill:rgb(0%,0%,0%);fill-opacity:1;" d="M 370.152344 82.0625 L 370.289062 82.921875 C 370.003906 82.984375 369.753906 83.019531 369.546875 83.019531 C 369.183594 83.019531 368.902344 82.960938 368.707031 82.84375 C 368.511719 82.726562 368.367188 82.578125 368.277344 82.394531 C 368.199219 82.214844 368.160156 81.828125 368.160156 81.242188 L 368.160156 77.882812 L 367.4375 77.882812 L 367.4375 77.101562 L 368.160156 77.101562 L 368.160156 75.65625 L 369.15625 75.070312 L 369.15625 77.101562 L 370.152344 77.101562 L 370.152344 77.882812 L 369.15625 77.882812 L 369.15625 81.28125 C 369.15625 81.570312 369.167969 81.75 369.195312 81.828125 C 369.234375 81.90625 369.292969 81.972656 369.371094 82.023438 C 369.449219 82.078125 369.558594 82.101562 369.703125 82.101562 C 369.820312 82.101562 369.96875 82.089844 370.152344 82.0625 Z M 370.152344 82.0625 "/>
<path style=" stroke:none;fill-rule:nonzero;fill:rgb(0%,0%,0%);fill-opacity:1;" d="M 373.003906 85.304688 C 372.457031 84.609375 371.996094 83.808594 371.617188 82.902344 C 371.238281 81.980469 371.050781 81.023438 371.050781 80.03125 C 371.050781 79.160156 371.195312 78.320312 371.480469 77.511719 C 371.804688 76.589844 372.3125 75.671875 373.003906 74.757812 L 373.707031 74.757812 C 373.265625 75.515625 372.972656 76.054688 372.828125 76.378906 C 372.605469 76.886719 372.429688 77.414062 372.300781 77.960938 C 372.144531 78.652344 372.066406 79.34375 372.066406 80.03125 C 372.066406 81.789062 372.613281 83.546875 373.707031 85.304688 Z M 373.003906 85.304688 "/>
<path style=" stroke:none;fill-rule:nonzero;fill:rgb(0%,0%,0%);fill-opacity:1;" d="M 374.332031 82.941406 L 374.332031 82.140625 L 378.042969 77.882812 C 377.621094 77.898438 377.25 77.902344 376.929688 77.902344 L 374.566406 77.902344 L 374.566406 77.101562 L 379.332031 77.101562 L 379.332031 77.765625 L 376.167969 81.457031 L 375.5625 82.140625 C 376 82.101562 376.421875 82.082031 376.8125 82.082031 L 379.507812 82.082031 L 379.507812 82.941406 Z M 374.332031 82.941406 "/>
<path style=" stroke:none;fill-rule:nonzero;fill:rgb(0%,0%,0%);fill-opacity:1;" d="M 381.128906 85.304688 L 380.425781 85.304688 C 381.519531 83.546875 382.066406 81.789062 382.066406 80.03125 C 382.066406 79.34375 381.988281 78.660156 381.832031 77.980469 C 381.699219 77.433594 381.523438 76.90625 381.304688 76.398438 C 381.15625 76.074219 380.863281 75.527344 380.425781 74.757812 L 381.128906 74.757812 C 381.816406 75.671875 382.324219 76.589844 382.652344 77.511719 C 382.933594 78.320312 383.082031 79.160156 383.082031 80.03125 C 383.082031 81.023438 382.890625 81.980469 382.515625 82.902344 C 382.132812 83.808594 381.675781 84.609375 381.128906 85.304688 Z M 381.128906 85.304688 "/>
<path style="fill:none;stroke-width:1;stroke-linecap:round;stroke-linejoin:miter;stroke:rgb(0%,0%,0%);stroke-opacity:1;stroke-miterlimit:10;" d="M 68 414 L 68 434.1 " transform="matrix(1.25,0,0,1.25,12.5,-422.5)"/>
<path style="fill-rule:nonzero;fill:rgb(0%,0%,0%);fill-opacity:1;stroke-width:1;stroke-linecap:butt;stroke-linejoin:miter;stroke:rgb(0%,0%,0%);stroke-opacity:1;stroke-miterlimit:10;" d="M 68 438.1 L 69.5 434.1 L 66.5 434.1 Z M 68 438.1 " transform="matrix(1.25,0,0,1.25,12.5,-422.5)"/>
<path style="fill:none;stroke-width:1;stroke-linecap:round;stroke-linejoin:miter;stroke:rgb(0%,0%,0%);stroke-opacity:1;stroke-miterlimit:10;" d="M 91 413 L 129.003125 436.8625 " transform="matrix(1.25,0,0,1.25,12.5,-422.5)"/>
<path style="fill-rule:nonzero;fill:rgb(0%,0%,0%);fill-opacity:1;stroke-width:1;stroke-linecap:butt;stroke-linejoin:miter;stroke:rgb(0%,0%,0%);stroke-opacity:1;stroke-miterlimit:10;" d="M 132.390625 438.9875 L 129.8 435.59375 L 128.20625 438.13125 Z M 132.390625 438.9875 " transform="matrix(1.25,0,0,1.25,12.5,-422.5)"/>
<path style="fill:none;stroke-width:1;stroke-linecap:round;stroke-linejoin:miter;stroke:rgb(0%,0%,0%);stroke-opacity:1;stroke-miterlimit:10;" d="M 113 413 L 194.3625 438.25 " transform="matrix(1.25,0,0,1.25,12.5,-422.5)"/>
<path style="fill-rule:nonzero;fill:rgb(0%,0%,0%);fill-opacity:1;stroke-width:1;stroke-linecap:butt;stroke-linejoin:miter;stroke:rgb(0%,0%,0%);stroke-opacity:1;stroke-miterlimit:10;" d="M 198.184375 439.4375 L 194.809375 436.81875 L 193.921875 439.684375 Z M 198.184375 439.4375 " transform="matrix(1.25,0,0,1.25,12.5,-422.5)"/>
<path style="fill:none;stroke-width:1;stroke-linecap:round;stroke-linejoin:miter;stroke:rgb(0%,0%,0%);stroke-opacity:1;stroke-miterlimit:10;" d="M 143.5 414 L 225.91875 438.328125 " transform="matrix(1.25,0,0,1.25,12.5,-422.5)"/>
<path style="fill-rule:nonzero;fill:rgb(0%,0%,0%);fill-opacity:1;stroke-width:1;stroke-linecap:butt;stroke-linejoin:miter;stroke:rgb(0%,0%,0%);stroke-opacity:1;stroke-miterlimit:10;" d="M 229.753125 439.4625 L 226.340625 436.890625 L 225.49375 439.76875 Z M 229.753125 439.4625 " transform="matrix(1.25,0,0,1.25,12.5,-422.5)"/>
<path style="fill:none;stroke-width:1;stroke-linecap:round;stroke-linejoin:miter;stroke:rgb(0%,0%,0%);stroke-opacity:1;stroke-dasharray:4,4;stroke-miterlimit:10;" d="M 263 440 L 263 420.9 " transform="matrix(1.25,0,0,1.25,12.5,-422.5)"/>
<path style="fill-rule:nonzero;fill:rgb(0%,0%,0%);fill-opacity:1;stroke-width:1;stroke-linecap:butt;stroke-linejoin:miter;stroke:rgb(0%,0%,0%);stroke-opacity:1;stroke-miterlimit:10;" d="M 263 416.9 L 261.5 420.9 L 264.5 420.9 Z M 263 416.9 " transform="matrix(1.25,0,0,1.25,12.5,-422.5)"/>
<path style=" stroke:none;fill-rule:nonzero;fill:rgb(0%,0%,0%);fill-opacity:1;" d="M 313.066406 115.882812 L 311.289062 110.042969 L 312.304688 110.042969 L 313.242188 113.421875 L 313.574219 114.671875 C 313.585938 114.609375 313.691406 114.203125 313.886719 113.460938 L 314.804688 110.042969 L 315.820312 110.042969 L 316.699219 113.441406 L 316.992188 114.554688 L 317.324219 113.421875 L 318.320312 110.042969 L 319.277344 110.042969 L 317.460938 115.882812 L 316.445312 115.882812 L 315.507812 112.386719 L 315.273438 111.390625 L 314.101562 115.882812 Z M 313.066406 115.882812 "/>
<path style=" stroke:none;fill-rule:nonzero;fill:rgb(0%,0%,0%);fill-opacity:1;" d="M 323.925781 115.160156 C 323.558594 115.472656 323.207031 115.695312 322.871094 115.824219 C 322.527344 115.949219 322.167969 116.019531 321.777344 116.019531 C 321.136719 116.019531 320.644531 115.863281 320.292969 115.550781 C 319.949219 115.238281 319.785156 114.835938 319.785156 114.339844 C 319.785156 114.054688 319.847656 113.792969 319.980469 113.558594 C 320.105469 113.324219 320.277344 113.136719 320.488281 112.992188 C 320.691406 112.851562 320.925781 112.738281 321.191406 112.660156 C 321.386719 112.621094 321.679688 112.578125 322.070312 112.523438 C 322.875 112.433594 323.464844 112.316406 323.847656 112.171875 C 323.847656 112.042969 323.847656 111.957031 323.847656 111.917969 C 323.847656 111.515625 323.753906 111.234375 323.574219 111.078125 C 323.308594 110.84375 322.933594 110.726562 322.441406 110.726562 C 321.972656 110.726562 321.625 110.8125 321.40625 110.980469 C 321.179688 111.136719 321.019531 111.425781 320.917969 111.839844 L 319.960938 111.722656 C 320.039062 111.308594 320.175781 110.976562 320.371094 110.726562 C 320.574219 110.46875 320.867188 110.273438 321.25 110.140625 C 321.640625 110 322.078125 109.925781 322.578125 109.925781 C 323.085938 109.925781 323.484375 109.984375 323.789062 110.101562 C 324.101562 110.21875 324.324219 110.371094 324.472656 110.550781 C 324.628906 110.722656 324.730469 110.941406 324.785156 111.214844 C 324.824219 111.386719 324.84375 111.683594 324.84375 112.113281 L 324.84375 113.441406 C 324.84375 114.355469 324.863281 114.933594 324.902344 115.179688 C 324.941406 115.429688 325.023438 115.664062 325.15625 115.882812 L 324.121094 115.882812 C 324.011719 115.675781 323.949219 115.433594 323.925781 115.160156 Z M 323.847656 112.953125 C 323.480469 113.097656 322.9375 113.222656 322.226562 113.324219 C 321.820312 113.390625 321.53125 113.460938 321.367188 113.539062 C 321.195312 113.605469 321.0625 113.710938 320.976562 113.851562 C 320.882812 113.996094 320.839844 114.152344 320.839844 114.320312 C 320.839844 114.582031 320.9375 114.804688 321.132812 114.984375 C 321.328125 115.15625 321.621094 115.238281 322.011719 115.238281 C 322.386719 115.238281 322.722656 115.15625 323.027344 114.984375 C 323.324219 114.816406 323.542969 114.589844 323.691406 114.300781 C 323.792969 114.082031 323.847656 113.753906 323.847656 113.324219 Z M 323.847656 112.953125 "/>
<path style=" stroke:none;fill-rule:nonzero;fill:rgb(0%,0%,0%);fill-opacity:1;" d="M 326.375 108.96875 L 326.375 107.835938 L 327.371094 107.835938 L 327.371094 108.96875 Z M 326.375 115.882812 L 326.375 110.042969 L 327.371094 110.042969 L 327.371094 115.882812 Z M 326.375 115.882812 "/>
<path style=" stroke:none;fill-rule:nonzero;fill:rgb(0%,0%,0%);fill-opacity:1;" d="M 331.042969 115.003906 L 331.179688 115.863281 C 330.890625 115.925781 330.640625 115.960938 330.4375 115.960938 C 330.070312 115.960938 329.792969 115.902344 329.597656 115.785156 C 329.402344 115.667969 329.253906 115.519531 329.167969 115.335938 C 329.089844 115.15625 329.050781 114.769531 329.050781 114.183594 L 329.050781 110.824219 L 328.328125 110.824219 L 328.328125 110.042969 L 329.050781 110.042969 L 329.050781 108.597656 L 330.046875 108.011719 L 330.046875 110.042969 L 331.042969 110.042969 L 331.042969 110.824219 L 330.046875 110.824219 L 330.046875 114.222656 C 330.046875 114.511719 330.054688 114.691406 330.085938 114.769531 C 330.125 114.847656 330.183594 114.914062 330.261719 114.964844 C 330.339844 115.019531 330.445312 115.042969 330.59375 115.042969 C 330.710938 115.042969 330.855469 115.03125 331.042969 115.003906 Z M 331.042969 115.003906 "/>
<path style="fill-rule:nonzero;fill:rgb(40%,74.901961%,100%);fill-opacity:1;stroke-width:1;stroke-linecap:round;stroke-linejoin:round;stroke:rgb(0%,0%,0%);stroke-opacity:1;stroke-miterlimit:10;" d="M 158 339 L 224 339 L 224 363 L 158 363 Z M 158 339 " transform="matrix(1.25,0,0,1.25,12.5,-422.5)"/>
<path style=" stroke:none;fill-rule:nonzero;fill:rgb(0%,0%,0%);fill-opacity:1;" d="M 226.292969 16.90625 C 226.292969 15.828125 226.59375 15.027344 227.191406 14.503906 C 227.699219 14.074219 228.3125 13.859375 229.027344 13.859375 C 229.835938 13.859375 230.492188 14.121094 231 14.640625 C 231.507812 15.164062 231.761719 15.886719 231.761719 16.808594 C 231.761719 17.566406 231.644531 18.15625 231.410156 18.585938 C 231.1875 19.015625 230.863281 19.355469 230.433594 19.601562 C 230.003906 19.835938 229.535156 19.953125 229.027344 19.953125 C 228.207031 19.953125 227.542969 19.695312 227.035156 19.171875 C 226.539062 18.640625 226.292969 17.882812 226.292969 16.90625 Z M 227.308594 16.90625 C 227.308594 17.648438 227.472656 18.210938 227.796875 18.585938 C 228.121094 18.953125 228.53125 19.132812 229.027344 19.132812 C 229.523438 19.132812 229.933594 18.953125 230.257812 18.585938 C 230.582031 18.210938 230.746094 17.636719 230.746094 16.867188 C 230.746094 16.152344 230.582031 15.605469 230.257812 15.226562 C 229.933594 14.851562 229.523438 14.660156 229.027344 14.660156 C 228.53125 14.660156 228.121094 14.851562 227.796875 15.226562 C 227.472656 15.59375 227.308594 16.152344 227.308594 16.90625 Z M 227.308594 16.90625 "/>
<path style=" stroke:none;fill-rule:nonzero;fill:rgb(0%,0%,0%);fill-opacity:1;" d="M 232.921875 19.816406 L 232.921875 13.976562 L 233.820312 13.976562 L 233.820312 14.816406 C 234.238281 14.179688 234.855469 13.859375 235.675781 13.859375 C 236.027344 13.859375 236.347656 13.925781 236.632812 14.054688 C 236.933594 14.171875 237.152344 14.335938 237.296875 14.542969 C 237.441406 14.738281 237.542969 14.980469 237.609375 15.265625 C 237.648438 15.449219 237.667969 15.769531 237.667969 16.222656 L 237.667969 19.816406 L 236.671875 19.816406 L 236.671875 16.261719 C 236.671875 15.859375 236.632812 15.558594 236.554688 15.363281 C 236.476562 15.167969 236.339844 15.011719 236.144531 14.894531 C 235.949219 14.765625 235.722656 14.699219 235.460938 14.699219 C 235.042969 14.699219 234.679688 14.835938 234.367188 15.109375 C 234.066406 15.371094 233.917969 15.878906 233.917969 16.632812 L 233.917969 19.816406 Z M 232.921875 19.816406 "/>
<path style=" stroke:none;fill-rule:nonzero;fill:rgb(0%,0%,0%);fill-opacity:1;" d="M 243.164062 17.941406 L 244.199219 18.058594 C 244.027344 18.660156 243.722656 19.128906 243.28125 19.464844 C 242.851562 19.792969 242.296875 19.953125 241.621094 19.953125 C 240.773438 19.953125 240.097656 19.695312 239.589844 19.171875 C 239.09375 18.640625 238.847656 17.898438 238.847656 16.945312 C 238.847656 15.96875 239.101562 15.214844 239.609375 14.679688 C 240.117188 14.132812 240.773438 13.859375 241.582031 13.859375 C 242.363281 13.859375 242.992188 14.128906 243.476562 14.660156 C 243.96875 15.183594 244.21875 15.925781 244.21875 16.886719 C 244.21875 16.953125 244.21875 17.042969 244.21875 17.160156 L 239.863281 17.160156 C 239.902344 17.800781 240.082031 18.289062 240.410156 18.625 C 240.734375 18.964844 241.144531 19.132812 241.640625 19.132812 C 242.003906 19.132812 242.308594 19.042969 242.558594 18.859375 C 242.816406 18.664062 243.019531 18.359375 243.164062 17.941406 Z M 239.921875 16.339844 L 243.183594 16.339844 C 243.144531 15.847656 243.019531 15.476562 242.8125 15.226562 C 242.5 14.851562 242.089844 14.660156 241.582031 14.660156 C 241.125 14.660156 240.742188 14.816406 240.429688 15.128906 C 240.128906 15.429688 239.960938 15.832031 239.921875 16.339844 Z M 239.921875 16.339844 "/>
<path style=" stroke:none;fill-rule:nonzero;fill:rgb(0%,0%,0%);fill-opacity:1;" d="M 245.046875 18.078125 L 246.023438 17.921875 C 246.074219 18.3125 246.222656 18.613281 246.472656 18.820312 C 246.730469 19.03125 247.082031 19.132812 247.527344 19.132812 C 247.980469 19.132812 248.320312 19.042969 248.542969 18.859375 C 248.761719 18.679688 248.875 18.464844 248.875 18.214844 C 248.875 17.980469 248.777344 17.804688 248.582031 17.6875 C 248.4375 17.597656 248.097656 17.480469 247.566406 17.335938 C 246.835938 17.15625 246.328125 17 246.042969 16.867188 C 245.769531 16.738281 245.558594 16.554688 245.417969 16.320312 C 245.273438 16.085938 245.203125 15.828125 245.203125 15.539062 C 245.203125 15.28125 245.261719 15.039062 245.378906 14.816406 C 245.496094 14.597656 245.65625 14.40625 245.867188 14.25 C 246.023438 14.148438 246.230469 14.054688 246.492188 13.976562 C 246.765625 13.898438 247.050781 13.859375 247.351562 13.859375 C 247.804688 13.859375 248.203125 13.925781 248.542969 14.054688 C 248.894531 14.1875 249.152344 14.363281 249.324219 14.582031 C 249.492188 14.804688 249.609375 15.105469 249.675781 15.480469 L 248.699219 15.617188 C 248.660156 15.320312 248.527344 15.085938 248.308594 14.914062 C 248.097656 14.746094 247.804688 14.660156 247.429688 14.660156 C 246.972656 14.660156 246.648438 14.738281 246.453125 14.894531 C 246.257812 15.039062 246.160156 15.214844 246.160156 15.421875 C 246.160156 15.554688 246.199219 15.664062 246.277344 15.753906 C 246.355469 15.871094 246.484375 15.964844 246.667969 16.027344 C 246.757812 16.066406 247.042969 16.152344 247.527344 16.28125 C 248.230469 16.464844 248.71875 16.613281 248.992188 16.730469 C 249.277344 16.847656 249.5 17.023438 249.65625 17.257812 C 249.8125 17.480469 249.890625 17.761719 249.890625 18.097656 C 249.890625 18.4375 249.792969 18.75 249.597656 19.035156 C 249.402344 19.324219 249.121094 19.550781 248.757812 19.71875 C 248.40625 19.875 247.996094 19.953125 247.527344 19.953125 C 246.769531 19.953125 246.191406 19.796875 245.789062 19.484375 C 245.398438 19.160156 245.148438 18.691406 245.046875 18.078125 Z M 245.046875 18.078125 "/>
<path style=" stroke:none;fill-rule:nonzero;fill:rgb(0%,0%,0%);fill-opacity:1;" d="M 252.957031 22.179688 C 252.410156 21.484375 251.945312 20.683594 251.570312 19.777344 C 251.191406 18.855469 251.003906 17.898438 251.003906 16.90625 C 251.003906 16.035156 251.144531 15.195312 251.433594 14.386719 C 251.757812 13.464844 252.265625 12.546875 252.957031 11.632812 L 253.660156 11.632812 C 253.214844 12.390625 252.921875 12.929688 252.78125 13.253906 C 252.558594 13.761719 252.382812 14.289062 252.253906 14.835938 C 252.097656 15.527344 252.019531 16.21875 252.019531 16.90625 C 252.019531 18.664062 252.566406 20.421875 253.660156 22.179688 Z M 252.957031 22.179688 "/>
<path style=" stroke:none;fill-rule:nonzero;fill:rgb(0%,0%,0%);fill-opacity:1;" d="M 258.265625 19.816406 L 257.269531 19.816406 L 257.269531 13.507812 C 257.035156 13.742188 256.722656 13.976562 256.332031 14.210938 C 255.941406 14.433594 255.59375 14.597656 255.296875 14.699219 L 255.296875 13.742188 C 255.84375 13.496094 256.324219 13.191406 256.742188 12.824219 C 257.15625 12.449219 257.449219 12.082031 257.621094 11.730469 L 258.265625 11.730469 Z M 258.265625 19.816406 "/>
<path style=" stroke:none;fill-rule:nonzero;fill:rgb(0%,0%,0%);fill-opacity:1;" d="M 261.320312 19.816406 L 261.320312 18.683594 L 262.453125 18.683594 L 262.453125 19.816406 C 262.453125 20.230469 262.375 20.5625 262.21875 20.8125 C 262.070312 21.070312 261.847656 21.269531 261.535156 21.417969 L 261.261719 20.988281 C 261.464844 20.894531 261.617188 20.757812 261.710938 20.578125 C 261.8125 20.40625 261.871094 20.152344 261.886719 19.816406 Z M 261.320312 19.816406 "/>
<path style=" stroke:none;fill-rule:nonzero;fill:rgb(0%,0%,0%);fill-opacity:1;" d="M 272.238281 18.859375 L 272.238281 19.816406 L 266.90625 19.816406 C 266.90625 19.582031 266.945312 19.355469 267.023438 19.132812 C 267.164062 18.769531 267.386719 18.410156 267.6875 18.058594 C 267.984375 17.707031 268.414062 17.304688 268.976562 16.847656 C 269.847656 16.121094 270.433594 15.546875 270.734375 15.128906 C 271.046875 14.714844 271.203125 14.316406 271.203125 13.9375 C 271.203125 13.546875 271.058594 13.222656 270.773438 12.960938 C 270.5 12.6875 270.140625 12.550781 269.699219 12.550781 C 269.214844 12.550781 268.832031 12.695312 268.546875 12.980469 C 268.257812 13.269531 268.117188 13.664062 268.117188 14.171875 L 267.101562 14.054688 C 267.164062 13.300781 267.425781 12.726562 267.882812 12.335938 C 268.335938 11.933594 268.949219 11.730469 269.71875 11.730469 C 270.484375 11.730469 271.089844 11.945312 271.535156 12.375 C 271.988281 12.804688 272.21875 13.332031 272.21875 13.957031 C 272.21875 14.285156 272.152344 14.601562 272.023438 14.914062 C 271.890625 15.226562 271.671875 15.558594 271.359375 15.910156 C 271.058594 16.25 270.558594 16.71875 269.855469 17.316406 C 269.253906 17.8125 268.871094 18.152344 268.703125 18.332031 C 268.53125 18.515625 268.394531 18.691406 268.292969 18.859375 Z M 272.238281 18.859375 "/>
<path style=" stroke:none;fill-rule:nonzero;fill:rgb(0%,0%,0%);fill-opacity:1;" d="M 274.21875 22.179688 L 273.515625 22.179688 C 274.609375 20.421875 275.15625 18.664062 275.15625 16.90625 C 275.15625 16.21875 275.078125 15.535156 274.921875 14.855469 C 274.789062 14.308594 274.613281 13.78125 274.394531 13.273438 C 274.246094 12.949219 273.953125 12.402344 273.515625 11.632812 L 274.21875 11.632812 C 274.90625 12.546875 275.414062 13.464844 275.742188 14.386719 C 276.023438 15.195312 276.171875 16.035156 276.171875 16.90625 C 276.171875 17.898438 275.980469 18.855469 275.605469 19.777344 C 275.222656 20.683594 274.765625 21.484375 274.21875 22.179688 Z M 274.21875 22.179688 "/>
<path style="fill-rule:nonzero;fill:rgb(40%,74.901961%,100%);fill-opacity:1;stroke-width:1;stroke-linecap:round;stroke-linejoin:round;stroke:rgb(0%,0%,0%);stroke-opacity:1;stroke-miterlimit:10;" d="M 68 440 L 134 440 L 134 464 L 68 464 Z M 68 440 " transform="matrix(1.25,0,0,1.25,12.5,-422.5)"/>
<path style=" stroke:none;fill-rule:nonzero;fill:rgb(0%,0%,0%);fill-opacity:1;" d="M 113.792969 143.15625 C 113.792969 142.078125 114.09375 141.277344 114.691406 140.753906 C 115.199219 140.324219 115.8125 140.109375 116.527344 140.109375 C 117.335938 140.109375 117.992188 140.371094 118.5 140.890625 C 119.007812 141.414062 119.261719 142.136719 119.261719 143.058594 C 119.261719 143.816406 119.144531 144.40625 118.910156 144.835938 C 118.6875 145.265625 118.363281 145.605469 117.933594 145.851562 C 117.503906 146.085938 117.035156 146.203125 116.527344 146.203125 C 115.707031 146.203125 115.042969 145.945312 114.535156 145.421875 C 114.039062 144.890625 113.792969 144.132812 113.792969 143.15625 Z M 114.808594 143.15625 C 114.808594 143.898438 114.972656 144.460938 115.296875 144.835938 C 115.621094 145.203125 116.03125 145.382812 116.527344 145.382812 C 117.023438 145.382812 117.433594 145.203125 117.757812 144.835938 C 118.082031 144.460938 118.246094 143.886719 118.246094 143.117188 C 118.246094 142.402344 118.082031 141.855469 117.757812 141.476562 C 117.433594 141.101562 117.023438 140.910156 116.527344 140.910156 C 116.03125 140.910156 115.621094 141.101562 115.296875 141.476562 C 114.972656 141.84375 114.808594 142.402344 114.808594 143.15625 Z M 114.808594 143.15625 "/>
<path style=" stroke:none;fill-rule:nonzero;fill:rgb(0%,0%,0%);fill-opacity:1;" d="M 120.421875 146.066406 L 120.421875 140.226562 L 121.320312 140.226562 L 121.320312 141.066406 C 121.738281 140.429688 122.355469 140.109375 123.175781 140.109375 C 123.527344 140.109375 123.847656 140.175781 124.132812 140.304688 C 124.433594 140.421875 124.652344 140.585938 124.796875 140.792969 C 124.941406 140.988281 125.042969 141.230469 125.109375 141.515625 C 125.148438 141.699219 125.167969 142.019531 125.167969 142.472656 L 125.167969 146.066406 L 124.171875 146.066406 L 124.171875 142.511719 C 124.171875 142.109375 124.132812 141.808594 124.054688 141.613281 C 123.976562 141.417969 123.839844 141.261719 123.644531 141.144531 C 123.449219 141.015625 123.222656 140.949219 122.960938 140.949219 C 122.542969 140.949219 122.179688 141.085938 121.867188 141.359375 C 121.566406 141.621094 121.417969 142.128906 121.417969 142.882812 L 121.417969 146.066406 Z M 120.421875 146.066406 "/>
<path style=" stroke:none;fill-rule:nonzero;fill:rgb(0%,0%,0%);fill-opacity:1;" d="M 130.664062 144.191406 L 131.699219 144.308594 C 131.527344 144.910156 131.222656 145.378906 130.78125 145.714844 C 130.351562 146.042969 129.796875 146.203125 129.121094 146.203125 C 128.273438 146.203125 127.597656 145.945312 127.089844 145.421875 C 126.59375 144.890625 126.347656 144.148438 126.347656 143.195312 C 126.347656 142.21875 126.601562 141.464844 127.109375 140.929688 C 127.617188 140.382812 128.273438 140.109375 129.082031 140.109375 C 129.863281 140.109375 130.492188 140.378906 130.976562 140.910156 C 131.46875 141.433594 131.71875 142.175781 131.71875 143.136719 C 131.71875 143.203125 131.71875 143.292969 131.71875 143.410156 L 127.363281 143.410156 C 127.402344 144.050781 127.582031 144.539062 127.910156 144.875 C 128.234375 145.214844 128.644531 145.382812 129.140625 145.382812 C 129.503906 145.382812 129.808594 145.292969 130.058594 145.109375 C 130.316406 144.914062 130.519531 144.609375 130.664062 144.191406 Z M 127.421875 142.589844 L 130.683594 142.589844 C 130.644531 142.097656 130.519531 141.726562 130.3125 141.476562 C 130 141.101562 129.589844 140.910156 129.082031 140.910156 C 128.625 140.910156 128.242188 141.066406 127.929688 141.378906 C 127.628906 141.679688 127.460938 142.082031 127.421875 142.589844 Z M 127.421875 142.589844 "/>
<path style=" stroke:none;fill-rule:nonzero;fill:rgb(0%,0%,0%);fill-opacity:1;" d="M 132.546875 144.328125 L 133.523438 144.171875 C 133.574219 144.5625 133.722656 144.863281 133.972656 145.070312 C 134.230469 145.28125 134.582031 145.382812 135.027344 145.382812 C 135.480469 145.382812 135.820312 145.292969 136.042969 145.109375 C 136.261719 144.929688 136.375 144.714844 136.375 144.464844 C 136.375 144.230469 136.277344 144.054688 136.082031 143.9375 C 135.9375 143.847656 135.597656 143.730469 135.066406 143.585938 C 134.335938 143.40625 133.828125 143.25 133.542969 143.117188 C 133.269531 142.988281 133.058594 142.804688 132.917969 142.570312 C 132.773438 142.335938 132.703125 142.078125 132.703125 141.789062 C 132.703125 141.53125 132.761719 141.289062 132.878906 141.066406 C 132.996094 140.847656 133.15625 140.65625 133.367188 140.5 C 133.523438 140.398438 133.730469 140.304688 133.992188 140.226562 C 134.265625 140.148438 134.550781 140.109375 134.851562 140.109375 C 135.304688 140.109375 135.703125 140.175781 136.042969 140.304688 C 136.394531 140.4375 136.652344 140.613281 136.824219 140.832031 C 136.992188 141.054688 137.109375 141.355469 137.175781 141.730469 L 136.199219 141.867188 C 136.160156 141.570312 136.027344 141.335938 135.808594 141.164062 C 135.597656 140.996094 135.304688 140.910156 134.929688 140.910156 C 134.472656 140.910156 134.148438 140.988281 133.953125 141.144531 C 133.757812 141.289062 133.660156 141.464844 133.660156 141.671875 C 133.660156 141.804688 133.699219 141.914062 133.777344 142.003906 C 133.855469 142.121094 133.984375 142.214844 134.167969 142.277344 C 134.257812 142.316406 134.542969 142.402344 135.027344 142.53125 C 135.730469 142.714844 136.21875 142.863281 136.492188 142.980469 C 136.777344 143.097656 137 143.273438 137.15625 143.507812 C 137.3125 143.730469 137.390625 144.011719 137.390625 144.347656 C 137.390625 144.6875 137.292969 145 137.097656 145.285156 C 136.902344 145.574219 136.621094 145.800781 136.257812 145.96875 C 135.90625 146.125 135.496094 146.203125 135.027344 146.203125 C 134.269531 146.203125 133.691406 146.046875 133.289062 145.734375 C 132.898438 145.410156 132.648438 144.941406 132.546875 144.328125 Z M 132.546875 144.328125 "/>
<path style=" stroke:none;fill-rule:nonzero;fill:rgb(0%,0%,0%);fill-opacity:1;" d="M 140.457031 148.429688 C 139.910156 147.734375 139.445312 146.933594 139.070312 146.027344 C 138.691406 145.105469 138.503906 144.148438 138.503906 143.15625 C 138.503906 142.285156 138.644531 141.445312 138.933594 140.636719 C 139.257812 139.714844 139.765625 138.796875 140.457031 137.882812 L 141.160156 137.882812 C 140.714844 138.640625 140.421875 139.179688 140.28125 139.503906 C 140.058594 140.011719 139.882812 140.539062 139.753906 141.085938 C 139.597656 141.777344 139.519531 142.46875 139.519531 143.15625 C 139.519531 144.914062 140.066406 146.671875 141.160156 148.429688 Z M 140.457031 148.429688 "/>
<path style=" stroke:none;fill-rule:nonzero;fill:rgb(0%,0%,0%);fill-opacity:1;" d="M 145.765625 146.066406 L 144.769531 146.066406 L 144.769531 139.757812 C 144.535156 139.992188 144.222656 140.226562 143.832031 140.460938 C 143.441406 140.683594 143.09375 140.847656 142.796875 140.949219 L 142.796875 139.992188 C 143.34375 139.746094 143.824219 139.441406 144.242188 139.074219 C 144.65625 138.699219 144.949219 138.332031 145.121094 137.980469 L 145.765625 137.980469 Z M 145.765625 146.066406 "/>
<path style=" stroke:none;fill-rule:nonzero;fill:rgb(0%,0%,0%);fill-opacity:1;" d="M 148.820312 146.066406 L 148.820312 144.933594 L 149.953125 144.933594 L 149.953125 146.066406 C 149.953125 146.480469 149.875 146.8125 149.71875 147.0625 C 149.570312 147.320312 149.347656 147.519531 149.035156 147.667969 L 148.761719 147.238281 C 148.964844 147.144531 149.117188 147.007812 149.210938 146.828125 C 149.3125 146.65625 149.371094 146.402344 149.386719 146.066406 Z M 148.820312 146.066406 "/>
<path style=" stroke:none;fill-rule:nonzero;fill:rgb(0%,0%,0%);fill-opacity:1;" d="M 159.738281 145.109375 L 159.738281 146.066406 L 154.40625 146.066406 C 154.40625 145.832031 154.445312 145.605469 154.523438 145.382812 C 154.664062 145.019531 154.886719 144.660156 155.1875 144.308594 C 155.484375 143.957031 155.914062 143.554688 156.476562 143.097656 C 157.347656 142.371094 157.933594 141.796875 158.234375 141.378906 C 158.546875 140.964844 158.703125 140.566406 158.703125 140.1875 C 158.703125 139.796875 158.558594 139.472656 158.273438 139.210938 C 158 138.9375 157.640625 138.800781 157.199219 138.800781 C 156.714844 138.800781 156.332031 138.945312 156.046875 139.230469 C 155.757812 139.519531 155.617188 139.914062 155.617188 140.421875 L 154.601562 140.304688 C 154.664062 139.550781 154.925781 138.976562 155.382812 138.585938 C 155.835938 138.183594 156.449219 137.980469 157.21875 137.980469 C 157.984375 137.980469 158.589844 138.195312 159.035156 138.625 C 159.488281 139.054688 159.71875 139.582031 159.71875 140.207031 C 159.71875 140.535156 159.652344 140.851562 159.523438 141.164062 C 159.390625 141.476562 159.171875 141.808594 158.859375 142.160156 C 158.558594 142.5 158.058594 142.96875 157.355469 143.566406 C 156.753906 144.0625 156.371094 144.402344 156.203125 144.582031 C 156.03125 144.765625 155.894531 144.941406 155.792969 145.109375 Z M 159.738281 145.109375 "/>
<path style=" stroke:none;fill-rule:nonzero;fill:rgb(0%,0%,0%);fill-opacity:1;" d="M 161.71875 148.429688 L 161.015625 148.429688 C 162.109375 146.671875 162.65625 144.914062 162.65625 143.15625 C 162.65625 142.46875 162.578125 141.785156 162.421875 141.105469 C 162.289062 140.558594 162.113281 140.03125 161.894531 139.523438 C 161.746094 139.199219 161.453125 138.652344 161.015625 137.882812 L 161.71875 137.882812 C 162.40625 138.796875 162.914062 139.714844 163.242188 140.636719 C 163.523438 141.445312 163.671875 142.285156 163.671875 143.15625 C 163.671875 144.148438 163.480469 145.105469 163.105469 146.027344 C 162.722656 146.933594 162.265625 147.734375 161.71875 148.429688 Z M 161.71875 148.429688 "/>
<path style="fill-rule:nonzero;fill:rgb(40%,74.901961%,100%);fill-opacity:1;stroke-width:1;stroke-linecap:round;stroke-linejoin:round;stroke:rgb(0%,0%,0%);stroke-opacity:1;stroke-miterlimit:10;" d="M 134 440 L 200 440 L 200 464 L 134 464 Z M 134 440 " transform="matrix(1.25,0,0,1.25,12.5,-422.5)"/>
<path style=" stroke:none;fill-rule:nonzero;fill:rgb(0%,0%,0%);fill-opacity:1;" d="M 196.292969 143.15625 C 196.292969 142.078125 196.59375 141.277344 197.191406 140.753906 C 197.699219 140.324219 198.3125 140.109375 199.027344 140.109375 C 199.835938 140.109375 200.492188 140.371094 201 140.890625 C 201.507812 141.414062 201.761719 142.136719 201.761719 143.058594 C 201.761719 143.816406 201.644531 144.40625 201.410156 144.835938 C 201.1875 145.265625 200.863281 145.605469 200.433594 145.851562 C 200.003906 146.085938 199.535156 146.203125 199.027344 146.203125 C 198.207031 146.203125 197.542969 145.945312 197.035156 145.421875 C 196.539062 144.890625 196.292969 144.132812 196.292969 143.15625 Z M 197.308594 143.15625 C 197.308594 143.898438 197.472656 144.460938 197.796875 144.835938 C 198.121094 145.203125 198.53125 145.382812 199.027344 145.382812 C 199.523438 145.382812 199.933594 145.203125 200.257812 144.835938 C 200.582031 144.460938 200.746094 143.886719 200.746094 143.117188 C 200.746094 142.402344 200.582031 141.855469 200.257812 141.476562 C 199.933594 141.101562 199.523438 140.910156 199.027344 140.910156 C 198.53125 140.910156 198.121094 141.101562 197.796875 141.476562 C 197.472656 141.84375 197.308594 142.402344 197.308594 143.15625 Z M 197.308594 143.15625 "/>
<path style=" stroke:none;fill-rule:nonzero;fill:rgb(0%,0%,0%);fill-opacity:1;" d="M 202.921875 146.066406 L 202.921875 140.226562 L 203.820312 140.226562 L 203.820312 141.066406 C 204.238281 140.429688 204.855469 140.109375 205.675781 140.109375 C 206.027344 140.109375 206.347656 140.175781 206.632812 140.304688 C 206.933594 140.421875 207.152344 140.585938 207.296875 140.792969 C 207.441406 140.988281 207.542969 141.230469 207.609375 141.515625 C 207.648438 141.699219 207.667969 142.019531 207.667969 142.472656 L 207.667969 146.066406 L 206.671875 146.066406 L 206.671875 142.511719 C 206.671875 142.109375 206.632812 141.808594 206.554688 141.613281 C 206.476562 141.417969 206.339844 141.261719 206.144531 141.144531 C 205.949219 141.015625 205.722656 140.949219 205.460938 140.949219 C 205.042969 140.949219 204.679688 141.085938 204.367188 141.359375 C 204.066406 141.621094 203.917969 142.128906 203.917969 142.882812 L 203.917969 146.066406 Z M 202.921875 146.066406 "/>
<path style=" stroke:none;fill-rule:nonzero;fill:rgb(0%,0%,0%);fill-opacity:1;" d="M 213.164062 144.191406 L 214.199219 144.308594 C 214.027344 144.910156 213.722656 145.378906 213.28125 145.714844 C 212.851562 146.042969 212.296875 146.203125 211.621094 146.203125 C 210.773438 146.203125 210.097656 145.945312 209.589844 145.421875 C 209.09375 144.890625 208.847656 144.148438 208.847656 143.195312 C 208.847656 142.21875 209.101562 141.464844 209.609375 140.929688 C 210.117188 140.382812 210.773438 140.109375 211.582031 140.109375 C 212.363281 140.109375 212.992188 140.378906 213.476562 140.910156 C 213.96875 141.433594 214.21875 142.175781 214.21875 143.136719 C 214.21875 143.203125 214.21875 143.292969 214.21875 143.410156 L 209.863281 143.410156 C 209.902344 144.050781 210.082031 144.539062 210.410156 144.875 C 210.734375 145.214844 211.144531 145.382812 211.640625 145.382812 C 212.003906 145.382812 212.308594 145.292969 212.558594 145.109375 C 212.816406 144.914062 213.019531 144.609375 213.164062 144.191406 Z M 209.921875 142.589844 L 213.183594 142.589844 C 213.144531 142.097656 213.019531 141.726562 212.8125 141.476562 C 212.5 141.101562 212.089844 140.910156 211.582031 140.910156 C 211.125 140.910156 210.742188 141.066406 210.429688 141.378906 C 210.128906 141.679688 209.960938 142.082031 209.921875 142.589844 Z M 209.921875 142.589844 "/>
<path style=" stroke:none;fill-rule:nonzero;fill:rgb(0%,0%,0%);fill-opacity:1;" d="M 215.046875 144.328125 L 216.023438 144.171875 C 216.074219 144.5625 216.222656 144.863281 216.472656 145.070312 C 216.730469 145.28125 217.082031 145.382812 217.527344 145.382812 C 217.980469 145.382812 218.320312 145.292969 218.542969 145.109375 C 218.761719 144.929688 218.875 144.714844 218.875 144.464844 C 218.875 144.230469 218.777344 144.054688 218.582031 143.9375 C 218.4375 143.847656 218.097656 143.730469 217.566406 143.585938 C 216.835938 143.40625 216.328125 143.25 216.042969 143.117188 C 215.769531 142.988281 215.558594 142.804688 215.417969 142.570312 C 215.273438 142.335938 215.203125 142.078125 215.203125 141.789062 C 215.203125 141.53125 215.261719 141.289062 215.378906 141.066406 C 215.496094 140.847656 215.65625 140.65625 215.867188 140.5 C 216.023438 140.398438 216.230469 140.304688 216.492188 140.226562 C 216.765625 140.148438 217.050781 140.109375 217.351562 140.109375 C 217.804688 140.109375 218.203125 140.175781 218.542969 140.304688 C 218.894531 140.4375 219.152344 140.613281 219.324219 140.832031 C 219.492188 141.054688 219.609375 141.355469 219.675781 141.730469 L 218.699219 141.867188 C 218.660156 141.570312 218.527344 141.335938 218.308594 141.164062 C 218.097656 140.996094 217.804688 140.910156 217.429688 140.910156 C 216.972656 140.910156 216.648438 140.988281 216.453125 141.144531 C 216.257812 141.289062 216.160156 141.464844 216.160156 141.671875 C 216.160156 141.804688 216.199219 141.914062 216.277344 142.003906 C 216.355469 142.121094 216.484375 142.214844 216.667969 142.277344 C 216.757812 142.316406 217.042969 142.402344 217.527344 142.53125 C 218.230469 142.714844 218.71875 142.863281 218.992188 142.980469 C 219.277344 143.097656 219.5 143.273438 219.65625 143.507812 C 219.8125 143.730469 219.890625 144.011719 219.890625 144.347656 C 219.890625 144.6875 219.792969 145 219.597656 145.285156 C 219.402344 145.574219 219.121094 145.800781 218.757812 145.96875 C 218.40625 146.125 217.996094 146.203125 217.527344 146.203125 C 216.769531 146.203125 216.191406 146.046875 215.789062 145.734375 C 215.398438 145.410156 215.148438 144.941406 215.046875 144.328125 Z M 215.046875 144.328125 "/>
<path style=" stroke:none;fill-rule:nonzero;fill:rgb(0%,0%,0%);fill-opacity:1;" d="M 222.957031 148.429688 C 222.410156 147.734375 221.945312 146.933594 221.570312 146.027344 C 221.191406 145.105469 221.003906 144.148438 221.003906 143.15625 C 221.003906 142.285156 221.144531 141.445312 221.433594 140.636719 C 221.757812 139.714844 222.265625 138.796875 222.957031 137.882812 L 223.660156 137.882812 C 223.214844 138.640625 222.921875 139.179688 222.78125 139.503906 C 222.558594 140.011719 222.382812 140.539062 222.253906 141.085938 C 222.097656 141.777344 222.019531 142.46875 222.019531 143.15625 C 222.019531 144.914062 222.566406 146.671875 223.660156 148.429688 Z M 222.957031 148.429688 "/>
<path style=" stroke:none;fill-rule:nonzero;fill:rgb(0%,0%,0%);fill-opacity:1;" d="M 228.265625 146.066406 L 227.269531 146.066406 L 227.269531 139.757812 C 227.035156 139.992188 226.722656 140.226562 226.332031 140.460938 C 225.941406 140.683594 225.59375 140.847656 225.296875 140.949219 L 225.296875 139.992188 C 225.84375 139.746094 226.324219 139.441406 226.742188 139.074219 C 227.15625 138.699219 227.449219 138.332031 227.621094 137.980469 L 228.265625 137.980469 Z M 228.265625 146.066406 "/>
<path style=" stroke:none;fill-rule:nonzero;fill:rgb(0%,0%,0%);fill-opacity:1;" d="M 231.320312 146.066406 L 231.320312 144.933594 L 232.453125 144.933594 L 232.453125 146.066406 C 232.453125 146.480469 232.375 146.8125 232.21875 147.0625 C 232.070312 147.320312 231.847656 147.519531 231.535156 147.667969 L 231.261719 147.238281 C 231.464844 147.144531 231.617188 147.007812 231.710938 146.828125 C 231.8125 146.65625 231.871094 146.402344 231.886719 146.066406 Z M 231.320312 146.066406 "/>
<path style=" stroke:none;fill-rule:nonzero;fill:rgb(0%,0%,0%);fill-opacity:1;" d="M 242.238281 145.109375 L 242.238281 146.066406 L 236.90625 146.066406 C 236.90625 145.832031 236.945312 145.605469 237.023438 145.382812 C 237.164062 145.019531 237.386719 144.660156 237.6875 144.308594 C 237.984375 143.957031 238.414062 143.554688 238.976562 143.097656 C 239.847656 142.371094 240.433594 141.796875 240.734375 141.378906 C 241.046875 140.964844 241.203125 140.566406 241.203125 140.1875 C 241.203125 139.796875 241.058594 139.472656 240.773438 139.210938 C 240.5 138.9375 240.140625 138.800781 239.699219 138.800781 C 239.214844 138.800781 238.832031 138.945312 238.546875 139.230469 C 238.257812 139.519531 238.117188 139.914062 238.117188 140.421875 L 237.101562 140.304688 C 237.164062 139.550781 237.425781 138.976562 237.882812 138.585938 C 238.335938 138.183594 238.949219 137.980469 239.71875 137.980469 C 240.484375 137.980469 241.089844 138.195312 241.535156 138.625 C 241.988281 139.054688 242.21875 139.582031 242.21875 140.207031 C 242.21875 140.535156 242.152344 140.851562 242.023438 141.164062 C 241.890625 141.476562 241.671875 141.808594 241.359375 142.160156 C 241.058594 142.5 240.558594 142.96875 239.855469 143.566406 C 239.253906 144.0625 238.871094 144.402344 238.703125 144.582031 C 238.53125 144.765625 238.394531 144.941406 238.292969 145.109375 Z M 242.238281 145.109375 "/>
<path style=" stroke:none;fill-rule:nonzero;fill:rgb(0%,0%,0%);fill-opacity:1;" d="M 244.21875 148.429688 L 243.515625 148.429688 C 244.609375 146.671875 245.15625 144.914062 245.15625 143.15625 C 245.15625 142.46875 245.078125 141.785156 244.921875 141.105469 C 244.789062 140.558594 244.613281 140.03125 244.394531 139.523438 C 244.246094 139.199219 243.953125 138.652344 243.515625 137.882812 L 244.21875 137.882812 C 244.90625 138.796875 245.414062 139.714844 245.742188 140.636719 C 246.023438 141.445312 246.171875 142.285156 246.171875 143.15625 C 246.171875 144.148438 245.980469 145.105469 245.605469 146.027344 C 245.222656 146.933594 244.765625 147.734375 244.21875 148.429688 Z M 244.21875 148.429688 "/>
</g>
</svg>
